<?xml version="1.0" encoding="UTF-8"?>
<svg width="60px" height="59px" viewBox="0 0 60 59" version="1.1" xmlns="http://www.w3.org/2000/svg" xmlns:xlink="http://www.w3.org/1999/xlink">
    <title>Access Light</title>
    <g id="Iconography-(Product-Icons)-2.2.0?" stroke="none" stroke-width="1" fill="none" fill-rule="evenodd">
        <g id="Product-Icons-UPDATED" transform="translate(-725.000000, -73.000000)" fill-rule="nonzero">
            <g id="Access-Light" transform="translate(725.000000, 73.000000)">
                <path d="M32.4600059,16.24 C32.4670846,7.85333654 26.0832839,0.842467547 17.732639,0.0659990809 C9.38199402,-0.710469385 1.81502551,5.00321449 0.275722315,13.2474076 C-1.26358088,21.4916007 3.7317942,29.5508453 11.8,31.84 L11.8,35.42 L8.8,38.37 L11.8,41.37 L11.8,44.37 L8.8,47.32 L11.8,50.32 L11.8,54.6 L16.23,59 L20.66,54.57 L20.66,31.84 C27.6369794,29.8604595 32.4538721,23.4923641 32.4600059,16.24 Z" id="Path" fill="#6BBF4E"></path>
                <path d="M59,51.16 L52.76,51.16 C52.5073651,51.1591275 52.2644231,51.0626652 52.08,50.89 L49.23,48.21 L45.74,48.21 C45.1877153,48.21 44.74,47.7622847 44.74,47.21 L44.74,43.21 L43.83,42.21 L39.83,42.21 C39.2777153,42.21 38.83,41.7622847 38.83,41.21 L38.83,37.21 L36.5,35.14 C32.5405165,37.1371174 27.9645121,37.5345638 23.72,36.25 C23.3196488,36.2075185 22.9838146,35.9290964 22.8678785,35.543552 C22.7519424,35.1580075 22.8785163,34.7405358 23.1890378,34.4842897 C23.4995593,34.2280435 23.9334656,34.1830002 24.29,34.37 C28.2569636,35.5660274 32.5392164,35.1042512 36.16,33.09 C36.5295367,32.8893361 36.9851287,32.9412896 37.3,33.22 L40.47,36.03 C40.6794794,36.2190592 40.799333,36.4878218 40.8,36.77 L40.8,40.21 L44.24,40.21 C44.5087063,40.2137358 44.7646007,40.3254643 44.95,40.52 L46.43,42.07 C46.6003371,42.2518906 46.6966246,42.4908263 46.7,42.74 L46.7,46.11 L49.6,46.11 C49.8526349,46.1108725 50.0955769,46.2073348 50.28,46.38 L53.13,49.06 L58,49.06 L58,44.33 L42.23,28.52 C41.92417,28.208843 41.8553684,27.7353266 42.06,27.35 C44.3363116,23.2582757 44.6081656,18.3480173 42.7974542,14.0300169 C40.9867428,9.71201661 37.2939237,6.46430531 32.78,5.22 C32.2598375,5.06522423 31.9580671,4.52381257 32.1,4 C32.2504976,3.48072702 32.7864593,3.17509596 33.31,3.31 C38.2823715,4.67834557 42.3796904,8.20326518 44.4753113,12.9155069 C46.5709321,17.6277486 46.4442137,23.0311755 44.13,27.64 L59.71,43.22 C59.8947442,43.4062606 59.9988954,43.6576601 60,43.92 L60,50.18 C59.9891087,50.7244587 59.5445676,51.16 59,51.16 Z" id="Path" fill="#06144D"></path>
                <path d="M14.15,22.37 C13.8897723,22.3730167 13.6399393,22.2680144 13.46,22.08 L7.78,16.41 C7.39885712,16.0211565 7.39885712,15.3988435 7.78,15.01 C8.16759662,14.6353463 8.78240338,14.6353463 9.17,15.01 L14.17,20.01 L23.35,10.84 C23.7471516,10.5682449 24.2815392,10.6179019 24.6218186,10.9581814 C24.9620981,11.2984608 25.0117551,11.8328484 24.74,12.23 L14.87,22.1 C14.675579,22.2823662 14.4163936,22.3795607 14.15,22.37 Z" id="Path" fill="#FFFFFF"></path>
            </g>
        </g>
    </g>
</svg>