<?xml version="1.0" encoding="UTF-8"?>
<svg width="62px" height="41px" viewBox="0 0 62 41" version="1.1" xmlns="http://www.w3.org/2000/svg" xmlns:xlink="http://www.w3.org/1999/xlink">
    <title>Cisco Umbrella - Light</title>
    <g id="Iconography-(Product-Icons)-2.2.0?" stroke="none" stroke-width="1" fill="none" fill-rule="evenodd">
        <g id="Product-Icons-UPDATED" transform="translate(-719.000000, -1031.000000)">
            <g id="Cisco-Umbrella---Light" transform="translate(719.000000, 1031.000000)">
                <path d="M61,18.3 C61.0286468,18.0270031 60.9325342,17.7556616 60.7384363,17.5615637 C60.5443384,17.3674658 60.2729969,17.2713532 60,17.3 C57.1346645,17.160694 54.3380694,16.3743654 51.82,15 C51.0388992,14.4099785 49.9611008,14.4099785 49.18,15 C46.6636013,16.3813388 43.8669144,17.1745312 41,17.32 C40.7270031,17.2913532 40.4556616,17.3874658 40.2615637,17.5815637 C40.0674658,17.7756616 39.9713532,18.0470031 40,18.32 C40,20 40,28.54 40,30 C40,31.46 40.66,36.22 50.28,39.92 C50.4223492,39.970328 50.5776508,39.970328 50.72,39.92 C60.34,36.17 61,31.36 61,30 C61,28.76 61,20 61,18.3 Z" id="Path" stroke="#6DBE4F" stroke-width="1.5"></path>
                <path d="M13,40.78 C12.4,40.78 7.37,40.68 4,37.34 C1.93356373,35.204936 0.846973635,32.3073624 1,29.34 C1.01511672,26.11438 2.39721782,23.0464295 4.80315269,20.8978649 C7.20908756,18.7493002 10.413212,17.7216278 13.62,18.07 C14.5873918,9.48043103 20.8755306,2.43924147 29.3014828,0.510544614 C37.727435,-1.41815224 46.452412,2.18654153 51.06,9.5 C51.2511371,9.80188942 51.266699,10.1828172 51.1008236,10.4992915 C50.9349482,10.8157658 50.6128361,11.0197066 50.2558236,11.0342915 C49.8988111,11.0488763 49.5611371,10.8718894 49.37,10.57 C45.1203567,3.81680467 36.9937863,0.58376844 29.2664549,2.57210096 C21.5391236,4.56043349 15.9823159,11.3143626 15.52,19.28 C15.5027521,19.569692 15.3605078,19.8376031 15.1301993,20.014173 C14.8998907,20.1907429 14.6042365,20.258554 14.32,20.2 C11.5513229,19.618517 8.66804592,20.3163215 6.47164507,22.099442 C4.27524422,23.8825625 2.99985411,26.5609197 3,29.39 C2.87377159,31.7991054 3.74548843,34.153826 5.41,35.9 C8.34,38.8 13.02,38.77 13.07,38.78 L40.92,38.78 C41.4722847,38.78 41.92,39.2277153 41.92,39.78 C41.92,40.3322847 41.4722847,40.78 40.92,40.78 L13,40.78 Z" id="Path" fill="#06144D" fill-rule="nonzero"></path>
            </g>
        </g>
    </g>
</svg>