<svg xmlns="http://www.w3.org/2000/svg" width="47" height="54" viewBox="0 0 47 54">
  <g fill="none" transform="translate(0 .05)">
    <path fill="#15294C" d="M23.18,53.8986633 C23.0467757,53.8997385 22.9145083,53.8759982 22.79,53.8285883 L0.79,44.5585883 C0.420495052,44.4020891 0.18,44.0398685 0.18,43.6385883 L0.18,27.7285883 C0.18,27.1763035 0.62771525,26.7285883 1.18,26.7285883 C1.73228475,26.7285883 2.18,27.1763035 2.18,27.7285883 L2.18,42.9685883 L23.18,51.8185883 L44.18,42.9685883 L44.18,28.2985883 C44.18,27.7463035 44.6277153,27.2985883 45.18,27.2985883 C45.7322847,27.2985883 46.18,27.7463035 46.18,28.2985883 L46.18,43.6385883 C46.1779849,44.0422902 45.9334255,44.4051847 45.56,44.5585883 L23.56,53.8285883 C23.4390887,53.876404 23.3100129,53.9001811 23.18,53.8986633 L23.18,53.8986633 Z"/>
    <path fill="#15294C" d="M32.81,15.1285883 C32.7401734,14.9383441 32.5902442,14.7884149 32.4,14.7185883 C32.2149631,14.6384888 32.0050369,14.6384888 31.82,14.7185883 L5.68,25.4985883 C5.39230555,25.614424 5.20385736,25.8934496 5.20385736,26.2035883 C5.20385736,26.513727 5.39230555,26.7927525 5.68,26.9085883 L15.68,30.7885883 C15.7664985,30.8204997 15.8578103,30.8374093 15.95,30.8385883 C16.2654173,30.8384129 16.5479439,30.6434298 16.66,30.3485883 C16.7345525,30.1624421 16.7345525,29.9547344 16.66,29.7685883 C16.5705413,29.5906439 16.4220941,29.4492656 16.24,29.3685883 L8.03,26.1785883 L32.4,16.1185883 C32.5870293,16.0433548 32.7358971,15.8959961 32.8130322,15.709743 C32.8901673,15.52349 32.8890744,15.3140263 32.81,15.1285883 L32.81,15.1285883 Z"/>
    <polygon fill="#73BA49" points="37.02 13.389 18.12 30.939 31.63 38.369"/>
    <polygon fill="#63B72F" points="18.12 41.749 22.38 34.449 18.12 32.099"/>
    <path fill="#74BA49" d="M1.25 22.2985883C.922059038 22.3039318.605565941 22.1780779.37084635 21.9489916.13612676 21.7199053.00262300861 21.4065623 0 21.0785883L0 21.0785883C0 20.3882323.559644063 19.8285883 1.25 19.8285883 1.94035594 19.8285883 2.5 20.3882323 2.5 21.0785883 2.47351479 21.7527145 1.9245706 22.288484 1.25 22.2985883L1.25 22.2985883zM45.28 22.2985883C44.952059 22.3039318 44.6355659 22.1780779 44.4008464 21.9489916 44.1661268 21.7199053 44.032623 21.4065623 44.03 21.0785883L44.03 21.0785883C44.03 20.3882323 44.5896441 19.8285883 45.28 19.8285883 45.9703559 19.8285883 46.53 20.3882323 46.53 21.0785883 46.5035148 21.7527145 45.9545706 22.288484 45.28 22.2985883L45.28 22.2985883zM1.94 17.3785883C1.82163704 17.3774533 1.70394623 17.3606403 1.59 17.3285883 1.27020171 17.238117 1.00010654 17.0230563.840302205 16.7316484.680497872 16.4402404.644361789 16.0968795.74 15.7785883L.74 15.6785883C.927776829 15.0130852 1.61949688 14.6258115 2.28499999 14.8135883 2.9505031 15.0013651 3.33777679 15.6930852 3.15 16.3585883L3.18 16.4985883C3.01310558 17.0384936 2.50473324 17.399274 1.94 17.3785883L1.94 17.3785883zM44.54 17.3785883C43.9774107 17.3737894 43.4850295 16.9994169 43.33 16.4585883 43.2268829 16.1310515 43.2586097 15.7759189 43.4181532 15.4718477 43.5776968 15.1677765 43.8518891 14.9398634 44.18 14.8385883 44.4902821 14.7384661 44.8277306 14.7667048 45.1170567 14.9170041 45.4063828 15.0673033 45.6235119 15.3271569 45.72 15.6385883L45.72 15.7585883C45.811859 16.0782454 45.7714539 16.4214046 45.6078606 16.7109835 45.4442673 17.0005625 45.1712012 17.2122834 44.85 17.2985883 44.7491558 17.328116 44.645014 17.3449131 44.54 17.3485883L44.54 17.3785883zM3.95 12.7785883C3.72113762 12.7777772 3.49667841 12.7156193 3.3 12.5985883 2.71289334 12.2368012 2.52571238 11.4702506 2.88 10.8785883L2.94 10.7885883C3.16292114 10.3907349 3.58482327 10.1458598 4.04085703 10.1496427 4.49689079 10.1534256 4.91467259 10.405266 5.130963 10.8067626 5.3472534 11.2082593 5.32772189 11.6956849 5.08 12.0785883L5.02 12.1785883C4.78289538 12.5375513 4.38018706 12.7520782 3.95 12.7485883L3.95 12.7785883zM42.51 12.7785883C42.0709568 12.7772764 41.6647892 12.5457229 41.44 12.1685883 41.0666425 11.5784765 41.2306334 10.7984114 41.81 10.4085883 42.3820875 10.0383317 43.1457528 10.1991034 43.52 10.7685883L43.59 10.8885883C43.9071473 11.4641727 43.7286556 12.1868467 43.18 12.5485883 42.9755527 12.6633145 42.7444129 12.7219619 42.51 12.7185883L42.51 12.7785883zM7.1 8.78858827C6.75831109 8.78743934 6.43103579 8.65077492 6.19 8.40858827 5.70582607 7.91792064 5.70582607 7.1292559 6.19 6.63858827L6.19 6.58858827C6.50260739 6.26883557 6.96205457 6.14014594 7.39527223 6.25099553 7.82848989 6.36184512 8.16966196 6.69539324 8.29027223 7.12599553 8.4108825 7.55659783 8.29260739 8.01883557 7.98 8.33858827L7.87 8.43858827C7.66228478 8.64189182 7.38975378 8.76576955 7.1 8.78858827L7.1 8.78858827zM39.36 8.78858827C39.0339483 8.7876368 38.7213911 8.65830281 38.49 8.42858827 37.9793125 7.94970186 37.9438098 7.15089146 38.41 6.62858827 38.6184965 6.36279444 38.9293673 6.19719192 39.2662721 6.1724475 39.603177 6.14770307 39.9349071 6.26610892 40.18 6.49858827L40.28 6.58858827C40.6487247 6.94393257 40.763423 7.48823195 40.5694463 7.96215232 40.3754696 8.43607269 39.9120555 8.74374935 39.4 8.73858827L39.36 8.78858827zM11.1 5.69858827C10.5350626 5.69887549 10.0401518 5.32020921 9.8926955 4.77485515 9.74523925 4.22950109 9.98189391 3.65302956 10.47 3.36858827L10.53 3.36858827C11.1181833 3.00408033 11.8904921 3.18540501 12.255 3.77358827 12.6195079 4.36177153 12.4381833 5.13408033 11.85 5.49858827L11.73 5.57858827C11.533058 5.66977038 11.3166717 5.71098681 11.1 5.69858827L11.1 5.69858827zM35.35 5.69858994C35.1195855 5.69897239 34.8939321 5.63301216 34.7 5.50858827 34.3967947 5.34763866 34.1709442 5.07164612 34.0731675 4.74258994 33.9753908 4.41353375 34.013883 4.05899365 34.18 3.75858827 34.3378234 3.47344296 34.6031755 3.26329815 34.9168959 3.17500558 35.2306163 3.086713 35.5666218 3.12761348 35.85 3.28858827L35.97 3.36858827C36.252518 3.54225005 36.454449 3.82105936 36.5313446 4.14364567 36.6082401 4.46623197 36.5537974 4.80615362 36.38 5.08858827 36.156611 5.44478889 35.7702682 5.66609206 35.35 5.67858827L35.35 5.69858994zM15.69 3.58861077C15.0729945 3.59226394 14.5456066 3.14518401 14.4482212 2.53590127 14.3508358 1.92661854 14.7125893 1.33742174 15.3 1.14858827L15.4 1.14858827C16.0133833 1.03571113 16.616119 1.3922468 16.812589 1.98417575 17.009059 2.57610469 16.7391405 3.22228728 16.18 3.49858827L16.07 3.49858827C15.9495811 3.55060973 15.8209597 3.58107269 15.69 3.58861077L15.69 3.58861077zM30.75 3.58858827C30.6275416 3.58822712 30.5059561 3.56796288 30.39 3.52858827L30.25 3.52858827C29.8104143 3.40037577 29.4761151 3.04207034 29.3786464 2.59466236 29.2811778 2.14725439 29.4361419 1.68236204 29.7825616 1.38291684 30.1289813 1.08347165 30.6114039.997406846 31.04 1.15858827L31.12 1.15858827C31.7211307 1.33360206 32.1000585 1.92634701 32.0065663 2.54541665 31.9130742 3.16448629 31.3760046 3.61889696 30.75 3.60858827L30.75 3.58858827zM20.64 2.49858827C19.9850235 2.48511597 19.4515624 1.96824892 19.4174061 1.3140249 19.3832498.65980088 19.8599873.090192529 20.51.00858826895L20.62.00858826895C20.9497636-.030574765 21.2813512.0652656145 21.5393717.274318693 21.7973922.483371771 21.9599192.787872533 21.99 1.11858827 22.0264323 1.44890287 21.9298343 1.78012882 21.7215514 2.03907523 21.5132684 2.29802164 21.2104464 2.46337178 20.88 2.49858827L20.64 2.49858827 20.64 2.49858827zM25.81 2.49858827L25.56 2.49858827C24.8724055 2.42402982 24.3754416 1.80618278 24.45 1.11858827 24.5245585.430993765 25.1424055-.0659701612 25.83.00858826895L25.91.00858826895C26.6003559.0362025206 27.1376142.618232341 27.11 1.30858827 27.0823857 1.99894419 26.5003559 2.53620249 25.81 2.50858827L25.81 2.49858827z"/>
  </g>
</svg>
