<?xml version="1.0" encoding="UTF-8"?>
<svg width="54px" height="60px" viewBox="0 0 54 60" version="1.1" xmlns="http://www.w3.org/2000/svg" xmlns:xlink="http://www.w3.org/1999/xlink">
    <title>ISE Light</title>
    <g id="Iconography-(Product-Icons)-2.2.0?" stroke="none" stroke-width="1" fill="none" fill-rule="evenodd">
        <g id="Product-Icons-UPDATED" transform="translate(-724.000000, -706.000000)" fill-rule="nonzero">
            <g id="ISE-Light" transform="translate(724.000000, 706.000000)">
                <path d="M27.47,60.0000305 C15.9128499,60.0174585 5.68359259,52.5266538 2.21148041,41.5033847 C-1.26063178,30.4801156 2.82909148,18.4791148 12.31,11.87 C12.7566349,11.5673186 13.3628536,11.6735175 13.68,12.11 C13.9826814,12.5566349 13.8764825,13.1628536 13.44,13.48 C4.70958205,19.5760311 0.916247691,30.6131552 4.0544484,40.7882959 C7.1926491,50.9634367 16.5437628,57.9465709 27.1911804,58.0661209 C37.838598,58.1856708 47.3441487,51.4142605 50.7100238,41.312148 C54.0758989,31.2100354 50.5313409,20.090521 41.94,13.8 C41.6060862,13.4499873 41.5705863,12.9111443 41.8556945,12.5203495 C42.1408027,12.1295546 42.6647624,11.9988708 43.1,12.21 C52.330721,18.9695871 56.1689863,30.8977958 52.6124947,41.7720589 C49.0560032,52.6463219 38.9110763,60.0012456 27.47,60.0000305 Z" id="Path" fill="#06144D"></path>
                <path d="M14.92,32 L27.47,24.37 L40.19,32 C40.6942533,32.3055793 41.3389993,32.245645 41.7782872,31.8523559 C42.217575,31.4590667 42.3481705,30.8248472 42.1,30.29 L28.69,0.79 C28.4689784,0.312770578 27.9909263,0.0073402859 27.465,0.0073402859 C26.9390737,0.0073402859 26.4610216,0.312770578 26.24,0.79 L13,30.3 C12.7539984,30.8364207 12.8878884,31.4706311 13.3297247,31.8618403 C13.771561,32.2530495 14.4173179,32.3091515 14.92,32 Z" id="Path" fill="#6BBF4E"></path>
            </g>
        </g>
    </g>
</svg>