<?xml version="1.0" encoding="UTF-8"?>
<svg width="59px" height="61px" viewBox="0 0 59 61" version="1.1" xmlns="http://www.w3.org/2000/svg" xmlns:xlink="http://www.w3.org/1999/xlink">
    <title>Workload Light</title>
    <g id="Iconography-(Product-Icons)-2.2.0?" stroke="none" stroke-width="1" fill="none" fill-rule="evenodd">
        <g id="Product-Icons-UPDATED" transform="translate(-723.000000, -1183.000000)" fill-rule="nonzero">
            <g id="Workload-Light" transform="translate(723.000000, 1183.000000)">
                <path d="M56.63,20.4 C56.2480245,20.387648 55.9064921,20.1586661 55.75,19.81 C52.4192582,12.1659119 45.8646502,6.39663295 37.8596123,4.06311804 C29.8545744,1.72960313 21.2265626,3.07306053 14.31,7.73 C13.8789513,7.88374402 13.3985402,7.7252539 13.1435952,7.34519701 C12.8886502,6.96514012 12.924238,6.46051405 13.23,6.12 C20.6160909,1.13304572 29.8370575,-0.311868617 38.3945606,2.17674372 C46.9520638,4.66535606 53.9601352,10.8298461 57.52,19 C57.7130467,19.48895 57.4945665,20.0438898 57.02,20.27 C56.9014697,20.3421953 56.7681414,20.386638 56.63,20.4 Z" id="Path" fill="#06144D"></path>
                <path d="M2.45,41.14 C2.03632341,41.1315173 1.67059265,40.8691452 1.53,40.48 C-1.64084452,30.9216922 0.183566842,20.4106803 6.39,12.48 C6.75238272,12.193218 7.26407469,12.1921027 7.62770414,12.4773022 C7.99133358,12.7625018 8.11217461,13.2597214 7.92,13.68 C4.02171144,18.6089536 1.91320967,24.7158517 1.94,31 C1.93721394,34.0134792 2.41660653,37.0079949 3.36,39.87 C3.50859932,40.3737565 3.24216477,40.9066256 2.75,41.09 C2.65418239,41.1259403 2.55229459,41.1429216 2.45,41.14 Z" id="Path" fill="#06144D"></path>
                <path d="M30,61.0001638 C29.5551106,60.8885002 29.2431049,60.4886489 29.2431049,60.03 C29.2431049,59.5713511 29.5551106,59.1714998 30,59.06 C41.5247492,59.1008785 51.8912225,52.058826 56.1,41.33 C56.3111471,40.845154 56.8632859,40.6085231 57.36,40.79 C57.8197274,40.9991011 58.0513795,41.5181735 57.9,42 C53.4199131,53.490315 42.3327556,61.040709 30,61.0001638 Z" id="Path" fill="#06144D"></path>
                <path d="M30,54.89 C16.8127699,54.8734712 6.12652882,44.1872301 6.11,31 C6.22149979,30.5551106 6.62135113,30.2431049 7.08,30.2431049 C7.53864887,30.2431049 7.93850021,30.5551106 8.05,31 C8.25891835,42.1385112 16.7609825,51.3627754 27.8455825,52.4771003 C38.9301825,53.5914251 49.0981792,46.2440453 51.52,35.37 C51.4900184,34.9487918 51.7278489,34.5541479 52.1142769,34.3838874 C52.500705,34.2136268 52.952433,34.3044504 53.2430282,34.6108321 C53.5336233,34.9172137 53.6004457,35.3731105 53.41,35.75 C51.1333207,46.8744555 41.3550141,54.8691923 30,54.89 Z" id="Path" fill="#06144D"></path>
                <path d="M52.45,27.35 C51.9987732,27.334956 51.6135891,27.0194329 51.51,26.58 C49.3937269,16.3815461 40.4157024,9.06472741 30,9.05 C29.5960575,9.15123754 29.1716595,8.99154699 28.9346513,8.64913539 C28.697643,8.3067238 28.697643,7.8532762 28.9346513,7.51086461 C29.1716595,7.16845301 29.5960575,7.00876246 30,7.11 C41.3246883,7.15262027 51.0785027,15.1057305 53.4,26.19 C53.4883868,26.7080392 53.160712,27.2061048 52.65,27.33 L52.45,27.35 Z" id="Path" fill="#06144D"></path>
                <circle id="Oval" fill="#6BBF4E" cx="30" cy="31" r="10.7"></circle>
                <circle id="Oval" fill="#6BBF4E" cx="52.92" cy="31" r="5.55"></circle>
                <path d="M10.14,4.06 C7.07481964,4.06 4.59,6.54481964 4.59,9.61 C4.59,12.6751804 7.07481964,15.16 10.14,15.16 C13.2051804,15.16 15.69,12.6751804 15.69,9.61 C15.6844961,6.54710231 13.2028977,4.06550387 10.14,4.06 Z" id="Path" fill="#6BBF4E"></path>
            </g>
        </g>
    </g>
</svg>