<?xml version="1.0" encoding="UTF-8"?>
<svg width="15px" height="16px" viewBox="0 0 15 16" version="1.1" xmlns="http://www.w3.org/2000/svg" xmlns:xlink="http://www.w3.org/1999/xlink">
    <!-- Generator: Sketch 49.3 (51167) - http://www.bohemiancoding.com/sketch -->
    <title>icon-alert</title>
    <desc>Created with Sketch.</desc>
    <defs></defs>
    <g id="SBG-Icon-Library" stroke="none" stroke-width="1" fill="none" fill-rule="evenodd">
        <g id="Alerts/Notifications" transform="translate(-294.000000, -236.000000)" fill="#58585B">
            <g id="Alert" transform="translate(0.000000, 210.000000)">
                <g id="alert" transform="translate(294.000000, 26.000000)">
                    <path d="M7.04,13.44 C6.33472,13.44 5.7632,14.01152 5.7632,14.7168 C5.7632,15.42208 6.33472,15.9936 7.04,15.9936 C7.74528,15.9936 8.3168,15.42208 8.3168,14.7168 C8.3168,14.01152 7.74528,13.44 7.04,13.44" id="Fill-4"></path>
                    <path d="M13.527168,9.859392 C13.430528,9.703232 13.309568,9.449152 13.204608,9.308992 L11.674368,7.269312 C11.569408,7.129152 11.448448,6.875072 11.406208,6.704832 C11.406208,6.704832 10.784128,4.382272 10.782208,4.379072 C10.435968,2.259392 9.243008,0.640192 7.025408,0.640192 C4.788608,0.640192 3.574528,2.288192 3.252608,4.435392 C3.250048,4.439872 2.636928,6.704832 2.636928,6.704832 C2.594688,6.875072 2.473728,7.129152 2.368768,7.269312 L0.839168,9.308992 C0.733568,9.449152 0.612608,9.703232 0.570368,9.872832 L0.000128,12.117952 L14.080128,12.117952 L13.527168,9.859392 Z" id="Fill-1"></path>
                </g>
            </g>
        </g>
    </g>
</svg>