<svg xmlns="http://www.w3.org/2000/svg" width="16" height="16" viewBox="0 0 16 16">
  <path fill="#58585B" d="M0,8 C0,3.567 3.567,0 8,0 C12.434,0 16,3.567 16,8 C16,12.434 12.434,16 8,16 C3.567,16 0,12.434 0,8 Z M8.73888092,7.14408702 L3.95695839,7.14408702 C3.43041607,7.14408702 3,7.52828139 3,7.99985108 C3,8.47142076 3.43041607,8.85690007 3.95695839,8.85690007 L8.73888092,8.85690007 L8.73888092,10.6982062 C8.73888092,10.9988801 8.9784792,11.0836855 9.21664275,10.9127897 L14,7.99985108 L9.21664275,5.08691245 C8.93113343,4.91601663 8.73888092,5.00210701 8.73888092,5.30149593 L8.73888092,7.14408702 Z"/>
</svg>
