<svg xmlns="http://www.w3.org/2000/svg" xmlns:xlink="http://www.w3.org/1999/xlink" width="18" height="15" viewBox="0 0 18 15">
  <defs>
    <path id="icon-asa-zone-a" d="M9.792,3.972 C9.271,3.972 8.848,3.549 8.848,3.028 C8.848,2.505 9.271,2.082 9.792,2.082 C10.314,2.082 10.737,2.505 10.737,3.028 C10.737,3.549 10.314,3.972 9.792,3.972 M6.722,3.972 C6.201,3.972 5.778,3.549 5.778,3.028 C5.778,2.505 6.201,2.082 6.722,2.082 C7.244,2.082 7.667,2.505 7.667,3.028 C7.667,3.549 7.244,3.972 6.722,3.972 M3.59,3.972 C3.068,3.972 2.646,3.549 2.646,3.028 C2.646,2.505 3.068,2.082 3.59,2.082 C4.111,2.082 4.535,2.505 4.535,3.028 C4.535,3.549 4.111,3.972 3.59,3.972 M15.996,0 L1.999,0 C1.447,0 1,0.448 1,0.999 L1,5.055 C1,5.607 1.447,6.054 1.999,6.054 L15.996,6.054 C16.547,6.054 16.995,5.607 16.995,5.055 L16.995,0.999 C16.995,0.448 16.547,0 15.996,0"/>
  </defs>
  <g fill="none" fill-rule="evenodd">
    <g fill="#58585B" transform="rotate(90 6 11.5)">
      <rect width="1" height="15" x="6" y="1"/>
      <rect width="5" height="1" y="8"/>
      <rect width="4" height="4" x="4.5" y="6.5" rx=".5"/>
      <rect width="4" height="4" x="4.5" y="13" rx=".5"/>
      <rect width="4" height="4" x="4.5" rx=".5"/>
    </g>
    <use fill="#58585B" xlink:href="#icon-asa-zone-a"/>
  </g>
</svg>
