<?xml version="1.0" encoding="UTF-8"?>
<svg width="16px" height="12px" viewBox="0 0 16 12" version="1.1" xmlns="http://www.w3.org/2000/svg" xmlns:xlink="http://www.w3.org/1999/xlink">
    <!-- Generator: Sketch 49.3 (51167) - http://www.bohemiancoding.com/sketch -->
    <title>icon-back</title>
    <desc>Created with Sketch.</desc>
    <defs></defs>
    <g id="SBG-Icon-Library" stroke="none" stroke-width="1" fill="none" fill-rule="evenodd">
        <g id="Actions" transform="translate(-292.000000, -455.000000)" fill="#58585B">
            <g id="Back" transform="translate(0.000000, 427.000000)">
                <g transform="translate(292.000000, 28.000000)" id="Fill-1">
                    <path d="M10.881856,2.544384 L5.119936,2.544384 L5.119936,0.274304 C5.119936,0.013184 4.945216,-0.077696 4.731456,0.072704 L-6.40000001e-05,3.201664 L4.731456,6.305664 C4.945216,6.456704 5.119936,6.365824 5.119936,6.104064 L5.119936,3.824384 L10.881856,3.824384 C12.646336,3.824384 14.081856,5.259904 14.081856,7.024384 C14.081856,8.788864 12.646336,10.224384 10.881856,10.224384 C10.527936,10.224384 10.241856,10.511104 10.241856,10.864384 C10.241856,11.217664 10.527936,11.504384 10.881856,11.504384 C13.351616,11.504384 15.361856,9.494784 15.361856,7.024384 C15.361856,4.553984 13.351616,2.544384 10.881856,2.544384"></path>
                </g>
            </g>
        </g>
    </g>
</svg>