<?xml version="1.0" encoding="UTF-8"?>
<svg width="16px" height="16px" viewBox="0 0 16 16" version="1.1" xmlns="http://www.w3.org/2000/svg" xmlns:xlink="http://www.w3.org/1999/xlink">
    <!-- Generator: Sketch 54.1 (76490) - https://sketchapp.com -->
    <title>bidirectional_tunnel</title>
    <desc>Created with Sketch.</desc>
    <defs>
        <path d="M3.71872529,4.83333333 L3.71872529,2.83228989 C3.71872529,2.28058142 4.16259011,1.83333333 4.71872529,1.83333333 C5.27101003,1.83333333 5.71872529,2.27599367 5.71872529,2.83228989 L5.71872529,4.83333333 L8.21828946,4.83333333 C8.48792847,4.83333333 8.58411964,5.01280752 8.41807517,5.23420016 L4.71872529,10.1666667 L1.0193754,5.23420016 C0.851812443,5.01078288 0.942778038,4.83333333 1.21916111,4.83333333 L3.71872529,4.83333333 Z" id="path-1"></path>
        <path d="M3.28127471,2.16666667 L3.28127471,0.165623228 C3.28127471,-0.386085247 3.72513954,-0.833333333 4.28127471,-0.833333333 C4.83355946,-0.833333333 5.28127471,-0.390673002 5.28127471,0.165623228 L5.28127471,2.16666667 L7.78083889,2.16666667 C8.0504779,2.16666667 8.14666907,2.34614086 7.9806246,2.56753349 L4.28127471,7.5 L0.581924835,2.56753349 C0.414361873,2.34411621 0.505327467,2.16666667 0.781710544,2.16666667 L3.28127471,2.16666667 Z" id="path-3"></path>
    </defs>
    <g id="Iconography" stroke="none" stroke-width="1" fill="none" fill-rule="evenodd">
        <g id="bidirectional_tunnel">
            <g id="Icon/Abstract/BidirectionalTunnel">
                <g id="arrowright" transform="translate(8.500000, 5.000000) rotate(-270.000000) translate(-8.500000, -5.000000) translate(4.000000, 0.000000)">
                    <g id="Icon-Fill/Default-Dark-Gray-2" transform="translate(4.500000, 5.000000) rotate(-180.000000) translate(-4.500000, -5.000000) translate(0.000000, -0.000000)">
                        <mask id="mask-2" fill="white">
                            <use xlink:href="#path-1"></use>
                        </mask>
                        <use id="Mask" fill="#58585B" xlink:href="#path-1"></use>
                    </g>
                </g>
                <g id="arrowleft" transform="translate(5.000000, 11.000000) rotate(-270.000000) translate(-5.000000, -11.000000) translate(0.500000, 6.500000)">
                    <g id="Icon-Fill/Default-Dark-Gray-2" transform="translate(0.000000, -0.000000)">
                        <mask id="mask-4" fill="white">
                            <use xlink:href="#path-3"></use>
                        </mask>
                        <use id="Mask" fill="#58585B" xlink:href="#path-3"></use>
                    </g>
                </g>
            </g>
        </g>
    </g>
</svg>