<svg xmlns="http://www.w3.org/2000/svg" width="15" height="17" viewBox="0 0 15 17">
  <path fill="#58585B" fill-rule="evenodd" d="M658,205.508 L650,205.508 C649.669,205.508 649.4,205.239 649.4,204.908 C649.4,204.577 649.669,204.309 650,204.309 L658,204.309 C658.331,204.309 658.6,204.577 658.6,204.908 C658.6,205.239 658.331,205.508 658,205.508 M650.196,197.781 L653.529,194.21 C653.79,193.931 654.211,193.931 654.472,194.21 L657.806,197.781 C658.065,198.06 658.065,198.512 657.806,198.791 C657.675,198.931 657.505,199 657.334,199 C657.163,199 656.992,198.93 656.862,198.791 L654.667,196.439 L654.667,202.286 C654.667,202.681 654.369,203 654,203 C653.632,203 653.334,202.681 653.334,202.286 L653.334,196.439 L651.139,198.791 C650.878,199.07 650.456,199.07 650.196,198.791 C649.936,198.512 649.936,198.06 650.196,197.781 M658,192 L650,192 C648.344,192 647,193.343 647,195 L647,205 C647,206.657 648.344,208 650,208 L658,208 C659.657,208 661,206.657 661,205 L661,195 C661,193.343 659.657,192 658,192" transform="translate(-647 -192)"/>
</svg>
