<?xml version="1.0" encoding="UTF-8"?>
<svg width="16px" height="15px" viewBox="0 0 16 15" version="1.1" xmlns="http://www.w3.org/2000/svg" xmlns:xlink="http://www.w3.org/1999/xlink">
    <!-- Generator: Sketch 49.3 (51167) - http://www.bohemiancoding.com/sketch -->
    <title>icon-change-log-state</title>
    <desc>Created with Sketch.</desc>
    <defs></defs>
    <g id="SBG-Icon-Library" stroke="none" stroke-width="1" fill="none" fill-rule="evenodd">
        <g id="Actions" transform="translate(-294.000000, -769.000000)" fill="#58585B">
            <g id="Change-log-state" transform="translate(0.000000, 743.000000)">
                <g id="icn_change_log_state" transform="translate(294.000000, 26.000000)">
                    <path d="M14.3177,6.5346 C14.0417,6.5346 13.8177,6.7586 13.8177,7.0346 C13.8177,10.3626 11.1107,13.0696 7.7827,13.0696 C6.2347,13.0696 4.7727,12.4736 3.6667,11.4396 C3.7377,11.2406 3.7827,11.0296 3.7827,10.8066 C3.7827,9.7626 2.9357,8.9146 1.8907,8.9146 C0.8467,8.9146 0.0007,9.7626 0.0007,10.8066 C0.0007,11.8506 0.8467,12.6986 1.8907,12.6986 C2.3437,12.6986 2.7547,12.5326 3.0807,12.2666 C4.3567,13.4146 6.0247,14.0696 7.7827,14.0696 C11.6617,14.0696 14.8177,10.9136 14.8177,7.0346 C14.8177,6.7586 14.5937,6.5346 14.3177,6.5346" id="Fill-1"></path>
                    <path d="M13.6742,1.2973 C13.2002,1.2973 12.7722,1.4783 12.4412,1.7663 C11.1682,0.6413 9.5202,0.0003 7.7822,0.0003 C3.9032,0.0003 0.7482,3.1553 0.7482,7.0343 C0.7482,7.3113 0.9722,7.5343 1.2482,7.5343 C1.5252,7.5343 1.7482,7.3113 1.7482,7.0343 C1.7482,3.7073 4.4552,1.0003 7.7822,1.0003 C9.3212,1.0003 10.7772,1.5893 11.8822,2.6123 C11.8222,2.7953 11.7822,2.9863 11.7822,3.1893 C11.7822,4.2333 12.6292,5.0803 13.6742,5.0803 C14.7192,5.0803 15.5662,4.2333 15.5662,3.1893 C15.5662,2.1443 14.7192,1.2973 13.6742,1.2973" id="Fill-4"></path>
                </g>
            </g>
        </g>
    </g>
</svg>