<?xml version="1.0" encoding="UTF-8"?>
<svg width="16px" height="13px" viewBox="0 0 16 13" version="1.1" xmlns="http://www.w3.org/2000/svg" xmlns:xlink="http://www.w3.org/1999/xlink">
    <!-- Generator: Sketch 49.3 (51167) - http://www.bohemiancoding.com/sketch -->
    <title>icon-change-request</title>
    <desc>Created with Sketch.</desc>
    <defs></defs>
    <g id="SBG-Icon-Library" stroke="none" stroke-width="1" fill="none" fill-rule="evenodd">
        <g id="Actions" transform="translate(-293.000000, -1015.000000)" fill="#58585B">
            <g id="Change-Request" transform="translate(0.000000, 987.000000)">
                <g id="icn_change_request" transform="translate(293.000000, 28.000000)">
                    <path d="M5.1826,7.96 C4.9876,7.765 4.6706,7.765 4.4756,7.96 L2.9856,9.45 L1.4946,7.96 C1.2996,7.765 0.9836,7.765 0.7876,7.96 C0.5926,8.155 0.5926,8.472 0.7876,8.667 L2.2786,10.157 L0.7876,11.648 C0.5926,11.843 0.5926,12.159 0.7876,12.355 C0.8856,12.452 1.0136,12.501 1.1416,12.501 C1.2696,12.501 1.3976,12.452 1.4946,12.355 L2.9856,10.864 L4.4756,12.355 C4.5736,12.452 4.7016,12.501 4.8286,12.501 C4.9566,12.501 5.0846,12.452 5.1826,12.355 C5.3776,12.159 5.3776,11.843 5.1826,11.648 L3.6926,10.157 L5.1826,8.667 C5.3776,8.472 5.3776,8.155 5.1826,7.96" id="Fill-10"></path>
                    <path d="M7.9854,2.6612 L14.9804,2.6612 C15.2564,2.6612 15.4804,2.4372 15.4804,2.1612 C15.4804,1.8852 15.2564,1.6612 14.9804,1.6612 L7.9854,1.6612 C7.7094,1.6612 7.4854,1.8852 7.4854,2.1612 C7.4854,2.4372 7.7094,2.6612 7.9854,2.6612" id="Fill-1"></path>
                    <path d="M14.9805,9.6573 L7.9855,9.6573 C7.7095,9.6573 7.4855,9.8813 7.4855,10.1573 C7.4855,10.4333 7.7095,10.6573 7.9855,10.6573 L14.9805,10.6573 C15.2565,10.6573 15.4805,10.4333 15.4805,10.1573 C15.4805,9.8813 15.2565,9.6573 14.9805,9.6573" id="Fill-4"></path>
                    <path d="M5.1162,0.1465 L2.1572,3.1065 L0.8532,1.8025 C0.6582,1.6075 0.3422,1.6075 0.1462,1.8025 C-0.0488,1.9985 -0.0488,2.3145 0.1462,2.5095 L2.1572,4.5205 L5.8232,0.8535 C6.0182,0.6585 6.0182,0.3415 5.8232,0.1465 C5.6282,-0.0485 5.3112,-0.0485 5.1162,0.1465" id="Fill-7"></path>
                </g>
            </g>
        </g>
    </g>
</svg>