<svg xmlns="http://www.w3.org/2000/svg" width="14" height="14" viewBox="0 0 14 14">
  <path fill="#58585B" fill-rule="evenodd" d="M3.0748,7.6488 C4.7718,7.6488 6.1478,9.0248 6.1478,10.7228 C6.1478,12.4208 4.7718,13.7968 3.0748,13.7968 C1.3768,13.7968 0.0008,12.4208 0.0008,10.7228 C0.0008,9.0248 1.3768,7.6488 3.0748,7.6488 Z M12.9476,7.8531 C13.4986,7.8531 13.9446,8.2991 13.9446,8.8501 L13.9446,12.5871 C13.9446,13.1381 13.4986,13.5841 12.9476,13.5841 L9.2106,13.5841 C8.6596,13.5841 8.2136,13.1381 8.2136,12.5871 L8.2136,8.8501 C8.2136,8.2991 8.6596,7.8531 9.2106,7.8531 L12.9476,7.8531 Z M6.6282,0.2638 C6.8172,-0.0882 7.3222,-0.0882 7.5122,0.2638 L7.5122,0.2638 L10.0362,4.9528 C10.2162,5.2868 9.9742,5.6918 9.5942,5.6918 L9.5942,5.6918 L4.5462,5.6918 C4.1662,5.6918 3.9242,5.2868 4.1042,4.9528 L4.1042,4.9528 Z"/>
</svg>
