<?xml version="1.0" encoding="UTF-8"?>
<svg width="16px" height="16px" viewBox="0 0 16 16" version="1.1" xmlns="http://www.w3.org/2000/svg" xmlns:xlink="http://www.w3.org/1999/xlink">
    <!-- Generator: Sketch 50.2 (55047) - http://www.bohemiancoding.com/sketch -->
    <title>icon-chart-curve</title>
    <desc>Created with Sketch.</desc>
    <defs></defs>
    <g id="SBG-Icon-Library" stroke="none" stroke-width="1" fill="none" fill-rule="evenodd">
        <g id="Content" transform="translate(-290.000000, -610.000000)" fill="#58585B" fill-rule="nonzero">
            <g id="Chart-Curve" transform="translate(0.000000, 576.000000)">
                <g id="icn_curve_chart" transform="translate(291.000000, 35.000000)">
                    <path d="M0.75,13.25 L14,13.25 C14.4142136,13.25 14.75,13.5857864 14.75,14 C14.75,14.4142136 14.4142136,14.75 14,14.75 L-0.75,14.75 L-0.75,0 C-0.75,-0.414213562 -0.414213562,-0.75 0,-0.75 C0.414213562,-0.75 0.75,-0.414213562 0.75,0 L0.75,13.25 Z" id="Stroke-1"></path>
                    <path d="M5.09183399,6.12460609 L3.71102003,10.2386431 C3.57922111,10.6313286 3.15404246,10.842819 2.76135694,10.71102 C2.36867142,10.5792211 2.15718104,10.1540425 2.28897997,9.76135694 L3.66984228,5.64717592 C4.17613812,4.13971599 6.06853883,3.65217795 7.24137973,4.72763405 L7.33170017,4.82671302 L8.16247771,5.92025389 C8.49576367,6.35965942 9.18502224,6.26131488 9.38183861,5.7467299 L11.2994743,0.732112536 C11.4474244,0.345222855 11.8809978,0.151524103 12.2678875,0.299474264 C12.6547771,0.447424425 12.8484759,0.880997783 12.7005257,1.26788746 L10.7828745,6.28254563 C10.1656256,7.8963698 8.01177279,8.20368504 6.96771843,6.82719928 L6.18521246,5.79719794 C5.81059835,5.50315529 5.2465061,5.66408088 5.09183399,6.12460609 Z" id="Stroke-3"></path>
                </g>
            </g>
        </g>
    </g>
</svg>