<svg xmlns="http://www.w3.org/2000/svg" width="55" height="29" viewBox="0 0 55 29">
  <g fill="#58585B">
    <g transform="translate(4.934 19.025)">
      <rect width="2.401" height="9.556" x="10.581" y=".242"/>
      <path d="M32.3684211 2.98020528C32.2697368 2.92521994 31.4912281 2.47434018 30.3508772 2.47434018 28.7938596 2.47434018 27.7192982 3.56304985 27.7192982 5.02565982 27.7192982 6.44428152 28.75 7.57697947 30.3508772 7.57697947 31.4802632 7.57697947 32.2697368 7.12609971 32.3684211 7.07111437L32.3684211 9.63343109C32.0614035 9.72140762 31.25 9.97434018 30.1754386 9.97434018 27.4671053 9.97434018 25.0986842 8.10483871 25.0986842 5.02565982 25.0986842 2.17741935 27.247807.0769794721 30.1754386.0769794721 31.3048246.0769794721 32.1381579.351906158 32.3684211.417888563L32.3684211 2.98020528zM7.28070175 2.98020528C7.18201754 2.92521994 6.41447368 2.47434018 5.26315789 2.47434018 3.70614035 2.47434018 2.63157895 3.56304985 2.63157895 5.02565982 2.63157895 6.44428152 3.6622807 7.57697947 5.26315789 7.57697947 6.39254386 7.57697947 7.18201754 7.12609971 7.28070175 7.07111437L7.28070175 9.63343109C6.98464912 9.72140762 6.1622807 9.97434018 5.0877193 9.97434018 2.39035088 9.97434018.0109649123 8.10483871.0109649123 5.02565982.0109649123 2.17741935 2.16008772.0769794721 5.0877193.0769794721 6.21710526.0769794721 7.0504386.351906158 7.28070175.417888563L7.28070175 2.98020528 7.28070175 2.98020528zM44.9671053 5.01466276C44.9671053 7.75293255 42.8618421 9.96334311 39.9342105 9.96334311 37.0065789 9.96334311 34.9013158 7.75293255 34.9013158 5.01466276 34.9013158 2.28739003 37.0065789.0659824047 39.9342105.0659824047 42.8618421.0769794721 44.9671053 2.28739003 44.9671053 5.01466276zM39.9342105 2.50733138C38.5087719 2.50733138 37.4451754 3.62903226 37.4451754 5.01466276 37.4451754 6.40029326 38.5087719 7.5329912 39.9342105 7.5329912 41.3596491 7.5329912 42.4232456 6.41129032 42.4232456 5.01466276 42.4232456 3.62903226 41.3596491 2.50733138 39.9342105 2.50733138zM22.1052632 2.41935484C22.0723684 2.40835777 21.0526316 2.12243402 20.2302632 2.12243402 19.2653509 2.12243402 18.7390351 2.44134897 18.7390351 2.90322581 18.7390351 3.48607038 19.4407895 3.6840176 19.8464912 3.8159824L20.504386 4.02492669C22.0614035 4.51979472 22.7741228 5.59750733 22.7741228 6.76319648 22.7741228 9.16055718 20.6688596 9.97434018 18.8267544 9.97434018 17.5438596 9.97434018 16.3486842 9.74340176 16.2280702 9.71041056L16.2280702 7.51099707C16.4364035 7.5659824 17.4451754 7.86290323 18.497807 7.86290323 19.6929825 7.86290323 20.2412281 7.51099707 20.2412281 6.97214076 20.2412281 6.48826979 19.7697368 6.21334311 19.1666667 6.01539589 19.0241228 5.97140762 18.8048246 5.89442815 18.6513158 5.85043988 17.3135965 5.42155425 16.1951754 4.64076246 16.1951754 3.05718475 16.1951754 1.27565982 17.5328947.0659824047 19.747807.0659824047 20.9210526.0659824047 22.0175439.351906158 22.0942982.373900293L22.0942982 2.41935484 22.1052632 2.41935484 22.1052632 2.41935484z"/>
    </g>
    <path d="M2.40131579 8.99560117C2.40131579 8.33577713 1.86403509 7.80791789 1.20614035 7.80791789.548245614 7.80791789.0109649123 8.33577713.0109649123 8.99560117L.0109649123 11.5029326C.0109649123 12.1627566.548245614 12.7016129 1.20614035 12.7016129 1.86403509 12.7016129 2.40131579 12.1627566 2.40131579 11.5029326L2.40131579 8.99560117zM8.95833333 5.70747801C8.95833333 5.04765396 8.42105263 4.50879765 7.76315789 4.50879765 7.10526316 4.50879765 6.56798246 5.04765396 6.56798246 5.70747801L6.56798246 11.5029326C6.56798246 12.1627566 7.10526316 12.7016129 7.76315789 12.7016129 8.42105263 12.7016129 8.95833333 12.1627566 8.95833333 11.5029326L8.95833333 5.70747801zM15.504386 1.19868035C15.504386.538856305 14.9671053.0109970674 14.3092105.0109970674 13.6513158.0109970674 13.1140351.549853372 13.1140351 1.19868035L13.1140351 13.8892962C13.1140351 14.5491202 13.6513158 15.0879765 14.3092105 15.0879765 14.9671053 15.0879765 15.504386 14.5491202 15.504386 13.8892962L15.504386 1.19868035zM22.0614035 5.70747801C22.0614035 5.04765396 21.5241228 4.50879765 20.8662281 4.50879765 20.2083333 4.50879765 19.6710526 5.04765396 19.6710526 5.70747801L19.6710526 11.5029326C19.6710526 12.1627566 20.2083333 12.7016129 20.8662281 12.7016129 21.5241228 12.7016129 22.0614035 12.1627566 22.0614035 11.5029326L22.0614035 5.70747801zM28.6184211 8.99560117C28.6184211 8.33577713 28.0811404 7.80791789 27.4342105 7.80791789 26.7763158 7.80791789 26.2390351 8.34677419 26.2390351 8.99560117L26.2390351 11.5029326C26.2390351 12.1627566 26.7763158 12.7016129 27.4342105 12.7016129 28.0921053 12.7016129 28.6184211 12.1627566 28.6184211 11.5029326L28.6184211 8.99560117zM35.1754386 5.70747801C35.1754386 5.04765396 34.6381579 4.50879765 33.9802632 4.50879765 33.3223684 4.50879765 32.7850877 5.04765396 32.7850877 5.70747801L32.7850877 11.5029326C32.7850877 12.1627566 33.3223684 12.7016129 33.9802632 12.7016129 34.6381579 12.7016129 35.1754386 12.1627566 35.1754386 11.5029326L35.1754386 5.70747801zM41.7324561 1.19868035C41.7324561.538856305 41.1951754.0109970674 40.5372807.0109970674 39.879386.0109970674 39.3421053.549853372 39.3421053 1.19868035L39.3421053 13.8892962C39.3421053 14.5491202 39.879386 15.0879765 40.5372807 15.0879765 41.1951754 15.0879765 41.7324561 14.5491202 41.7324561 13.8892962L41.7324561 1.19868035zM48.2894737 5.70747801C48.2894737 5.04765396 47.752193 4.50879765 47.0833333 4.50879765 46.4254386 4.50879765 45.8881579 5.04765396 45.8881579 5.70747801L45.8881579 11.5029326C45.8881579 12.1627566 46.4254386 12.7016129 47.0833333 12.7016129 47.752193 12.7016129 48.2894737 12.1627566 48.2894737 11.5029326L48.2894737 5.70747801zM54.8355263 8.99560117C54.8355263 8.33577713 54.2982456 7.80791789 53.6403509 7.80791789 52.9824561 7.80791789 52.4451754 8.34677419 52.4451754 8.99560117L52.4451754 11.5029326C52.4451754 12.1627566 52.9824561 12.7016129 53.6403509 12.7016129 54.2982456 12.7016129 54.8355263 12.1627566 54.8355263 11.5029326L54.8355263 8.99560117z"/>
  </g>
</svg>
