<?xml version="1.0" encoding="UTF-8"?>
<svg width="16px" height="16px" viewBox="0 0 16 16" version="1.1" xmlns="http://www.w3.org/2000/svg" xmlns:xlink="http://www.w3.org/1999/xlink">
    <!-- Generator: Sketch 49.3 (51167) - http://www.bohemiancoding.com/sketch -->
    <title>icon-clock</title>
    <desc>Created with Sketch.</desc>
    <defs></defs>
    <g id="SBG-Icon-Library" stroke="none" stroke-width="1" fill="none" fill-rule="evenodd">
        <g id="Content" transform="translate(-292.000000, -4132.000000)" fill="#58585B">
            <g id="Text-/-time-range" transform="translate(0.000000, 4105.000000)">
                <g id="icn_clock" transform="translate(292.000000, 27.000000)">
                    <path d="M8,0 C3.56666667,0 0,3.56666667 0,8 C0,12.4333333 3.56666667,16 8,16 C12.4333333,16 16,12.4333333 16,8 C16,3.56666667 12.4333333,0 8,0 L8,0 Z M8,14.6666667 C4.33333333,14.6666667 1.33333333,11.6666667 1.33333333,8 C1.33333333,4.33333333 4.33333333,1.33333333 8,1.33333333 C11.6666667,1.33333333 14.6666667,4.33333333 14.6666667,8 C14.6666667,11.6666667 11.6666667,14.6666667 8,14.6666667 L8,14.6666667 Z" id="Shape"></path>
                    <path d="M8.66666667,8.4 L8.66666667,4.66666667 C8.66666667,4.3 8.36666667,4 8,4 C7.63333333,4 7.33333333,4.3 7.33333333,4.66666667 L7.33333333,8.93333333 L9.2,10.8 C9.33333333,10.9333333 9.5,11 9.66666667,11 C9.83333333,11 10,10.9333333 10.1333333,10.8 C10.4,10.5333333 10.4,10.1333333 10.1333333,9.86666667 L8.66666667,8.4 L8.66666667,8.4 Z" id="Shape"></path>
                </g>
            </g>
        </g>
    </g>
</svg>