<svg xmlns="http://www.w3.org/2000/svg" width="17" height="16" viewBox="0 0 17 16">
  <path fill="#58585B" fill-rule="evenodd" d="M668.25,340.5 C668.664214,340.5 669,340.835786 669,341.25 C669,341.664214 668.664214,342 668.25,342 L658.75,342 C658.335786,342 658,341.664214 658,341.25 C658,340.835786 658.335786,340.5 658.75,340.5 L668.25,340.5 Z M655,334.71472 L656.941784,337.570285 C657.056007,337.713063 656.998896,337.855841 656.799006,337.855841 L656.799006,337.855841 L655.571113,337.855841 L655.571113,340.42585 C655.571113,340.739962 655.314112,340.996963 655,340.996963 C654.685888,340.996963 654.428887,340.739962 654.428887,340.42585 L654.428887,340.42585 L654.428887,337.855841 L653.200994,337.855841 C653.001104,337.855841 652.943993,337.741619 653.058216,337.570285 L653.058216,337.570285 L655,334.71472 Z M668.25,336.875 C668.664214,336.875 669,337.210786 669,337.625 C669,338.039214 668.664214,338.375 668.25,338.375 L658.75,338.375 C658.335786,338.375 658,338.039214 658,337.625 C658,337.210786 658.335786,336.875 658.75,336.875 L668.25,336.875 Z M668.25,333.25 C668.664214,333.25 669,333.585786 669,334 C669,334.414214 668.664214,334.75 668.25,334.75 L658.75,334.75 C658.335786,334.75 658,334.414214 658,334 C658,333.585786 658.335786,333.25 658.75,333.25 L668.25,333.25 Z M655,327 C655.314112,327 655.571113,327.257001 655.571113,327.571113 L655.571113,327.571113 L655.571113,330.141122 L656.799006,330.141122 C656.998896,330.141122 657.056007,330.255344 656.941784,330.426678 L656.941784,330.426678 L655,333.282244 L653.058216,330.426678 C652.943993,330.2839 653.001104,330.141122 653.200994,330.141122 L653.200994,330.141122 L654.428887,330.141122 L654.428887,327.571113 C654.428887,327.257001 654.685888,327 655,327 Z M668.25,329.625 C668.664214,329.625 669,329.960786 669,330.375 C669,330.789214 668.664214,331.125 668.25,331.125 L658.75,331.125 C658.335786,331.125 658,330.789214 658,330.375 C658,329.960786 658.335786,329.625 658.75,329.625 L668.25,329.625 Z M668.25,326 C668.664214,326 669,326.335786 669,326.75 C669,327.164214 668.664214,327.5 668.25,327.5 L658.75,327.5 C658.335786,327.5 658,327.164214 658,326.75 C658,326.335786 658.335786,326 658.75,326 L668.25,326 Z" transform="translate(-653 -326)"/>
</svg>
