<svg xmlns="http://www.w3.org/2000/svg" width="16" height="16" viewBox="0 0 16 16">
  <path fill="#58585B" fill-rule="evenodd" d="M14.9966,8.9937 C15.5082429,8.9937 15.9310745,9.37998571 15.9888686,9.87633083 L15.9956,9.9927 L15.9956,14.0487 C15.9956,14.5612714 15.6093143,14.9833071 15.1129692,15.0409828 L14.9966,15.0477 L0.9996,15.0477 C0.487028571,15.0477 0.0649928571,14.6622765 0.00731720117,14.1652539 L0.0006,14.0487 L0.0006,9.9927 C0.0006,9.48105714 0.386023469,9.05822551 0.883046064,9.00043141 L0.9996,8.9937 L14.9966,8.9937 Z M8.7926,11.0757 C8.2716,11.0757 7.8486,11.4987 7.8486,12.0217 C7.8486,12.5427 8.2716,12.9657 8.7926,12.9657 C9.3146,12.9657 9.7376,12.5427 9.7376,12.0217 C9.7376,11.4987 9.3146,11.0757 8.7926,11.0757 Z M5.7226,11.0757 C5.2016,11.0757 4.7786,11.4987 4.7786,12.0217 C4.7786,12.5427 5.2016,12.9657 5.7226,12.9657 C6.2446,12.9657 6.6676,12.5427 6.6676,12.0217 C6.6676,11.4987 6.2446,11.0757 5.7226,11.0757 Z M2.5906,11.0757 C2.0686,11.0757 1.6466,11.4987 1.6466,12.0217 C1.6466,12.5427 2.0686,12.9657 2.5906,12.9657 C3.1116,12.9657 3.5356,12.5427 3.5356,12.0217 C3.5356,11.4987 3.1116,11.0757 2.5906,11.0757 Z M8.0085,6.1024 C8.2845,6.1024 8.5085,6.3274 8.5085,6.6024 C8.5085,6.8784 8.2845,7.1024 8.0085,7.1024 C7.7325,7.1024 7.5085,6.8784 7.5085,6.6024 C7.5085,6.3274 7.7325,6.1024 8.0085,6.1024 Z M10.258,3.8058 C10.483,3.9678 10.534,4.2788 10.373,4.5038 C10.275,4.6398 10.122,4.7118 9.966,4.7118 C9.865,4.7118 9.763,4.6818 9.674,4.6178 C7.99,3.4068 6.344,4.6028 6.327,4.6128 C6.105,4.7768 5.792,4.7318 5.628,4.5098 C5.463,4.2878 5.509,3.9758 5.731,3.8108 C6.503,3.2388 8.442,2.5008 10.258,3.8058 Z M13.2297,1.8088 C13.4527,1.9708 13.5017,2.2838 13.3387,2.5068 C13.2417,2.6408 13.0887,2.7118 12.9347,2.7118 C12.8327,2.7118 12.7297,2.6808 12.6407,2.6158 C7.7027,-0.9852 3.4267,2.5568 3.3837,2.5928 C3.1727,2.7738 2.8567,2.7448 2.6797,2.5358 C2.4997,2.3248 2.5257,2.0098 2.7367,1.8308 C2.7847,1.7888 7.6627,-2.2532 13.2297,1.8088 Z"/>
</svg>
