<svg xmlns="http://www.w3.org/2000/svg" width="18" height="16" viewBox="0 0 18 16">
  <g fill="#58585B" fill-rule="evenodd" transform="translate(0 1)">
    <path d="M15.3460651,2.43453885 C15.4393419,2.53664616 15.5302787,2.64182899 15.6185409,2.75082375 C18.2094529,5.95033367 17.7142373,10.661996 14.5147274,13.252908 C13.0365957,14.4498754 11.2369107,14.9653236 9.47240374,14.8822507 L9.54019197,13.8314049 C11.0469102,13.8980482 12.5819346,13.4450803 13.8432425,12.4236933 C16.5857906,10.2028216 17.0101978,6.16485671 14.7893261,3.42230861 C14.7674678,3.39531581 14.7453753,3.36863421 14.7230663,3.34224338 L14.7209931,3.345264 C14.651807,3.2636482 14.5812204,3.18277757 14.5085545,3.10318231 C14.4031094,2.99194808 14.2944173,2.88529069 14.1840847,2.78136177 L14.1894964,2.77805021 C14.1641766,2.75426065 14.1385518,2.7306741 14.1126006,2.7073075 C11.4900425,0.345945586 7.43539973,0.558440409 5.07403782,3.1809985 C3.98803885,4.38712255 3.45535473,5.89633679 3.44305111,7.40447791 L5.56516196,7.37752398 C5.85950737,7.37342722 5.93639733,7.55703804 5.79021579,7.78066263 L3.00002403,11.8404329 L0.0685439443,7.85393805 C-0.0817753373,7.6338151 0.0260437178,7.44831294 0.285677352,7.44391112 L2.39009776,7.41717622 C2.39948586,5.65073974 3.00841588,3.8804976 4.28110229,2.46703614 C7.035913,-0.592491105 11.7670357,-0.840438739 14.8265629,1.91437197 C15.0108629,2.08031636 15.1828224,2.25398825 15.3466043,2.43375334 Z"/>
    <polygon points="10.5 5.5 11.5 5.5 11.5 9.5 10.5 9.5" transform="rotate(-90 11 7.5)"/>
    <polygon points="7.5 5.5 11.5 5.5 11.5 6.5 7.5 6.5" transform="rotate(-90 9.5 6)"/>
  </g>
</svg>
