<svg xmlns="http://www.w3.org/2000/svg" width="16" height="13" viewBox="0 0 16 13">
  <path fill="#58585B" fill-rule="evenodd" d="M14.998,3.64153152e-14 C15.5105714,3.64153152e-14 15.9334694,0.385423469 15.9912682,0.88324672 L15.998,1 L15.998,5.055 C15.998,5.493 15.712,5.855 15.32,5.989 C15.6881,6.2311 15.94442,6.62872 15.992003,7.08709 L16,7.242 L16,10.921 C16,11.6984118 15.4038478,12.3402941 14.6442369,12.4131197 L14.5,12.42 L1.5,12.42 C0.721647059,12.42 0.0797093426,11.8238478 0.00688052107,11.0650706 L0,10.921 L0,7.242 C0,6.719 0.271,6.258 0.68,5.989 C0.3272,5.8684 0.06026,5.56312 0.0104,5.183968 L0.002,5.055 L0.002,1 C0.002,0.4865 0.388285714,0.0643979592 0.885431487,0.0067175656 L1.002,3.64153152e-14 L14.998,3.64153152e-14 Z M14.5,6.742 L1.5,6.742 C1.25466667,6.742 1.05041975,6.91977778 1.00806036,7.15242524 L1,7.242 L1,10.921 C1,11.1654444 1.17698765,11.3695926 1.41016187,11.411941 L1.5,11.42 L14.5,11.42 C14.7453333,11.42 14.9495802,11.2430123 14.9919396,11.0105405 L15,10.921 L15,7.242 C15,6.967 14.776,6.742 14.5,6.742 Z M2.5928,8.1378 C3.1138,8.1378 3.5378,8.5608 3.5378,9.0818 C3.5378,9.6038 3.1138,10.0268 2.5928,10.0268 C2.0718,10.0268 1.6478,9.6038 1.6478,9.0818 C1.6478,8.5608 2.0718,8.1378 2.5928,8.1378 Z M5.7251,8.1378 C6.2471,8.1378 6.6701,8.5608 6.6701,9.0818 C6.6701,9.6038 6.2471,10.0268 5.7251,10.0268 C5.2041,10.0268 4.7811,9.6038 4.7811,9.0818 C4.7811,8.5608 5.2041,8.1378 5.7251,8.1378 Z M8.795,8.1378 C9.317,8.1378 9.74,8.5608 9.74,9.0818 C9.74,9.6038 9.317,10.0268 8.795,10.0268 C8.274,10.0268 7.851,9.6038 7.851,9.0818 C7.851,8.5608 8.274,8.1378 8.795,8.1378 Z M2.593,2.083 C2.071,2.083 1.648,2.506 1.648,3.027 C1.648,3.549 2.071,3.972 2.593,3.972 C3.114,3.972 3.538,3.549 3.538,3.027 C3.538,2.506 3.114,2.083 2.593,2.083 Z M5.725,2.083 C5.204,2.083 4.781,2.506 4.781,3.027 C4.781,3.549 5.204,3.972 5.725,3.972 C6.247,3.972 6.67,3.549 6.67,3.027 C6.67,2.506 6.247,2.083 5.725,2.083 Z M8.795,2.083 C8.273,2.083 7.851,2.506 7.851,3.027 C7.851,3.549 8.273,3.972 8.795,3.972 C9.317,3.972 9.74,3.549 9.74,3.027 C9.74,2.506 9.317,2.083 8.795,2.083 Z"/>
</svg>
