<svg xmlns="http://www.w3.org/2000/svg" width="16" height="16" viewBox="0 0 16 16">
  <g fill="#58585B" fill-rule="evenodd">
    <path d="M9.8809766,8.23847975 C9.72227874,8.08062656 9.46429298,8.08062656 9.30559512,8.23847975 L7.57945066,9.95624633 L6.02258393,8.407666 L7.74954222,6.69070892 C7.90824008,6.53285573 7.90824008,6.27624309 7.74954222,6.1183899 C7.59084435,5.9605367 7.3328586,5.9605367 7.17416073,6.1183899 L5.44720244,7.83534697 L3.94649034,6.34262239 L2.5353001,7.74792059 C1.05249237,9.22202659 0.993082401,11.5550159 2.32044761,13.1197863 L0.119023398,15.3086839 C-0.0396744659,15.4673466 -0.0396744659,15.7231498 0.119023398,15.881003 C0.198779247,15.9603343 0.302950153,16 0.407121058,16 C0.511291963,16 0.615462869,15.9603343 0.694404883,15.881003 L2.90640895,13.6823913 C4.47792472,14.9095987 6.74933876,14.8213628 8.19796541,13.3812559 L9.60996948,11.9759577 L8.15483215,10.5285654 L9.8809766,8.81079878 C10.0396745,8.65294558 10.0396745,8.39633295 9.8809766,8.23847975"/>
    <path d="M10.6959964,0 L9.37437808,1.30963956 C7.98568797,2.68340319 7.93004891,4.85758592 9.17316283,6.31584241 L7.11146868,8.35574183 C6.96284377,8.50360436 6.96284377,8.74199497 7.11146868,8.8891031 C7.18616222,8.96303437 7.28372113,9 7.38128004,9 C7.47883895,9 7.57639786,8.96303437 7.65032922,8.8891031 L9.7219317,6.84015088 C11.1936993,7.9838223 13.3209409,7.90159262 14.6776195,6.55951383 L16,5.24987427 L10.6959964,0 Z" transform="rotate(180 11.5 4.5)"/>
  </g>
</svg>
