<svg xmlns="http://www.w3.org/2000/svg" width="16" height="12" viewBox="0 0 16 12">
  <path fill="#58585B" fill-rule="evenodd" d="M674,470 L688,470 L688,461.406 L674,461.406 L674,470 Z M683.829,459.706 C684.102,459.706 684.324,459.928 684.324,460.201 C684.324,460.475 684.102,460.696 683.829,460.696 C683.555,460.696 683.334,460.475 683.334,460.201 C683.334,459.928 683.555,459.706 683.829,459.706 L683.829,459.706 Z M685.496,459.711 C685.77,459.711 685.994,459.934 685.994,460.209 C685.994,460.484 685.77,460.707 685.496,460.707 C685.22,460.707 684.998,460.484 684.998,460.209 C684.998,459.934 685.22,459.711 685.496,459.711 L685.496,459.711 Z M687.168,459.711 C687.443,459.711 687.666,459.934 687.666,460.209 C687.666,460.484 687.443,460.707 687.168,460.707 C686.892,460.707 686.67,460.484 686.67,460.209 C686.67,459.934 686.892,459.711 687.168,459.711 L687.168,459.711 Z M688.334,459 L680.297,459 L673.667,459 C673.3,459 673,459.31 673,459.688 L673,470.313 C673,470.691 673.3,471 673.667,471 L688.334,471 C688.7,471 689,470.691 689,470.313 L689,459.688 C689,459.31 688.7,459 688.334,459 L688.334,459 Z" transform="translate(-673 -459)"/>
</svg>
