<?xml version="1.0" encoding="UTF-8"?>
<svg width="16px" height="16px" viewBox="0 0 16 16" version="1.1" xmlns="http://www.w3.org/2000/svg" xmlns:xlink="http://www.w3.org/1999/xlink">
    <!-- Generator: Sketch 49.3 (51167) - http://www.bohemiancoding.com/sketch -->
    <title>icon-download</title>
    <desc>Created with Sketch.</desc>
    <defs></defs>
    <g id="SBG-Icon-Library" stroke="none" stroke-width="1" fill="none" fill-rule="evenodd">
        <g id="Actions" transform="translate(-292.000000, -1579.000000)" fill="#58585B">
            <g id="Download" transform="translate(0.000000, 1554.000000)">
                <g transform="translate(292.000000, 25.000000)">
                    <path d="M0.727272727,14.5454545 C0.325090909,14.5454545 0,14.8705455 0,15.2727273 C0,15.6749091 0.325090909,16 0.727272727,16 L15.2727273,16 C15.6749091,16 16,15.6749091 16,15.2727273 C16,14.8705455 15.6749091,14.5454545 15.2727273,14.5454545 L0.727272727,14.5454545 Z" id="Fill-1"></path>
                    <path d="M8.00392727,12.3636364 L12.0039273,6.28436364 C12.1842909,6.02836364 12.0752,5.81818182 11.7617455,5.81818182 L8.72756364,5.81818182 L8.72756364,0.727272727 C8.72756364,0.325090909 8.40174545,0 8.00029091,0 C7.59810909,0 7.27301818,0.325090909 7.27301818,0.727272727 L7.27301818,5.81818182 L4.23810909,5.81818182 C3.92465455,5.81818182 3.81556364,6.02836364 3.99665455,6.28436364 L8.00392727,12.3636364 Z" id="Fill-3"></path>
                </g>
            </g>
        </g>
    </g>
</svg>