<svg xmlns="http://www.w3.org/2000/svg" xmlns:xlink="http://www.w3.org/1999/xlink" width="20" height="4" viewBox="0 0 20 4">
  <defs>
    <path id="default-dark-gray-2-a" d="M1.93124017,0 C2.99783466,0 3.86248033,0.864645674 3.86248033,1.93124017 C3.86248033,2.99783466 2.99783466,3.86248033 1.93124017,3.86248033 C0.864645674,3.86248033 0,2.99783466 0,1.93124017 C0,0.864645674 0.864645674,0 1.93124017,0 Z M10,0 C11.0665945,0 11.9312402,0.864645674 11.9312402,1.93124017 C11.9312402,2.99783466 11.0665945,3.86248033 10,3.86248033 C8.93340551,3.86248033 8.06875983,2.99783466 8.06875983,1.93124017 C8.06875983,0.864645674 8.93340551,0 10,0 Z M18.0687598,0 C19.1353543,0 20,0.864645674 20,1.93124017 C20,2.99783466 19.1353543,3.86248033 18.0687598,3.86248033 C17.0021653,3.86248033 16.1375197,2.99783466 16.1375197,1.93124017 C16.1375197,0.864645674 17.0021653,0 18.0687598,0 Z"/>
  </defs>
  <use fill="#58585B" fill-rule="evenodd" xlink:href="#default-dark-gray-2-a"/>
</svg>
