<svg xmlns="http://www.w3.org/2000/svg" width="16" height="16" viewBox="0 0 16 16">
  <path fill="#58585B" d="M5.4,0 C5.7,0 6,0.3 6,0.6 C6,0.9 5.7,1.2 5.4,1.2 L1.2,1.2 L1.2,14.7 L14,14.7 L14,9.6 C14,9.3 14.3,9 14.6,9 C14.9,9 15.2,9.3 15.2,9.6 L15.2,15 C15.2,15.6 14.8,16 14.2,16 L1,16 C0.4,16 0,15.6 0,15 L0,1 C0,0.4 0.4,0 1,0 L5.4,0 Z M9.2722168,0.199905396 L14.97,4 L9.27,7.8 C9.12963867,7.88088989 8.95934266,7.75300413 8.97019958,7.60093689 L8.97,4.6 C6.67,4.6 5.57,5.6 5.57,8 L5.57,12 C5.57,12.27 5.327,12.54 5.0597,12.5913 L4.97,12.6 C4.7,12.6 4.43,12.357 4.3787,12.0897 L4.37,12 L4.37,8 C4.37,5 5.97,3.4 8.97,3.4 L8.97,0.4 C8.97,0.29083252 9.03282166,0.164291382 9.2722168,0.199905396 Z"/>
</svg>
