<?xml version="1.0" encoding="UTF-8"?>
<svg width="16px" height="16px" viewBox="0 0 16 16" version="1.1" xmlns="http://www.w3.org/2000/svg" xmlns:xlink="http://www.w3.org/1999/xlink">
    <!-- Generator: Sketch 51.3 (57544) - http://www.bohemiancoding.com/sketch -->
    <title>File Policy</title>
    <desc>Created with Sketch.</desc>
    <defs></defs>
    <g id="File-Policy" stroke="none" stroke-width="1" fill="none" fill-rule="evenodd">
        <g id="Group-5" transform="translate(1.000000, 0.000000)" fill="#58585B">
            <path d="M4.083,10.209 L2.333,10.209 C2.012,10.209 1.75,9.946 1.75,9.625 C1.75,9.305 2.012,9.042 2.333,9.042 L4.083,9.042 C4.404,9.042 4.667,9.305 4.667,9.625 C4.667,9.946 4.404,10.209 4.083,10.209 M2.333,3.792 L7,3.792 C7.32,3.792 7.583,4.055 7.583,4.375 C7.583,4.696 7.32,4.959 7,4.959 L2.333,4.959 C2.012,4.959 1.75,4.696 1.75,4.375 C1.75,4.055 2.012,3.792 2.333,3.792 M5.143,8.024 C5.183,7.858 5.258,7.715 5.349,7.584 L2.333,7.584 C2.012,7.584 1.75,7.321 1.75,7 C1.75,6.68 2.012,6.417 2.333,6.417 L7,6.417 C7.274,6.417 7.495,6.613 7.557,6.869 C7.691,6.84 7.828,6.808 7.963,6.769 C8.096,6.731 8.215,6.692 8.33,6.651 C8.769,6.494 9.161,6.296 9.333,6.205 L9.333,0.584 C9.333,0.263 9.07,0 8.75,0 L0.583,0 C0.262,0 0,0.263 0,0.584 L0,13.417 C0,13.737 0.262,14 0.583,14 L5.819,14 C5.708,13.801 5.604,13.591 5.514,13.36 C4.71,11.255 5.076,8.294 5.143,8.024" id="Fill-1"></path>
            <path d="M13.8877,8.2646 C13.8877,8.1306 13.7887,8.0636 13.6917,8.0306 C13.6917,8.0306 12.6747,7.9626 11.7227,7.6956 C10.8687,7.4606 10.0817,7.0256 10.0817,7.0256 C10.0167,6.9916 9.9847,6.9916 9.9177,7.0256 C9.9177,7.0256 9.6757,7.1596 9.3327,7.3166 C9.1357,7.4076 8.9147,7.5036 8.6657,7.5926 C8.5297,7.6416 8.3877,7.6886 8.2437,7.7286 C7.3257,7.9966 6.3427,8.0306 6.3427,8.0306 C6.2107,8.0646 6.1457,8.1306 6.1137,8.2646 C6.0837,8.3826 5.7307,11.1236 6.4477,12.9996 C6.5527,13.2736 6.6797,13.5296 6.8337,13.7556 C6.8957,13.8456 6.9627,13.9166 7.0277,13.9996 C8.2307,15.5596 9.8567,15.9676 9.9507,15.9996 L10.0157,15.9996 L10.0817,15.9996 C10.1477,15.9656 11.9507,15.5316 13.1657,13.7556 C14.3797,11.9816 13.9207,8.3986 13.8877,8.2646" id="Fill-3"></path>
        </g>
    </g>
</svg>