<?xml version="1.0" encoding="UTF-8"?>
<svg width="14px" height="16px" viewBox="0 0 14 16" version="1.1" xmlns="http://www.w3.org/2000/svg" xmlns:xlink="http://www.w3.org/1999/xlink">
    <!-- Generator: Sketch 49.3 (51167) - http://www.bohemiancoding.com/sketch -->
    <title>icon-first-page</title>
    <desc>Created with Sketch.</desc>
    <defs></defs>
    <g id="SBG-Icon-Library" stroke="none" stroke-width="1" fill="none" fill-rule="evenodd">
        <g id="Actions" transform="translate(-351.000000, -2115.000000)">
            <g id="First-Page" transform="translate(0.000000, 2086.000000)"></g>
            <path d="M363.527068,2130.78673 L356,2122.99991 L363.527068,2115.21309 C363.664154,2115.07127 363.844123,2115 364.024093,2115 C364.204062,2115 364.384031,2115.07127 364.521117,2115.21309 C364.795991,2115.49745 364.795991,2115.95708 364.521117,2116.24144 L357.988097,2122.99991 L364.521117,2129.75838 C364.795991,2130.04274 364.795991,2130.50237 364.521117,2130.78673 C364.246242,2131.07109 363.801943,2131.07109 363.527068,2130.78673 Z M351.75,2115 C352.164214,2115 352.5,2115.33579 352.5,2115.75 L352.5,2130.25 C352.5,2130.66421 352.164214,2131 351.75,2131 C351.335786,2131 351,2130.66421 351,2130.25 L351,2115.75 C351,2115.33579 351.335786,2115 351.75,2115 Z" id="Mask" fill="#58585B"></path>
        </g>
    </g>
</svg>