<?xml version="1.0" encoding="UTF-8"?>
<svg width="16px" height="16px" viewBox="0 0 16 16" version="1.1" xmlns="http://www.w3.org/2000/svg" xmlns:xlink="http://www.w3.org/1999/xlink">
    <!-- Generator: Sketch 49.3 (51167) - http://www.bohemiancoding.com/sketch -->
    <title>icon-global-view</title>
    <desc>Created with Sketch.</desc>
    <defs></defs>
    <g id="SBG-Icon-Library" stroke="none" stroke-width="1" fill="none" fill-rule="evenodd">
        <g id="Actions" transform="translate(-293.000000, -2196.000000)">
            <g id="Import-Copy" transform="translate(0.000000, 2170.000000)"></g>
            <g id="icn_global_view" transform="translate(293.000000, 2196.000000)" fill="#58585B">
                <path d="M8,0 C3.6,0 0,3.6 0,8 C0,12.4 3.6,16 8,16 C12.4,16 16,12.4 16,8 C16,3.6 12.4,0 8,0 L8,0 Z M13.2666667,12.0666667 C12.9,11.8 12.5,11.5333333 12.1,11.3333333 C12.4,10.5 12.6,9.6 12.6333333,8.66666667 L14.6333333,8.66666667 C14.5,9.93333333 14,11.1 13.2666667,12.0666667 L13.2666667,12.0666667 Z M1.36666667,8.66666667 L3.36666667,8.66666667 C3.43333333,9.6 3.63333333,10.5 3.9,11.3333333 C3.5,11.5333333 3.1,11.8 2.73333333,12.0666667 C2,11.1 1.5,9.93333333 1.36666667,8.66666667 L1.36666667,8.66666667 Z M2.73333333,3.93333333 C3.1,4.2 3.5,4.46666667 3.9,4.66666667 C3.6,5.5 3.4,6.4 3.36666667,7.33333333 L1.36666667,7.33333333 C1.5,6.06666667 2,4.9 2.73333333,3.93333333 L2.73333333,3.93333333 Z M7.33333333,4.3 C6.76666667,4.26666667 6.2,4.13333333 5.66666667,3.96666667 C6.1,3.16666667 6.66666667,2.46666667 7.33333333,1.93333333 L7.33333333,4.3 L7.33333333,4.3 Z M7.33333333,5.63333333 L7.33333333,7.33333333 L4.7,7.33333333 C4.76666667,6.6 4.9,5.86666667 5.13333333,5.2 C5.83333333,5.43333333 6.56666667,5.56666667 7.33333333,5.63333333 L7.33333333,5.63333333 Z M7.33333333,8.66666667 L7.33333333,10.3666667 C6.56666667,10.4333333 5.83333333,10.5666667 5.13333333,10.8 C4.9,10.1333333 4.76666667,9.4 4.7,8.66666667 L7.33333333,8.66666667 L7.33333333,8.66666667 Z M7.33333333,11.7 L7.33333333,14.0666667 C6.66666667,13.5333333 6.1,12.8333333 5.66666667,12.0333333 C6.2,11.8666667 6.76666667,11.7333333 7.33333333,11.7 L7.33333333,11.7 Z M8.66666667,11.7 C9.23333333,11.7333333 9.8,11.8666667 10.3333333,12.0333333 C9.9,12.8333333 9.33333333,13.5333333 8.66666667,14.0666667 L8.66666667,11.7 L8.66666667,11.7 Z M8.66666667,10.3666667 L8.66666667,8.66666667 L11.3,8.66666667 C11.2333333,9.4 11.1,10.1333333 10.8666667,10.8 C10.1666667,10.5666667 9.43333333,10.4 8.66666667,10.3666667 L8.66666667,10.3666667 Z M8.66666667,7.33333333 L8.66666667,5.63333333 C9.43333333,5.56666667 10.1666667,5.43333333 10.8666667,5.2 C11.1,5.86666667 11.2333333,6.6 11.3,7.33333333 L8.66666667,7.33333333 L8.66666667,7.33333333 Z M8.66666667,4.3 L8.66666667,1.93333333 C9.33333333,2.46666667 9.9,3.16666667 10.3333333,3.96666667 C9.8,4.13333333 9.23333333,4.26666667 8.66666667,4.3 L8.66666667,4.3 Z M10.4333333,1.8 C11.1333333,2.06666667 11.7666667,2.46666667 12.3333333,2.96666667 C12.1,3.13333333 11.8333333,3.3 11.5333333,3.46666667 C11.2333333,2.83333333 10.8666667,2.3 10.4333333,1.8 L10.4333333,1.8 Z M4.43333333,3.43333333 C4.16666667,3.3 3.9,3.13333333 3.63333333,2.93333333 C4.2,2.43333333 4.83333333,2.06666667 5.53333333,1.76666667 C5.13333333,2.3 4.76666667,2.83333333 4.43333333,3.43333333 L4.43333333,3.43333333 Z M4.43333333,12.5666667 C4.73333333,13.1666667 5.13333333,13.7333333 5.56666667,14.2 C4.86666667,13.9333333 4.23333333,13.5333333 3.66666667,13.0333333 C3.9,12.8666667 4.16666667,12.7 4.43333333,12.5666667 L4.43333333,12.5666667 Z M11.5666667,12.5666667 C11.8333333,12.7 12.1,12.8666667 12.3666667,13.0666667 C11.8,13.5666667 11.1666667,13.9333333 10.4666667,14.2333333 C10.8666667,13.7 11.2333333,13.1666667 11.5666667,12.5666667 L11.5666667,12.5666667 Z M12.6333333,7.33333333 C12.5666667,6.4 12.3666667,5.5 12.1,4.66666667 C12.5,4.46666667 12.9,4.2 13.2666667,3.93333333 C14,4.9 14.5,6.06666667 14.6333333,7.33333333 L12.6333333,7.33333333 L12.6333333,7.33333333 Z" id="Shape"></path>
            </g>
        </g>
    </g>
</svg>