<?xml version="1.0" encoding="UTF-8"?>
<svg width="16px" height="11px" viewBox="0 0 16 11" version="1.1" xmlns="http://www.w3.org/2000/svg" xmlns:xlink="http://www.w3.org/1999/xlink">
    <!-- Generator: Sketch 49.3 (51167) - http://www.bohemiancoding.com/sketch -->
    <title>icon-conference</title>
    <desc>Created with Sketch.</desc>
    <defs></defs>
    <g id="SBG-Icon-Library" stroke="none" stroke-width="1" fill="none" fill-rule="evenodd">
        <g id="Settings" transform="translate(-292.000000, -323.000000)">
            <g id="Users" transform="translate(0.000000, 292.000000)"></g>
            <g id="Conference" transform="translate(292.000000, 323.000000)" fill="#58585B">
                <path d="M15.8,7.73333333 C15.8,7.66666667 15.7333333,7.6 15.7,7.56666667 L13.7666667,6.46666667 C13.7,6.43333333 13.6666667,6.36666667 13.6333333,6.3 L13.4,5.76666667 C13.7,5.53333333 13.9333333,4.8 13.9333333,4.4 L13.9333333,3.56666667 C13.9333333,2.86666667 13.3666667,2.3 12.6666667,2.3 C11.9666667,2.3 11.4333333,2.86666667 11.4333333,3.56666667 L11.4333333,4.4 C11.4333333,4.83333333 11.6333333,5.56666667 11.9666667,5.8 L11.7333333,6.3 C11.7,6.36666667 11.6666667,6.43333333 11.6,6.46666667 L11.2666667,6.66666667 L13.3333333,7.86666667 C13.6666667,8.06666667 13.9333333,8.43333333 14,8.83333333 L14.0333333,9 L16,9 L15.8,7.73333333 L15.8,7.73333333 Z" id="Shape"></path>
                <path d="M4.76666667,6.66666667 L4.43333333,6.46666667 C4.36666667,6.43333333 4.33333333,6.36666667 4.3,6.3 L4.06666667,5.76666667 C4.36666667,5.53333333 4.6,4.8 4.6,4.4 L4.6,3.56666667 C4.6,2.86666667 4.03333333,2.3 3.33333333,2.3 C2.63333333,2.3 2.1,2.86666667 2.1,3.56666667 L2.1,4.4 C2.1,4.83333333 2.3,5.56666667 2.63333333,5.8 L2.4,6.3 C2.36666667,6.36666667 2.33333333,6.43333333 2.26666667,6.46666667 L0.333333333,7.56666667 C0.266666667,7.6 0.233333333,7.66666667 0.233333333,7.73333333 L0.0333333333,9 L2,9 L2.03333333,8.83333333 C2.1,8.43333333 2.36666667,8.06666667 2.7,7.86666667 L4.76666667,6.66666667 L4.76666667,6.66666667 Z" id="Shape"></path>
                <path d="M13,9 C13,8.9 12.9,8.8 12.8333333,8.73333333 L9.76666667,6.93333333 C9.66666667,6.9 9.6,6.76666667 9.53333333,6.66666667 L9.16666667,5.83333333 C9.4,5.66666667 9.63333333,5.26666667 9.76666667,4.83333333 C9.9,4.4 10,3.96666667 10,3.63333333 L10,2.3 C10,1.2 9.1,0.3 8,0.3 C6.9,0.3 6,1.2 6,2.3 L6,3.63333333 C6,4.3 6.33333333,5.5 6.83333333,5.83333333 L6.46666667,6.63333333 C6.43333333,6.73333333 6.33333333,6.83333333 6.23333333,6.9 L3.16666667,8.7 C3.06666667,8.73333333 3,8.86666667 3,8.96666667 L3,8.96666667 L2.66666667,10.9666667 L13.3333333,10.9666667 L13,9 L13,9 L13,9 Z" id="Shape"></path>
            </g>
        </g>
    </g>
</svg>