<svg xmlns="http://www.w3.org/2000/svg" width="16" height="16" viewBox="0 0 16 16">
  <path fill="#58585B" fill-rule="evenodd" d="M10.467,7.00343771 C10.227,7.35545972 9.822,7.74748422 9.254,8.17951122 C9.038,8.35552222 8.889,8.54953435 8.805,8.7615476 C8.721,8.97456091 8.679,9.27557972 8.679,9.66760423 L8.679,9.67060441 C8.679,10.0676292 8.357,10.3916495 7.958,10.3916495 C7.561,10.3916495 7.238,10.0676292 7.238,9.67060441 C7.238,9.66860429 7.238,9.66760423 7.238,9.6656041 C7.238,9.02656416 7.317,8.5375336 7.473,8.19751234 C7.628,7.85749109 7.927,7.51546972 8.366,7.17144822 C8.735,6.89143071 8.99,6.63941496 9.135,6.41540096 C9.279,6.19138696 9.351,5.93537096 9.351,5.64735296 C9.351,5.31133196 9.223,5.04731546 8.967,4.85530346 C8.75,4.69529346 8.462,4.61528846 8.103,4.61528846 C7.271,4.61528846 6.79,5.02731421 6.662,5.85136571 L6.661,5.85136571 L6.661,5.85236577 C6.625,6.28139259 6.313,6.63141446 5.882,6.63141446 C5.451,6.63141446 5.076,6.28239265 5.103,5.85236577 L5.103,5.85136571 C5.198,5.07531721 5.555,4.4672792 6.17,4.0272517 C6.706,3.6432277 7.359,3.4512157 8.126,3.4512157 C9.03,3.4512157 9.738,3.6832302 10.25,4.1472592 C10.683,4.53928371 10.899,5.02731421 10.899,5.61135071 C10.899,6.13138321 10.754,6.59541221 10.467,7.00343771 M7.958,13.0188137 C7.461,13.0188137 7.059,12.6147884 7.059,12.1187574 C7.059,11.6207263 7.461,11.2187012 7.958,11.2187012 C8.455,11.2187012 8.859,11.6207263 8.859,12.1187574 C8.859,12.6147884 8.455,13.0188137 7.958,13.0188137 M8,0 C3.581,0 0,3.58122383 0,8.00050003 C0,12.4187762 3.581,16 8,16 C12.418,16 16,12.4187762 16,8.00050003 C16,3.58122383 12.418,0 8,0"/>
</svg>
