<?xml version="1.0" encoding="UTF-8"?>
<svg width="16px" height="16px" viewBox="0 0 16 16" version="1.1" xmlns="http://www.w3.org/2000/svg" xmlns:xlink="http://www.w3.org/1999/xlink">
    <!-- Generator: Sketch 49.3 (51167) - http://www.bohemiancoding.com/sketch -->
    <title>icon-html-format</title>
    <desc>Created with Sketch.</desc>
    <defs>
        <polygon id="path-1" points="0.0002 10 16 10 16 0.0003 0.0002 0.0003"></polygon>
    </defs>
    <g id="SBG-Icon-Library" stroke="none" stroke-width="1" fill="none" fill-rule="evenodd">
        <g id="Abstract" transform="translate(-303.000000, -776.000000)">
            <g id="HTML-Format" transform="translate(1.000000, 747.000000)">
                <g id="Page-1" transform="translate(302.000000, 32.000000)">
                    <mask id="mask-2" fill="white">
                        <use xlink:href="#path-1"></use>
                    </mask>
                    <g id="Clip-2"></g>
                    <path d="M13.7272,6.4053 L11.9582,6.4053 L11.9582,3.5253 L12.3712,3.5253 L12.3712,6.0413 L13.7272,6.0413 L13.7272,6.4053 Z M11.0392,6.4053 L10.6552,6.4053 L10.6552,4.1693 L9.8232,6.4053 L9.4392,6.4053 L8.5512,4.1493 L8.5512,6.4053 L8.1552,6.4053 L8.1552,3.5253 L8.7232,3.5253 L9.6392,5.9253 L10.5032,3.5253 L11.0392,3.5253 L11.0392,6.4053 Z M7.5752,3.8883 L6.6072,3.8883 L6.6072,6.4053 L6.1992,6.4053 L6.1992,3.8883 L5.2432,3.8883 L5.2432,3.5253 L7.5752,3.5253 L7.5752,3.8883 Z M4.6632,6.4053 L4.2502,6.4053 L4.2502,5.1213 L2.8422,5.1213 L2.8422,6.4053 L2.4342,6.4053 L2.4342,3.5253 L2.8422,3.5253 L2.8422,4.7773 L4.2502,4.7773 L4.2502,3.5253 L4.6632,3.5253 L4.6632,6.4053 Z M15.0002,0.0003 L1.0002,0.0003 C0.4482,0.0003 0.0002,0.4483 0.0002,1.0003 L0.0002,9.0003 C0.0002,9.5523 0.4482,10.0003 1.0002,10.0003 L15.0002,10.0003 C15.5522,10.0003 16.0002,9.5523 16.0002,9.0003 L16.0002,1.0003 C16.0002,0.4483 15.5522,0.0003 15.0002,0.0003 Z" id="Fill-1" fill="#58585B" mask="url(#mask-2)"></path>
                </g>
            </g>
        </g>
    </g>
</svg>