<?xml version="1.0" encoding="UTF-8"?>
<svg width="16px" height="11px" viewBox="0 0 16 11" version="1.1" xmlns="http://www.w3.org/2000/svg" xmlns:xlink="http://www.w3.org/1999/xlink">
    <!-- Generator: Sketch 49.3 (51167) - http://www.bohemiancoding.com/sketch -->
    <title>icon-image</title>
    <desc>Created with Sketch.</desc>
    <defs></defs>
    <g id="SBG-Icon-Library" stroke="none" stroke-width="1" fill="none" fill-rule="evenodd">
        <g id="Content" transform="translate(-294.000000, -1196.000000)" fill="#58585B">
            <g id="Image" transform="translate(0.000000, 1158.000000)">
                <path d="M304.666667,42.6666667 C303.930667,42.6666667 303.333333,42.0693333 303.333333,41.3333333 C303.333333,40.5973333 303.930667,40 304.666667,40 C305.402667,40 306,40.5973333 306,41.3333333 C306,42.0693333 305.402667,42.6666667 304.666667,42.6666667 M305.143906,46.6666667 L298.249643,46.6666667 C298.04779,46.6666667 297.947514,46.5113333 298.027604,46.3213333 L300.283151,42.6666667 L301.741703,44.94 L302.758131,43.39 L305.251344,46.4013333 C305.393943,46.5473333 305.345759,46.6666667 305.143906,46.6666667 M309.333333,38 L294.666667,38 C294.298667,38 294,38.2986667 294,38.6666667 L294,48 C294,48.368 294.298667,48.6666667 294.666667,48.6666667 L309.333333,48.6666667 C309.701333,48.6666667 310,48.368 310,48 L310,38.6666667 C310,38.2986667 309.701333,38 309.333333,38"></path>
            </g>
        </g>
    </g>
</svg>