<?xml version="1.0" encoding="UTF-8"?>
<svg width="16px" height="11px" viewBox="0 0 16 11" version="1.1" xmlns="http://www.w3.org/2000/svg" xmlns:xlink="http://www.w3.org/1999/xlink">
    <!-- Generator: Sketch 49.3 (51167) - http://www.bohemiancoding.com/sketch -->
    <title>icon-incoming-mail</title>
    <desc>Created with Sketch.</desc>
    <defs></defs>
    <g id="SBG-Icon-Library" stroke="none" stroke-width="1" fill="none" fill-rule="evenodd">
        <g id="Content" transform="translate(-292.000000, -1291.000000)" fill="#58585B">
            <g id="Incoming" transform="translate(0.000000, 1265.000000)">
                <g id="Incoming-Mail" transform="translate(292.000000, 26.000000)">
                    <path d="M8.32205117,3.33333333 L10.5988824,0.358747402 C10.7398068,0.16160397 10.6536492,0 10.4085342,0 L6.25827632,0 C6.01249342,0 5.92700372,0.16160397 6.06792815,0.358747402 L8.32205117,3.33333333 Z" id="Fill-1"></path>
                    <path d="M14.6666667,0 L14.6666667,6.66666667 L1.33333333,6.66666667 L1.33333333,0 C0.6,0 0,0.6 0,1.33333333 L0,7.33333333 L0,9.33333333 L0,10 C0,10.368 0.298666667,10.6666667 0.666666667,10.6666667 L15.3333333,10.6666667 C15.7013333,10.6666667 16,10.368 16,10 L16,9.33333333 L16,7.33333333 L16,1.33333333 C16,0.6 15.4,0 14.6666667,0" id="Fill-3"></path>
                </g>
            </g>
        </g>
    </g>
</svg>