<svg xmlns="http://www.w3.org/2000/svg" width="16" height="16" viewBox="0 0 16 16">
  <path fill="#58585B" fill-rule="evenodd" d="M14.0923,5.7471 C14.9183,5.7471 15.5893,6.4181 15.5893,7.2431 L15.5893,7.2431 L15.5893,14.5041 C15.5893,15.3291 14.9183,16.0001 14.0923,16.0001 L14.0923,16.0001 L6.8323,16.0001 C6.0073,16.0001 5.3363,15.3291 5.3363,14.5041 L5.3363,14.5041 L5.3363,10.6801 L6.3363,10.6801 L6.3363,14.5041 C6.3363,14.7771 6.5583,15.0001 6.8323,15.0001 L6.8323,15.0001 L14.0923,15.0001 C14.3663,15.0001 14.5893,14.7771 14.5893,14.5041 L14.5893,14.5041 L14.5893,7.2431 C14.5893,6.9701 14.3663,6.7471 14.0923,6.7471 L14.0923,6.7471 L10.2693,6.7471 L10.2693,5.7471 Z M8.2579,0.4111 C8.8079,0.4111 9.2539,0.8561 9.2539,1.4061 L9.2539,8.6691 C9.2539,9.2191 8.8079,9.6641 8.2579,9.6641 L0.9959,9.6641 C0.4459,9.6641 -9.99999998e-05,9.2191 -9.99999998e-05,8.6691 L-9.99999998e-05,1.4061 C-9.99999998e-05,0.8561 0.4459,0.4111 0.9959,0.4111 L8.2579,0.4111 Z" transform="translate(0 -.41)"/>
</svg>
