<svg xmlns="http://www.w3.org/2000/svg" width="16" height="16" viewBox="0 0 16 16">
  <path fill="#58585B" d="M8.47333333,5.13133333 C8.34666667,5.25133333 8.17333333,5.32466667 8,5.32466667 C7.82666667,5.32466667 7.65333333,5.25133333 7.52666667,5.13133333 C7.406,5.00466667 7.33333333,4.83133333 7.33333333,4.658 C7.33333333,4.48466667 7.406,4.31133333 7.52666667,4.18466667 C7.78,3.938 8.22666667,3.938 8.47333333,4.18466667 C8.59333333,4.31133333 8.66666667,4.478 8.66666667,4.658 C8.66666667,4.83133333 8.59333333,5.00466667 8.47333333,5.13133333 L8.47333333,5.13133333 Z M8.66666667,11.3333333 C8.66666667,11.7013333 8.36866667,12 8,12 C7.63133333,12 7.33333333,11.7013333 7.33333333,11.3333333 L7.33333333,7.33333333 C7.33333333,6.96466667 7.63133333,6.66666667 8,6.66666667 C8.36866667,6.66666667 8.66666667,6.96466667 8.66666667,7.33333333 L8.66666667,11.3333333 Z M8,0 C3.582,0 0,3.58133333 0,8 C0,12.418 3.582,16 8,16 C12.418,16 16,12.418 16,8 C16,3.58133333 12.418,0 8,0 L8,0 Z"/>
</svg>
