<svg xmlns="http://www.w3.org/2000/svg" width="16" height="16" viewBox="0 0 16 16">
  <g fill="none" fill-rule="evenodd">
    <path fill="#58585B" d="M12.1895,8.2995 L8.1395,3.4405 L4.0705,8.3295 L2.4395,6.6995 L0.8305,9.1105 L0.8305,1.7895 L12.1895,1.7895 L12.1895,8.2995 Z M12.2105,0.9995 L0.8095,0.9995 C0.3605,0.9995 0.0005,1.3605 0.0005,1.8105 L0.0005,11.5795 C0.0005,12.0295 0.3605,12.4005 0.8095,12.4005 L9.6695,12.4005 C9.9005,10.9805 11.1395,9.9005 12.6205,9.9005 C12.7505,9.9005 12.8895,9.9095 13.0195,9.9305 L13.0195,1.8105 C13.0195,1.3605 12.6605,0.9995 12.2105,0.9995 L12.2105,0.9995 Z"/>
    <path fill="#58585B" d="M5.1192,3.9909 C5.1192,4.6979 4.5522,5.2659 3.8452,5.2659 C3.1382,5.2659 2.5592,4.6979 2.5592,3.9909 C2.5592,3.2839 3.1382,2.7069 3.8452,2.7069 C4.5522,2.7069 5.1192,3.2839 5.1192,3.9909"/>
    <path stroke="#58585B" stroke-width=".75" d="M15.6157,12.6213 C15.6157,14.2773 14.2717,15.6213 12.6157,15.6213 C10.9597,15.6213 9.6157,14.2773 9.6157,12.6213 C9.6157,10.9643 10.9597,9.6213 12.6157,9.6213 C14.2717,9.6213 15.6157,10.9643 15.6157,12.6213 Z"/>
    <path fill="#58585B" d="M14.6172,12.505 C14.6172,12.724 14.4302,12.897 14.2142,12.897 L13.0152,12.897 L13.0152,14.099 C13.0152,14.328 12.8392,14.5 12.6122,14.5 C12.3962,14.5 12.2212,14.328 12.2212,14.099 L12.2212,12.897 L11.0202,12.897 C10.8042,12.897 10.6172,12.724 10.6172,12.505 C10.6172,12.285 10.8042,12.105 11.0202,12.105 L12.2212,12.105 L12.2212,10.901 C12.2212,10.681 12.3962,10.5 12.6122,10.5 C12.8392,10.5 13.0152,10.681 13.0152,10.901 L13.0152,12.105 L14.2142,12.105 C14.4302,12.105 14.6172,12.285 14.6172,12.505"/>
  </g>
</svg>
