<svg xmlns="http://www.w3.org/2000/svg" width="16" height="16" viewBox="0 0 16 16">
  <g fill="#58585B">
    <path d="M4,7.85 C4,7.3808 4.29866667,7 4.66666667,7 L11.3333333,7 C11.7013333,7 12,7.3808 12,7.85 C12,8.3192 11.7013333,8.7 11.3333333,8.7 L4.66666667,8.7 C4.29866667,8.7 4,8.3192 4,7.85 L4,7.85 Z M9.167,15.002 C8.248,15.002 7.5,14.254 7.5,13.335 C7.5,12.417 8.248,11.669 9.167,11.669 L11.5,11.669 L11.5,11.234 C11.5,10.433 12.094,10 12.654,10 C12.906,10 13.153,10.079 13.387,10.235 L15.2,11.469 C15.708,10.418 16,9.245 16,8 C16,3.582 12.418,0 8,0 C3.582,0 0,3.582 0,8 C0,12.418 3.582,16 8,16 C9.257,16 10.441,15.702 11.5,15.186 L11.5,15.002 L9.167,15.002 Z"/>
    <path d="M15.0605,12.582 L14.7115,12.345 L13.9465,11.824 L12.8325,11.067 C12.6335,10.935 12.4995,11.002 12.4995,11.234 L12.4995,12.669 L9.1665,12.669 C8.7995,12.669 8.4995,12.968 8.4995,13.335 C8.4995,13.701 8.7995,14.002 9.1665,14.002 L11.3755,14.002 L12.4995,14.002 L12.4995,14.614 L12.4995,14.929 L12.4995,15.435 C12.4995,15.669 12.6665,15.734 12.8325,15.602 L16.1665,13.335 L15.0605,12.582 Z"/>
  </g>
</svg>
