<svg xmlns="http://www.w3.org/2000/svg" width="16" height="16" viewBox="0 0 16 16">
  <path fill="#58585B" d="M12.44,6.37 C13.1339183,6.3530733 13.7128787,6.89640538 13.74,7.59 L13.74,12.52 C13.7182223,13.2175434 13.1376805,13.7668253 12.44,13.75 L3.56,13.75 C3.22580045,13.7580519 2.90209949,13.6329646 2.66015654,13.4022748 C2.41821358,13.1715851 2.27786246,12.8542041 2.27,12.52 L2.27,7.59 C2.29177528,6.89797897 2.86784098,6.35317265 3.56,6.37 L4.08,6.37 L4.08,5.44 C4.10177773,4.74245656 4.68231953,4.19317469 5.38,4.21 L5.79,4.21 L5.79,3.09 C5.79781594,2.86716954 5.89390362,2.65658875 6.05709218,2.50465457 C6.22028075,2.35272039 6.43717969,2.27189984 6.66,2.28 L9.35,2.28 C9.57185137,2.27191499 9.78769549,2.35304104 9.94929972,2.50524968 C10.110904,2.65745832 10.2047979,2.86806232 10.21,3.09 L10.21,4.21 L10.62,4.21 C10.9559054,4.19923965 11.2821897,4.32311947 11.5263142,4.55409881 C11.7704387,4.78507814 11.9121705,5.1040135 11.92,5.44 L11.92,6.37 L12.44,6.37 Z M8.08333333,11.8666667 C8.40416667,11.8666667 8.66666667,11.6041667 8.66666667,11.2833333 C8.66666667,10.9625 8.40416667,10.7 8.08333333,10.7 C7.7625,10.7 7.5,10.9625 7.5,11.2833333 C7.5,11.6041667 7.7625,11.8666667 8.08333333,11.8666667 Z M8.08333333,9.75702718 C8.40416667,9.75702718 8.66666667,9.49452718 8.66666667,9.17369385 L8.66666667,6.28333333 C8.66666667,5.9625 8.40416667,5.7 8.08333333,5.7 C7.7625,5.7 7.5,5.9625 7.5,6.28333333 L7.5,9.17369385 C7.5,9.49452718 7.7625,9.75702718 8.08333333,9.75702718 Z M13.63,0 C14.261217,0.00264660029 14.865529,0.255937644 15.3099914,0.704150801 C15.7544538,1.15236396 16.0026577,1.75878307 16.0000211,2.39 L16.0000211,13.64 C15.9944936,14.9450079 14.9350195,16 13.63,16 L2.38,16 C1.07333333,16 0.0109803914,14.9466205 -1.77635684e-15,13.64 L-1.77635684e-15,2.39 C-1.77635684e-15,1.07393485 1.06394637,0.0055065487 2.38,0 L13.63,0 Z M15.0000365,13.64 L15.0000365,2.39 C15.0026618,2.02399837 14.859816,1.67193084 14.6028891,1.41125317 C14.3459622,1.15057551 13.9960018,1.00264258 13.63,1 L2.38,1 C2.01226203,1 1.65972961,1.1467547 1.40064002,1.40772175 C1.14155043,1.6686888 0.997335232,2.02227168 0.999963717,2.39 L0.999963717,13.64 C1.01093348,14.3943311 1.6255897,15 2.38,15 L13.63,15 C14.3805138,14.9946399 14.9891419,14.3904544 15.0000365,13.64 Z"/>
</svg>
