<svg xmlns="http://www.w3.org/2000/svg" width="16" height="16" viewBox="0 0 16 16">
  <path fill="#58585B" d="M12.44,6.37 L11.92,6.37 L11.92,5.44 C11.9121705,5.1040135 11.7704387,4.78507814 11.5263142,4.55409881 C11.2821897,4.32311947 10.9559054,4.19923965 10.62,4.21 L10.21,4.21 L10.21,3.09 C10.1936975,2.62996862 9.81018269,2.26875122 9.35,2.28 L6.65,2.28 C6.18981731,2.26875122 5.80630254,2.62996862 5.79,3.09 L5.79,4.21 L5.38,4.21 C5.04409459,4.19923965 4.7178103,4.32311947 4.47368579,4.55409881 C4.22956129,4.78507814 4.08782955,5.1040135 4.08,5.44 L4.08,6.37 L3.56,6.37 C2.86608174,6.3530733 2.28712133,6.89640538 2.26,7.59 L2.26,12.52 C2.28177773,13.2175434 2.86231953,13.7668253 3.56,13.75 L12.44,13.75 C12.7741996,13.7580519 13.0979005,13.6329646 13.3398435,13.4022748 C13.5817864,13.1715851 13.7221375,12.8542041 13.73,12.52 L13.73,7.59 C13.7082247,6.89797897 13.132159,6.35317265 12.44,6.37 L12.44,6.37 Z M13.62,16 L2.37,16 C1.06498046,16 0.0055064115,14.9450079 -2.11261427e-05,13.64 L-2.11261427e-05,2.39 C-0.00265774387,1.75878307 0.245546194,1.15236396 0.690008614,0.704150801 C1.13447103,0.255937644 1.73878302,0.00264660029 2.37,0 L13.62,0 C14.9360536,0.0055065487 16,1.07393485 16,2.39 L16,13.64 C15.9890196,14.9466205 14.9266667,16 13.62,16 Z M2.37,1 C2.00399823,1.00264258 1.65403779,1.15057551 1.39711089,1.41125317 C1.14018398,1.67193084 0.997338204,2.02399837 0.999963456,2.39 L0.999963456,13.64 C1.01085815,14.3904544 1.61948618,14.9946399 2.37,15 L13.62,15 C14.3744103,15 14.9890665,14.3943311 15.0000363,13.64 L15.0000363,2.39 C15.0026648,2.02227168 14.8584496,1.6686888 14.59936,1.40772175 C14.3402704,1.1467547 13.987738,1 13.62,1 L2.37,1 Z"/>
</svg>
