<svg xmlns="http://www.w3.org/2000/svg" width="16" height="17" viewBox="0 0 16 17">
  <g fill="#58585B">
    <path d="M4.667,12.169 C3.748,12.169 3,12.917 3,13.835 C3,13.995 3.03,14.147 3.072,14.293 C1.205,12.829 3.78364007e-13,10.557 3.78364007e-13,8 C3.78364007e-13,3.582 3.582,6.03961325e-14 8,6.03961325e-14 C11.879,6.03961325e-14 15.112,2.762 15.843,6.426 C15.537,6.164 15.132,6 14.667,6 C13.748,6 13,6.748 13,7.666 L13,11.656 C13,12.33 13.403,12.908 13.979,13.17 C13.708,13.3 13.475,13.495 13.305,13.74 L8.888,10.735 C8.653,10.579 8.407,10.5 8.154,10.5 C7.595,10.5 7,10.933 7,11.734 L7,12.169 L4.667,12.169 Z M4.66666667,8.7 L11.3333333,8.7 C11.7013333,8.7 12,8.3192 12,7.85 C12,7.3808 11.7013333,7 11.3333333,7 L4.66666667,7 C4.29866667,7 4,7.3808 4,7.85 C4,8.3192 4.29866667,8.7 4.66666667,8.7 Z"/>
    <path d="M10.561 13.082L10.212 12.845 9.447 12.324 8.333 11.567C8.134 11.435 8 11.502 8 11.734L8 13.169 4.667 13.169C4.3 13.169 4 13.468 4 13.835 4 14.201 4.3 14.502 4.667 14.502L6.876 14.502 8 14.502 8 15.114 8 15.429 8 15.935C8 15.961 8.009 15.977 8.013 15.999 8.044 16.173 8.186 16.219 8.333 16.102L8.521 15.974 11.667 13.835 10.561 13.082zM14.7559 7C15.1239 7 15.4229 7.298 15.4229 7.666L15.4229 10.973 15.4229 11.656C15.4229 12.024 15.1239 12.323 14.7559 12.323L14.7249 12.323 14.6669 12.323C14.2979 12.323 13.9999 12.024 13.9999 11.656L13.9999 7.666C13.9999 7.298 14.2979 7 14.6669 7L14.7559 7zM14.7109 14C15.1039 14 15.4219 14.318 15.4219 14.711 15.4219 15.104 15.1039 15.422 14.7109 15.422 14.3179 15.422 13.9999 15.104 13.9999 14.711 13.9999 14.318 14.3179 14 14.7109 14z"/>
  </g>
</svg>
