<?xml version="1.0" encoding="UTF-8"?>
<svg width="10px" height="15px" viewBox="0 0 10 15" version="1.1" xmlns="http://www.w3.org/2000/svg" xmlns:xlink="http://www.w3.org/1999/xlink">
    <title>italic</title>
    <g id="ICONS" stroke="none" stroke-width="1" fill="none" fill-rule="evenodd">
        <g id="Icons_2.2" transform="translate(-26.000000, -119.000000)" fill="#58585B" fill-rule="nonzero">
            <g id="italic" transform="translate(26.000000, 119.000000)">
                <path d="M6.00702576,15 C6.30366901,15 6.45199063,14.9307159 6.45199063,14.7921478 C6.45199063,14.6458814 6.2724434,14.5573518 5.91334895,14.5265589 C5.08587041,14.4572748 4.67213115,14.0762125 4.67213115,13.3833718 C4.67213115,13.2101617 4.7344985,12.8274755 4.8592332,12.2353132 L4.95162928,11.8095049 C5.03632569,11.4288034 5.14027127,10.9834488 5.26346604,10.4734411 C5.65768931,8.84141647 6.12217018,7.07274827 6.65690867,5.16743649 C7.19164715,3.26212471 7.54488681,2.12278676 7.71662763,1.74942263 C7.88836846,1.37605851 8.1069477,1.09892225 8.37236534,0.918013857 C8.63778298,0.737105466 9.09445746,0.615858353 9.74238876,0.554272517 C9.91412959,0.538876059 10,0.465742879 10,0.334872979 C10,0.250192456 9.93754879,0.180908391 9.81264637,0.127020785 L9.81264637,0.127020785 L4.06323185,0 C3.7431694,0 3.54800937,0.0115473441 3.47775176,0.0346420323 C3.40749415,0.0577367206 3.37236534,0.115473441 3.37236534,0.207852194 C3.37236534,0.346420323 3.48946136,0.427251732 3.7236534,0.45034642 C4.84777518,0.527328714 5.40983607,0.958429561 5.40983607,1.74364896 C5.40983607,1.91301001 5.26932084,2.54426482 4.9882904,3.63741339 L4.9882904,3.63741339 L3.93442623,7.69053118 L2.75175644,12.182448 C2.54879001,13.0369515 2.30679157,13.6104696 2.02576112,13.9030023 C1.74473068,14.195535 1.2568306,14.3879908 0.56206089,14.4803695 C0.18735363,14.5342571 0,14.6266359 0,14.7575058 C0,14.8960739 0.120999219,14.965358 0.362997658,14.965358 L0.362997658,14.965358 L1.93208431,14.9307159 L6.00702576,15 Z" id="I"></path>
            </g>
        </g>
    </g>
</svg>