<?xml version="1.0" encoding="UTF-8"?>
<svg width="14px" height="16px" viewBox="0 0 14 16" version="1.1" xmlns="http://www.w3.org/2000/svg" xmlns:xlink="http://www.w3.org/1999/xlink">
    <!-- Generator: Sketch 49.3 (51167) - http://www.bohemiancoding.com/sketch -->
    <title>icon-last-page</title>
    <desc>Created with Sketch.</desc>
    <defs></defs>
    <g id="SBG-Icon-Library" stroke="none" stroke-width="1" fill="none" fill-rule="evenodd">
        <g id="Actions" transform="translate(-331.000000, -2375.000000)">
            <g id="Last-Page" transform="translate(0.000000, 2352.000000)"></g>
            <path d="M332.200204,2375.21327 L339.727273,2383.00009 L332.200204,2390.78691 C332.063118,2390.92873 331.883149,2391 331.70318,2391 C331.523211,2391 331.343242,2390.92873 331.206156,2390.78691 C330.931281,2390.50255 330.931281,2390.04292 331.206156,2389.75856 L337.739176,2383.00009 L331.206156,2376.24162 C330.931281,2375.95726 330.931281,2375.49763 331.206156,2375.21327 C331.481031,2374.92891 331.92533,2374.92891 332.200204,2375.21327 Z M343.75,2375 C344.164214,2375 344.5,2375.33579 344.5,2375.75 L344.5,2390.25 C344.5,2390.66421 344.164214,2391 343.75,2391 C343.335786,2391 343,2390.66421 343,2390.25 L343,2375.75 C343,2375.33579 343.335786,2375 343.75,2375 Z" id="Mask" fill="#58585B"></path>
        </g>
    </g>
</svg>