<?xml version="1.0" encoding="UTF-8"?>
<svg width="16px" height="16px" viewBox="0 0 16 16" version="1.1" xmlns="http://www.w3.org/2000/svg" xmlns:xlink="http://www.w3.org/1999/xlink">
    <!-- Generator: Sketch 49.3 (51167) - http://www.bohemiancoding.com/sketch -->
    <title>icon-link</title>
    <desc>Created with Sketch.</desc>
    <defs></defs>
    <g id="SBG-Icon-Library" stroke="none" stroke-width="1" fill="none" fill-rule="evenodd">
        <g id="Content" transform="translate(-294.000000, -1619.000000)" fill="#58585B">
            <g id="Link" transform="translate(0.000000, 1596.000000)">
                <g transform="translate(294.000000, 23.000000)" id="Fill-1">
                    <path d="M14.1122667,4.58333333 L12.1489333,6.54666667 C11.7916,6.904 11.3129333,7.10133333 10.8009333,7.10133333 C10.5236,7.10133333 10.2582667,7.03866667 10.0142667,6.92866667 L12.1382667,4.80466667 C12.3982667,4.544 12.3982667,4.12266667 12.1382667,3.862 C11.8776,3.60133333 11.4556,3.60133333 11.1956,3.862 L9.0716,5.986 C8.75293333,5.28333333 8.87626667,4.428 9.45293333,3.85133333 L11.4169333,1.888 C11.7742667,1.53 12.2529333,1.33333333 12.7642667,1.33333333 C13.2762667,1.33333333 13.7549333,1.53 14.1122667,1.888 C14.8556,2.63066667 14.8556,3.84 14.1122667,4.58333333 M6.54693333,12.1486667 L4.5836,14.112 C4.2256,14.47 3.7476,14.6666667 3.2356,14.6666667 C2.7236,14.6666667 2.24493333,14.47 1.8876,14.112 C1.14426667,13.3693333 1.14426667,12.16 1.8876,11.4166667 L3.85093333,9.45333333 C4.20893333,9.096 4.6876,8.89866667 5.19893333,8.89866667 C5.47626667,8.89866667 5.74226667,8.96133333 5.98626667,9.07133333 L3.86226667,11.1953333 C3.6016,11.456 3.6016,11.8773333 3.86226667,12.138 C3.99226667,12.268 4.16293333,12.3333333 4.3336,12.3333333 C4.5036,12.3333333 4.67426667,12.268 4.80493333,12.138 L6.92893333,10.014 C7.24693333,10.7166667 7.1236,11.572 6.54693333,12.1486667 M15.0549333,0.944666667 C14.4249333,0.315333333 13.5949333,0 12.7642667,0 C11.9342667,0 11.1036,0.315333333 10.4736,0.944666667 L8.51026667,2.908 C7.41226667,4.00666667 7.27293333,5.71333333 8.08893333,6.968 L6.96826667,8.08933333 C6.43293333,7.74066667 5.81626667,7.56533333 5.19893333,7.56533333 C4.36893333,7.56533333 3.53826667,7.88 2.90826667,8.51066667 L0.944933333,10.4733333 C-0.315066667,11.734 -0.315066667,13.7953333 0.944933333,15.0553333 C1.57493333,15.6846667 2.40493333,16 3.2356,16 C4.06626667,16 4.89626667,15.6846667 5.52626667,15.0553333 L7.4896,13.092 C8.58826667,11.9933333 8.7276,10.2866667 7.91093333,9.032 L9.0316,7.91066667 C9.56693333,8.25933333 10.1836,8.43466667 10.8009333,8.43466667 C11.6316,8.43466667 12.4616,8.12 13.0916,7.48933333 L15.0549333,5.52666667 C16.3149333,4.266 16.3149333,2.20466667 15.0549333,0.944666667"></path>
                </g>
            </g>
        </g>
    </g>
</svg>