<svg xmlns="http://www.w3.org/2000/svg" width="16" height="14" viewBox="0 0 16 14">
  <path fill="#58585B" fill-rule="evenodd" d="M7.644,19.5996 L22.356,19.6096 C22.711,19.6096 23,19.9226 23,20.3056 C23,20.6537818 22.761157,20.9424595 22.4510143,20.9920688 L22.356,20.9996 L7.643,20.9886 C7.288,20.9886 7,20.6776 7,20.2946 C7,19.9455091 7.23884298,19.6567488 7.54898573,19.6071319 L7.644,19.5996 Z M7.644,13.2998 L22.356,13.3098 C22.711,13.3108 23,13.6218 23,14.0058 C23,14.3539818 22.761157,14.6426595 22.4510143,14.6922688 L22.356,14.6998 L7.643,14.6898 C7.288,14.6888 7,14.3778 7,13.9938 C7,13.6456182 7.23884298,13.3569405 7.54898573,13.3073312 L7.644,13.2998 Z M7.644,7 L22.356,7.01 C22.711,7.011 23,7.322 23,7.706 C23,8.05418182 22.761157,8.3428595 22.4510143,8.39246882 L22.356,8.4 L7.643,8.39 C7.288,8.389 7,8.078 7,7.694 C7,7.34581818 7.23884298,7.0571405 7.54898573,7.00753118 L7.644,7 Z" transform="translate(-7 -7)"/>
</svg>
