<svg xmlns="http://www.w3.org/2000/svg" width="16" height="10" viewBox="0 0 16 10">
  <g fill="none" fill-rule="evenodd">
    <path fill="#58585B" d="M8.15811388,0.0527046277 L15.5769751,2.52565835 C15.8389467,2.61298224 15.9805267,2.89614222 15.8932028,3.15811388 C15.8434353,3.30741638 15.7262776,3.42457415 15.5769751,3.47434165 L8.15811388,5.94729537 C8.05548048,5.98150651 7.94451952,5.98150651 7.84188612,5.94729537 L0.423024947,3.47434165 C0.161053288,3.38701776 0.0194732947,3.10385778 0.106797181,2.84188612 C0.15656468,2.69258362 0.273722449,2.57542585 0.423024947,2.52565835 L7.84188612,0.0527046277 C7.94451952,0.018493493 8.05548048,0.018493493 8.15811388,0.0527046277 Z"/>
    <path fill="#58585B" d="M8.35112344,7.86832871 L15.3244383,5.25333565 C15.5829984,5.15637558 15.8712045,5.28737835 15.9681646,5.54593851 C15.9892165,5.60207704 16,5.66154426 16,5.72150023 L16,6.65349977 C16,6.86192205 15.8707136,7.04848241 15.6755617,7.12166435 L8.35112344,9.86832871 C8.1247383,9.95322314 7.8752617,9.95322314 7.64887656,9.86832871 L0.324438279,7.12166435 C0.129286417,7.04848241 2.55243679e-17,6.86192205 0,6.65349977 L0,5.72150023 C-3.38176876e-17,5.44535786 0.223857625,5.22150023 0.5,5.22150023 C0.559955975,5.22150023 0.619423192,5.2322837 0.675561721,5.25333565 L7.64887656,7.86832871 C7.8752617,7.95322314 8.1247383,7.95322314 8.35112344,7.86832871 Z"/>
  </g>
</svg>
