<svg xmlns="http://www.w3.org/2000/svg" width="16" height="16" viewBox="0 0 16 16">
  <path fill="#58585B" fill-rule="evenodd" d="M0,8 C0,3.567 3.567,0 8,0 C12.434,0 16,3.567 16,8 C16,12.434 12.434,16 8,16 C3.567,16 0,12.434 0,8 Z M8.80921708,7.63282314 L5.73545653,3.96965796 C5.39700165,3.56630314 4.82602556,3.48354069 4.46478223,3.78665984 C4.10353889,4.08977899 4.08491073,4.66727815 4.42336561,5.07063297 L7.49712616,8.73379815 L6.08660381,9.91736693 C5.85627427,10.1106364 5.94532034,10.3486912 6.22932272,10.4212853 L11.5354459,12.2131487 L10.6922036,6.67648362 C10.6395956,6.34792107 10.450069,6.25598493 10.2207237,6.44842842 L8.80921708,7.63282314 Z"/>
</svg>
