<?xml version="1.0" encoding="UTF-8"?>
<svg width="16px" height="16px" viewBox="0 0 16 16" version="1.1" xmlns="http://www.w3.org/2000/svg" xmlns:xlink="http://www.w3.org/1999/xlink">
    <!-- Generator: Sketch 49.3 (51167) - http://www.bohemiancoding.com/sketch -->
    <title>icon-move-document</title>
    <desc>Created with Sketch.</desc>
    <defs></defs>
    <g id="SBG-Icon-Library" stroke="none" stroke-width="1" fill="none" fill-rule="evenodd">
        <g id="Actions" transform="translate(-294.000000, -2633.000000)">
            <g id="Move" transform="translate(0.000000, 2615.000000)"></g>
            <g id="Move-Copy" transform="translate(294.000000, 2633.000000)" fill="#58585B">
                <g id="outgoing_icn" transform="translate(7.000000, 4.500000) scale(1, -1) rotate(-360.000000) translate(-7.000000, -4.500000) ">
                    <g id="Group-9">
                        <g id="Group-12">
                            <path d="M7,3.5 L12.9970707,3.5 C13.5509732,3.5 14,3.94386482 14,4.5 L14,4.5 C14,5.05228475 13.5621186,5.5 12.9970707,5.5 L7,5.5 L7,3.5 Z" id="Combined-Shape"></path>
                            <path d="M7,4.50005204 L0.816688731,8.84680143 C0.365644,9.16387724 -2.94431146e-13,8.97246529 -2.94431146e-13,8.42307955 L-2.94431146e-13,0.577024541 C-2.94431146e-13,0.0259335988 0.366494641,-0.163175167 0.816688731,0.153302656 L7,4.50005204 Z" id="Triangle" transform="translate(3.500000, 4.500000) rotate(180.000000) translate(-3.500000, -4.500000) "></path>
                        </g>
                    </g>
                </g>
                <path d="M9,8.99703014 C9,8.4463856 9.43788135,8 10.0029293,8 L14.9970707,8 C15.5509732,8 16,8.45303631 16,8.99703014 L16,15.0029699 C16,15.5536144 15.5621186,16 14.9970707,16 L10.0029293,16 C9.44902676,16 9,15.5469637 9,15.0029699 L9,8.99703014 Z M11,10.5 C11,10.7680664 11.2217932,11 11.495389,11 L13.504611,11 C13.7842474,11 14,10.7761424 14,10.5 C14,10.2319336 13.7782068,10 13.504611,10 L11.495389,10 C11.2157526,10 11,10.2238576 11,10.5 Z M11,12.5 C11,12.7680664 11.2217932,13 11.495389,13 L13.504611,13 C13.7842474,13 14,12.7761424 14,12.5 C14,12.2319336 13.7782068,12 13.504611,12 L11.495389,12 C11.2157526,12 11,12.2238576 11,12.5 Z" id="Combined-Shape"></path>
            </g>
        </g>
    </g>
</svg>