<?xml version="1.0" encoding="UTF-8"?>
<svg width="15px" height="15px" viewBox="0 0 15 15" version="1.1" xmlns="http://www.w3.org/2000/svg" xmlns:xlink="http://www.w3.org/1999/xlink">
    <!-- Generator: Sketch 49.3 (51167) - http://www.bohemiancoding.com/sketch -->
    <title>icon-NAT-original_port</title>
    <desc>Created with Sketch.</desc>
    <defs></defs>
    <g id="SBG-Icon-Library" stroke="none" stroke-width="1" fill="none" fill-rule="evenodd">
        <g id="Abstract" transform="translate(-305.000000, -1150.000000)" fill="#58585B">
            <g id="NAT-Original-Port" transform="translate(0.000000, 1124.000000)">
                <path d="M306.005,35.499 L306.005,27.003 L314.501,27.003 L314.501,35.499 L310.752,35.499 L310.752,32.313 C311.151,32.124 311.433,31.724 311.433,31.252 C311.433,30.6 310.904,30.071 310.252,30.071 C309.6,30.071 309.071,30.6 309.071,31.252 C309.071,31.724 309.353,32.124 309.752,32.313 L309.752,35.499 L306.005,35.499 Z M317.214,37.794 C317.086,37.708 317,37.751 317,37.901 L317,38.248 L317,38.752 L310.752,38.752 L310.752,36.504 L314.005,36.504 C314.832,36.504 315.504,35.832 315.504,35.005 L315.504,27.499 C315.504,26.673 314.832,26 314.005,26 L306.499,26 C305.672,26 305,26.673 305,27.499 L305,35.005 C305,35.832 305.672,36.504 306.499,36.504 L309.752,36.504 L309.752,39.752 L317,39.752 L317,39.895 L317,40.603 C317,40.754 317.108,40.796 317.214,40.711 L319.359,39.252 L317.214,37.794 Z" id="icn_NAT_original_port"></path>
            </g>
        </g>
    </g>
</svg>