<?xml version="1.0" encoding="UTF-8"?>
<svg width="16px" height="16px" viewBox="0 0 16 16" version="1.1" xmlns="http://www.w3.org/2000/svg" xmlns:xlink="http://www.w3.org/1999/xlink">
    <!-- Generator: Sketch 49.3 (51167) - http://www.bohemiancoding.com/sketch -->
    <title>icon-NAT</title>
    <desc>Created with Sketch.</desc>
    <defs></defs>
    <g id="SBG-Icon-Library" stroke="none" stroke-width="1" fill="none" fill-rule="evenodd">
        <g id="Abstract" transform="translate(-303.000000, -1036.000000)" fill="#58585B">
            <g id="NAT" transform="translate(0.000000, 1007.000000)">
                <g id="icn_NAT" transform="translate(303.000000, 31.000000)">
                    <path d="M11.6667,8.1466 L11.6667,8.4936 L11.6667,9.0026 L8.1667,9.0026 L8.1667,5.5026 L8.1667,2.0026 L11.6667,2.0026 L11.6667,2.1446 L11.6667,2.8536 C11.6667,3.0036 11.7737,3.0466 11.8807,2.9606 L14.0257,1.5016 L11.8807,0.0436 C11.7527,-0.0414 11.6667,0.0006 11.6667,0.1506 L11.6667,0.4976 L11.6667,1.0026 L7.6667,1.0026 C7.3907,1.0026 7.1667,1.2266 7.1667,1.5026 L7.1667,5.0026 L3.6667,5.0026 L3.6667,4.8276 L3.6667,4.0226 L3.6667,3.3936 C3.6667,3.1606 3.4997,3.0936 3.3337,3.2276 L-0.0003,5.4936 L3.3337,7.7606 C3.5337,7.8936 3.6667,7.8276 3.6667,7.5936 L3.6667,6.7446 L3.6667,6.1606 L3.6667,6.0026 L7.1667,6.0026 L7.1667,9.5026 C7.1667,9.7786 7.3907,10.0026 7.6667,10.0026 L11.6667,10.0026 L11.6667,10.1406 L11.6667,10.8496 C11.6667,10.9996 11.7737,11.0426 11.8807,10.9566 L14.0257,9.4986 L11.8807,8.0396 C11.7527,7.9536 11.6667,7.9966 11.6667,8.1466" id="Fill-1"></path>
                </g>
            </g>
        </g>
    </g>
</svg>