<svg xmlns="http://www.w3.org/2000/svg" width="16" height="14" viewBox="0 0 16 14">
  <path fill="#58585B" fill-rule="evenodd" d="M11.2454,12.4518 L4.7544,12.4488 L4.7544,9.6418 L11.2454,9.6418 L11.2454,12.4518 Z M5.7244,3.9728 C5.2034,3.9728 4.7804,3.5488 4.7804,3.0268 C4.7804,2.5058 5.2034,2.0828 5.7244,2.0828 C6.2464,2.0828 6.6694,2.5058 6.6694,3.0268 C6.6694,3.5488 6.2464,3.9728 5.7244,3.9728 L5.7244,3.9728 Z M2.5924,3.9728 C2.0704,3.9728 1.6474,3.5488 1.6474,3.0268 C1.6474,2.5058 2.0704,2.0828 2.5924,2.0828 C3.1134,2.0828 3.5364,2.5058 3.5364,3.0268 C3.5364,3.5488 3.1134,3.9728 2.5924,3.9728 L2.5924,3.9728 Z M8.7944,2.0828 C9.3154,2.0828 9.7394,2.5058 9.7394,3.0268 C9.7394,3.5488 9.3154,3.9728 8.7944,3.9728 C8.2724,3.9728 7.8494,3.5488 7.8494,3.0268 C7.8494,2.5058 8.2724,2.0828 8.7944,2.0828 L8.7944,2.0828 Z M16.0004,10.9758 L12.2454,10.9758 L12.2454,9.5228 C12.2454,9.0368 11.8104,8.6418 11.2774,8.6418 L8.5074,8.6418 L8.5424,6.0548 L14.9974,6.0548 C15.5504,6.0548 15.9974,5.6068 15.9974,5.0558 L15.9974,0.9998 C15.9974,0.4478 15.5504,-0.0002 14.9974,-0.0002 L1.0014,-0.0002 C0.4494,-0.0002 0.0014,0.4478 0.0014,0.9998 L0.0014,5.0558 C0.0014,5.6068 0.4494,6.0548 1.0014,6.0548 L7.5424,6.0548 L7.5074,8.6418 L4.7224,8.6418 C4.1884,8.6418 3.7544,9.0368 3.7544,9.5228 L3.7544,10.9758 L0.0004,10.9758 L0.0004,11.9758 L3.7544,11.9758 L3.7544,12.5708 C3.7544,13.0558 4.1884,13.4518 4.7224,13.4518 L11.2774,13.4518 C11.8104,13.4518 12.2454,13.0558 12.2454,12.5708 L12.2454,11.9758 L16.0004,11.9758 L16.0004,10.9758 Z"/>
</svg>
