<svg xmlns="http://www.w3.org/2000/svg" width="16" height="16" viewBox="0 0 16 16">
  <path fill="#58585B" fill-rule="evenodd" d="M8.84266667,0 L8.84266667,1.68266667 L1.684,1.68266667 L1.684,14.316 L14.3173333,14.316 L14.3173333,7.15733333 L16,7.15733333 L16,15.1573333 C16,15.6213333 15.6226667,16 15.1573333,16 L0.842666667,16 C0.378666667,16 0,15.6213333 0,15.1573333 L0,0.842666667 C0,0.377333333 0.378666667,0 0.842666667,0 L8.84266667,0 Z M16,-3.01980663e-13 L15.0583619,4.89545016 C15.01128,5.17141596 14.811182,5.2355028 14.6123917,5.0367028 L13.3712604,3.79551065 L10.7425208,6.42437916 C10.4194867,6.74742917 9.89766225,6.74742917 9.57462809,6.42437916 C9.25290175,6.10263704 9.25290175,5.57817124 9.57462809,5.25642912 L12.2020598,2.62886851 L10.9517737,1.3785211 C10.7542913,1.17972109 10.818375,0.978305295 11.0943273,0.931221083 L16,-3.01980663e-13 Z"/>
</svg>
