<?xml version="1.0" encoding="UTF-8"?>
<svg width="11px" height="16px" viewBox="0 0 11 16" version="1.1" xmlns="http://www.w3.org/2000/svg" xmlns:xlink="http://www.w3.org/1999/xlink">
    <!-- Generator: Sketch 49.3 (51167) - http://www.bohemiancoding.com/sketch -->
    <title>icon-note</title>
    <desc>Created with Sketch.</desc>
    <defs></defs>
    <g id="SBG-Icon-Library" stroke="none" stroke-width="1" fill="none" fill-rule="evenodd">
        <g id="Content" transform="translate(-295.000000, -1814.000000)" fill="#58585B">
            <g id="Note" transform="translate(0.000000, 1792.000000)">
                <path d="M303,28 L297.666667,28 C297.298667,28 297,27.7013333 297,27.3333333 C297,26.9653333 297.298667,26.6666667 297.666667,26.6666667 L303,26.6666667 C303.368,26.6666667 303.666667,26.9653333 303.666667,27.3333333 C303.666667,27.7013333 303.368,28 303,28 M303,31.3333333 L297.666667,31.3333333 C297.298667,31.3333333 297,31.0346667 297,30.6666667 C297,30.2986667 297.298667,30 297.666667,30 L303,30 C303.368,30 303.666667,30.2986667 303.666667,30.6666667 C303.666667,31.0346667 303.368,31.3333333 303,31.3333333 M299.666667,34.6666667 L297.666667,34.6666667 C297.298667,34.6666667 297,34.368 297,34 C297,33.632 297.298667,33.3333333 297.666667,33.3333333 L299.666667,33.3333333 C300.034667,33.3333333 300.333333,33.632 300.333333,34 C300.333333,34.368 300.034667,34.6666667 299.666667,34.6666667 M305,22 L303.666667,22 L303.666667,22.6666667 C303.666667,23.0346667 303.368,23.3333333 303,23.3333333 C302.632,23.3333333 302.333333,23.0346667 302.333333,22.6666667 L302.333333,22 L298.333333,22 L298.333333,22.6666667 C298.333333,23.0346667 298.034667,23.3333333 297.666667,23.3333333 C297.298667,23.3333333 297,23.0346667 297,22.6666667 L297,22 L295.666667,22 C295.3,22 295,22.3 295,22.6666667 L295,37.3333333 C295,37.7 295.3,38 295.666667,38 L305,38 C305.366667,38 305.666667,37.7 305.666667,37.3333333 L305.666667,22.6666667 C305.666667,22.3 305.366667,22 305,22"></path>
            </g>
        </g>
    </g>
</svg>