<?xml version="1.0" encoding="UTF-8"?>
<svg width="16px" height="11px" viewBox="0 0 16 11" version="1.1" xmlns="http://www.w3.org/2000/svg" xmlns:xlink="http://www.w3.org/1999/xlink">
    <!-- Generator: Sketch 49.3 (51167) - http://www.bohemiancoding.com/sketch -->
    <title>icon-outgoing</title>
    <desc>Created with Sketch.</desc>
    <defs></defs>
    <g id="SBG-Icon-Library" stroke="none" stroke-width="1" fill="none" fill-rule="evenodd">
        <g id="Content" transform="translate(-292.000000, -2026.000000)">
            <g id="Outgoing" transform="translate(0.000000, 1991.000000)"></g>
            <g id="Page-1" transform="translate(292.000000, 2026.000000)" fill="#58585B">
                <path d="M5.77675432,3 L10.2239364,3 C10.4865878,3 10.5781937,2.85515993 10.427187,2.67712734 L8.01179608,0 L5.57278797,2.67712734 C5.42178131,2.85515993 5.51338725,3 5.77675432,3" id="Fill-1"></path>
                <path d="M14.6666667,0 L14.6666667,6.875 L1.33333333,6.875 L1.33333333,0 C0.6,0 0,0.61875 0,1.375 L0,7.5625 L0,9.625 L0,10.3125 C0,10.692 0.298,11 0.666666667,11 L15.3333333,11 C15.702,11 16,10.692 16,10.3125 L16,9.625 L16,7.5625 L16,1.375 C16,0.61875 15.4,0 14.6666667,0" id="Fill-3"></path>
            </g>
        </g>
    </g>
</svg>