<svg xmlns="http://www.w3.org/2000/svg" width="16" height="13" viewBox="0 0 16 13">
  <path fill="#58585B" d="M8.7931,2.1056 C9.3141,2.1056 9.7371,2.5326 9.7371,3.0606 C9.7371,3.5886 9.3141,4.0156 8.7931,4.0156 C8.2711,4.0156 7.8481,3.5886 7.8481,3.0606 C7.8481,2.5326 8.2711,2.1056 8.7931,2.1056 Z M5.7231,2.1056 C6.2451,2.1056 6.6681,2.5326 6.6681,3.0606 C6.6681,3.5886 6.2451,4.0156 5.7231,4.0156 C5.2011,4.0156 4.7781,3.5886 4.7781,3.0606 C4.7781,2.5326 5.2011,2.1056 5.7231,2.1056 Z M2.5901,2.1056 C3.1121,2.1056 3.5351,2.5326 3.5351,3.0606 C3.5351,3.5886 3.1121,4.0156 2.5901,4.0156 C2.0691,4.0156 1.6461,3.5886 1.6461,3.0606 C1.6461,2.5326 2.0691,2.1056 2.5901,2.1056 Z M14.9961,6.1196 C15.5481,6.1196 15.9961,5.6686 15.9961,5.1106 L15.9961,1.0106 C15.9961,0.4536 15.5481,-0.0004 14.9961,-0.0004 L1.0001,-0.0004 C0.4471,-0.0004 0.0001,0.4536 0.0001,1.0106 L0.0001,5.1106 C0.0001,5.6686 0.4471,6.1196 1.0001,6.1196 L7.5121,6.1196 L7.5121,10.5636 L4.1701,10.5636 L3.0001,10.5636 L3.0001,10.3116 L3.0001,9.3326 C3.0001,9.1396 2.8641,9.0846 2.7271,9.1946 L0.0001,11.0696 L2.7271,12.9436 C2.8641,13.0546 3.0001,12.9986 3.0001,12.8066 L3.0001,11.8276 L3.0001,11.5746 L4.1701,11.5746 L11.8261,11.5746 L12.9961,11.5746 L12.9961,11.8276 L12.9961,12.8066 C12.9961,12.9986 13.1321,13.0546 13.2691,12.9436 L15.9961,11.0696 L13.2691,9.1946 C13.1321,9.0846 12.9961,9.1406 12.9961,9.3326 L12.9961,10.3106 L12.9961,10.5636 L8.5121,10.5636 L8.5121,6.1196 L14.9961,6.1196 Z"/>
</svg>
