<?xml version="1.0" encoding="UTF-8"?>
<svg width="11px" height="16px" viewBox="0 0 11 16" version="1.1" xmlns="http://www.w3.org/2000/svg" xmlns:xlink="http://www.w3.org/1999/xlink">
    <!-- Generator: Sketch 50.2 (55047) - http://www.bohemiancoding.com/sketch -->
    <title>icon-pdf</title>
    <desc>Created with Sketch.</desc>
    <defs></defs>
    <g id="SBG-Icon-Library" stroke="none" stroke-width="1" fill="none" fill-rule="evenodd">
        <g id="Content" transform="translate(-294.000000, -2207.000000)" fill="#58585B">
            <g id="PDF" transform="translate(0.000000, 2186.000000)">
                <g transform="translate(294.000000, 21.000000)" id="Shape">
                    <path d="M7.33333333,0 L10.6666667,3.33333333 L10.6666667,15.3333333 C10.6666667,15.7 10.3666667,16 10,16 L0.666666667,16 C0.3,16 0,15.7 0,15.3333333 L0,0.666666667 C0,0.3 0.3,0 0.666666667,0 L7.33333333,0 Z M8.3,12.1333333 C8.36666667,11.9 8.3,11.6333333 8.1,11.4333333 C7.83333333,11.1333333 7.33333333,11.0333333 6.63333333,11.1 C6.56666667,11.1333333 6.43333333,11.1333333 6.3,11.1666667 C6.06666667,10.8 5.83333333,10.3666667 5.63333333,9.93333333 C5.83333333,9.33333333 5.96666667,8.8 6.03333333,8.43333333 C6.1,8 5.93333333,7.63333333 5.63333333,7.43333333 C5.36666667,7.26666667 5,7.26666667 4.73333333,7.46666667 C4.43333333,7.66666667 4.3,8.03333333 4.4,8.46666667 C4.5,8.86666667 4.66666667,9.43333333 4.9,9.96666667 C4.7,10.5666667 4.46666667,11.1666667 4.23333333,11.7 C3.36666667,12 2.56666667,12.4333333 2.36666667,12.9666667 C2.3,13.1333333 2.23333333,13.4666667 2.56666667,13.8 L2.63333333,13.8333333 C2.73333333,13.9 2.9,13.9666667 3.1,13.9666667 C3.36666667,13.9666667 3.7,13.8333333 4.03333333,13.4666667 C4.23333333,13.2666667 4.46666667,12.8 4.73333333,12.2333333 C5.16666667,12.1 5.6,12 6.03333333,11.9 C6.2,12.0666667 6.33333333,12.2333333 6.5,12.3333333 C7.16666667,12.7666667 7.6,12.7333333 7.86666667,12.6333333 C8.1,12.5333333 8.26666667,12.3666667 8.3,12.1333333 Z M6.86666667,11.7699359 C7.3,11.7199359 7.53333333,11.8699359 7.63333333,12.0199359 C7.66666667,12.0699359 7.66666667,12.1199359 7.66666667,12.1199359 C7.66666667,12.1199359 7.66666667,12.1699359 7.6,12.1699359 C7.53333333,12.1699359 7.33333333,12.2199359 6.86666667,11.7699359 C6.86666667,11.8199359 6.86666667,11.8199359 6.86666667,11.7699359 Z M5.1,11.4666667 C5.16666667,11.2666667 5.26666667,11.0333333 5.33333333,10.8333333 C5.43333333,11 5.53333333,11.1666667 5.63333333,11.3333333 C5.46666667,11.3666667 5.3,11.4 5.1,11.4666667 Z M5.53617601,8.36666667 C5.48973913,8.53333333 5.44330226,8.73333333 5.30399163,8.96666667 C5.21111788,8.73333333 5.11824413,8.53333333 5.07180725,8.33333333 C5.02537037,8.16666667 5.07180725,8.06666667 5.164681,8 C5.21111788,7.96666667 5.25755475,7.96666667 5.30399163,7.96666667 C5.30399163,7.96666667 5.35042851,8 5.39686538,8 C5.53617601,8.06666667 5.58261289,8.2 5.53617601,8.36666667 Z M3,13.2 C3.06666667,13 3.4,12.8 3.83333333,12.6 C3.7,12.8 3.6,12.9666667 3.53333333,13.0666667 C3.3,13.3666667 3.1,13.3666667 3.03333333,13.3333333 C2.96666667,13.2666667 3,13.2333333 3,13.2 Z"></path>
                </g>
            </g>
        </g>
    </g>
</svg>