<svg xmlns="http://www.w3.org/2000/svg" width="16" height="16" viewBox="0 0 16 16">
  <path fill="#58585B" fill-rule="evenodd" d="M40.9902,183.1935 C40.9912,183.2085 41.0002,183.2205 41.0002,183.2345 L41.0002,183.2345 L41.0002,190.2455 C41.0002,190.6625 40.6482,190.9995 40.2132,190.9995 L40.2132,190.9995 L25.7882,190.9995 C25.3532,190.9995 25.0002,190.6625 25.0002,190.2455 L25.0002,190.2455 L25.0002,183.2315 C25.0002,183.2235 25.0072,183.2155 25.0082,183.2055 L25.0082,183.2055 L32.9182,188.2505 Z M37.002,174.9992 C37.554,174.9992 38,175.4402 38,175.9842 L38,175.9842 L38,183.8992 L33.457,186.7442 C33.132,186.9492 32.715,186.9472 32.39,186.7412 L32.39,186.7412 L28,183.9412 L28,175.9842 C28,175.4402 28.448,174.9992 28.999,174.9992 L28.999,174.9992 Z M34.03,176.1732 C33.244,176.1732 32.604,176.8132 32.604,177.5992 C32.604,178.2082 32.99,178.7262 33.53,178.9292 L33.53,178.9292 L33.53,182.6622 C33.53,183.2092 33.085,183.6552 32.537,183.6552 C31.99,183.6552 31.545,183.2092 31.545,182.6622 L31.545,182.6622 L31.545,182.0242 L32.902,182.0322 L30.545,179.5922 L30.545,182.6622 C30.545,183.7612 31.439,184.6552 32.537,184.6552 C33.636,184.6552 34.53,183.7612 34.53,182.6622 L34.53,182.6622 L34.53,178.9292 C35.069,178.7252 35.455,178.2082 35.455,177.5992 C35.455,176.8132 34.816,176.1732 34.03,176.1732 Z M27.0002,181.394 L27.0002,183.303 L25.6112,182.416 L27.0002,181.394 Z M39.0002,181.4087 L40.3762,182.4107 L39.0002,183.2727 L39.0002,181.4087 Z M34.03,177.021 C34.348,177.021 34.608,177.281 34.608,177.599 C34.608,177.917 34.348,178.176 34.03,178.176 C33.711,178.176 33.452,177.917 33.452,177.599 C33.452,177.281 33.711,177.021 34.03,177.021 Z" transform="translate(-25 -175)"/>
</svg>
