<?xml version="1.0" encoding="UTF-8"?>
<svg width="16px" height="17px" viewBox="0 0 16 17" version="1.1" xmlns="http://www.w3.org/2000/svg" xmlns:xlink="http://www.w3.org/1999/xlink">
    <!-- Generator: Sketch 49.3 (51167) - http://www.bohemiancoding.com/sketch -->
    <title>icon-progress</title>
    <desc>Created with Sketch.</desc>
    <defs></defs>
    <g id="SBG-Icon-Library" stroke="none" stroke-width="1" fill="none" fill-rule="evenodd">
        <g id="Alerts/Notifications" transform="translate(-290.000000, -1077.000000)">
            <g id="icn_progress" transform="translate(290.000000, 1077.000000)" fill="#58585B">
                <path d="M15.9395,8.1943 C15.9395,7.6113 15.4665,7.1393 14.8845,7.1393 C14.3015,7.1393 13.8295,7.6113 13.8295,8.1943 C13.8295,8.7773 14.3015,9.2493 14.8845,9.2493 C15.4665,9.2493 15.9395,8.7773 15.9395,8.1943" id="Fill-1"></path>
                <path d="M2.0977,2.4614 C1.4317,3.1284 1.4317,4.2084 2.0977,4.8754 C2.7647,5.5414 3.8447,5.5414 4.5117,4.8754 C5.1777,4.2084 5.1777,3.1284 4.5117,2.4614 C3.8447,1.7944 2.7647,1.7944 2.0977,2.4614" id="Fill-3"></path>
                <path d="M0,8.1943 C0,9.0493 0.693,9.7423 1.548,9.7423 C2.402,9.7423 3.096,9.0493 3.096,8.1943 C3.096,7.3393 2.402,6.6463 1.548,6.6463 C0.693,6.6463 0,7.3393 0,8.1943" id="Fill-5"></path>
                <path d="M2.3018,13.9941 C2.8558,14.5481 3.7538,14.5481 4.3078,13.9941 C4.8628,13.4401 4.8628,12.5411 4.3078,11.9871 C3.7538,11.4331 2.8558,11.4331 2.3018,11.9871 C1.7468,12.5411 1.7468,13.4401 2.3018,13.9941" id="Fill-7"></path>
                <path d="M13.6904,2.6054 C13.3234,2.2394 12.7294,2.2394 12.3634,2.6054 C11.9974,2.9714 11.9974,3.5654 12.3634,3.9324 C12.7294,4.2984 13.3234,4.2984 13.6904,3.9324 C14.0564,3.5654 14.0564,2.9714 13.6904,2.6054" id="Fill-9"></path>
                <path d="M8.1016,-0.0001 C6.9826,-0.0001 6.0756,0.9069 6.0756,2.0259 C6.0756,3.1459 6.9826,4.0529 8.1016,4.0529 C9.2206,4.0529 10.1276,3.1459 10.1276,2.0259 C10.1276,0.9069 9.2206,-0.0001 8.1016,-0.0001" id="Fill-11"></path>
                <path d="M8.1016,16.2089 C8.7816,16.2089 9.3316,15.6579 9.3316,14.9779 C9.3316,14.2969 8.7816,13.7459 8.1016,13.7459 C7.4206,13.7459 6.8706,14.2969 6.8706,14.9779 C6.8706,15.6579 7.4206,16.2089 8.1016,16.2089" id="Fill-13"></path>
                <path d="M13.7266,13.8198 C14.1846,13.3618 14.1846,12.6198 13.7266,12.1618 C13.2686,11.7038 12.5266,11.7038 12.0686,12.1618 C11.6106,12.6198 11.6106,13.3618 12.0686,13.8198 C12.5266,14.2778 13.2686,14.2778 13.7266,13.8198" id="Fill-16"></path>
            </g>
            <g id="Progress" transform="translate(0.000000, 1052.000000)"></g>
        </g>
    </g>
</svg>