<svg xmlns="http://www.w3.org/2000/svg" width="16" height="16" viewBox="0 0 16 16">
  <g fill="none" fill-rule="evenodd">
    <path fill="#58585B" d="M6.4301,9.4601 L6.9401,8.1801 L7.6001,6.5001 L8.6701,3.8101 L10.8601,9.4601 L6.4301,9.4601 Z M2.5501,5.4601 L4.2301,1.2301 L5.8691,5.4601 L2.5501,5.4601 Z M12.6191,9.5201 L9.6101,2.1801 L7.7701,2.1801 L6.8001,4.5401 L4.9401,0.0001 L3.5601,0.0001 L0.0001,8.6401 L1.2901,8.6401 L2.1501,6.4601 L6.0101,6.4601 L3.0301,13.7001 L4.7501,13.7001 L5.9001,10.7801 L10.2201,10.7801 C10.7801,10.0601 11.6401,9.5901 12.6191,9.5901 L12.6501,9.5901 L12.6191,9.5201 Z"/>
    <path stroke="#58585B" stroke-width=".75" d="M15.6157,12.6213 C15.6157,14.2773 14.2717,15.6213 12.6157,15.6213 C10.9597,15.6213 9.6157,14.2773 9.6157,12.6213 C9.6157,10.9643 10.9597,9.6213 12.6157,9.6213 C14.2717,9.6213 15.6157,10.9643 15.6157,12.6213 Z"/>
    <path fill="#58585B" d="M14.6157,12.6252 C14.6157,12.8462 14.4267,13.0162 14.2067,13.0162 L11.0137,13.0162 C10.7967,13.0162 10.6157,12.8462 10.6157,12.6252 C10.6157,12.4052 10.7967,12.2272 11.0137,12.2272 L14.2067,12.2272 C14.4267,12.2272 14.6157,12.4052 14.6157,12.6252"/>
  </g>
</svg>
