<svg xmlns="http://www.w3.org/2000/svg" width="16" height="17" viewBox="0 0 16 17">
  <g fill="#58585B" fill-rule="evenodd">
    <path d="M8.9326,7.8001 C8.9326,8.9461 8.9346,10.0921 8.9316,11.2381 C8.9306,11.7461 8.6266,12.0421 8.1196,12.04411 C7.6426,12.0461 7.3356,11.7471 7.3356,11.2591 C7.3326,8.9411 7.3326,6.6211 7.3356,4.3021 C7.3366,3.8061 7.6686,3.4981 8.1726,3.5121 C8.6396,3.5241 8.9306,3.8281 8.9316,4.3211 C8.9356,5.4821 8.9326,6.6411 8.9326,7.8001"/>
    <path d="M12.7353,1.8558 C9.1743,-0.7562 4.1523,0.0238 1.5483,3.5948 C-1.0667,7.1638 -0.2877,12.2008 3.2713,14.8128 C3.6863,15.1148 4.1223,15.3748 4.5893,15.5928 C4.7563,15.6708 4.9283,15.7378 5.0993,15.8038 L5.0993,14.3408 C4.9273,14.2578 4.7563,14.1728 4.5893,14.0738 C4.4123,13.9598 4.2353,13.8448 4.0583,13.7198 C1.1013,11.5448 0.4693,7.3618 2.6363,4.3948 C4.8073,1.4298 8.9683,0.7838 11.9263,2.9598 C14.8943,5.1338 15.5383,9.3078 13.3573,12.2838 L13.3263,12.3348 L11.7393,11.1698 C11.4803,10.9828 11.3663,11.1498 11.3233,11.3778 L11.3033,14.1158 L11.2923,15.6458 L11.2923,16.0008 L15.6733,14.5738 C15.8793,14.4698 15.9213,14.2408 15.7563,14.1158 L14.4173,13.1378 L14.4473,13.0858 C17.0633,9.5148 16.2953,4.4788 12.7353,1.8558"/>
  </g>
</svg>
