<?xml version="1.0" encoding="UTF-8"?>
<svg width="16px" height="11px" viewBox="0 0 16 11" version="1.1" xmlns="http://www.w3.org/2000/svg" xmlns:xlink="http://www.w3.org/1999/xlink">
    <!-- Generator: Sketch 49.3 (51167) - http://www.bohemiancoding.com/sketch -->
    <title>icon-sdc-cloud</title>
    <desc>Created with Sketch.</desc>
    <defs></defs>
    <g id="SBG-Icon-Library" stroke="none" stroke-width="1" fill="none" fill-rule="evenodd">
        <g id="Abstract" transform="translate(-304.000000, -1569.000000)" fill="#58585B">
            <g id="SDC-Cloud" transform="translate(0.000000, 1541.000000)">
                <path d="M317.333,31.767 L317.333,31.5 C317.333,29.568 315.767,28 313.833,28 C312.333,28 311.033,28.967 310.566,30.301 C310.2,30.101 309.8,30 309.333,30 C307.867,30 306.666,31.201 306.666,32.667 C306.666,32.767 306.666,32.901 306.7,33 C305.166,33.101 304,34.301 304,35.834 C304,37.368 305.166,38.568 306.666,38.667 L316.666,38.667 C318.533,38.568 320,37.035 320,35.167 C320,33.5 318.867,32.134 317.333,31.767" id="icn_sdc_cloud"></path>
            </g>
        </g>
    </g>
</svg>