<svg xmlns="http://www.w3.org/2000/svg" width="16" height="16" viewBox="0 0 16 16">
  <path fill="#58585B" fill-rule="evenodd" d="M14.5088,12.8907 L14.0088,12.8907 L14.0088,12.0717 L14.0088,11.5717 L14.0088,11.0717 L7.9698,11.0717 L7.9698,10.2557 C8.6308,10.0057 10.0378,9.3417 11.0698,7.7957 C12.4358,5.7477 11.9188,1.6137 11.8818,1.4587 C11.8818,1.3047 11.7718,1.2267 11.6598,1.1887 C11.6598,1.1887 10.4758,1.4967 9.4048,1.1887 C8.4458,0.9187 7.6008,0.0297 7.6008,0.0297 C7.5278,-0.0093 7.4908,-0.0093 7.4158,0.0297 C7.4158,0.0297 6.7948,0.9167 5.8358,1.1887 C4.8028,1.4967 3.3938,1.1887 3.3938,1.1887 C3.2458,1.2287 3.1718,1.3057 3.1348,1.4587 C3.0978,1.6147 2.5808,5.7477 3.9468,7.7957 C4.9368,9.2797 6.2668,9.9467 6.9698,10.2187 L6.9698,11.0717 L0.9118,11.0717 L0.9118,11.5487 L0.9118,12.0717 L0.9118,12.8907 L0.4998,12.8907 C0.2238,12.8907 -0.0002,13.1157 -0.0002,13.3907 L-0.0002,15.3907 C-0.0002,15.6667 0.2238,15.8907 0.4998,15.8907 L2.4998,15.8907 C2.7758,15.8907 2.9998,15.6667 2.9998,15.3907 L2.9998,13.3907 C2.9998,13.1157 2.7758,12.8907 2.4998,12.8907 L1.9118,12.8907 L1.9118,12.0717 L6.9698,12.0717 L6.9698,12.8907 L6.4918,12.8907 C6.2158,12.8907 5.9918,13.1157 5.9918,13.3907 L5.9918,15.3907 C5.9918,15.6667 6.2158,15.8907 6.4918,15.8907 L8.4918,15.8907 C8.7678,15.8907 8.9918,15.6667 8.9918,15.3907 L8.9918,13.3907 C8.9918,13.1157 8.7678,12.8907 8.4918,12.8907 L7.9698,12.8907 L7.9698,12.0717 L13.0088,12.0717 L13.0088,12.8907 L12.5078,12.8907 C12.2318,12.8907 12.0088,13.1157 12.0088,13.3907 L12.0088,15.3907 C12.0088,15.6667 12.2318,15.8907 12.5078,15.8907 L14.5088,15.8907 C14.7848,15.8907 15.0088,15.6667 15.0088,15.3907 L15.0088,13.3907 C15.0088,13.1157 14.7848,12.8907 14.5088,12.8907"/>
</svg>
