<?xml version="1.0" encoding="UTF-8"?>
<svg width="16px" height="16px" viewBox="0 0 16 16" version="1.1" xmlns="http://www.w3.org/2000/svg" xmlns:xlink="http://www.w3.org/1999/xlink">
    <!-- Generator: Sketch 49.3 (51167) - http://www.bohemiancoding.com/sketch -->
    <title>icon-settings</title>
    <desc>Created with Sketch.</desc>
    <defs></defs>
    <g id="SBG-Icon-Library" stroke="none" stroke-width="1" fill="none" fill-rule="evenodd">
        <g id="Settings" transform="translate(-291.000000, -408.000000)" fill="#58585B">
            <g transform="translate(0.000000, 388.000000)" id="Fill-1">
                <g transform="translate(291.000000, 20.000000)">
                    <path d="M8,11.6747561 C5.97533333,11.6747561 4.33333333,10.0321908 4.33333333,8.00533734 C4.33333333,5.97915103 5.97533333,4.33591861 8,4.33591861 C10.0246667,4.33591861 11.6666667,5.97915103 11.6666667,8.00533734 C11.6666667,10.0321908 10.0246667,11.6747561 8,11.6747561 L8,11.6747561 Z M16,8.67317155 L16,7.33883746 L12.6666667,6.22400133 C12.632,6.13259945 12.5953333,6.0425319 12.5553333,5.95379868 L14.1326667,2.81477775 L13.19,1.87140355 L10.042,3.4432491 C9.95533333,3.40455342 9.86733333,3.36919356 9.778,3.33516804 L8.66666667,0 L7.33333333,0 L6.22266667,3.33516804 C6.134,3.36919356 6.046,3.40388625 5.95933333,3.44258194 L2.81933333,1.87140355 L1.876,2.81477775 L3.44466667,5.95446585 C3.40533333,6.04186473 3.36933333,6.13059795 3.33533333,6.2206655 L0,7.33883746 L0,8.67317155 L3.33066667,9.77800017 C3.36533333,9.86940205 3.40133333,9.96080394 3.44133333,10.0495372 L1.876,13.1932283 L2.81933333,14.1372696 L5.95,12.5640897 C6.03933333,12.6047869 6.13066667,12.6414811 6.22266667,12.676841 L7.33333333,16 L8.66666667,16 L9.76866667,12.6801768 C9.86333333,12.6441498 9.95733333,12.6067884 10.0486667,12.5654241 L13.1813333,14.1285964 L14.1246667,13.1852223 L12.5566667,10.0555417 C12.598,9.96413977 12.6353333,9.87006922 12.6713333,9.7753315 L16,8.67317155 Z"></path>
                </g>
            </g>
        </g>
    </g>
</svg>