<svg xmlns="http://www.w3.org/2000/svg" width="16" height="16" viewBox="0 0 16 16">
  <g fill="#58585B">
    <path d="M11.391,2.141 C11.784,2.351 12.138,2.624 12.471,2.949 L12.471,2.949 C13.809,4.158 14.651,5.933 14.651,7.898 L14.651,7.898 C14.651,11.607 11.66,14.634 7.994,14.634 L7.994,14.634 C4.329,14.634 1.351,11.607 1.351,7.898 L1.351,7.898 C1.351,5.933 2.179,4.168 3.519,2.949 L3.519,2.949 C3.852,2.634 4.215,2.361 4.6,2.141 L4.6,2.141 L3.613,1.143 C3.24,1.384 2.886,1.668 2.566,1.973 L2.566,1.973 C0.986,3.454 0,5.565 0,7.898 L0,7.898 C0,12.364 3.582,15.999 7.994,15.999 L7.994,15.999 C12.407,15.999 16,12.364 16,7.898 L16,7.898 C16,5.565 15.013,3.454 13.436,1.973 L13.436,1.973 C13.103,1.668 12.75,1.384 12.375,1.143 L12.375,1.143 L11.391,2.141 Z"/>
    <path d="M7.146,0.848 C7.141,3.331 7.141,5.817 7.146,8.301 C7.146,8.823 7.473,9.145 7.983,9.14308893 C8.528,9.14 8.854,8.823 8.856,8.278 C8.857,7.05 8.857,5.822 8.857,4.594 C8.857,3.352 8.858,2.11 8.856,0.869 C8.854,0.34 8.541,0.012 8.041,0 C8.03,0 8.019,0 8.01,0 C7.488,0 7.146,0.327 7.146,0.848 Z"/>
  </g>
</svg>
