<?xml version="1.0" encoding="UTF-8"?>
<svg width="16px" height="16px" viewBox="0 0 16 16" version="1.1" xmlns="http://www.w3.org/2000/svg" xmlns:xlink="http://www.w3.org/1999/xlink">
    <!-- Generator: Sketch 49.3 (51167) - http://www.bohemiancoding.com/sketch -->
    <title>icon-sign-out</title>
    <desc>Created with Sketch.</desc>
    <defs></defs>
    <g id="SBG-Icon-Library" stroke="none" stroke-width="1" fill="none" fill-rule="evenodd">
        <g id="Actions" transform="translate(-293.000000, -2551.000000)" fill="#58585B">
            <g id="Log-Out-/-Sign-Off" transform="translate(0.000000, 2524.000000)">
                <g id="Sign-Out" transform="translate(293.000000, 27.000000)">
                    <path d="M12.4081633,10.0571429 L15.6734694,7.83673469 L12.4081633,5.61632653 C12.2122449,5.48571429 12.0816327,5.55102041 12.0816327,5.77959184 L12.0816327,7.18367347 L7.83673469,7.18367347 C7.47755102,7.18367347 7.18367347,7.47755102 7.18367347,7.83673469 C7.18367347,8.19591837 7.47755102,8.48979592 7.83673469,8.48979592 L12.0816327,8.48979592 L12.0816327,9.89387755 C12.0816327,10.0897959 12.244898,10.1877551 12.4081633,10.0571429 L12.4081633,10.0571429 Z" id="Shape"></path>
                    <path d="M7.83673469,15.6734694 C9.92653061,15.6734694 11.8857143,14.8571429 13.3877551,13.3877551 L12.4734694,12.4734694 C11.2326531,13.7142857 9.6,14.4 7.86938776,14.4 C4.27755102,14.4 1.33877551,11.4612245 1.33877551,7.86938776 C1.33877551,4.27755102 4.27755102,1.33877551 7.86938776,1.33877551 C9.6,1.33877551 11.2653061,2.0244898 12.4734694,3.26530612 L13.3877551,2.35102041 C11.9183673,0.881632653 9.92653061,0.0653061224 7.83673469,0.0653061224 C3.52653061,0.0653061224 0,3.59183673 0,7.90204082 C0,12.2122449 3.52653061,15.6734694 7.83673469,15.6734694 L7.83673469,15.6734694 Z" id="Shape"></path>
                </g>
            </g>
        </g>
    </g>
</svg>