<?xml version="1.0" encoding="UTF-8"?>
<svg width="16px" height="16px" viewBox="0 0 16 16" version="1.1" xmlns="http://www.w3.org/2000/svg" xmlns:xlink="http://www.w3.org/1999/xlink">
    <!-- Generator: Sketch 51.3 (57544) - http://www.bohemiancoding.com/sketch -->
    <title>Youtube_Enabled</title>
    <desc>Created with Sketch.</desc>
    <defs></defs>
    <g id="Youtube_Enabled" stroke="none" stroke-width="1" fill="none" fill-rule="evenodd">
        <g id="Group-11" transform="translate(0.000000, 1.000000)" fill="#58585B">
            <path d="M15,0 C15.552,0 16,0.447 16,1 L16,13 C16,13.553 15.552,14 15,14 L1,14 C0.447,14 0,13.553 0,13 L0,1 C0,0.447 0.447,0 1,0 L15,0 Z M1.018,12.968 L14.966,12.968 L14.966,3.755 L1.018,3.755 L1.018,12.968 Z M11.483,1.875 C11.485,1.604 11.268,1.384 10.998,1.383 C10.727,1.381 10.506,1.598 10.504,1.869 C10.503,2.14 10.721,2.36 10.992,2.361 C11.262,2.363 11.482,2.146 11.483,1.875 Z M12.965,1.872 C12.965,1.601 12.746,1.383 12.476,1.383 C12.205,1.383 11.986,1.601 11.986,1.872 C11.986,2.143 12.205,2.361 12.476,2.361 C12.746,2.361 12.965,2.143 12.965,1.872 Z M14.446,1.872 C14.446,1.601 14.228,1.383 13.958,1.383 C13.687,1.383 13.467,1.601 13.467,1.872 C13.467,2.143 13.687,2.361 13.958,2.361 C14.228,2.361 14.446,2.143 14.446,1.872 Z" id="Fill-1"></path>
            <path d="M8.7451,6.5771 C8.3971,6.4841 8.0391,6.4361 7.6831,6.4361 C5.8301,6.4361 4.2021,7.6851 3.7221,9.4741 C3.7111,9.5141 3.7011,9.5541 3.6911,9.5941 L3.8121,9.6001 L3.8381,9.5061 C4.3051,7.7701 5.8861,6.5581 7.6841,6.5581 C8.0311,6.5581 8.3771,6.6031 8.7141,6.6941 C9.7021,6.9591 10.5161,7.5851 11.0381,8.4131 L11.1451,8.3461 C10.6081,7.4961 9.7681,6.8521 8.7451,6.5771" id="Fill-3"></path>
            <path d="M11.7393,9.9487 C11.6553,9.3667 11.4473,8.8247 11.1453,8.3457 L11.0383,8.4127 C11.3183,8.8567 11.5183,9.3547 11.6073,9.8937 L11.7393,9.9487 Z" id="Fill-5"></path>
            <polygon id="Fill-7" points="11.3804 10.0703 12.0274 10.3393 12.0274 10.3383"></polygon>
            <path d="M12.4419,7.5283 L11.5629,8.0833 C10.9609,7.1303 10.0229,6.4033 8.8749,6.0943 C8.4839,5.9893 8.0839,5.9363 7.6829,5.9363 C5.6049,5.9363 3.7779,7.3383 3.2389,9.3433 C3.1989,9.4913 3.1679,9.6383 3.1439,9.7883 L3.0989,10.0623 L4.1899,10.1223 L4.3209,9.6353 C4.7289,8.1173 6.1119,7.0583 7.6839,7.0583 C7.9869,7.0583 8.2899,7.0983 8.5849,7.1763 C9.4479,7.4093 10.1629,7.9533 10.6199,8.6773 L9.8389,9.1703 C9.6939,9.2593 9.7149,9.3763 9.8569,9.4373 L11.1019,9.9543 L11.3799,10.0703 L12.0269,10.3383 L12.2819,10.4443 L12.5089,10.5383 L12.6769,7.6603 C12.6809,7.5053 12.5699,7.4483 12.4419,7.5283" id="Fill-9"></path>
        </g>
    </g>
</svg>