<svg xmlns="http://www.w3.org/2000/svg" width="7" height="8" viewBox="0 0 7 8">
  <path fill="#58585B" d="M59.8291527,11.975473 L56.9124253,14.8326414 C56.6846288,15.0557862 56.3153712,15.0557862 56.0875747,14.8326414 L53.1708473,11.975473 C52.9430509,11.7523281 52.9430509,11.3906106 53.1708473,11.1674658 C53.3986437,10.9443209 53.7679014,10.9443209 53.9956978,11.1674658 L55.9166545,13.0491969 L55.9166545,7.57143367 C55.9166545,7.25571657 56.1777016,7 56.5,7 C56.8222984,7 57.0833455,7.25571657 57.0833455,7.57143367 L57.0833455,13.0491969 L59.0043022,11.1674658 C59.1180545,11.0560362 59.267391,11.0000357 59.4167274,11.0000357 C59.5660639,11.0000357 59.7154003,11.0557505 59.8291527,11.1674658 C60.0569491,11.3906106 60.0569491,11.7523281 59.8291527,11.975473 Z" transform="rotate(-180 30 7.5)"/>
</svg>
