<svg xmlns="http://www.w3.org/2000/svg" width="16" height="16" viewBox="0 0 16 16">
  <path fill="#58585B" fill-rule="evenodd" d="M664.250582,278.4995 C664.664582,278.4995 665.000582,278.8355 665.000582,279.2495 C665.000582,279.6635 664.664582,279.9995 664.250582,279.9995 L664.250582,279.9995 L654.750582,279.9995 C654.335582,279.9995 654.000582,279.6635 654.000582,279.2495 C654.000582,278.8355 654.335582,278.4995 654.750582,278.4995 L654.750582,278.4995 Z M651.000382,272.7139 C651.314382,272.7139 651.571382,272.9719 651.571382,273.2859 L651.571382,273.2859 L651.571382,276.8559 L652.799382,276.8559 C652.999382,276.8559 653.056382,276.9699 652.942382,277.1409 L652.942382,277.1409 L651.000382,279.9969 L649.058382,277.1409 C648.944382,276.9989 649.001382,276.8559 649.201382,276.8559 L649.201382,276.8559 L650.429382,276.8559 L650.429382,273.2859 C650.429382,272.9719 650.686382,272.7139 651.000382,272.7139 Z M664.250582,273.6665 C664.664582,273.6665 665.000582,274.0025 665.000582,274.4165 C665.000582,274.8305 664.664582,275.1665 664.250582,275.1665 L664.250582,275.1665 L654.750582,275.1665 C654.335582,275.1665 654.000582,274.8305 654.000582,274.4165 C654.000582,274.0025 654.335582,273.6665 654.750582,273.6665 L654.750582,273.6665 Z M651.000082,264 L652.942082,266.855 C653.056082,266.998 652.999082,267.141 652.799082,267.141 L652.799082,267.141 L651.571082,267.141 L651.571082,270.711 C651.571082,271.025 651.314082,271.282 651.000082,271.282 C650.686082,271.282 650.429082,271.025 650.429082,270.711 L650.429082,270.711 L650.429082,267.141 L649.201082,267.141 C649.001082,267.141 648.944082,267.027 649.058082,266.855 L649.058082,266.855 L651.000082,264 Z M664.250582,268.833 C664.664582,268.833 665.000582,269.169 665.000582,269.583 C665.000582,269.998 664.664582,270.333 664.250582,270.333 L664.250582,270.333 L654.750582,270.333 C654.335582,270.333 654.000582,269.998 654.000582,269.583 C654.000582,269.169 654.335582,268.833 654.750582,268.833 L654.750582,268.833 Z M664.250582,264 C664.664582,264 665.000582,264.335 665.000582,264.75 C665.000582,265.164 664.664582,265.5 664.250582,265.5 L664.250582,265.5 L654.750582,265.5 C654.335582,265.5 654.000582,265.164 654.000582,264.75 C654.000582,264.335 654.335582,264 654.750582,264 L654.750582,264 Z" transform="translate(-649 -264)"/>
</svg>
