<?xml version="1.0" encoding="UTF-8"?>
<svg width="16px" height="11px" viewBox="0 0 16 11" version="1.1" xmlns="http://www.w3.org/2000/svg" xmlns:xlink="http://www.w3.org/1999/xlink">
    <!-- Generator: Sketch 49.3 (51167) - http://www.bohemiancoding.com/sketch -->
    <title>icon-static-nat</title>
    <desc>Created with Sketch.</desc>
    <defs></defs>
    <g id="SBG-Icon-Library" stroke="none" stroke-width="1" fill="none" fill-rule="evenodd">
        <g id="Abstract" transform="translate(-299.000000, -1890.000000)" fill="#58585B">
            <g id="Static-NAT" transform="translate(0.000000, 1857.000000)">
                <g id="icn_static_nat" transform="translate(299.000000, 33.000000)">
                    <path d="M0.5699,2.6635 L12.6489,2.6635 L12.6449,4.1085 C12.6439,4.3265 12.7809,4.3825 12.9449,4.2725 L15.9199,2.1835 L12.9569,0.0495 C12.7929,-0.0605 12.6569,0.0205 12.6559,0.2125 L12.6519,1.6635 L0.5699,1.6635 C0.2939,1.6635 0.0699,1.8875 0.0699,2.1635 C0.0699,2.4395 0.2939,2.6635 0.5699,2.6635" id="Fill-1"></path>
                    <path d="M15.1295,7.6635 L3.2745,7.6635 C3.2735,7.6635 3.2725,7.6645 3.2715,7.6645 L3.2755,6.2185 C3.2755,6.0005 3.1395,5.9445 2.9755,6.0545 L0.0005,8.1435 L2.9635,10.2775 C3.1275,10.3875 3.2635,10.3065 3.2645,10.1145 L3.2685,8.6625 C3.2705,8.6625 3.2725,8.6635 3.2745,8.6635 L15.1295,8.6635 C15.4055,8.6635 15.6295,8.4395 15.6295,8.1635 C15.6295,7.8875 15.4055,7.6635 15.1295,7.6635" id="Fill-4"></path>
                </g>
            </g>
        </g>
    </g>
</svg>