<?xml version="1.0" encoding="UTF-8"?>
<svg width="16px" height="17px" viewBox="0 0 16 17" version="1.1" xmlns="http://www.w3.org/2000/svg" xmlns:xlink="http://www.w3.org/1999/xlink">
    <title>strikethrough</title>
    <g id="ICONS" stroke="none" stroke-width="1" fill="none" fill-rule="evenodd">
        <g id="Icons_2.2" transform="translate(-23.000000, -660.000000)" fill="#58585B">
            <g id="strikethrough" transform="translate(23.000000, 660.000000)">
                <path d="M15.9998,9.95 L13.3598,9.95 C13.8108,10.55 14.0298,11.32 14.0298,12.25 C14.0298,13.58 13.4498,14.68 12.2898,15.55 C11.1998,16.35 9.8108,16.75 8.1298,16.75 C6.3798,16.75 4.9308,16.28 3.7798,15.34 C2.7898,14.53 2.1898,13.48 1.9998,12.19 L4.1998,12.19 C4.3398,13.11 4.7798,13.82 5.5298,14.31 C6.1998,14.76 7.0498,14.98 8.0898,14.98 C9.3798,14.98 10.3598,14.69 11.0498,14.1 C11.6098,13.63 11.8908,13.04 11.8908,12.34 C11.8908,11.83 11.7798,11.43 11.5498,11.14 C11.2998,10.79 10.8398,10.47 10.1698,10.17 C10.0108,10.1 9.8298,10.03 9.6298,9.95 L-0.0002,9.95 L-0.0002,8.5 L15.9998,8.5 L15.9998,9.95 Z" id="Fill-1"></path>
                <path d="M3.3601,7.2996 C2.7991,6.6996 2.5201,5.8906 2.5201,4.8796 C2.5201,3.6596 3.0601,2.6996 4.1201,1.9806 C5.1001,1.3296 6.3701,0.9996 7.9401,0.9996 C9.6901,0.9996 11.1101,1.4096 12.2001,2.2396 C13.1801,2.9596 13.7601,3.9196 13.9301,5.0896 L11.7201,5.0896 C11.6001,4.2896 11.1801,3.6996 10.4601,3.3106 C9.8301,2.9406 8.9901,2.7596 7.9401,2.7596 C6.7701,2.7596 5.9001,2.9896 5.3391,3.4306 C4.8901,3.7796 4.6701,4.2396 4.6701,4.7996 C4.6701,5.1596 4.7301,5.4596 4.8391,5.6906 C4.9601,5.9196 5.1701,6.1296 5.4601,6.3106 C6.0101,6.6696 7.0601,7.0606 8.6001,7.4996 L3.5701,7.4996 C3.5001,7.4406 3.4301,7.3696 3.3601,7.2996" id="Fill-4"></path>
            </g>
        </g>
    </g>
</svg>