<svg id="Layer_1" data-name="Layer 1" xmlns="http://www.w3.org/2000/svg" viewBox="0 0 16 16"><title>icon-subdomain</title><path d="M1.6,5.2a.43.43,0,0,1,.4.4.43.43,0,0,1-.4.4.43.43,0,0,1-.4-.4A.43.43,0,0,1,1.6,5.2Zm11.1,8.2H.9V7.2H2.5V6.3H.9V4.8H2.5V4H.8a.86.86,0,0,0-.8.8v8.6a.88.88,0,0,0,.8.9H12.7a.82.82,0,0,0,.8-.9V12h-.9v1.4ZM16,2.6v8.6a.88.88,0,0,1-.8.9H3.3a.82.82,0,0,1-.8-.9V2.6a.88.88,0,0,1,.8-.9H15.2A.88.88,0,0,1,16,2.6Zm-.9,2.3H3.3v6.2H15.1Zm0-2.4H3.3V4H15.1ZM4,3.7a.43.43,0,0,0,.4-.4A.43.43,0,0,0,4,2.9a.43.43,0,0,0-.4.4A.43.43,0,0,0,4,3.7Zm2.5,0a.43.43,0,0,0,.4-.4.4.4,0,1,0-.8,0A.43.43,0,0,0,6.5,3.7Zm-1.2,0a.43.43,0,0,0,.4-.4.43.43,0,0,0-.4-.4.37.37,0,0,0-.4.4A.37.37,0,0,0,5.3,3.7Z" fill="#58585b"/></svg>