<?xml version="1.0" encoding="UTF-8"?>
<svg width="16px" height="16px" viewBox="0 0 16 16" version="1.1" xmlns="http://www.w3.org/2000/svg" xmlns:xlink="http://www.w3.org/1999/xlink">
    <!-- Generator: Sketch 49.3 (51167) - http://www.bohemiancoding.com/sketch -->
    <title>icon-subscription</title>
    <desc>Created with Sketch.</desc>
    <defs></defs>
    <g id="SBG-Icon-Library" stroke="none" stroke-width="1" fill="none" fill-rule="evenodd">
        <g id="Content" transform="translate(-292.000000, -2527.000000)" fill="#58585B">
            <g id="Subscription" transform="translate(0.000000, 2506.000000)">
                <g id="Subscribe" transform="translate(292.000000, 21.000000)">
                    <path d="M15.2727273,0 L0.727272727,0 C0.327272727,0 0,0.327272727 0,0.727272727 L0,15.2727273 C0,15.6727273 0.327272727,16 0.727272727,16 L15.2727273,16 C15.6727273,16 16,15.6727273 16,15.2727273 L16,0.727272727 C16,0.327272727 15.6727273,0 15.2727273,0 L15.2727273,0 Z M3.63636364,13.4545455 C3.01818182,13.4545455 2.54545455,12.9818182 2.54545455,12.3636364 C2.54545455,11.7454545 3.01818182,11.2727273 3.63636364,11.2727273 C4.25454545,11.2727273 4.72727273,11.7454545 4.72727273,12.3636364 C4.72727273,12.9818182 4.25454545,13.4545455 3.63636364,13.4545455 L3.63636364,13.4545455 Z M8.29090909,12.3636364 C7.92727273,12.3636364 7.63636364,12.1090909 7.56363636,11.7454545 L7.56363636,11.7454545 C7.30909091,10.0363636 5.92727273,8.65454545 4.18181818,8.4 L4.18181818,8.4 C3.85454545,8.32727273 3.6,8.03636364 3.6,7.67272727 C3.6,7.27272727 3.92727273,6.94545455 4.32727273,6.94545455 L4.36363636,6.94545455 L4.36363636,6.94545455 C4.43636364,6.94545455 4.47272727,6.94545455 4.54545455,6.98181818 C6.8,7.38181818 8.54545455,9.12727273 8.94545455,11.3818182 C8.98181818,11.4545455 8.98181818,11.5272727 8.98181818,11.6 C9.01818182,12.0363636 8.69090909,12.3636364 8.29090909,12.3636364 L8.29090909,12.3636364 Z M12.6909091,12.3636364 C12.2909091,12.3636364 12,12.0727273 11.9636364,11.6727273 L11.9636364,11.6727273 C11.6363636,7.6 8.36363636,4.32727273 4.29090909,4.03636364 L4.29090909,4.03636364 C3.92727273,4 3.63636364,3.67272727 3.63636364,3.30909091 C3.63636364,2.90909091 3.92727273,2.61818182 4.29090909,2.58181818 C4.29090909,2.58181818 4.25454545,2.58181818 4.29090909,2.58181818 L4.47272727,2.58181818 C9.2,3.01818182 12.9454545,6.76363636 13.3818182,11.4909091 L13.3818182,11.6727273 L13.3818182,11.7090909 C13.3818182,12.0727273 13.0909091,12.3636364 12.6909091,12.3636364 L12.6909091,12.3636364 Z" id="Shape"></path>
                </g>
            </g>
        </g>
    </g>
</svg>