<svg xmlns="http://www.w3.org/2000/svg" width="16" height="15" viewBox="0 0 16 15">
  <path fill="#58585B" d="M9.7368,7.3422 C9.7368,6.8202 9.3138,6.3972 8.7928,6.3972 C8.2708,6.3972 7.8478,6.8202 7.8478,7.3422 C7.8478,7.8642 8.2708,8.2872 8.7928,8.2872 C9.3138,8.2872 9.7368,7.8642 9.7368,7.3422 L9.7368,7.3422 Z M6.6678,7.3422 C6.6678,6.8202 6.2448,6.3972 5.7228,6.3972 C5.2008,6.3972 4.7778,6.8202 4.7778,7.3422 C4.7778,7.8642 5.2008,8.2872 5.7228,8.2872 C6.2448,8.2872 6.6678,7.8642 6.6678,7.3422 L6.6678,7.3422 Z M3.5348,7.3422 C3.5348,6.8202 3.1118,6.3972 2.5898,6.3972 C2.0688,6.3972 1.6458,6.8202 1.6458,7.3422 C1.6458,7.8642 2.0688,8.2872 2.5898,8.2872 C3.1118,8.2872 3.5348,7.8642 3.5348,7.3422 L3.5348,7.3422 Z M15.9958,5.3142 L15.9958,9.3702 C15.9958,9.9222 15.5478,10.3692 14.9958,10.3692 L0.9998,10.3692 C0.4468,10.3692 -0.0002,9.9222 -0.0002,9.3702 L-0.0002,5.3142 C-0.0002,4.7632 0.4468,4.3142 0.9998,4.3142 L14.9958,4.3142 C15.5478,4.3142 15.9958,4.7632 15.9958,5.3142 L15.9958,5.3142 Z M3.7338,14.6282 C3.8708,14.7372 4.0078,14.6822 4.0078,14.4912 L4.0078,13.5222 L4.0078,13.2712 L14.4958,13.2712 C14.7738,13.2712 14.9978,13.0472 14.9978,12.7702 C14.9978,12.4932 14.7738,12.2702 14.4958,12.2702 L4.0078,12.2702 L4.0078,12.0192 L4.0078,11.0502 C4.0078,10.8592 3.8708,10.8042 3.7338,10.9132 L0.9978,12.7702 L3.7338,14.6282 Z M14.9978,1.9132 L12.2618,3.7702 C12.1248,3.8792 11.9878,3.8252 11.9878,3.6342 L11.9878,2.6642 L11.9878,2.4132 L1.4998,2.4132 C1.2218,2.4132 0.9978,2.1902 0.9978,1.9132 C0.9978,1.6362 1.2218,1.4122 1.4998,1.4122 L11.9878,1.4122 L11.9878,1.1622 L11.9878,0.1922 C11.9878,0.0012 12.1248,-0.0538 12.2618,0.0552 L14.9978,1.9132 Z"/>
</svg>
