<svg xmlns="http://www.w3.org/2000/svg" width="16" height="17" viewBox="0 0 16 17">
  <path fill="#58585B" fill-rule="evenodd" d="M16.0005 2.7961L15.8315 7.1341 15.5145 7.0181 14.1635 6.5121 11.7565 5.6041C11.5665 5.4871 11.4615 5.3291 11.7035 5.1601L13.2555 4.1471 13.2245 4.0941C11.3035 1.2021 7.4075.4001 4.5155 2.3201 3.2595 3.1341 2.4035 4.3371 1.9815 5.6561L.7895 5.2131C1.2955 3.6411 2.3195 2.2261 3.7975 1.2441 7.2805-1.0469 11.9885-.0859 14.2795 3.3981L14.3215 3.4401 15.6195 2.5741C15.7885 2.4691 15.9795 2.5851 16.0005 2.7961M.0005 12.3889L.1685 8.0499.4855 8.1659 1.8365 8.6729 4.2435 9.5809C4.4335 9.6979 4.5385 9.8559 4.2965 10.0249L2.7445 11.0369 2.7755 11.0899C4.6975 13.9829 8.5925 14.7849 11.4845 12.8639 12.7405 12.0509 13.5965 10.8479 14.0185 9.5289L15.2105 9.9719C14.7045 11.5439 13.6805 12.9589 12.2025 13.9409 8.7195 16.2309 4.0115 15.2709 1.7205 11.7869L1.6785 11.7439.3805 12.6109C.2115 12.7159.0215 12.5999.0005 12.3889" transform="translate(0 1)"/>
</svg>
