<?xml version="1.0" encoding="UTF-8"?>
<svg width="15px" height="16px" viewBox="0 0 15 16" version="1.1" xmlns="http://www.w3.org/2000/svg" xmlns:xlink="http://www.w3.org/1999/xlink">
    <!-- Generator: Sketch 49.3 (51167) - http://www.bohemiancoding.com/sketch -->
    <title>icon-time-quota</title>
    <desc>Created with Sketch.</desc>
    <defs></defs>
    <g id="SBG-Icon-Library" stroke="none" stroke-width="1" fill="none" fill-rule="evenodd">
        <g id="Content" transform="translate(-302.000000, -2407.000000)">
            <g id="Generate-Report-Copy" transform="translate(22.000000, 2407.000000)"></g>
            <g id="Group-20" transform="translate(302.000000, 2407.000000)" fill="#58585B">
                <path d="M8.14034598,2 L8.70535714,2 C12.2879464,2.33333333 15.0669643,5.33333333 14.9330357,8.96666667 C14.9330357,10.9 14.1629464,12.6666667 12.8571429,13.9333333 L11.8526786,14.8 C10.7477679,15.5333333 9.40848214,15.9666667 7.96875,15.9666667 C6.52901786,15.9666667 5.18973214,15.5333333 4.08482143,14.8 L3.08035714,13.9333333 C1.80803571,12.6666667 1.00446429,10.9 1.00446429,8.96666667 C1.00446429,8.67472612 1.02240624,8.38687452 1.05726536,8.10416667 L3.09190659,8.10416667 C3.04030305,8.39119927 3.01339286,8.68658797 3.01339286,8.98806683 C3.01339286,10.372315 3.59276976,11.6372315 4.51011652,12.5441527 L5.23433764,13.1646778 C6.03098088,13.6897375 6.99660905,14 8.03465933,14 C9.07270961,14 10.0383378,13.6897375 10.834981,13.1646778 L11.5592021,12.5441527 C12.5006896,11.6372315 13.0559258,10.372315 13.0559258,8.98806683 C13.1524886,6.38663484 11.1488102,4.23866348 8.56575482,4 L8.14034598,4 L8.14034598,2 Z" id="Combined-Shape"></path>
                <path d="M9.375,11.6666667 C9.20758929,11.6666667 9.04017857,11.6 8.90625,11.4666667 L7.36607143,9.93333333 L7.36607143,6 C7.36607143,5.63333333 7.66741071,5.33333333 8.03571429,5.33333333 C8.40401786,5.33333333 8.70535714,5.63333333 8.70535714,6 L8.70535714,9.4 L9.84375,10.5333333 C10.1116071,10.8 10.1116071,11.2 9.84375,11.4666667 C9.70982143,11.6 9.54241071,11.6666667 9.375,11.6666667 Z" id="Path"></path>
                <path d="M6.4453125,6.41666667 C6.4453125,2.85833333 3.57421875,0 -1.13686838e-13,0 L-1.13686838e-13,6.41666667 L6.4453125,6.41666667 L6.4453125,6.41666667 Z" id="Shape" transform="translate(3.222656, 3.208333) scale(-1, 1) translate(-3.222656, -3.208333) "></path>
            </g>
        </g>
    </g>
</svg>