<?xml version="1.0" encoding="UTF-8"?>
<svg width="16px" height="16px" viewBox="0 0 16 16" version="1.1" xmlns="http://www.w3.org/2000/svg" xmlns:xlink="http://www.w3.org/1999/xlink">
    <title>toggle-superscript</title>
    <g id="ICONS" stroke="none" stroke-width="1" fill="none" fill-rule="evenodd">
        <g id="Icons_2.2" transform="translate(-23.000000, -350.000000)" fill="#58585B" fill-rule="nonzero">
            <g id="toggle-superscript" transform="translate(23.000000, 350.000000)">
                <path d="M15.619,6.435 L15.619,5.643 L12.703,5.643 L14.143,4.275 C14.689,3.759 15.064,3.342 15.268,3.024 C15.52,2.646 15.646,2.235 15.646,1.791 C15.646,1.287 15.475,0.87 15.133,0.54 C14.749,0.18 14.236,-2.84217094e-14 13.594,-2.84217094e-14 C13.03,-2.84217094e-14 12.55,0.15 12.154,0.45 C11.71,0.78 11.452,1.224 11.38,1.782 L11.38,1.782 L12.289,1.782 C12.325,1.476 12.445,1.23 12.649,1.044 C12.883,0.834 13.192,0.729 13.576,0.729 C13.918,0.729 14.194,0.816 14.404,0.99 C14.644,1.182 14.764,1.452 14.764,1.8 C14.764,2.088 14.6815,2.3625 14.5165,2.6235 C14.3515,2.8845 14.041,3.234 13.585,3.672 L13.585,3.672 L11.533,5.643 L11.533,6.435 L15.619,6.435 Z" id="2"></path>
                <polygon id="X" points="1.84 15.435 5.072 10.779 8.16 15.435 10.112 15.435 5.968 9.435 9.984 3.915 8.128 3.915 5.136 8.203 2.208 3.915 0.288 3.915 4.16 9.483 4.93827201e-13 15.435"></polygon>
            </g>
        </g>
    </g>
</svg>