<?xml version="1.0" encoding="UTF-8"?>
<svg width="16px" height="15px" viewBox="0 0 16 15" version="1.1" xmlns="http://www.w3.org/2000/svg" xmlns:xlink="http://www.w3.org/1999/xlink">
    <title>toggle-subscript</title>
    <g id="ICONS" stroke="none" stroke-width="1" fill="none" fill-rule="evenodd">
        <g id="Icons_2.2" transform="translate(-23.000000, -273.000000)" fill="#58585B" fill-rule="nonzero">
            <g id="toggle-subscript" transform="translate(23.000000, 273.000000)">
                <path d="M15.619,14.52 L15.619,13.728 L12.703,13.728 L14.143,12.36 C14.689,11.844 15.064,11.427 15.268,11.109 C15.52,10.731 15.646,10.32 15.646,9.876 C15.646,9.372 15.475,8.955 15.133,8.625 C14.749,8.265 14.236,8.085 13.594,8.085 C13.03,8.085 12.55,8.235 12.154,8.535 C11.71,8.865 11.452,9.309 11.38,9.867 L11.38,9.867 L12.289,9.867 C12.325,9.561 12.445,9.315 12.649,9.129 C12.883,8.919 13.192,8.814 13.576,8.814 C13.918,8.814 14.194,8.901 14.404,9.075 C14.644,9.267 14.764,9.537 14.764,9.885 C14.764,10.173 14.6815,10.4475 14.5165,10.7085 C14.3515,10.9695 14.041,11.319 13.585,11.757 L13.585,11.757 L11.533,13.728 L11.533,14.52 L15.619,14.52 Z" id="2"></path>
                <polygon id="X" points="1.84 11.52 5.072 6.864 8.16 11.52 10.112 11.52 5.968 5.52 9.984 0 8.128 0 5.136 4.288 2.208 0 0.288 0 4.16 5.568 4.95603558e-13 11.52"></polygon>
            </g>
        </g>
    </g>
</svg>