<?xml version="1.0" encoding="UTF-8"?>
<svg width="16px" height="14px" viewBox="0 0 16 14" version="1.1" xmlns="http://www.w3.org/2000/svg" xmlns:xlink="http://www.w3.org/1999/xlink">
    <!-- Generator: Sketch 50.2 (55047) - http://www.bohemiancoding.com/sketch -->
    <title>icon-troubleshoot</title>
    <desc>Created with Sketch.</desc>
    <defs></defs>
    <g id="SBG-Icon-Library" stroke="none" stroke-width="1" fill="none" fill-rule="evenodd">
        <g id="Actions" transform="translate(-289.000000, -4177.000000)" fill="#58585B">
            <g id="Page-1" transform="translate(289.000000, 4177.000000)">
                <path d="M14.7505,5.877 C15.5965,5 15.7845,3.715 15.3145,2.65 L13.4035,4.592 C13.0275,4.968 12.4325,4.968 12.0875,4.592 C11.7115,4.216 11.7115,3.59 12.0875,3.245 L14.0305,1.272 C12.9645,0.739 11.6485,0.896 10.7715,1.804 C9.8325,2.744 9.7065,4.216 10.3335,5.313 L8.9235,6.785 L6.1975,3.997 L8.6725,1.46 C7.4825,0.269 5.5715,0.269 4.4125,1.46 L3.4095,2.493 L3.0025,2.086 C2.8455,1.929 2.5635,1.929 2.4075,2.086 L0.6845,3.84 C0.5275,3.997 0.5275,4.279 0.6845,4.467 L2.9395,6.785 C3.0965,6.942 3.3785,6.942 3.5345,6.785 L5.1955,5.093 L5.2265,5.062 L7.9525,7.851 L4.0675,11.923 C3.7855,12.205 3.7855,12.675 4.0675,12.957 C4.3495,13.239 4.7885,13.239 5.0695,12.957 L8.9545,8.884 L12.9025,12.926 C13.1845,13.208 13.6235,13.208 13.9045,12.926 C14.1875,12.644 14.1875,12.174 13.9045,11.892 L9.9575,7.851 L11.3675,6.378 C12.4005,6.973 13.8115,6.848 14.7505,5.877" id="icon-troubleshoot"></path>
            </g>
        </g>
    </g>
</svg>