<svg xmlns="http://www.w3.org/2000/svg" width="16" height="16" viewBox="0 0 16 16">
  <path fill="#58585B" d="M681,5723 C681,5718.567 684.567,5715 689,5715 C693.434,5715 697,5718.567 697,5723 C697,5727.434 693.434,5731 689,5731 C684.567,5731 681,5727.434 681,5723 Z M687.710788,5726.5 L693.220429,5720.70754 C693.59319,5720.31565 693.59319,5719.68382 693.220429,5719.29392 C692.849569,5718.90203 692.248587,5718.90203 691.875825,5719.29392 L687.710788,5723.67275 L686.122748,5722.0032 C685.751889,5721.6133 685.149004,5721.6133 684.778145,5722.0032 C684.407285,5722.3931 684.407285,5723.02693 684.778145,5723.41682 L687.710788,5726.5 Z" transform="translate(-681 -5715)"/>
</svg>
