<?xml version="1.0" encoding="UTF-8"?>
<svg width="16px" height="16px" viewBox="0 0 16 16" version="1.1" xmlns="http://www.w3.org/2000/svg" xmlns:xlink="http://www.w3.org/1999/xlink">
    <!-- Generator: Sketch 54.1 (76490) - https://sketchapp.com -->
    <title>unidirectional_tunnel</title>
    <desc>Created with Sketch.</desc>
    <defs>
        <path d="M4.01910973,3.39657604 L4.01910973,1.00071394 C4.01910973,0.448034891 4.46647915,1.77635684e-15 5.01889293,1.77635684e-15 L5.28371056,1.77635684e-15 C5.83587557,1.77635684e-15 6.28349376,0.444043001 6.28349376,1.00071394 L6.28349376,3.39657604 L9.18019561,3.39657604 C9.45617441,3.39657604 9.5470334,3.57395791 9.38292468,3.79276954 L5.15130174,9.43493346 L0.919678805,3.79276954 C0.753186839,3.57078025 0.846334981,3.39657604 1.12240787,3.39657604 L4.01910973,3.39657604 Z" id="path-1"></path>
    </defs>
    <g id="Iconography" stroke="none" stroke-width="1" fill="none" fill-rule="evenodd">
        <g id="unidirectional_tunnel">
            <g id="Icon/Abstract/Unidirectional-Tunnel" transform="translate(8.000000, 8.000000) rotate(-270.000000) translate(-8.000000, -8.000000) translate(3.000000, 3.000000)">
                <g id="Icon-Fill/Default-Dark-Gray-2" transform="translate(5.000000, 5.000000) rotate(-180.000000) translate(-5.000000, -5.000000) translate(-0.000000, -0.000000)">
                    <mask id="mask-2" fill="white">
                        <use xlink:href="#path-1"></use>
                    </mask>
                    <use id="Mask" fill="#58585B" transform="translate(5.150053, 4.717467) rotate(-360.000000) translate(-5.150053, -4.717467) " xlink:href="#path-1"></use>
                </g>
            </g>
        </g>
    </g>
</svg>