<svg xmlns="http://www.w3.org/2000/svg" width="17" height="15" viewBox="0 0 17 15">
  <path fill="#58585B" fill-rule="evenodd" d="M655.497,113 C653.227,113 651.382,114.846 651.382,117.115 L651.382,119.307 L644,119.307 L644,126.692 C644,127.031 644.247,127.307 644.55,127.307 L654.45,127.307 C654.753,127.307 655,127.031 655,126.692 L655,119.307 L652.615,119.307 L652.615,117.115 C652.615,115.526 653.908,114.233 655.497,114.233 C657.086,114.233 658.379,115.526 658.379,117.115 L658.379,120.5 C658.379,120.84 658.655,121.117 658.996,121.117 C659.337,121.117 659.613,120.84 659.613,120.5 L659.613,117.115 C659.613,114.846 657.767,113 655.497,113" transform="translate(-644 -113)"/>
</svg>
