<svg xmlns="http://www.w3.org/2000/svg" width="16" height="13" viewBox="0 0 16 13">
  <path fill="#58585B" fill-rule="evenodd" d="M7.27427321,7 L7.27427321,7.42312139 C7.27427321,7.88786127 7.65839325,8.26837325 8.12753986,8.26837325 C8.59768678,8.26837325 8.98180681,7.88786127 8.98180681,7.42312139 L8.98180681,7.42312139 L8.98180681,7 L15.0006877,7 C15.5528603,7 16,7.44492155 16,7.9909166 L16,7.9909166 L16,12.0100743 C16,12.5570603 15.5528603,13 15.0006877,13 L15.0006877,13 L0.999312285,13 C0.447139731,13 0,12.5570603 0,12.0100743 L0,12.0100743 L0,7.9909166 C0,7.44492155 0.447139731,7 0.999312285,7 L0.999312285,7 L7.27427321,7 Z M8.12753986,9.53575557 C7.65839325,9.53575557 7.27427321,9.91626755 7.27427321,10.3800165 C7.27427321,10.8447564 7.65839325,11.2252684 8.12753986,11.2252684 C8.59768678,11.2252684 8.98180681,10.8447564 8.98180681,10.3800165 C8.98180681,9.91626755 8.59768678,9.53575557 8.12753986,9.53575557 Z M14.9964,0.0485 C15.5484,0.0485 15.9954,0.4955 15.9954,1.0485 L15.9954,1.0485 L15.9954,5.1035 C15.9954,5.6555 15.5484,6.1035 14.9964,6.1035 L14.9964,6.1035 L9.6354,6.1035 L10.0014,5.7515 C10.5134,5.2395 10.8114,4.5585 10.8114,3.7905 C10.8114,2.2555 9.5754,0.9765 7.9974,0.9765 C6.4634,0.9765 5.1834,2.2125 5.1834,3.7905 C5.1834,4.2595 5.5674,4.6435 6.0364,4.6435 C6.5054,4.6435 6.8894,4.2595 6.8894,3.7905 C6.8894,3.1945 7.3584,2.6825 7.9974,2.6825 C8.5954,2.6825 9.1054,3.1515 9.1054,3.7905 C9.1054,4.0885 8.9784,4.3875 8.8084,4.5585 L8.8084,4.5585 L7.8274,5.4955 C7.6524,5.6705 7.5134,5.8785 7.4174,6.1035 L7.4174,6.1035 L0.9994,6.1035 C0.4474,6.1035 0.0004,5.6555 0.0004,5.1035 L0.0004,5.1035 L0.0004,1.0485 C0.0004,0.4955 0.4474,0.0485 0.9994,0.0485 L0.9994,0.0485 Z"/>
</svg>
