<svg xmlns="http://www.w3.org/2000/svg" xmlns:xlink="http://www.w3.org/1999/xlink" width="16" height="17" viewBox="0 0 16 17">
  <defs>
    <polygon id="icon-unsync-a" points="0 .866 15.211 .866 15.211 8 0 8"/>
  </defs>
  <g fill="none" fill-rule="evenodd" transform="translate(0 1)">
    <path fill="#58585B" d="M16,2.7958 L15.831,7.1348 L15.515,7.0188 L14.163,6.5118 L11.757,5.6038 C11.566,5.4868 11.461,5.3288 11.704,5.1598 L13.256,4.1478 L13.224,4.0948 C11.303,1.2018 7.408,0.3998 4.516,2.3208 C3.259,3.1338 2.404,4.3368 1.982,5.6558 L0.789,5.2128 C1.296,3.6408 2.32,2.2258 3.798,1.2438 C7.281,-1.0462 11.989,-0.0862 14.279,3.3978 L14.321,3.4398 L15.62,2.5738 C15.789,2.4688 15.979,2.5848 16,2.7958"/>
    <g transform="translate(0 7.185)">
      <mask id="icon-unsync-b" fill="#fff">
        <use xlink:href="#icon-unsync-a"/>
      </mask>
      <path fill="#58585B" d="M0,5.2039 L0.169,0.8659 L0.485,0.9819 L1.837,1.4879 L4.243,2.3959 C4.434,2.5129 4.539,2.6709 4.296,2.8399 L2.744,3.8529 L2.776,3.9059 C4.697,6.7979 8.593,7.5999 11.484,5.6799 C12.741,4.8659 13.596,3.6629 14.018,2.3439 L15.211,2.7869 C14.704,4.3589 13.681,5.7739 12.202,6.7559 C8.719,9.0469 4.011,8.0859 1.721,4.6019 L1.679,4.5599 L0.38,5.4259 C0.211,5.5309 0.021,5.4149 0,5.2039" mask="url(#icon-unsync-b)"/>
    </g>
    <path fill="#58585B" d="M8,10.4169 C8.393,10.4169 8.711,10.7329 8.711,11.1229 C8.711,11.5129 8.393,11.8289 8,11.8289 C7.607,11.8289 7.289,11.5129 7.289,11.1229 C7.289,10.7329 7.607,10.4169 8,10.4169 L8,10.4169 Z M8.045,3.3559 C8.412,3.3559 8.712,3.6519 8.712,4.0179 L8.712,7.9769 C8.712,8.3419 8.412,8.6389 8.045,8.6389 L7.955,8.6389 C7.587,8.6389 7.288,8.3419 7.288,7.9769 L7.288,4.0179 C7.288,3.6519 7.587,3.3559 7.955,3.3559 L8.045,3.3559 Z"/>
  </g>
</svg>
