<?xml version="1.0" encoding="UTF-8"?>
<svg width="16px" height="16px" viewBox="0 0 16 16" version="1.1" xmlns="http://www.w3.org/2000/svg" xmlns:xlink="http://www.w3.org/1999/xlink">
    <!-- Generator: Sketch 49.3 (51167) - http://www.bohemiancoding.com/sketch -->
    <title>icon-upload</title>
    <desc>Created with Sketch.</desc>
    <defs></defs>
    <g id="SBG-Icon-Library" stroke="none" stroke-width="1" fill="none" fill-rule="evenodd">
        <g id="Actions" transform="translate(-292.000000, -4355.000000)" fill="#58585B">
            <g id="Upload" transform="translate(0.000000, 4327.000000)">
                <g transform="translate(292.000000, 28.000000)">
                    <path d="M15.2727273,0 L0.727272727,0 C0.325090909,0 0,0.325090909 0,0.727272727 C0,1.12945455 0.325090909,1.45454545 0.727272727,1.45454545 L15.2727273,1.45454545 C15.6749091,1.45454545 16,1.12945455 16,0.727272727 C16,0.325090909 15.6749091,0 15.2727273,0" id="Fill-1"></path>
                    <path d="M7.99607273,3.63636364 L3.99607273,9.71563636 C3.81570909,9.97163636 3.9248,10.1818182 4.23825455,10.1818182 L7.27243636,10.1818182 L7.27243636,15.2727273 C7.27243636,15.6749091 7.59825455,16 7.99970909,16 C8.40189091,16 8.72698182,15.6749091 8.72698182,15.2727273 L8.72698182,10.1818182 L11.7618909,10.1818182 C12.0753455,10.1818182 12.1844364,9.97163636 12.0033455,9.71563636 L7.99607273,3.63636364 Z" id="Fill-3"></path>
                </g>
            </g>
        </g>
    </g>
</svg>