<?xml version="1.0" encoding="UTF-8"?>
<svg width="16px" height="16px" viewBox="0 0 16 16" version="1.1" xmlns="http://www.w3.org/2000/svg" xmlns:xlink="http://www.w3.org/1999/xlink">
    <!-- Generator: Sketch 49.3 (51167) - http://www.bohemiancoding.com/sketch -->
    <title>icon-view-side-by-side</title>
    <desc>Created with Sketch.</desc>
    <defs>
        <path d="M1,0 L15,0 C15.5522847,-1.01453063e-16 16,0.44771525 16,1 L16,7 L0,7 L0,1 C-6.76353751e-17,0.44771525 0.44771525,1.01453063e-16 1,0 Z" id="path-1"></path>
        <rect id="path-2" x="0" y="8" width="7" height="8"></rect>
        <rect id="path-3" x="9" y="8" width="7" height="8"></rect>
    </defs>
    <g id="SBG-Icon-Library" stroke="none" stroke-width="1" fill="none" fill-rule="evenodd">
        <g id="Content" transform="translate(-295.000000, -4326.000000)">
            <g id="Table-/-Customize-Copy" transform="translate(0.000000, 4297.000000)"></g>
            <g id="View-Side-By-Side" transform="translate(295.000000, 4326.000000)">
                <g id="Rectangle-10">
                    <use fill="#58585B" fill-rule="evenodd" xlink:href="#path-1"></use>
                    <path stroke="#58585B" stroke-width="1" d="M0.5,6.5 L15.5,6.5 L15.5,1 C15.5,0.723857625 15.2761424,0.5 15,0.5 L1,0.5 C0.723857625,0.5 0.5,0.723857625 0.5,1 L0.5,6.5 Z"></path>
                </g>
                <g id="Rectangle-10">
                    <use fill="#58585B" fill-rule="evenodd" xlink:href="#path-2"></use>
                    <rect stroke="#58585B" stroke-width="1" x="0.5" y="8.5" width="6" height="7"></rect>
                </g>
                <g id="Rectangle-10">
                    <use fill="#58585B" fill-rule="evenodd" xlink:href="#path-3"></use>
                    <rect stroke="#58585B" stroke-width="1" x="9.5" y="8.5" width="6" height="7"></rect>
                </g>
            </g>
        </g>
    </g>
</svg>