<?xml version="1.0" encoding="UTF-8"?>
<svg width="16px" height="10px" viewBox="0 0 16 10" version="1.1" xmlns="http://www.w3.org/2000/svg" xmlns:xlink="http://www.w3.org/1999/xlink">
    <!-- Generator: Sketch 49.3 (51167) - http://www.bohemiancoding.com/sketch -->
    <title>icon-view</title>
    <desc>Created with Sketch.</desc>
    <defs></defs>
    <g id="SBG-Icon-Library" stroke="none" stroke-width="1" fill="none" fill-rule="evenodd">
        <g id="Actions" transform="translate(-291.000000, -4446.000000)" fill="#58585B">
            <g id="View/Show" transform="translate(22.000000, 4423.000000)">
                <g id="Show" transform="translate(269.000000, 23.000000)">
                    <path d="M8,0 C4.86666667,0 1.63333333,3.23333333 0,5 C1.63333333,6.76666667 4.86666667,10 8,10 C11.1333333,10 14.3666667,6.76666667 16,5 C14.3666667,3.23333333 11.1333333,0 8,0 L8,0 Z M8,7 C6.9,7 6,6.1 6,5 C6,3.9 6.9,3 8,3 C9.1,3 10,3.9 10,5 C10,6.1 9.1,7 8,7 L8,7 Z" id="Shape"></path>
                </g>
            </g>
        </g>
    </g>
</svg>