<?xml version="1.0" encoding="UTF-8"?>
<svg width="16px" height="16px" viewBox="0 0 16 16" version="1.1" xmlns="http://www.w3.org/2000/svg" xmlns:xlink="http://www.w3.org/1999/xlink">
    <!-- Generator: Sketch 49.3 (51167) - http://www.bohemiancoding.com/sketch -->
    <title>icon-vpn</title>
    <desc>Created with Sketch.</desc>
    <defs></defs>
    <g id="SBG-Icon-Library" stroke="none" stroke-width="1" fill="none" fill-rule="evenodd">
        <g id="Abstract" transform="translate(-303.000000, -2088.000000)" fill="#58585B">
            <g id="VPN" transform="translate(0.000000, 2066.000000)">
                <g id="icn_vpn" transform="translate(303.000000, 22.000000)">
                    <path d="M11.2463,15.0018 L4.7553,14.9988 L4.7553,12.1918 L11.2463,12.1918 L11.2463,15.0018 Z M0.9913,7.6318 L14.9923,7.6318 L14.9923,1.0018 L0.9913,1.0018 L0.9913,7.6318 Z M16.0003,13.5258 L12.2463,13.5258 L12.2463,12.0728 C12.2463,11.5868 11.8113,11.1918 11.2773,11.1918 L8.5003,11.1918 L8.5003,8.6288 L14.5623,8.6288 C15.3553,8.6288 16.0003,8.0628 16.0003,7.3658 L16.0003,1.2628 C16.0003,0.5668 15.3553,-0.0002 14.5623,-0.0002 L1.4373,-0.0002 C0.6443,-0.0002 0.0003,0.5668 0.0003,1.2628 L0.0003,7.3658 C0.0003,8.0628 0.6443,8.6288 1.4373,8.6288 L7.5003,8.6288 L7.5003,11.1918 L4.7233,11.1918 C4.1893,11.1918 3.7553,11.5868 3.7553,12.0728 L3.7553,13.5258 L0.0003,13.5258 L0.0003,14.5258 L3.7553,14.5258 L3.7553,15.1208 C3.7553,15.6058 4.1893,16.0018 4.7233,16.0018 L11.2773,16.0018 C11.8113,16.0018 12.2463,15.6058 12.2463,15.1208 L12.2463,14.5258 L16.0003,14.5258 L16.0003,13.5258 Z" id="Fill-1"></path>
                    <path d="M9.7327,2.9632 L9.7327,3.8852 L8.4137,3.8852 L7.5877,3.8852 L6.2677,3.8852 L6.2677,2.9632 C6.2677,2.8132 6.1607,2.7702 6.0537,2.8562 L3.9087,4.3152 L6.0537,5.7732 C6.1817,5.8592 6.2677,5.8162 6.2677,5.6662 L6.2677,4.7432 L7.5877,4.7432 L8.4137,4.7432 L9.7327,4.7432 L9.7327,5.6662 C9.7327,5.8162 9.8397,5.8592 9.9477,5.7732 L12.0917,4.3152 L9.9477,2.8562 C9.8187,2.7702 9.7327,2.8132 9.7327,2.9632" id="Fill-4"></path>
                </g>
            </g>
        </g>
    </g>
</svg>