<svg xmlns="http://www.w3.org/2000/svg" width="16" height="13" viewBox="0 0 16 13">
  <path fill="#58585B" fill-rule="evenodd" d="M14.5935,2.54912667 L3.5095,2.54912667 C3.2335,2.54912667 3.0095,2.35499333 3.0095,2.11579333 C3.0095,1.87659333 3.2335,1.68246 3.5095,1.68246 L14.5935,1.68246 C14.8695,1.68246 15.0935,1.87659333 15.0935,2.11579333 C15.0935,2.35499333 14.8695,2.54912667 14.5935,2.54912667 M12.9995,4.91512667 L3.5095,4.91512667 C3.2335,4.91512667 3.0095,4.72186 3.0095,4.48179333 C3.0095,4.24259333 3.2335,4.04846 3.5095,4.04846 L12.9995,4.04846 C13.2765,4.04846 13.4995,4.24259333 13.4995,4.48179333 C13.4995,4.72186 13.2765,4.91512667 12.9995,4.91512667 M9.0515,7.28112667 L3.5095,7.28112667 C3.2335,7.28112667 3.0095,7.08699333 3.0095,6.84779333 C3.0095,6.60859333 3.2335,6.41446 3.5095,6.41446 L9.0515,6.41446 C9.3275,6.41446 9.5515,6.60859333 9.5515,6.84779333 C9.5515,7.08699333 9.3275,7.28112667 9.0515,7.28112667 M16.3325,0.00026 L1.6665,0.00026 C1.2995,0.00026 0.9995,0.259393333 0.9995,0.578326667 L0.9995,8.66692667 C0.9995,8.98499333 1.2995,9.24499333 1.6665,9.24499333 L6.9995,9.24499333 L8.9995,12.71166 L10.9995,9.24499333 L16.3325,9.24499333 C16.6995,9.24499333 16.9995,8.98499333 16.9995,8.66692667 L16.9995,0.578326667 C16.9995,0.259393333 16.6995,0.00026 16.3325,0.00026" transform="translate(-1)"/>
</svg>
