<?xml version="1.0" encoding="UTF-8"?>
<svg width="16px" height="13px" viewBox="0 0 16 13" version="1.1" xmlns="http://www.w3.org/2000/svg" xmlns:xlink="http://www.w3.org/1999/xlink">
    <!-- Generator: Sketch 49.3 (51167) - http://www.bohemiancoding.com/sketch -->
    <title>icon-web-tracking</title>
    <desc>Created with Sketch.</desc>
    <defs></defs>
    <g id="SBG-Icon-Library" stroke="none" stroke-width="1" fill="none" fill-rule="evenodd">
        <g id="Content" transform="translate(-296.000000, -4434.000000)">
            <g id="Table-/-Customize-Copy" transform="translate(0.000000, 4297.000000)"></g>
            <g id="Generate-Report-Copy-4" transform="translate(23.000000, 4423.000000)"></g>
            <g id="Group" transform="translate(296.000000, 4434.000000)" fill="#58585B">
                <g id="Group-2">
                    <path d="M12.6173737,11.2189899 C12.6040404,11.1385859 12.5349495,11.039596 12.4646465,10.9987879 L9.89979798,9.51070707 C9.82949495,9.47030303 9.74787879,9.37454545 9.71878788,9.29858586 L9.4169697,8.62222222 C9.84242424,8.32161616 10.109899,7.33818182 10.109899,6.77777778 L10.109899,5.66666667 C10.109899,4.75030303 9.36080808,4 8.44444444,4 C7.52767677,4 6.77858586,4.75030303 6.77858586,5.66666667 L6.77858586,6.77777778 C6.77858586,7.33818182 7.04646465,8.32161616 7.47191919,8.62222222 L7.16969697,9.29858586 C7.14060606,9.37454545 7.05939394,9.47030303 6.98868687,9.51070707 L4.42424242,10.9987879 C4.35353535,11.039596 4.28484848,11.1385859 4.27151515,11.2189899 L4,12.8884848 L12.8888889,12.8884848 L12.6173737,11.2189899 Z" id="Fill-3"></path>
                    <polygon id="Triangle-38-Copy-3" transform="translate(13.467200, 3.109985) scale(1, -1) translate(-13.467200, -3.109985) " points="13.5 0 15.9343997 3.2199707 14 3.2199707 14 6.2199707 13 6.2199707 13 3.2199707 11 3.2199707"></polygon>
                    <polygon id="Triangle-38-Copy-3" points="2.5 0 4.93439967 3.2199707 3 3.2199707 3 6.2199707 2 6.2199707 2 3.2199707 0 3.2199707"></polygon>
                </g>
            </g>
        </g>
    </g>
</svg>