<svg xmlns="http://www.w3.org/2000/svg" width="16" height="16" viewBox="0 0 16 16">
  <path fill="#58585B" fill-rule="evenodd" d="M11.1904641,10.73 L7.64046407,16 L4.08046407,10.73 C3.91046407,10.49 4.02046407,10.3 4.31046407,10.3 L7.11046407,10.3 L7.11046407,7 L5.11046407,7 C4.55817932,7 4.11046407,6.55228475 4.11046407,6 L4.11046407,1 C4.11046407,0.44771525 4.55817932,0 5.11046407,0 L10.1104641,0 C10.6627488,0 11.1104641,0.44771525 11.1104641,1 L11.1104641,6 C11.1104641,6.55228475 10.6627488,7 10.1104641,7 L8.11046407,7 L8.11046407,10.3 L10.9204641,10.3 C11.2604641,10.3 11.3604641,10.49 11.1904641,10.73 Z"/>
</svg>
