<svg xmlns="http://www.w3.org/2000/svg" width="72" height="50" viewBox="0 0 72 50">
  <g fill="none" fill-rule="evenodd" transform="translate(1 1)">
    <text fill="#39393B" font-family="CiscoSansTT" font-size="14">
      <tspan x="36" y="32">Aa</tspan>
    </text>
    <rect width="70" height="48" fill="#F2F2F2" rx="2"/>
    <path fill="#FFF" d="M2,0 L68,0 C69.1045695,-2.02906125e-16 70,0.8954305 70,2 L70,9 L70,9 L0,9 L0,2 C-1.3527075e-16,0.8954305 0.8954305,2.02906125e-16 2,0 Z"/>
    <path fill="#049FD9" d="M0,9 L20,9 L20,48 L3,48 C1.34314575,48 2.02906125e-16,46.6568542 0,45 L0,9 L0,9 Z"/>
    <rect width="70" height="48" stroke="#DFDFDF" rx="2"/>
    <text fill="#39393B" font-family="CiscoSansTT" font-size="14">
      <tspan x="36" y="32">Aa</tspan>
    </text>
  </g>
</svg>
