<?xml version="1.0" encoding="UTF-8"?>
<svg width="11px" height="16px" viewBox="0 0 11 16" version="1.1" xmlns="http://www.w3.org/2000/svg" xmlns:xlink="http://www.w3.org/1999/xlink">
    <!-- Generator: Sketch 49.3 (51167) - http://www.bohemiancoding.com/sketch -->
    <title>icon-add-to-list</title>
    <desc>Created with Sketch.</desc>
    <defs></defs>
    <g id="SBG-Icon-Library" stroke="none" stroke-width="1" fill="none" fill-rule="evenodd">
        <g id="Content" transform="translate(-294.000000, -233.000000)" fill="#58585B">
            <g id="Add" transform="translate(-1.000000, 210.000000)">
                <path d="M303.9375,33 C303.9375,33.3686667 303.6295,33.6666667 303.25,33.6666667 L301.1875,33.6666667 L301.1875,35.6666667 C301.1875,36.0353333 300.8795,36.3333333 300.5,36.3333333 C300.1205,36.3333333 299.8125,36.0353333 299.8125,35.6666667 L299.8125,33.6666667 L297.75,33.6666667 C297.3705,33.6666667 297.0625,33.3686667 297.0625,33 C297.0625,32.6313333 297.3705,32.3333333 297.75,32.3333333 L299.8125,32.3333333 L299.8125,30.3333333 C299.8125,29.9646667 300.1205,29.6666667 300.5,29.6666667 C300.8795,29.6666667 301.1875,29.9646667 301.1875,30.3333333 L301.1875,32.3333333 L303.25,32.3333333 C303.6295,32.3333333 303.9375,32.6313333 303.9375,33 L303.9375,33 Z M295.6875,23 C295.308,23 295,23.2986667 295,23.6666667 L295,38.3333333 C295,38.7013333 295.308,39 295.6875,39 L305.3125,39 C305.692,39 306,38.7013333 306,38.3333333 L306,26.3333333 L302.5625,23 L295.6875,23 Z" id="Create-Page"></path>
            </g>
        </g>
    </g>
</svg>