<?xml version="1.0" encoding="UTF-8"?>
<svg width="16px" height="16px" viewBox="0 0 16 16" version="1.1" xmlns="http://www.w3.org/2000/svg" xmlns:xlink="http://www.w3.org/1999/xlink">
    <!-- Generator: Sketch 50.2 (55047) - http://www.bohemiancoding.com/sketch -->
    <title>Fill 7</title>
    <desc>Created with Sketch.</desc>
    <defs></defs>
    <g id="SBG-Icon-Library" stroke="none" stroke-width="1" fill="none" fill-rule="evenodd">
        <g id="Alerts/Notifications" transform="translate(-339.000000, -235.000000)" fill="#5C5C5C">
            <g id="Alert" transform="translate(0.000000, 210.000000)">
                <g id="alarm" transform="translate(339.000000, 25.000000)">
                    <path d="M8.66633333,1.367 C12.0356667,1.70166667 14.6663333,4.543 14.6663333,7.99966667 C14.6663333,9.82833333 13.9296667,11.4836667 12.7376667,12.6883333 L14.521,14.917 C14.7503333,15.2043333 14.7036667,15.6243333 14.4163333,15.8536667 C14.2936667,15.9523333 14.1463333,15.9996667 14.0003333,15.9996667 C13.805,15.9996667 13.611,15.9143333 13.479,15.7496667 L11.7103333,13.5383333 C10.6496667,14.2503333 9.37366667,14.6663333 7.99966667,14.6663333 C6.62633333,14.6663333 5.35033333,14.2503333 4.28966667,13.5383333 L2.521,15.7496667 C2.38833333,15.9143333 2.195,15.9996667 1.99966667,15.9996667 C1.85366667,15.9996667 1.70633333,15.9523333 1.583,15.8536667 C1.29633333,15.6243333 1.24966667,15.2043333 1.479,14.917 L3.26233333,12.6883333 C2.07033333,11.4836667 1.333,9.82833333 1.333,7.99966667 C1.333,4.543 3.96433333,1.70166667 7.333,1.367 L7.333,0.666333333 C7.333,0.298333333 7.63166667,-0.000333333333 7.99966667,-0.000333333333 C8.36833333,-0.000333333333 8.66633333,0.298333333 8.66633333,0.666333333 L8.66633333,1.367 Z M10.0136667,10.6523333 C10.2036667,10.6523333 10.3916667,10.5716667 10.5236667,10.4156667 C10.761,10.1343333 10.7256667,9.71366667 10.4443333,9.47633333 L8.66633333,7.975 L8.66633333,4.66633333 C8.66633333,4.29833333 8.36833333,3.99966667 7.99966667,3.99966667 C7.63166667,3.99966667 7.333,4.29833333 7.333,4.66633333 L7.333,8.59433333 L9.58366667,10.495 C9.70966667,10.6003333 9.86166667,10.6523333 10.0136667,10.6523333 Z M15.3326667,0.667333333 C16.2226667,1.55733333 16.2226667,3 15.3326667,3.89 L12.11,0.667333333 C13,-0.222666667 14.4426667,-0.222666667 15.3326667,0.667333333 Z M0.667666667,0.667333333 C1.557,-0.222666667 3.00033333,-0.222666667 3.89033333,0.667333333 L0.667666667,3.89 C-0.222333333,3 -0.222333333,1.55733333 0.667666667,0.667333333 Z" id="Fill-7"></path>
                </g>
            </g>
        </g>
    </g>
</svg>