<svg xmlns="http://www.w3.org/2000/svg" width="14" height="16" viewBox="0 0 14 16">
  <path fill="#58585B" fill-rule="evenodd" d="M36.0348435,243.724758 C36.3475264,243.888536 37.0577929,244.238897 37.8208634,244.453468 C38.6470917,244.691879 39.5033459,244.798646 39.905071,244.838036 C40.0106791,245.647598 40.2394967,249.016456 39.1523542,250.649056 C38.4193095,251.749895 37.3166363,252.584335 36.0462326,253 C35.4198314,252.808234 33.953742,252.213242 32.9121559,250.650092 C31.8229426,249.014382 32.0527956,245.651744 32.1584037,244.848401 C32.5435628,244.820414 33.391534,244.735415 34.2043025,244.492857 C34.9849744,244.272068 35.7294082,243.890609 36.0348435,243.724758 Z M34.7354493,237 C35.0564152,237 35.3183648,237.251887 35.3183648,237.560785 L35.3183648,237.560785 L35.3183648,242.930226 C34.9953281,243.094004 34.4983487,243.324123 33.9816971,243.477536 C33.8833366,243.300282 33.6959339,243.175893 33.4733285,243.175893 L33.4733285,243.175893 L31.6945563,243.175893 C31.372555,243.175893 31.1116408,243.426744 31.1116408,243.737715 C31.1116408,243.916005 31.2027537,244.067345 31.3373523,244.169965 C31.2679822,244.26533 31.1996475,244.361731 31.1685863,244.490266 C31.1603033,244.526546 30.6446872,248.084059 31.6583182,250.47543 L31.6583182,250.47543 L26.5818801,250.47543 C26.2619496,250.47543 26,250.222507 26,249.913608 L26,249.913608 L26,237.560785 C26,237.251887 26.2619496,237 26.5818801,237 L26.5818801,237 Z M29.9261377,246.213048 C29.7749731,246.060672 29.5285541,246.060672 29.3773895,246.213048 L29.3773895,246.213048 L28.3451218,247.24651 L28.0158729,246.915843 C27.8647083,246.764504 27.6182893,246.764504 27.4671248,246.915843 C27.3159602,247.068219 27.3159602,247.314923 27.4671248,247.467299 L27.4671248,247.467299 L28.3451218,248.345276 L29.9261377,246.763467 C30.0773023,246.612128 30.0773023,246.364387 29.9261377,246.213048 Z M29.9261377,242.714619 C29.7739377,242.561206 29.5285541,242.564316 29.3773895,242.715655 L29.3773895,242.715655 L28.3451218,243.749117 L28.0158729,243.418451 C27.8647083,243.267112 27.6182893,243.267112 27.4671248,243.418451 C27.3159602,243.570827 27.3159602,243.817531 27.4671248,243.969907 L27.4671248,243.969907 L28.3451218,244.847883 L29.9261377,243.264002 C30.0773023,243.112662 30.0773023,242.865958 29.9261377,242.714619 Z M29.9261377,239.217227 C29.7749731,239.064851 29.5285541,239.064851 29.3773895,239.217227 L29.3773895,239.217227 L28.3451218,240.250688 L28.0158729,239.920022 C27.8647083,239.768683 27.6182893,239.768683 27.4671248,239.920022 C27.3159602,240.072398 27.3159602,240.319102 27.4671248,240.471478 L27.4671248,240.471478 L28.3451218,241.349454 L29.9261377,239.767646 C30.0773023,239.616307 30.0773023,239.368566 29.9261377,239.217227 Z M33.4733285,239.807036 L31.6945563,239.807036 C31.372555,239.807036 31.1116408,240.057886 31.1116408,240.368858 C31.1116408,240.678792 31.372555,240.929643 31.6945563,240.929643 L31.6945563,240.929643 L33.4733285,240.929643 C33.7953298,240.929643 34.056244,240.678792 34.056244,240.368858 C34.056244,240.057886 33.7953298,239.807036 33.4733285,239.807036 L33.4733285,239.807036 Z" transform="translate(-26 -237)"/>
</svg>
