<svg xmlns="http://www.w3.org/2000/svg" xmlns:xlink="http://www.w3.org/1999/xlink" width="16" height="16" viewBox="0 0 16 16">
  <defs>
    <path id="append-a" d="M12,14.5 L12,13 L10.5075684,13 C10.2272461,13 10.1478519,12.838707 10.337204,12.6321411 L12.75,10 L15.162796,12.6321411 C15.3490286,12.835304 15.2775815,13 14.9924316,13 L13.5,13 L13.5,15.2429733 C13.5,15.6558619 13.1642136,16 12.75,16 L12,16 L8.7523694,16 C8.33684726,16 8,15.6671014 8,15.25 C8,14.8357864 8.34103775,14.5 8.7523694,14.5 L12,14.5 Z M0,11.9998075 C0,11.4476291 0.437881351,11 1.00292933,11 L5.99707067,11 C6.55097324,11 7,11.4437166 7,11.9998075 L7,15.0001925 C7,15.5523709 6.56211865,16 5.99707067,16 L1.00292933,16 C0.449026756,16 0,15.5562834 0,15.0001925 L0,11.9998075 Z M2,13.5 C2,13.7680664 2.2217932,14 2.49538898,14 L4.50461102,14 C4.7842474,14 5,13.7761424 5,13.5 C5,13.2319336 4.7782068,13 4.50461102,13 L2.49538898,13 C2.2157526,13 2,13.2238576 2,13.5 Z M8,0.997544646 C8,0.446615951 8.45303631,0 8.99703014,0 L15.0029699,0 C15.5536144,0 16,0.446311399 16,0.997544646 L16,8.00245535 C16,8.55338405 15.5469637,9 15.0029699,9 L8.99703014,9 C8.4463856,9 8,8.5536886 8,8.00245535 L8,0.997544646 Z M10,2.5 C10,2.76806641 10.2195947,3 10.4904785,3 L13.5095215,3 C13.7849426,3 14,2.77614237 14,2.5 C14,2.23193359 13.7804053,2 13.5095215,2 L10.4904785,2 C10.2150574,2 10,2.22385763 10,2.5 Z M10,4.5 C10,4.76806641 10.2195947,5 10.4904785,5 L13.5095215,5 C13.7849426,5 14,4.77614237 14,4.5 C14,4.23193359 13.7804053,4 13.5095215,4 L10.4904785,4 C10.2150574,4 10,4.22385763 10,4.5 Z M10,6.5 C10,6.76806641 10.2195947,7 10.4904785,7 L13.5095215,7 C13.7849426,7 14,6.77614237 14,6.5 C14,6.23193359 13.7804053,6 13.5095215,6 L10.4904785,6 C10.2150574,6 10,6.22385763 10,6.5 Z"/>
  </defs>
  <use fill="#58585B" fill-rule="evenodd" xlink:href="#append-a"/>
</svg>
