<svg xmlns="http://www.w3.org/2000/svg" width="16" height="16" viewBox="0 0 16 16">
  <g fill="#58585B">
    <path d="M13.979,13.17 C13.565,13.368 13.247,13.726 13.098,14.165 C11.713,15.311 9.938,16 8,16 C3.582,16 4.20996571e-13,12.418 4.20996571e-13,8 C4.20996571e-13,3.582 3.582,0 8,0 C11.879,0 15.112,2.762 15.843,6.426 C15.537,6.164 15.132,6 14.667,6 C13.748,6 13,6.748 13,7.666 L13,11.656 C13,12.33 13.403,12.908 13.979,13.17 Z M4.66666667,7 C4.29866667,7 4,7.3808 4,7.85 C4,8.3192 4.29866667,8.7 4.66666667,8.7 L11.3333333,8.7 C11.7013333,8.7 12,8.3192 12,7.85 C12,7.3808 11.7013333,7 11.3333333,7 L4.66666667,7 Z"/>
    <path d="M14.756,7 C15.124,7 15.423,7.298 15.423,7.666 L15.423,10.973 L15.423,11.656 C15.423,12.024 15.124,12.323 14.756,12.323 L14.725,12.323 L14.667,12.323 C14.298,12.323 14,12.024 14,11.656 L14,7.666 C14,7.298 14.298,7 14.667,7 L14.756,7 Z M14.711,14 C15.104,14 15.422,14.318 15.422,14.711 C15.422,15.104 15.104,15.422 14.711,15.422 C14.318,15.422 14,15.104 14,14.711 C14,14.318 14.318,14 14.711,14 Z"/>
  </g>
</svg>
