<?xml version="1.0" encoding="UTF-8"?>
<svg width="16px" height="16px" viewBox="0 0 16 16" version="1.1" xmlns="http://www.w3.org/2000/svg" xmlns:xlink="http://www.w3.org/1999/xlink">
    <!-- Generator: Sketch 49.3 (51167) - http://www.bohemiancoding.com/sketch -->
    <title>icon-blocked</title>
    <desc>Created with Sketch.</desc>
    <defs></defs>
    <g id="SBG-Icon-Library" stroke="none" stroke-width="1" fill="none" fill-rule="evenodd">
        <g id="Alerts/Notifications" transform="translate(-292.000000, -312.000000)">
            <g id="Blocked" transform="translate(0.000000, 290.000000)"></g>
            <g id="Blocked/Unavailable" transform="translate(292.000000, 312.000000)" fill="#58585B">
                <path d="M8,0 C3.56666667,0 0,3.56666667 0,8 C0,12.4333333 3.56666667,16 8,16 C12.4333333,16 16,12.4333333 16,8 C16,3.56666667 12.4333333,0 8,0 L8,0 Z M8,1.33333333 C9.6,1.33333333 11.0666667,1.9 12.2,2.83333333 L2.83333333,12.2 C1.9,11.0666667 1.33333333,9.56666667 1.33333333,8 C1.33333333,4.33333333 4.33333333,1.33333333 8,1.33333333 L8,1.33333333 Z M8,14.6666667 C6.4,14.6666667 4.93333333,14.1 3.8,13.1666667 L13.1666667,3.8 C14.1,4.93333333 14.6666667,6.43333333 14.6666667,8 C14.6666667,11.6666667 11.6666667,14.6666667 8,14.6666667 L8,14.6666667 Z" id="Shape"></path>
            </g>
        </g>
    </g>
</svg>