<?xml version="1.0" encoding="UTF-8"?>
<svg width="13px" height="16px" viewBox="0 0 13 16" version="1.1" xmlns="http://www.w3.org/2000/svg" xmlns:xlink="http://www.w3.org/1999/xlink">
    <title>bold</title>
    <g id="ICONS" stroke="none" stroke-width="1" fill="none" fill-rule="evenodd">
        <g id="Icons_2.2" transform="translate(-24.000000, -42.000000)" fill="#58585B" fill-rule="nonzero">
            <g id="bold" transform="translate(24.000000, 42.000000)">
                <path d="M5.676,15.84 C7.84666667,15.84 9.46,15.51 10.516,14.85 C11.6746667,14.1166667 12.254,12.9213333 12.254,11.264 C12.254,10.3106667 11.9753333,9.51133333 11.418,8.866 C10.802,8.162 9.91466667,7.69266667 8.756,7.458 C9.51866667,7.25266667 10.1493333,6.908 10.648,6.424 C11.308,5.808 11.638,5.06733333 11.638,4.202 C11.638,2.86733333 11.2053333,1.86266667 10.34,1.188 C9.328,0.396 7.64133333,7.28306304e-14 5.28,7.28306304e-14 L5.28,7.28306304e-14 L4.07673895e-13,7.28306304e-14 L4.07673895e-13,15.84 L5.676,15.84 Z M5.61,6.424 L3.696,6.424 L3.696,2.42 L5.544,2.42 C6.30666667,2.42 6.897,2.585 7.315,2.915 C7.733,3.245 7.942,3.71066667 7.942,4.312 C7.942,4.95733333 7.75866667,5.46333333 7.392,5.83 C6.996,6.226 6.402,6.424 5.61,6.424 L5.61,6.424 Z M5.83,13.42 L3.696,13.42 L3.696,8.712 L5.94,8.712 C6.70266667,8.712 7.304,8.89533333 7.744,9.262 C8.24266667,9.68733333 8.492,10.318 8.492,11.154 C8.492,11.902 8.316,12.452 7.964,12.804 C7.55333333,13.2146667 6.842,13.42 5.83,13.42 L5.83,13.42 Z" id="B"></path>
            </g>
        </g>
    </g>
</svg>