<?xml version="1.0" encoding="UTF-8"?>
<svg width="16px" height="16px" viewBox="0 0 16 16" version="1.1" xmlns="http://www.w3.org/2000/svg" xmlns:xlink="http://www.w3.org/1999/xlink">
    <!-- Generator: Sketch 52.6 (67491) - http://www.bohemiancoding.com/sketch -->
    <title>Shape</title>
    <desc>Created with Sketch.</desc>
    <g id="SBG-Icon-Library" stroke="none" stroke-width="1" fill="none" fill-rule="evenodd">
        <g id="Content" transform="translate(-292.000000, -406.000000)" fill="#58585B">
            <path d="M307.272727,406 L305.090909,406 L305.090909,406.727273 C305.090909,407.127273 304.763636,407.454545 304.363636,407.454545 C303.963636,407.454545 303.636364,407.127273 303.636364,406.727273 L303.636364,406 L296.363636,406 L296.363636,406.727273 C296.363636,407.127273 296.036364,407.454545 295.636364,407.454545 C295.236364,407.454545 294.909091,407.127273 294.909091,406.727273 L294.909091,406 L292.727273,406 C292.327273,406 292,406.327273 292,406.727273 L292,421.272727 C292,421.672727 292.327273,422 292.727273,422 L307.272727,422 C307.672727,422 308,421.672727 308,421.272727 L308,406.727273 C308,406.327273 307.672727,406 307.272727,406 L307.272727,406 Z M295.636364,418.727273 C295.236364,418.727273 294.909091,418.4 294.909091,418 C294.909091,417.6 295.236364,417.272727 295.636364,417.272727 C296.036364,417.272727 296.363636,417.6 296.363636,418 C296.363636,418.4 296.036364,418.727273 295.636364,418.727273 L295.636364,418.727273 Z M295.636364,415.454545 C295.236364,415.454545 294.909091,415.127273 294.909091,414.727273 C294.909091,414.327273 295.236364,414 295.636364,414 C296.036364,414 296.363636,414.327273 296.363636,414.727273 C296.363636,415.127273 296.036364,415.454545 295.636364,415.454545 L295.636364,415.454545 Z M295.636364,412.181818 C295.236364,412.181818 294.909091,411.854545 294.909091,411.454545 C294.909091,411.054545 295.236364,410.727273 295.636364,410.727273 C296.036364,410.727273 296.363636,411.054545 296.363636,411.454545 C296.363636,411.854545 296.036364,412.181818 295.636364,412.181818 L295.636364,412.181818 Z M298.545455,418.727273 C298.145455,418.727273 297.818182,418.4 297.818182,418 C297.818182,417.6 298.145455,417.272727 298.545455,417.272727 C298.945455,417.272727 299.272727,417.6 299.272727,418 C299.272727,418.4 298.945455,418.727273 298.545455,418.727273 L298.545455,418.727273 Z M298.545455,415.454545 C298.145455,415.454545 297.818182,415.127273 297.818182,414.727273 C297.818182,414.327273 298.145455,414 298.545455,414 C298.945455,414 299.272727,414.327273 299.272727,414.727273 C299.272727,415.127273 298.945455,415.454545 298.545455,415.454545 L298.545455,415.454545 Z M298.545455,412.181818 C298.145455,412.181818 297.818182,411.854545 297.818182,411.454545 C297.818182,411.054545 298.145455,410.727273 298.545455,410.727273 C298.945455,410.727273 299.272727,411.054545 299.272727,411.454545 C299.272727,411.854545 298.945455,412.181818 298.545455,412.181818 L298.545455,412.181818 Z M301.454545,418.727273 C301.054545,418.727273 300.727273,418.4 300.727273,418 C300.727273,417.6 301.054545,417.272727 301.454545,417.272727 C301.854545,417.272727 302.181818,417.6 302.181818,418 C302.181818,418.4 301.854545,418.727273 301.454545,418.727273 L301.454545,418.727273 Z M301.454545,415.454545 C301.054545,415.454545 300.727273,415.127273 300.727273,414.727273 C300.727273,414.327273 301.054545,414 301.454545,414 C301.854545,414 302.181818,414.327273 302.181818,414.727273 C302.181818,415.127273 301.854545,415.454545 301.454545,415.454545 L301.454545,415.454545 Z M301.454545,412.181818 C301.054545,412.181818 300.727273,411.854545 300.727273,411.454545 C300.727273,411.054545 301.054545,410.727273 301.454545,410.727273 C301.854545,410.727273 302.181818,411.054545 302.181818,411.454545 C302.181818,411.854545 301.854545,412.181818 301.454545,412.181818 L301.454545,412.181818 Z M304.363636,415.454545 C303.963636,415.454545 303.636364,415.127273 303.636364,414.727273 C303.636364,414.327273 303.963636,414 304.363636,414 C304.763636,414 305.090909,414.327273 305.090909,414.727273 C305.090909,415.127273 304.763636,415.454545 304.363636,415.454545 L304.363636,415.454545 Z M304.363636,412.181818 C303.963636,412.181818 303.636364,411.854545 303.636364,411.454545 C303.636364,411.054545 303.963636,410.727273 304.363636,410.727273 C304.763636,410.727273 305.090909,411.054545 305.090909,411.454545 C305.090909,411.854545 304.763636,412.181818 304.363636,412.181818 L304.363636,412.181818 Z" id="Shape"></path>
        </g>
    </g>
</svg>