<svg xmlns="http://www.w3.org/2000/svg" width="16" height="16" viewBox="0 0 16 16">
  <path fill="#58585B" d="M16,8 L14.17,6.34 L14.9,4 L12.51,3.5 L12,1.09 L9.68,1.82 L8,0 L6.34,1.82 L4,1.09 L3.49,3.48 L1.1,4 L1.83,6.33 L0,8 L1.83,9.69 L1.1,12 L3.49,12.53 L4,14.9 L6.32,14.17 L8,16 L9.66,14.2 L11.98,14.93 L12.51,12.54 L14.9,12 L14.17,9.68 L16,8 Z M11,6.77 L7.1,10.65 L5.1,8.65 C4.98957339,8.51355862 4.93804615,8.33874967 4.95681201,8.1642271 C4.97557788,7.98970452 5.06309086,7.82984614 5.2,7.72 C5.43508633,7.53646338 5.76491367,7.53646338 6,7.72 L7.1,8.79 L10.1,5.84 C10.218496,5.71906049 10.3806847,5.65090815 10.55,5.65090815 C10.7193153,5.65090815 10.881504,5.71906049 11,5.84 L11,5.84 C11.1221316,5.96192946 11.1907615,6.12742269 11.1907615,6.3 C11.1907615,6.47257731 11.1221316,6.63807054 11,6.76 L11,6.77 Z"/>
</svg>
