<svg xmlns="http://www.w3.org/2000/svg" width="16" height="15" viewBox="0 0 16 15">
  <path fill="#58585B" fill-rule="evenodd" d="M1.7588,11.9878 C2.0358,11.9878 2.2608,12.2128 2.2608,12.4898 L2.2608,13.7468 C2.2608,14.0238 2.0358,14.2488 1.7588,14.2488 L0.5028,14.2488 C0.2248,14.2488 -0.0002,14.0238 -0.0002,13.7468 L-0.0002,12.4908 C-0.0002,12.2128 0.2258,11.9878 0.5028,11.9878 L1.7588,11.9878 Z M15.3886,11.9878 C15.6656,11.9878 15.8906,12.2128 15.8906,12.4898 L15.8906,13.7468 C15.8906,14.0238 15.6656,14.2488 15.3886,14.2488 L4.4016,14.2488 C4.1236,14.2488 3.8986,14.0238 3.8986,13.7468 L3.8986,12.4898 C3.8986,12.2128 4.1236,11.9878 4.4016,11.9878 L15.3886,11.9878 Z M1.7588,7.9917 C2.0358,7.9917 2.2608,8.2167 2.2608,8.4937 L2.2608,9.7507 C2.2608,10.0277 2.0358,10.2527 1.7588,10.2527 L0.5028,10.2527 C0.2248,10.2527 -0.0002,10.0277 -0.0002,9.7507 L-0.0002,8.4947 C-0.0002,8.2167 0.2258,7.9917 0.5028,7.9917 L1.7588,7.9917 Z M15.3886,7.9917 C15.6656,7.9917 15.8906,8.2167 15.8906,8.4937 L15.8906,9.7507 C15.8906,10.0277 15.6656,10.2527 15.3886,10.2527 L4.4016,10.2527 C4.1236,10.2527 3.8986,10.0277 3.8986,9.7507 L3.8986,8.4937 C3.8986,8.2167 4.1236,7.9917 4.4016,7.9917 L15.3886,7.9917 Z M1.7588,3.9956 C2.0358,3.9956 2.2608,4.2206 2.2608,4.4986 L2.2608,5.7546 C2.2608,6.0316 2.0358,6.2566 1.7588,6.2566 L0.5028,6.2566 C0.2248,6.2566 -0.0002,6.0316 -0.0002,5.7546 L-0.0002,4.4986 C-0.0002,4.2206 0.2258,3.9956 0.5028,3.9956 L1.7588,3.9956 Z M15.3886,3.9956 C15.6656,3.9956 15.8906,4.2206 15.8906,4.4986 L15.8906,5.7546 C15.8906,6.0316 15.6656,6.2566 15.3886,6.2566 L4.4016,6.2566 C4.1236,6.2566 3.8986,6.0316 3.8986,5.7546 L3.8986,4.4986 C3.8986,4.2206 4.1236,3.9956 4.4016,3.9956 L15.3886,3.9956 Z M1.7588,-3.15303339e-14 C2.0358,-3.15303339e-14 2.2608,0.225 2.2608,0.502 L2.2608,1.759 C2.2608,2.036 2.0358,2.261 1.7588,2.261 L0.5028,2.261 C0.2248,2.261 -0.0002,2.036 -0.0002,1.759 L-0.0002,0.503 C-0.0002,0.225 0.2258,-3.15303339e-14 0.5028,-3.15303339e-14 L1.7588,-3.15303339e-14 Z M15.3886,-3.15303339e-14 C15.6656,-3.15303339e-14 15.8906,0.225 15.8906,0.502 L15.8906,1.759 C15.8906,2.036 15.6656,2.261 15.3886,2.261 L4.4016,2.261 C4.1236,2.261 3.8986,2.036 3.8986,1.759 L3.8986,0.502 C3.8986,0.225 4.1236,-3.15303339e-14 4.4016,-3.15303339e-14 L15.3886,-3.15303339e-14 Z"/>
</svg>
