<?xml version="1.0" encoding="UTF-8"?>
<svg width="16px" height="16px" viewBox="0 0 16 16" version="1.1" xmlns="http://www.w3.org/2000/svg" xmlns:xlink="http://www.w3.org/1999/xlink">
    <!-- Generator: Sketch 49.3 (51167) - http://www.bohemiancoding.com/sketch -->
    <title>icon-close</title>
    <desc>Created with Sketch.</desc>
    <defs></defs>
    <g id="SBG-Icon-Library" stroke="none" stroke-width="1" fill="none" fill-rule="evenodd">
        <g id="Actions" transform="translate(-293.000000, -548.000000)" fill="#58585B">
            <g id="Cancel/Close" transform="translate(0.000000, 520.000000)">
                <g id="Delete" transform="translate(293.000000, 28.000000)">
                    <path d="M9.25697778,8 L15.7396444,1.51733333 C16.0872,1.16977778 16.0872,0.608 15.7396444,0.260444444 C15.3920889,-0.0871111111 14.8303111,-0.0871111111 14.4827556,0.260444444 L8.00008889,6.74311111 L1.51742222,0.260444444 C1.16986667,-0.0871111111 0.608088889,-0.0871111111 0.260533333,0.260444444 C-0.0870222222,0.608 -0.0870222222,1.16977778 0.260533333,1.51733333 L6.7432,8 L0.260533333,14.4826667 C-0.0870222222,14.8302222 -0.0870222222,15.392 0.260533333,15.7395556 C0.433866667,15.9128889 0.661422222,16 0.888977778,16 C1.11653333,16 1.34408889,15.9128889 1.51742222,15.7395556 L8.00008889,9.25688889 L14.4827556,15.7395556 C14.6560889,15.9128889 14.8836444,16 15.1112,16 C15.3387556,16 15.5663111,15.9128889 15.7396444,15.7395556 C16.0872,15.392 16.0872,14.8302222 15.7396444,14.4826667 L9.25697778,8 Z" id="Fill-1"></path>
                </g>
            </g>
        </g>
    </g>
</svg>