<svg xmlns="http://www.w3.org/2000/svg" width="16" height="13" viewBox="0 0 16 13">
  <path fill="#58585B" d="M14.9998122,0 L0.999987482,0 C0.447709646,0 0,0.431772886 0,0.964391709 L0,8.67952523 C0,9.21214405 0.447709646,9.64391692 0.999987482,9.64391692 L7.46990649,9.64391692 L7.46990649,11.7848665 L5.54993053,12.0356083 C5.27379161,12.0356083 5.04993679,12.2514947 5.04993679,12.5178042 C5.04993679,12.7841136 5.27379161,13 5.54993053,13 L10.5498679,13 C10.823773,12.9948693 11.0445416,12.7819592 11.0498617,12.5178042 C11.0526137,12.3891226 11.0008202,12.2649261 10.90645,12.1739151 C10.8120798,12.0829041 10.6832992,12.0329542 10.5498679,12.0356083 L8.48989373,11.7752226 L8.48989373,9.66320475 L14.9998122,9.66320475 C15.5520901,9.66320475 15.9997997,9.23143189 15.9997997,8.69881306 L15.9997997,0.983679543 C16.005174,0.724581618 15.9021958,0.474300444 15.7140762,0.289248639 C15.5259565,0.104196834 15.2685272,0 14.9998122,0 Z M13.9998248,8.19732936 L1.99997496,8.19732936 L1.99997496,1.44658753 L13.9998248,1.44658753 L13.9998248,8.19732936 Z"/>
</svg>
