<svg xmlns="http://www.w3.org/2000/svg" width="16" height="16" viewBox="0 0 16 16">
  <path fill="#58585B" d="M14.3505,4.4901 L11.0205,6.7601 C10.8205,6.8901 10.6905,6.8301 10.6905,6.5901 L10.6905,5.0001 L7.1905,5.0001 L6.1905,6.4001 L5.0495,8.0001 L4.3295,9.0001 L-0.0005,9.0001 L-0.0005,8.0001 L3.7595,8.0001 L6.1905,4.6001 L6.2595,4.5001 L6.1905,4.4001 L3.7595,1.0001 L-0.0005,1.0001 L-0.0005,0.0001 L4.3295,0.0001 L5.0495,1.0001 L6.1905,2.6001 L7.1905,4.0001 L10.6905,4.0001 L10.6905,2.3901 C10.6905,2.1601 10.8505,2.0901 11.0205,2.2301 L14.3505,4.4901 Z" transform="translate(1 4)"/>
</svg>
