<?xml version="1.0" encoding="UTF-8"?>
<svg width="14px" height="16px" viewBox="0 0 14 16" version="1.1" xmlns="http://www.w3.org/2000/svg" xmlns:xlink="http://www.w3.org/1999/xlink">
    <!-- Generator: Sketch 49.3 (51167) - http://www.bohemiancoding.com/sketch -->
    <title>icon-copy</title>
    <desc>Created with Sketch.</desc>
    <defs></defs>
    <g id="SBG-Icon-Library" stroke="none" stroke-width="1" fill="none" fill-rule="evenodd">
        <g id="Actions" transform="translate(-295.000000, -1306.000000)" fill="#58585B">
            <g id="Copy" transform="translate(0.000000, 1279.000000)">
                <g id="icn_copy_duplicate" transform="translate(295.000000, 27.000000)">
                    <path d="M6.3191,3.3741 L2.5901,3.3741 C2.3141,3.3741 2.0901,3.1501 2.0901,2.8741 C2.0901,2.5981 2.3141,2.3741 2.5901,2.3741 L6.3191,2.3741 C6.5951,2.3741 6.8191,2.5981 6.8191,2.8741 C6.8191,3.1501 6.5951,3.3741 6.3191,3.3741 M7.9101,0.0001 L0.9991,0.0001 C0.4471,0.0001 0.0001,0.4471 0.0001,0.9991 L0.0001,9.4651 C0.0001,10.0171 0.4471,10.4641 0.9991,10.4641 L3.9251,10.4641 L3.9251,6.3741 L2.5901,6.3741 C2.3141,6.3741 2.0901,6.1501 2.0901,5.8741 C2.0901,5.5981 2.3141,5.3741 2.5901,5.3741 L4.0831,5.3741 C4.3271,4.8771 4.8341,4.5311 5.4241,4.5311 L8.9091,4.5311 L8.9091,0.9991 C8.9091,0.4471 8.4621,0.0001 7.9101,0.0001" id="Fill-1"></path>
                    <path d="M11.1111,8.7569 L7.3821,8.7569 C7.1061,8.7569 6.8821,8.5329 6.8821,8.2569 C6.8821,7.9809 7.1061,7.7569 7.3821,7.7569 L11.1111,7.7569 C11.3871,7.7569 11.6111,7.9809 11.6111,8.2569 C11.6111,8.5329 11.3871,8.7569 11.1111,8.7569 M11.1111,11.7569 L7.3821,11.7569 C7.1061,11.7569 6.8821,11.5329 6.8821,11.2569 C6.8821,10.9809 7.1061,10.7569 7.3821,10.7569 L11.1111,10.7569 C11.3871,10.7569 11.6111,10.9809 11.6111,11.2569 C11.6111,11.5329 11.3871,11.7569 11.1111,11.7569 M12.7021,5.3829 L5.7911,5.3829 C5.2391,5.3829 4.7921,5.8309 4.7921,6.3819 L4.7921,14.8479 C4.7921,15.3999 5.2391,15.8469 5.7911,15.8469 L12.7021,15.8469 C13.2541,15.8469 13.7011,15.3999 13.7011,14.8479 L13.7011,6.3819 C13.7011,5.8309 13.2541,5.3829 12.7021,5.3829" id="Fill-4"></path>
                </g>
            </g>
        </g>
    </g>
</svg>