<?xml version="1.0" encoding="UTF-8"?>
<svg width="16px" height="16px" viewBox="0 0 16 16" version="1.1" xmlns="http://www.w3.org/2000/svg" xmlns:xlink="http://www.w3.org/1999/xlink">
    <!-- Generator: Sketch 49.3 (51167) - http://www.bohemiancoding.com/sketch -->
    <title>icon-critical-stop</title>
    <desc>Created with Sketch.</desc>
    <defs></defs>
    <g id="SBG-Icon-Library" stroke="none" stroke-width="1" fill="none" fill-rule="evenodd">
        <g id="Alerts/Notifications" transform="translate(-291.000000, -407.000000)" fill="#58585B">
            <g id="Critical-/-Stop" transform="translate(0.000000, 385.000000)">
                <g id="critical_stop" transform="translate(291.000000, 22.000000)">
                    <path d="M11.1553333,10.2126667 C11.416,10.4733333 11.416,10.8946667 11.1553333,11.1553333 C11.0253333,11.2853333 10.8546667,11.3506667 10.684,11.3506667 C10.5133333,11.3506667 10.3426667,11.2853333 10.2126667,11.1553333 L8,8.94266667 L5.798,11.144 C5.668,11.2746667 5.49733333,11.3393333 5.32666667,11.3393333 C5.156,11.3393333 4.98533333,11.2746667 4.85533333,11.144 C4.59466667,10.884 4.59466667,10.462 4.85533333,10.2013333 L7.05733333,8 L4.866,5.80933333 C4.606,5.54866667 4.606,5.12666667 4.866,4.866 C5.12666667,4.606 5.54866667,4.606 5.80866667,4.866 L8,7.05733333 L10.1846667,4.872 C10.4453333,4.61133333 10.8673333,4.61133333 11.1273333,4.872 C11.388,5.132 11.388,5.554 11.1273333,5.81466667 L8.94266667,8 L11.1553333,10.2126667 Z M11.6666667,0 L4.33333333,0 L0,4.33333333 L0,11.6666667 L4.33333333,16 L11.6666667,16 L16,11.6666667 L16,4.33333333 L11.6666667,0 Z" id="Fill-1"></path>
                </g>
            </g>
        </g>
    </g>
</svg>