<svg xmlns="http://www.w3.org/2000/svg" width="14" height="16" viewBox="0 0 14 16">
  <path fill="#58585B" fill-rule="evenodd" d="M14,11.691819 L14,14.000988 C14,15.1045467 10.8664555,16 7,16 C3.13354451,16 5.5067062e-14,15.1045467 5.5067062e-14,14.000988 L5.5067062e-14,14.000988 L5.5067062e-14,11.691819 C1.50550183,12.6012794 4.2585862,13.0254942 7,13.0254942 C9.7414138,13.0254942 12.4944982,12.6012794 14,11.691819 L14,11.691819 Z M14,7.67778688 L14,10.0259757 C14,11.1295343 10.8664555,12.0249876 7,12.0249876 C3.13354451,12.0249876 5.5067062e-14,11.1295343 5.5067062e-14,10.0259757 L5.5067062e-14,10.0259757 L5.5067062e-14,7.67778688 C1.50550183,8.5882478 4.2585862,9.01146205 7,9.01146205 C9.7414138,9.01146205 12.4944982,8.5882478 14,7.67778688 L14,7.67778688 Z M14,3.66485533 L14,6.0130441 C14,7.11660278 10.8664555,8.0110556 7,8.0110556 C3.13354451,8.0110556 5.5067062e-14,7.11660278 5.5067062e-14,6.0130441 L5.5067062e-14,6.0130441 L5.5067062e-14,3.66485533 C1.50550183,4.57431575 4.2585862,4.99853051 7,4.99853051 C9.7414138,4.99853051 12.4944982,4.57431575 14,3.66485533 L14,3.66485533 Z M7,5.02042852e-13 C10.8664555,5.02042852e-13 14,0.894452817 14,1.999012 C14,3.10257068 10.8664555,3.998024 7,3.998024 C3.13354451,3.998024 5.5067062e-14,3.10257068 5.5067062e-14,1.999012 C5.5067062e-14,0.894452817 3.13354451,5.02042852e-13 7,5.02042852e-13 Z"/>
</svg>
