<svg xmlns="http://www.w3.org/2000/svg" width="16" height="14" viewBox="0 0 16 14">
  <path fill="#58585B" fill-rule="evenodd" d="M8.793,4.9722 C8.271,4.9722 7.848,4.5492 7.848,4.0272 C7.848,3.5052 8.271,3.0822 8.793,3.0822 C9.314,3.0822 9.737,3.5052 9.737,4.0272 C9.737,4.5492 9.314,4.9722 8.793,4.9722 M5.723,4.9722 C5.201,4.9722 4.778,4.5492 4.778,4.0272 C4.778,3.5052 5.201,3.0822 5.723,3.0822 C6.245,3.0822 6.668,3.5052 6.668,4.0272 C6.668,4.5492 6.245,4.9722 5.723,4.9722 M2.59,4.9722 C2.069,4.9722 1.646,4.5492 1.646,4.0272 C1.646,3.5052 2.069,3.0822 2.59,3.0822 C3.112,3.0822 3.535,3.5052 3.535,4.0272 C3.535,4.5492 3.112,4.9722 2.59,4.9722 M14.996,0.9992 L1,0.9992 C0.447,0.9992 4.70734562e-14,1.4482 4.70734562e-14,1.9992 L4.70734562e-14,6.0552 C4.70734562e-14,6.6072 0.447,7.0542 1,7.0542 L14.996,7.0542 C15.548,7.0542 15.996,6.6072 15.996,6.0552 L15.996,1.9992 C15.996,1.4482 15.548,0.9992 14.996,0.9992" transform="translate(0 3)"/>
</svg>
