<svg xmlns="http://www.w3.org/2000/svg" width="16" height="16" viewBox="0 0 16 16">
  <path fill="#4F4F52" fill-rule="evenodd" d="M11.0222,9.6193 L14.3522,11.8793 L11.0222,14.1493 C10.8232,14.2793 10.6922,14.2193 10.6922,13.9793 L10.6922,12.3893 L6.3622,12.3893 L5.6422,11.3893 L4.4932,9.7893 L3.7432,8.7393 L3.5122,8.4193 L3.4932,8.3893 L0.0022,8.3893 L0.0022,7.3893 L3.4932,7.3893 L3.5122,7.3593 L3.8122,6.9393 L4.4932,5.9893 L5.6422,4.3893 L6.3622,3.3893 L10.6922,3.3893 L10.6922,1.7793 C10.6922,1.5493 10.8522,1.4793 11.0222,1.6193 L14.3522,3.8793 L11.0222,6.1493 C10.8232,6.2793 10.6922,6.2193 10.6922,5.9793 L10.6922,4.3893 L6.9322,4.3893 L5.1022,6.9393 L4.4932,7.7893 L4.4322,7.8893 L4.4932,7.9893 L5.0322,8.7393 L6.9322,11.3893 L10.6922,11.3893 L10.6922,9.7793 C10.6922,9.5493 10.8522,9.4793 11.0222,9.6193"/>
</svg>
