<svg xmlns="http://www.w3.org/2000/svg" width="16" height="16" viewBox="0 0 16 16">
  <path fill="#58585B" d="M11.33,10.27 L8.51,10.27 L8.51,7 L10,7 C10.8245375,7.00001832 11.4945031,6.33451922 11.5,5.51 L11.5,1.51 C11.5026638,1.11044546 11.3458052,0.726340542 11.0642114,0.44286945 C10.7826176,0.159398357 10.3995634,0 10,0 L6,0 C5.17157288,0 4.5,0.671572875 4.5,1.5 L4.5,5.5 C4.5,6.32842712 5.17157288,7 6,7 L7.47,7 L7.47,10.27 L4.67,10.27 C4.37,10.27 4.27,10.46 4.44,10.7 L8,16 L11.57,10.7 C11.73,10.46 11.63,10.27 11.33,10.27 Z M6,5.99999999 C5.72771619,6.00010433 5.50544567,5.78222935 5.5,5.51 L5.5,1.51 C5.49731281,1.37566769 5.54880255,1.24590653 5.64286357,1.14996428 C5.73692459,1.05402204 5.86564082,0.99999999 6,0.99999999 L10,0.99999999 C10.2761424,0.99999999 10.5,1.22385763 10.5,1.49999999 L10.5,5.49999999 C10.5027521,5.6334329 10.4509579,5.76221514 10.3565865,5.85658651 C10.2622151,5.95095789 10.1334329,6.00275208 10,5.99999999 L6,5.99999999 Z"/>
</svg>
