<?xml version="1.0" encoding="UTF-8"?>
<svg width="16px" height="16px" viewBox="0 0 16 16" version="1.1" xmlns="http://www.w3.org/2000/svg" xmlns:xlink="http://www.w3.org/1999/xlink">
    <title>icon-eraser</title>
    <g id="icon-eraser" stroke="none" stroke-width="1" fill="none" fill-rule="evenodd">
        <g transform="translate(0.000000, 1.000000)" fill="#58585B" id="Fill-1">
            <path d="M1.4874,12.1405 C0.9154,11.6655 0.7994,10.8025 1.2164,10.2115 L1.3024,10.0955 L4.8884,5.8115 L4.9084,5.7915 L10.9754,10.8615 L8.5234,13.7875 L3.4654,13.7975 L1.4874,12.1405 Z M11.7214,11.4815 L15.3284,7.1875 C15.7444,6.6835 15.9484,6.0535 15.8894,5.4135 C15.8324,4.7745 15.5314,4.1825 15.0374,3.7765 L11.1994,0.5675 C10.1724,-0.2945 8.6394,-0.1585 7.7874,0.8685 L4.1724,5.1815 L0.5474,9.4855 L0.4404,9.6305 C-0.2856,10.6485 -0.0926,12.0815 0.8674,12.8865 L3.1054,14.7675 L15.7344,14.7675 L15.7344,13.7975 L9.7844,13.7975 L11.7214,11.4815 Z"></path>
        </g>
    </g>
</svg>