<?xml version="1.0" encoding="UTF-8"?>
<svg width="16px" height="16px" viewBox="0 0 16 16" version="1.1" xmlns="http://www.w3.org/2000/svg" xmlns:xlink="http://www.w3.org/1999/xlink">
    <!-- Generator: Sketch 49.3 (51167) - http://www.bohemiancoding.com/sketch -->
    <title>icon-favorites</title>
    <desc>Created with Sketch.</desc>
    <defs></defs>
    <g id="SBG-Icon-Library" stroke="none" stroke-width="1" fill="none" fill-rule="evenodd">
        <g id="Content" transform="translate(-292.000000, -998.000000)" fill="#58585B">
            <g id="Favorites" transform="translate(-3.000000, 970.000000)">
                <g transform="translate(295.000000, 28.000000)" id="shape">
                    <path d="M15.1466667,5.68888889 L10.8444444,5.68888889 C10.2755556,5.68888889 9.67111111,5.22666667 9.49333333,4.69333333 L8.14222222,0.426666667 C7.96444444,-0.106666667 7.68,-0.106666667 7.53777778,0.426666667 L6.18666667,4.69333333 C6.00888889,5.22666667 5.40444444,5.68888889 4.83555556,5.68888889 L0.533333333,5.68888889 C-0.0355555556,5.68888889 -0.142222222,5.97333333 0.32,6.32888889 L3.80444444,9.06666667 C4.26666667,9.42222222 4.48,10.1333333 4.33777778,10.7022222 L4.33777778,10.7022222 L2.98666667,14.9333333 L2.91555556,15.1111111 C2.73777778,15.6444444 2.98666667,15.8222222 3.44888889,15.4666667 L3.44888889,15.4666667 L7.04,12.7644444 C7.50222222,12.4088889 8.24888889,12.4088889 8.71111111,12.7644444 L12.2666667,15.4311111 C12.7288889,15.7866667 12.9422222,15.6088889 12.8,15.0755556 L11.3777778,10.7022222 C11.2,10.1688889 11.4488889,9.42222222 11.9111111,9.06666667 L15.4311111,6.29333333 C15.8222222,5.97333333 15.7155556,5.68888889 15.1466667,5.68888889 L15.1466667,5.68888889 Z"></path>
                </g>
            </g>
        </g>
    </g>
</svg>