<svg xmlns="http://www.w3.org/2000/svg" width="14" height="15" viewBox="0 0 14 15">
  <path fill="#58585B" fill-rule="evenodd" d="M7.98969927,7 L5.98969927,7 L5.98969927,3 L7.98969927,3 L7.98969927,1.49624231 C7.98969927,0.669890502 8.65958977,-8.24487947e-14 9.48594159,-8.2600593e-14 C10.3681544,-8.27626529e-14 11.1400344,0.593393143 11.3668276,1.44595654 L13.8932298,10.9432346 C14.2481674,12.2775419 13.454237,13.6469486 12.1199312,14.0018917 C11.9320563,14.0518689 11.7389931,14.0797611 11.5446552,14.0850028 C11.1739685,14.0950009 10.9899822,14.1 10.9926962,14.1 C10.9958064,14.1 10.8003834,14.0934348 10.4064271,14.0803044 C9.0588772,14.0353967 7.98969927,12.9299898 7.98969927,11.5816918 L7.98969927,7 Z M11,13 C12.1045695,13 13,12.1045695 13,11 C13,9.8954305 12.1045695,9 11,9 C9.8954305,9 9,9.8954305 9,11 C9,12.1045695 9.8954305,13 11,13 Z M4.48970594,-8.2600593e-14 C5.31813675,-8.34885677e-14 5.98971261,0.671575861 5.98971261,1.50000667 L5.98971261,11.5819445 C5.98971261,12.930236 4.92054238,14.0356388 3.57299931,14.0805568 C3.37856597,14.0870378 3.18413262,14.0935189 2.98969927,14.1 C2.80406255,14.0950061 2.61842584,14.0900123 2.43278912,14.0850184 C1.05257657,14.0478889 -0.0362073822,12.8989062 0.000922095341,11.5186936 C0.00614130699,11.3246801 0.0339354304,11.1319343 0.0837429132,10.9443504 L2.6047543,1.44977149 C2.83170278,0.595042995 3.60536075,-8.24381415e-14 4.48970594,-8.2600593e-14 Z M3,13 C4.1045695,13 5,12.1045695 5,11 C5,9.8954305 4.1045695,9 3,9 C1.8954305,9 1,9.8954305 1,11 C1,12.1045695 1.8954305,13 3,13 Z"/>
</svg>
