<svg xmlns="http://www.w3.org/2000/svg" width="16" height="16" viewBox="0 0 16 16"><path fill="#58585B" fill-rule="evenodd" d="M14.17,6.34 L16,8 L14.17,9.68 L14.9,12 L12.51,12.54 L11.98,14.93 L9.66,14.2 L8,16 L6.32,14.17 L4,14.9 L3.49,12.53 L1.1,12 L1.83,9.69 L0,8 L1.83,6.33 L1.1,4 L3.49,3.48 L4,1.09 L6.34,1.82 L8,0 L9.68,1.82 L12,1.09 L12.51,3.5 L14.9,4 L14.17,6.34 Z M5.87573,10.7756 L6.36846,8.78818 L4.80454,7.46157 C4.68437,7.35963 4.74861,7.16325 4.9058,7.15205 L6.94816,7.00652 L7.7266,5.10911 C7.78642,4.96332 7.99304,4.96373 8.05226,5.10977 L8.82174,7.00706 L10.8659,7.161 C11.0231,7.17284 11.0865,7.36947 10.9659,7.47093 L9.3992,8.78911 L9.8847,10.782 C9.9221,10.9351 9.7547,11.0562 9.6209,10.9728 L7.88342,9.8903 L6.13881,10.9675 C6.00473,11.0503 5.83781,10.9285 5.87573,10.7756 Z"/></svg>