<svg xmlns="http://www.w3.org/2000/svg" width="11" height="16" viewBox="0 0 11 16">
  <path fill="#58585B" d="M8.24999974,6 L2.75000026,6 C2.37050027,6 2.06249994,5.7013333 2.06249994,5.3333333 C2.06249994,4.9653333 2.37050027,4.6666667 2.75000026,4.6666667 L8.24999974,4.6666667 C8.62949973,4.6666667 8.93750006,4.9653333 8.93750006,5.3333333 C8.93750006,5.7013333 8.62949973,6 8.24999974,6 L8.24999974,6 Z M8.24999974,9.3333333 L2.75000026,9.3333333 C2.37050027,9.3333333 2.06249994,9.0346667 2.06249994,8.6666667 C2.06249994,8.2986667 2.37050027,8 2.75000026,8 L8.24999974,8 C8.62949973,8 8.93750006,8.2986667 8.93750006,8.6666667 C8.93750006,9.0346667 8.62949973,9.3333333 8.24999974,9.3333333 L8.24999974,9.3333333 Z M4.81250019,12.6666667 L2.75000026,12.6666667 C2.37050027,12.6666667 2.06249994,12.368 2.06249994,12 C2.06249994,11.632 2.37050027,11.3333333 2.75000026,11.3333333 L4.81250019,11.3333333 C5.19200018,11.3333333 5.49999948,11.632 5.49999948,12 C5.49999948,12.368 5.19200018,12.6666667 4.81250019,12.6666667 L4.81250019,12.6666667 Z M8.93750006,0 L8.93750006,0.6666667 C8.93750006,1.0346667 8.62949973,1.3333333 8.24999974,1.3333333 C7.87049975,1.3333333 7.56249942,1.0346667 7.56249942,0.6666667 L7.56249942,0 L3.43749955,0 L3.43749955,0.6666667 C3.43749955,1.0346667 3.12950025,1.3333333 2.75000026,1.3333333 C2.37050027,1.3333333 2.06249994,1.0346667 2.06249994,0.6666667 L2.06249994,0 L0.687500322,0 C0.30937499,0 0,0.3 0,0.6666667 L0,15.3333333 C0,15.7 0.30937499,16 0.687500322,16 L10.3124997,16 C10.690625,16 11,15.7 11,15.3333333 L11,0.6666667 C11,0.3 10.690625,0 10.3124997,0 L8.93750006,0 Z"/>
</svg>
