<svg xmlns="http://www.w3.org/2000/svg" width="16" height="16" viewBox="0 0 16 16">
  <path fill="#58585B" fill-rule="evenodd" d="M10.9553,6.6232 L7.0713,10.5062 L5.0463,8.4812 C4.7803,8.2152 4.7803,7.8172 5.0463,7.5512 C5.3113,7.2872 5.7103,7.2872 5.9753,7.5512 L7.0713,8.6472 L10.0243,5.6932 C10.2913,5.4272 10.6883,5.4272 10.9553,5.6932 C11.2203,5.9252 11.2203,6.3572 10.9553,6.6232 M8.0003,0.0002 C3.5673,0.0002 0.0003,3.5672 0.0003,8.0002 C0.0003,12.4342 3.5673,16.0002 8.0003,16.0002 C12.4343,16.0002 16.0003,12.4342 16.0003,8.0002 C16.0003,3.5672 12.4343,0.0002 8.0003,0.0002"/>
</svg>
