<?xml version="1.0" encoding="UTF-8"?>
<svg width="10px" height="28px" viewBox="0 0 10 28" version="1.1" xmlns="http://www.w3.org/2000/svg" xmlns:xlink="http://www.w3.org/1999/xlink">
    <!-- Generator: Sketch 52.6 (67491) - http://www.bohemiancoding.com/sketch -->
    <title>Combined Shape</title>
    <desc>Created with Sketch.</desc>
    <g id="SBG-Icon-Library" stroke="none" stroke-width="1" fill="none" fill-rule="evenodd">
        <g id="Actions" transform="translate(-297.000000, -2276.000000)" fill="#DFDFDF">
            <g id="Import-Copy-2" transform="translate(0.000000, 2259.000000)">
                <path d="M297,17 L301,17 L301,21 L297,21 L297,17 Z M297,33 L301,33 L301,37 L297,37 L297,33 Z M297,25 L301,25 L301,29 L297,29 L297,25 Z M297,41 L301,41 L301,45 L297,45 L297,41 Z M303,17 L307,17 L307,21 L303,21 L303,17 Z M303,33 L307,33 L307,37 L303,37 L303,33 Z M303,25 L307,25 L307,29 L303,29 L303,25 Z M303,41 L307,41 L307,45 L303,45 L303,41 Z" id="Combined-Shape"></path>
            </g>
        </g>
    </g>
</svg>