<svg xmlns="http://www.w3.org/2000/svg" width="16" height="17" viewBox="0 0 16 17">
  <g fill="#58585B" fill-rule="evenodd">
    <path d="M3.43649796.0609544755L.404429051 1.63832251C.281941421 1.70204404.234302086 1.85299639.298023616 1.97548402.320000415 2.01772855.353585149 2.05281781.394826663 2.07662364L3.42674766 3.82673858C3.50512385 3.87197964 3.60183025 3.87133269 3.67959414 3.82504708L6.62007848 2.07484993C6.73872369 2.00423146 6.77765705 1.85080294 6.70703859 1.73215773 6.68381486 1.69313985 6.65040321 1.6611836 6.61039035 1.63971949L3.67005392.0624336581C3.59723136.0233694278 3.50980946.0228157577 3.43649796.0609544755zM.137785937 6.86231317L2.63778594 8.11806029C2.7611669 8.18003441 2.91142688 8.13025432 2.97340099 8.00687336 2.99089134 7.97205277 3 7.93362577 3 7.8946593L3 4.84568233C3 4.75564656 2.95158625 4.67256554 2.87325314 4.62817678L.373253143 3.21151011C.253128147 3.14343928.100565285 3.18563752.0324944535 3.30576252.0111953713 3.34334913 1.05731595e-16 3.38581376 0 3.42901566L0 6.63891217C9.62242456e-17 6.73343974.0533157305 6.81988388.137785937 6.86231317zM4 4.84568233L4 7.8946593C4 8.03273049 4.11192881 8.1446593 4.25 8.1446593 4.28896647 8.1446593 4.32739347 8.13555064 4.36221406 8.11806029L6.86221406 6.86231317C6.94668427 6.81988388 7 6.73343974 7 6.63891217L7 3.42901566C7 3.29094447 6.88807119 3.17901566 6.75 3.17901566 6.7067981 3.17901566 6.66433347 3.19021103 6.62674686 3.21151011L4.12674686 4.62817678C4.04841375 4.67256554 4 4.75564656 4 4.84568233z" transform="translate(4.5)"/>
    <path d="M3.43649796.0609544755L.404429051 1.63832251C.281941421 1.70204404.234302086 1.85299639.298023616 1.97548402.320000415 2.01772855.353585149 2.05281781.394826663 2.07662364L3.42674766 3.82673858C3.50512385 3.87197964 3.60183025 3.87133269 3.67959414 3.82504708L6.62007848 2.07484993C6.73872369 2.00423146 6.77765705 1.85080294 6.70703859 1.73215773 6.68381486 1.69313985 6.65040321 1.6611836 6.61039035 1.63971949L3.67005392.0624336581C3.59723136.0233694278 3.50980946.0228157577 3.43649796.0609544755zM.137785937 6.86231317L2.63778594 8.11806029C2.7611669 8.18003441 2.91142688 8.13025432 2.97340099 8.00687336 2.99089134 7.97205277 3 7.93362577 3 7.8946593L3 4.84568233C3 4.75564656 2.95158625 4.67256554 2.87325314 4.62817678L.373253143 3.21151011C.253128147 3.14343928.100565285 3.18563752.0324944535 3.30576252.0111953713 3.34334913 1.05731595e-16 3.38581376 0 3.42901566L0 6.63891217C9.62242456e-17 6.73343974.0533157305 6.81988388.137785937 6.86231317zM4 4.84568233L4 7.8946593C4 8.03273049 4.11192881 8.1446593 4.25 8.1446593 4.28896647 8.1446593 4.32739347 8.13555064 4.36221406 8.11806029L6.86221406 6.86231317C6.94668427 6.81988388 7 6.73343974 7 6.63891217L7 3.42901566C7 3.29094447 6.88807119 3.17901566 6.75 3.17901566 6.7067981 3.17901566 6.66433347 3.19021103 6.62674686 3.21151011L4.12674686 4.62817678C4.04841375 4.67256554 4 4.75564656 4 4.84568233z" transform="translate(0 8)"/>
    <path d="M3.43649796.0609544755L.404429051 1.63832251C.281941421 1.70204404.234302086 1.85299639.298023616 1.97548402.320000415 2.01772855.353585149 2.05281781.394826663 2.07662364L3.42674766 3.82673858C3.50512385 3.87197964 3.60183025 3.87133269 3.67959414 3.82504708L6.62007848 2.07484993C6.73872369 2.00423146 6.77765705 1.85080294 6.70703859 1.73215773 6.68381486 1.69313985 6.65040321 1.6611836 6.61039035 1.63971949L3.67005392.0624336581C3.59723136.0233694278 3.50980946.0228157577 3.43649796.0609544755zM.137785937 6.86231317L2.63778594 8.11806029C2.7611669 8.18003441 2.91142688 8.13025432 2.97340099 8.00687336 2.99089134 7.97205277 3 7.93362577 3 7.8946593L3 4.84568233C3 4.75564656 2.95158625 4.67256554 2.87325314 4.62817678L.373253143 3.21151011C.253128147 3.14343928.100565285 3.18563752.0324944535 3.30576252.0111953713 3.34334913 1.05731595e-16 3.38581376 0 3.42901566L0 6.63891217C9.62242456e-17 6.73343974.0533157305 6.81988388.137785937 6.86231317zM4 4.84568233L4 7.8946593C4 8.03273049 4.11192881 8.1446593 4.25 8.1446593 4.28896647 8.1446593 4.32739347 8.13555064 4.36221406 8.11806029L6.86221406 6.86231317C6.94668427 6.81988388 7 6.73343974 7 6.63891217L7 3.42901566C7 3.29094447 6.88807119 3.17901566 6.75 3.17901566 6.7067981 3.17901566 6.66433347 3.19021103 6.62674686 3.21151011L4.12674686 4.62817678C4.04841375 4.67256554 4 4.75564656 4 4.84568233z" transform="translate(9 8)"/>
  </g>
</svg>
