<?xml version="1.0" encoding="UTF-8"?>
<svg width="14px" height="16px" viewBox="0 0 14 16" version="1.1" xmlns="http://www.w3.org/2000/svg" xmlns:xlink="http://www.w3.org/1999/xlink">
    <!-- Generator: Sketch 49.3 (51167) - http://www.bohemiancoding.com/sketch -->
    <title>icon-hardware-version</title>
    <desc>Created with Sketch.</desc>
    <defs></defs>
    <g id="SBG-Icon-Library" stroke="none" stroke-width="1" fill="none" fill-rule="evenodd">
        <g id="Physical" transform="translate(-293.000000, -407.000000)" fill="#58585B">
            <g id="Hardware-Version" transform="translate(1.000000, 384.000000)">
                <g id="icn_hardware_version" transform="translate(292.000000, 22.000000)">
                    <path d="M12.6211,6.3875 C12.8971,6.3875 13.1211,6.1635 13.1211,5.8875 C13.1211,5.6115 12.8971,5.3875 12.6211,5.3875 L10.9811,5.3875 L10.9811,3.2865 L12.6211,3.2865 C12.8971,3.2865 13.1211,3.0635 13.1211,2.7865 C13.1211,2.5105 12.8971,2.2865 12.6211,2.2865 L10.9811,2.2865 L10.9811,1.9995 C10.9811,1.4485 10.5861,0.9995 10.0971,0.9995 L3.0241,0.9995 C2.5361,0.9995 2.1401,1.4485 2.1401,1.9995 L2.1401,2.2865 L0.5001,2.2865 C0.2241,2.2865 0.0001,2.5105 0.0001,2.7865 C0.0001,3.0635 0.2241,3.2865 0.5001,3.2865 L2.1401,3.2865 L2.1401,5.3875 L0.5001,5.3875 C0.2241,5.3875 0.0001,5.6115 0.0001,5.8875 C0.0001,6.1635 0.2241,6.3875 0.5001,6.3875 L2.1401,6.3875 L2.1401,8.4895 L0.5001,8.4895 C0.2241,8.4895 0.0001,8.7125 0.0001,8.9895 C0.0001,9.2655 0.2241,9.4895 0.5001,9.4895 L2.1401,9.4895 L2.1401,11.5905 L0.5001,11.5905 C0.2241,11.5905 0.0001,11.8145 0.0001,12.0905 C0.0001,12.3665 0.2241,12.5905 0.5001,12.5905 L2.1401,12.5905 L2.1401,14.6915 L0.5001,14.6915 C0.2241,14.6915 0.0001,14.9145 0.0001,15.1915 C0.0001,15.4675 0.2241,15.6915 0.5001,15.6915 L2.1401,15.6915 L2.1401,15.9995 C2.1401,16.5525 2.5361,16.9995 3.0241,16.9995 L10.0971,16.9995 C10.5861,16.9995 10.9811,16.5525 10.9811,15.9995 L10.9811,15.6915 L12.6211,15.6915 C12.8971,15.6915 13.1211,15.4675 13.1211,15.1915 C13.1211,14.9145 12.8971,14.6915 12.6211,14.6915 L10.9811,14.6915 L10.9811,12.5905 L12.6211,12.5905 C12.8971,12.5905 13.1211,12.3665 13.1211,12.0905 C13.1211,11.8145 12.8971,11.5905 12.6211,11.5905 L10.9811,11.5905 L10.9811,9.4895 L12.6211,9.4895 C12.8971,9.4895 13.1211,9.2655 13.1211,8.9895 C13.1211,8.7125 12.8971,8.4895 12.6211,8.4895 L10.9811,8.4895 L10.9811,6.3875 L12.6211,6.3875 Z" id="Fill-1"></path>
                </g>
            </g>
        </g>
    </g>
</svg>