<svg xmlns="http://www.w3.org/2000/svg" width="16" height="16" viewBox="0 0 16 16">
  <path fill="#58585B" d="M14.3008606,0.00388104956 L14.3,0 L14.5,0 C15.0571429,0 15.4418367,0.344897959 15.4939504,0.874562682 L15.5,1 L15.5,15 C15.5,15.5571429 15.155102,15.9418367 14.6254373,15.9939504 L14.5,16 L14.3,16 L14.3,15.994 L14.2,16 L1,16 C0.442857143,16 0.0581632653,15.655102 0.00604956268,15.1254373 L0,15 L0,10.6 C0,10.3 0.3,10 0.6,10 C0.96,10 1.158,10.243 1.194,10.5103 L1.2,10.6 L1.2,14.7 L14.3,14.7 L14.3,1.2 L7.8,1.2 C7.53,1.2 7.26,0.957 7.2087,0.6897 L7.2,0.6 C7.2,0.327272727 7.44793388,0.0545454545 7.79353869,0.00721262209 L7.9,0 L14.2,0 C14.2342857,0 14.2679184,0.00130612245 14.3008606,0.00388104956 Z M2.22,0.4 L2.3097,0.4087 C2.5473,0.4543 2.7657,0.6727 2.8113,0.9103 L2.82,1 L2.82,5 L2.82313518,5.2188379 C2.88387835,7.29812359 3.8310436,8.3300762 5.99209896,8.39656272 L6.22,8.4 L6.22,5.4 C6.22,5.3 6.27500916,5.12219238 6.51477051,5.19895935 L12.22,9 L6.52,12.8 C6.42,12.9 6.22727966,12.8224945 6.21966418,12.7271423 L6.21994753,12.619866 C6.21997901,12.6079464 6.22,12.6 6.22,12.6 L6.22,9.6 L5.97324503,9.59630058 C3.21590154,9.51256821 1.71011078,8.00909026 1.6239201,5.25391409 L1.62,5 L1.62,1 L1.6287,0.9103 C1.6743,0.6727 1.8927,0.4543 2.1303,0.4087 L2.22,0.4 Z"/>
</svg>
