<svg xmlns="http://www.w3.org/2000/svg" width="16" height="14" viewBox="0 0 16 14">
  <path fill="#58585B" d="M5.7231,4.0493 C5.2011,4.0493 4.7781,3.6183 4.7781,3.0863 C4.7781,2.5543 5.2011,2.1233 5.7231,2.1233 C6.2451,2.1233 6.6681,2.5543 6.6681,3.0863 C6.6681,3.6183 6.2451,4.0493 5.7231,4.0493 L5.7231,4.0493 Z M2.5901,4.0493 C2.0691,4.0493 1.6461,3.6183 1.6461,3.0863 C1.6461,2.5543 2.0691,2.1233 2.5901,2.1233 C3.1121,2.1233 3.5351,2.5543 3.5351,3.0863 C3.5351,3.6183 3.1121,4.0493 2.5901,4.0493 L2.5901,4.0493 Z M9.7371,3.0863 C9.7371,3.6183 9.3141,4.0493 8.7931,4.0493 C8.2711,4.0493 7.8481,3.6183 7.8481,3.0863 C7.8481,2.5543 8.2711,2.1233 8.7931,2.1233 C9.3141,2.1233 9.7371,2.5543 9.7371,3.0863 Z M14.9961,6.1713 C15.5481,6.1713 15.9961,5.7163 15.9961,5.1533 L15.9961,1.0193 C15.9961,0.4583 15.5481,0.0003 14.9961,0.0003 L1.0001,0.0003 C0.4471,0.0003 0.0001,0.4583 0.0001,1.0193 L0.0001,5.1533 C0.0001,5.7163 0.4471,6.1713 1.0001,6.1713 L7.5121,6.1713 L7.5121,9.4793 L5.4691,9.4793 C5.1931,9.4793 4.9691,9.7033 4.9691,9.9793 L4.9691,10.9693 L0.2361,10.9693 L0.2361,11.9883 L4.9691,11.9883 L4.9691,12.9793 C4.9691,13.2553 5.1931,13.4793 5.4691,13.4793 L10.4691,13.4793 C10.7451,13.4793 10.9691,13.2553 10.9691,12.9793 L10.9691,11.9883 L12.9961,11.9883 L12.9961,12.2433 L12.9961,13.2303 C12.9961,13.4243 13.1321,13.4803 13.2691,13.3693 L15.9961,11.4793 L13.2691,9.5893 C13.1321,9.4773 12.9961,9.5333 12.9961,9.7273 L12.9961,10.7153 L12.9961,10.9693 L10.9691,10.9693 L10.9691,9.9793 C10.9691,9.7033 10.7451,9.4793 10.4691,9.4793 L8.5121,9.4793 L8.5121,6.1713 L14.9961,6.1713 Z"/>
</svg>
