<svg xmlns="http://www.w3.org/2000/svg" width="16" height="16" viewBox="0 0 16 16">
  <path fill="#58585B" fill-rule="evenodd" d="M0,8 C0,12.434 3.567,16 8,16 C12.434,16 16,12.434 16,8 C16,3.567 12.434,0 8,0 C3.567,0 0,3.567 0,8 Z M8,4 C5.65,4 3.225,6.425 2,7.75 C3.225,9.075 5.65,11.5 8,11.5 C10.35,11.5 12.775,9.075 14,7.75 C12.775,6.425 10.35,4 8,4 L8,4 Z M8,9.25 C7.175,9.25 6.5,8.575 6.5,7.75 C6.5,6.925 7.175,6.25 8,6.25 C8.825,6.25 9.5,6.925 9.5,7.75 C9.5,8.575 8.825,9.25 8,9.25 L8,9.25 Z"/>
</svg>
