<?xml version="1.0" encoding="UTF-8"?>
<svg width="16px" height="16px" viewBox="0 0 16 16" version="1.1" xmlns="http://www.w3.org/2000/svg" xmlns:xlink="http://www.w3.org/1999/xlink">
    <!-- Generator: Sketch 51.3 (57544) - http://www.bohemiancoding.com/sketch -->
    <title>Intrusion Policy</title>
    <desc>Created with Sketch.</desc>
    <defs></defs>
    <g id="Intrusion-Policy" stroke="none" stroke-width="1" fill="none" fill-rule="evenodd">
        <path d="M7.63305268,15 C7.57931987,15 7.52643996,15 7.52643996,15 C7.47270714,15 7.41982723,15 7.41982723,15 C7.25948169,14.9437475 4.3280582,14.2187151 2.35529634,11.2605473 C0.382534476,8.30237957 1.12882355,2.3315773 1.18255636,2.10835305 C1.23628918,1.8851288 1.3429019,1.77351667 1.55612735,1.71726416 C1.55612735,1.71726416 3.15531823,1.66101165 4.64789638,1.21456315 C6.03386181,0.823474262 7.36694732,0.0421893835 7.36694732,0.0421893835 C7.47356004,-0.0140631278 7.52729286,-0.0140631278 7.63390558,0.0421893835 C7.63390558,0.0421893835 8.91325828,0.768114648 10.2992237,1.15831064 C11.8455347,1.60475914 13.4976055,1.71637127 13.4976055,1.71637127 C13.657951,1.77262378 13.8174436,1.8842359 13.8174436,2.10746015 C13.8711764,2.33068441 14.6174655,8.30237957 12.6447037,11.2596544 C10.6710889,14.2187151 7.73966541,14.9437475 7.63305268,15 Z" id="Shape" fill="#58585B" fill-rule="nonzero"></path>
    </g>
</svg>