<?xml version="1.0" encoding="UTF-8"?>
<svg width="16px" height="16px" viewBox="0 0 16 16" version="1.1" xmlns="http://www.w3.org/2000/svg" xmlns:xlink="http://www.w3.org/1999/xlink">
    <!-- Generator: Sketch 49.3 (51167) - http://www.bohemiancoding.com/sketch -->
    <title>icon-issues</title>
    <desc>Created with Sketch.</desc>
    <defs></defs>
    <g id="SBG-Icon-Library" stroke="none" stroke-width="1" fill="none" fill-rule="evenodd">
        <g id="Alerts/Notifications" transform="translate(-293.000000, -798.000000)" fill="#58585B">
            <g id="Issues" transform="translate(0.000000, 780.000000)">
                <g transform="translate(293.000000, 18.000000)" id="Shape">
                    <path d="M8,0 C3.56666667,0 0,3.56666667 0,8 C0,12.4333333 3.56666667,16 8,16 C12.4333333,16 16,12.4333333 16,8 C16,3.56666667 12.4333333,0 8,0 L8,0 Z M8,12 C7.63333333,12 7.33333333,11.7 7.33333333,11.3333333 C7.33333333,10.9666667 7.63333333,10.6666667 8,10.6666667 C8.36666667,10.6666667 8.66666667,10.9666667 8.66666667,11.3333333 C8.66666667,11.7 8.36666667,12 8,12 L8,12 Z M8.66666667,8.33333333 C8.66666667,8.7 8.36666667,9 8,9 C7.63333333,9 7.33333333,8.7 7.33333333,8.33333333 L7.33333333,4.66666667 C7.33333333,4.3 7.63333333,4 8,4 C8.36666667,4 8.66666667,4.3 8.66666667,4.66666667 L8.66666667,8.33333333 L8.66666667,8.33333333 Z"></path>
                </g>
            </g>
        </g>
    </g>
</svg>