<?xml version="1.0" encoding="UTF-8"?>
<svg width="17px" height="14px" viewBox="0 0 17 14" version="1.1" xmlns="http://www.w3.org/2000/svg" xmlns:xlink="http://www.w3.org/1999/xlink">
    <!-- Generator: Sketch 49.3 (51167) - http://www.bohemiancoding.com/sketch -->
    <title>icon-label-group</title>
    <desc>Created with Sketch.</desc>
    <defs></defs>
    <g id="SBG-Icon-Library" stroke="none" stroke-width="1" fill="none" fill-rule="evenodd">
        <g id="Alerts/Notifications" transform="translate(-290.000000, -884.000000)" fill="#58585B">
            <g id="label-group" transform="translate(0.000000, 860.000000)">
                <g id="icn_label_group" transform="translate(289.000000, 24.000000)">
                    <path d="M15.0704,1.7141 C15.4474,1.7141 15.7564,2.0231 15.7564,2.4001 C15.7564,2.7771 15.4474,3.0861 15.0704,3.0861 C14.6924,3.0861 14.3834,2.7771 14.3834,2.4001 C14.3834,2.0231 14.6924,1.7141 15.0704,1.7141 Z M9.2754,12.8571 C9.5154,13.0971 9.8584,13.0971 10.0984,12.8571 L16.2014,6.7881 C16.5094,6.4801 16.7164,6.0681 16.7504,5.6231 L17.4694,1.7481 L15.6864,0.0001 L11.7784,0.6521 C11.3334,0.7201 11.0244,0.9941 10.7164,1.3031 L4.6124,7.3711 C4.3734,7.6111 4.3734,7.9541 4.6124,8.1941 L9.2754,12.8571 Z" id="Fill-1"></path>
                    <path d="M3.1554,7.7829 C3.1554,7.4999 3.2714,7.2279 3.4824,7.0169 L9.5864,0.9489 C9.7194,0.8149 9.8634,0.6859 10.0184,0.5679 L8.3454,0.8459 C7.9004,0.9149 7.5924,1.1889 7.2834,1.4979 L1.1794,7.5659 C0.9394,7.8059 0.9394,8.1489 1.1794,8.3889 L5.8434,13.0519 C6.0834,13.2919 6.4264,13.2919 6.6664,13.0519 L7.3284,12.3929 L3.4824,8.5479 C3.2714,8.3379 3.1554,8.0659 3.1554,7.7829" id="Fill-3"></path>
                </g>
            </g>
        </g>
    </g>
</svg>