<?xml version="1.0" encoding="UTF-8"?>
<svg width="16px" height="16px" viewBox="0 0 16 16" version="1.1" xmlns="http://www.w3.org/2000/svg" xmlns:xlink="http://www.w3.org/1999/xlink">
    <!-- Generator: Sketch 49.3 (51167) - http://www.bohemiancoding.com/sketch -->
    <title>icon-label-tag</title>
    <desc>Created with Sketch.</desc>
    <defs></defs>
    <g id="SBG-Icon-Library" stroke="none" stroke-width="1" fill="none" fill-rule="evenodd">
        <g id="Alerts/Notifications" transform="translate(-291.000000, -979.000000)" fill="#58585B">
            <g id="Label/Tag" transform="translate(0.000000, 956.000000)">
                <g transform="translate(291.000000, 23.000000)" id="Shape">
                    <path d="M13.8666667,0 L9.18974359,0.779487179 C8.65641026,0.861538462 8.28717949,1.18974359 7.91794872,1.55897436 L0.615384615,8.82051282 C0.328205128,9.10769231 0.328205128,9.51794872 0.615384615,9.80512821 L6.19487179,15.3846154 C6.48205128,15.6717949 6.89230769,15.6717949 7.17948718,15.3846154 L14.4820513,8.12307692 C14.8512821,7.75384615 15.0974359,7.26153846 15.1384615,6.72820513 L16,2.09230769 L13.8666667,0 L13.8666667,0 Z M13.1282051,3.69230769 C12.6769231,3.69230769 12.3076923,3.32307692 12.3076923,2.87179487 C12.3076923,2.42051282 12.6769231,2.05128205 13.1282051,2.05128205 C13.5794872,2.05128205 13.9487179,2.42051282 13.9487179,2.87179487 C13.9487179,3.32307692 13.5794872,3.69230769 13.1282051,3.69230769 L13.1282051,3.69230769 Z"></path>
                </g>
            </g>
        </g>
    </g>
</svg>