<svg xmlns="http://www.w3.org/2000/svg" width="15" height="17" viewBox="0 0 15 17">
  <path fill="#58585B" fill-rule="evenodd" d="M40.3498,66.0433 C40.2608,66.2863 40.0308,66.4373 39.7868,66.4373 C39.7178,66.4373 39.6478,66.4253 39.5798,66.4003 L33.1928,64.0633 L26.8068,66.4003 C26.7388,66.4253 26.6688,66.4373 26.5998,66.4373 C26.3558,66.4373 26.1258,66.2863 26.0368,66.0433 C25.9228,65.7323 26.0828,65.3873 26.3938,65.2733 L31.4478,63.4243 L26.3938,61.5753 C26.0828,61.4613 25.9228,61.1163 26.0368,60.8053 C26.1508,60.4953 26.4958,60.3353 26.8068,60.4483 L33.1928,62.7853 L39.5798,60.4483 C39.8918,60.3353 40.2368,60.4953 40.3498,60.8053 C40.4638,61.1163 40.3038,61.4613 39.9928,61.5753 L34.9388,63.4243 L39.9928,65.2733 C40.3038,65.3873 40.4638,65.7323 40.3498,66.0433 M36.4918,54.5063 L34.4918,55.4063 C34.4248,55.4363 34.3548,55.4503 34.2868,55.4503 C34.0958,55.4503 33.9138,55.3403 33.8298,55.1553 C33.7168,54.9033 33.8288,54.6073 34.0808,54.4943 L36.0808,53.5943 C36.3318,53.4793 36.6288,53.5923 36.7428,53.8453 C36.8558,54.0973 36.7438,54.3933 36.4918,54.5063 M32.7428,55.1533 C32.6598,55.3393 32.4768,55.4493 32.2858,55.4493 C32.2178,55.4493 32.1478,55.4353 32.0818,55.4053 L30.0818,54.5073 C29.8298,54.3943 29.7168,54.0983 29.8298,53.8463 C29.9428,53.5953 30.2408,53.4833 30.4908,53.5953 L32.4908,54.4933 C32.7428,54.6053 32.8558,54.9023 32.7428,55.1533 M38.2868,54.8243 C38.2868,52.2773 35.8878,50.0003 33.3008,50.0003 C30.7138,50.0003 28.2868,52.2773 28.2868,54.8243 C28.2868,56.2773 29.0678,57.4513 30.2088,58.2053 L30.0148,60.0003 L36.4508,60.0003 L36.2908,58.2123 C37.4648,57.4583 38.2868,56.2803 38.2868,54.8243" transform="translate(-26 -50)"/>
</svg>
