<?xml version="1.0" encoding="UTF-8"?>
<svg width="14px" height="14px" viewBox="0 0 14 14" version="1.1" xmlns="http://www.w3.org/2000/svg" xmlns:xlink="http://www.w3.org/1999/xlink">
    <!-- Generator: Sketch 49.3 (51167) - http://www.bohemiancoding.com/sketch -->
    <title>icon-NAT-translated-port</title>
    <desc>Created with Sketch.</desc>
    <defs></defs>
    <g id="SBG-Icon-Library" stroke="none" stroke-width="1" fill="none" fill-rule="evenodd">
        <g id="Abstract" transform="translate(-303.000000, -1256.000000)" fill="#58585B">
            <g id="NAT-Translated-Port" transform="translate(0.000000, 1228.000000)">
                <path d="M315.7495,37.4988 L311.9995,37.4988 L311.9995,34.4318 L312.1425,34.4318 L312.8515,34.4318 C313.0015,34.4318 313.0445,34.3248 312.9585,34.2168 L311.4995,32.0718 L310.0415,34.2168 C309.9555,34.3458 309.9985,34.4318 310.1485,34.4318 L310.4955,34.4318 L310.9995,34.4318 L310.9995,37.4988 L307.2535,37.4988 L307.2535,29.0028 L315.7495,29.0028 L315.7495,37.4988 Z M315.2535,27.9998 L307.7465,27.9998 C306.9205,27.9998 306.2485,28.6718 306.2485,29.4988 L306.2485,37.0048 C306.2485,37.8318 306.9205,38.5038 307.7465,38.5038 L310.9995,38.5038 L310.9995,40.5578 L303.4995,40.5578 C303.2235,40.5578 302.9995,40.7808 302.9995,41.0578 C302.9995,41.3338 303.2235,41.5578 303.4995,41.5578 L311.9995,41.5578 L311.9995,38.5038 L315.2535,38.5038 C316.0795,38.5038 316.7515,37.8318 316.7515,37.0048 L316.7515,29.4988 C316.7515,28.6718 316.0795,27.9998 315.2535,27.9998 Z" id="icn_NAT_translated_port"></path>
            </g>
        </g>
    </g>
</svg>