<?xml version="1.0" encoding="UTF-8"?>
<svg width="17px" height="17px" viewBox="0 0 17 17" version="1.1" xmlns="http://www.w3.org/2000/svg" xmlns:xlink="http://www.w3.org/1999/xlink">
    <title>numbered-list</title>
    <g id="ICONS" stroke="none" stroke-width="1" fill="none" fill-rule="evenodd">
        <g id="Icons_2.2" transform="translate(-22.000000, -814.000000)" fill="#58585B">
            <g id="numbered-list" transform="translate(22.000000, 814.000000)">
                <rect id="Rectangle-Copy-5" x="5" y="2" width="12" height="1.5" rx="0.75"></rect>
                <rect id="Rectangle-Copy-11" x="5" y="8" width="12" height="1.5" rx="0.75"></rect>
                <rect id="Rectangle-Copy-12" x="5" y="14" width="12" height="1.5" rx="0.75"></rect>
                <polygon id="Path" fill-rule="nonzero" points="3.01 0.75 2.29 0.75 2.17483873 0.778103894 1.25 1.25808349 1.25 2.31529223 2.035 1.91 2.035 4.75 3.01 4.75"></polygon>
                <path d="M2.23,6.75 C1.86390272,6.75 1.54406008,6.84995082 1.27903558,7.05072696 C1.02259454,7.24131194 0.85356582,7.49536414 0.780272092,7.8030974 L0.700404425,8.24 L1.72731239,8.24 L1.75328765,8.01921031 C1.76645664,7.9072739 1.8059851,7.82624056 1.87343846,7.76473896 C1.95334572,7.69303775 2.06528539,7.655 2.22,7.655 C2.35489235,7.655 2.45172353,7.68552287 2.52049553,7.74250539 C2.59558811,7.8026267 2.63,7.88005346 2.63,8 C2.63,8.11180377 2.59803122,8.21817262 2.53118551,8.32391038 C2.47941468,8.40580243 2.39114677,8.51329569 2.26739171,8.64375817 L2.04998938,8.8614747 L0.911817666,9.95470058 L0.835,10.135 L0.835,10.825 L3.605,10.825 L3.605,9.885 L2.362,9.884 L2.70718737,9.55624986 C3.02355049,9.25727049 3.24384333,9.01230485 3.37042352,8.81498867 C3.53522493,8.56785651 3.62,8.29132832 3.62,7.995 C3.62,7.64823858 3.49825303,7.35134685 3.25859229,7.12009526 C2.99353229,6.87156602 2.64706913,6.75 2.23,6.75 Z" id="Path" fill-rule="nonzero"></path>
                <path d="M2.245,12.75 C1.88802868,12.75 1.57672241,12.8347226 1.31706608,13.0064952 C1.05360881,13.1786158 0.876506228,13.4168239 0.795207882,13.71185 L0.700409058,14.15 L1.72678177,14.15 L1.76159848,13.9410997 C1.77495732,13.8609467 1.81023173,13.8000984 1.87330945,13.7484893 C1.95345132,13.6848187 2.06689277,13.65 2.22,13.65 C2.34432323,13.65 2.4426385,13.6759914 2.52040268,13.7256741 C2.60398989,13.7808378 2.64,13.8474948 2.64,13.95 C2.64,14.0600397 2.60988617,14.1353243 2.54865883,14.19295 C2.49610217,14.2438753 2.43989143,14.2712674 2.37020166,14.2810057 L2.29316069,14.2855678 L1.78,14.285 L1.779,14.751 L1.76462184,14.7566265 L1.779,14.759 L1.78,15.2 L2.32,15.2 C2.44010415,15.2 2.53645772,15.2284681 2.61626362,15.2845479 C2.71272481,15.3540203 2.76,15.4542437 2.76,15.61 C2.76,15.7206125 2.72783604,15.8005629 2.66080358,15.8656802 C2.57457162,15.9498081 2.44238529,15.995 2.25,15.995 C1.98422136,15.995 1.84541962,15.9111366 1.77799844,15.7307901 L1.69627963,15.455 L0.713272785,15.455 L0.75233029,15.7390546 C0.797269406,16.0658845 0.942332576,16.3370896 1.18366209,16.5409714 C1.45667682,16.7778805 1.8199457,16.895 2.26,16.895 C2.65777587,16.895 2.99521367,16.796334 3.2645211,16.5953583 C3.5849036,16.3540343 3.75,16.0216974 3.75,15.62 C3.75,15.3330205 3.66389391,15.0811602 3.49205532,14.8749539 L3.40037999,14.7772325 L3.35093696,14.7328996 L3.289,14.685 L3.36844318,14.6042838 C3.54082488,14.4103718 3.63,14.1762872 3.63,13.915 C3.63,13.5638228 3.49501215,13.2717179 3.23156311,13.0600949 C2.97029356,12.8518933 2.63864085,12.75 2.245,12.75 Z" id="Path" fill-rule="nonzero"></path>
            </g>
        </g>
    </g>
</svg>