<svg xmlns="http://www.w3.org/2000/svg" xmlns:xlink="http://www.w3.org/1999/xlink" width="16" height="16" viewBox="0 0 16 16">
  <defs>
    <polygon id="object-a" points="10.294 0 .209 0 .209 7.293 10.294 7.293 10.294 0"/>
  </defs>
  <g fill="none" fill-rule="evenodd">
    <g transform="translate(1)">
      <mask id="object-b" fill="#fff">
        <use xlink:href="#object-a"/>
      </mask>
      <path fill="#58585B" d="M10.2939,0.7157 C9.2889,0.2597 8.1759,-0.0003 6.9999,-0.0003 C4.1299,-0.0003 1.6209,1.5167 0.2089,3.7857 L3.7159,7.2927 L10.2939,0.7157 Z" mask="url(#object-b)"/>
    </g>
    <path fill="#58585B" d="M11.3292,8.7156 L14.8052,12.1916 C13.3962,14.4736 10.8792,15.9996 8.0002,15.9996 C6.9682,15.9996 5.98439753,15.7996988 5.07899287,15.4434409 L4.7432,15.3026 L11.3292,8.7156 Z M0.7163,4.704 L7.3223,11.311 L3.8213,14.812 C1.5313,13.405 0.0003,10.885 0.0003,8 C0.0003,6.824 0.2603,5.71 0.7163,4.704 Z M8.7229,4.6974 L12.2129,1.2074 C14.4839,2.6204 15.9999,5.1294 15.9999,7.9994 C15.9999,9.0497 15.79335,10.04978 15.424719,10.967564 L15.2959,11.2704 L8.7229,4.6974 L12.2129,1.2074 Z M7.9997,6.8189 C8.6527,6.8189 9.1807,7.3479 9.1807,7.9999 C9.1807,8.6519 8.6527,9.1809 7.9997,9.1809 C7.3477,9.1809 6.8197,8.6519 6.8197,7.9999 C6.8197,7.3479 7.3477,6.8189 7.9997,6.8189 Z"/>
  </g>
</svg>
