<?xml version="1.0" encoding="UTF-8"?>
<svg width="16px" height="16px" viewBox="0 0 16 16" version="1.1" xmlns="http://www.w3.org/2000/svg" xmlns:xlink="http://www.w3.org/1999/xlink">
    <title>icon-ospf</title>
    <g id="icon-ospf" stroke="none" stroke-width="1" fill="none" fill-rule="evenodd">
        <path d="M15.96,3.22482073 L14.62,4.10482073 L12.68,5.37482073 C12.52,5.47482073 12.4,5.42482073 12.4,5.23482073 L12.4,3.65482073 L10.52,3.65482073 C10.12,3.67482073 9.75,3.79482073 9.43,4.00482073 C9.08,4.23482073 8.79,4.56482073 8.61,4.94482073 C8.54,5.10482073 8.48,5.26482073 8.45,5.43482073 L8.45,16.0548207 L7.55,16.0548207 L7.55,9.98482073 C7.56,9.90482073 7.56,9.58482073 7.55,9.49482073 C7.54,9.43482073 7.53,9.36482073 7.51,9.30482073 C7.48,9.13482073 7.42,8.97482073 7.35,8.81482073 C7.17,8.43482073 6.88,8.10482073 6.53,7.87482073 C6.21,7.66482073 5.84,7.54482073 5.44,7.52482073 L3.56,7.52482073 L3.56,9.10482073 C3.56,9.29482073 3.44,9.34482073 3.28,9.24482073 L1.34,7.97482073 L-4.36983782e-13,7.09482073 L1.34,6.20482073 L3.28,4.92482073 C3.44,4.81482073 3.56,4.87482073 3.56,5.06482073 L3.56,6.63482073 L5.33,6.63482073 C5.37,6.63482073 5.4,6.63482073 5.44,6.64482073 C5.82,6.65482073 6.19,6.73482073 6.53,6.88482073 C6.85,7.01482073 7.15,7.20482073 7.42,7.44482073 C7.46,7.46482073 7.48,7.49482073 7.51,7.52482073 L7.51,5.87482073 C7.51,5.21482073 7.72,4.61482073 8.07,4.10482073 C8.15,3.98482073 8.24,3.87482073 8.33,3.77482073 L8.45,3.65482073 C8.48,3.62482073 8.5,3.60482073 8.54,3.57482073 C8.81,3.33482073 9.11,3.14482073 9.43,3.01482073 C9.77,2.86482073 10.14,2.78482073 10.52,2.77482073 C10.56,2.76482073 10.59,2.76482073 10.63,2.76482073 L12.4,2.76482073 L12.4,1.19482073 C12.4,1.00482073 12.52,0.944820727 12.68,1.05482073 L14.62,2.33482073 L15.96,3.22482073 Z" fill="#58585B"></path>
    </g>
</svg>