<svg xmlns="http://www.w3.org/2000/svg" width="16" height="16" viewBox="0 0 16 16">
  <g fill="#58585B" fill-rule="evenodd" transform="translate(4.362)">
    <path fill-rule="nonzero" d="M3.12781249,1.77785762e-05 L3.12781249,1.00001778 L4.12781249,1.00001778 L4.12781249,1.77785762e-05 L3.12781249,1.77785762e-05 Z M1.63781249,1.77785762e-05 L1.63781249,1.77785762e-05 C1.37495486,0.00243007351 1.11696901,0.0712262999 0.88781249,0.200017779 L1.40781249,1.07001778 C1.47780539,1.02868914 1.55666298,1.004689 1.63781249,1.00001778 L2.12781249,1.00001778 L2.12781249,1.77785762e-05 L1.63781249,1.77785762e-05 Z M5.63781249,1.77785762e-05 L5.15781249,1.77785762e-05 L5.15781249,1.00001778 L5.63781249,1.00001778 C5.72636756,0.997036486 5.81368153,1.0214844 5.88781249,1.07001778 L6.40781249,0.210017779 C6.17501811,0.0712990629 5.90880022,-0.00130581667 5.63781249,1.77785762e-05 Z M1.12781249,1.52001778 L0.63781249,1.47001778 L0.13781249,1.47001778 L0.13781249,2.47001778 L1.13781249,2.47001778 L1.12781249,1.52001778 Z M6.12781249,1.52001778 L6.12781249,2.52001778 L7.12781249,2.52001778 L7.12781249,1.52001778 L6.12781249,1.52001778 Z"/>
    <path d="M4.11781249,7.00001778 L4.11781249,10.3000178 L6.92781249,10.3000178 C7.25781249,10.3000178 7.36781249,10.4900178 7.19781249,10.7300178 L3.63781249,16.0000178 L0.07781249,10.7300178 C-0.08218751,10.4900178 0.00781248996,10.3000178 0.31781249,10.3000178 L3.11781249,10.3000178 L3.11781249,7.00001778 L4.11781249,7.00001778 Z M7.13781249,3.64001778 L7.13781249,6.00001778 C7.13781249,6.55230253 6.69009724,7.00001778 6.13781249,7.00001778 L1.13781249,7.00001778 C0.58552774,7.00001778 0.13781249,6.55230253 0.13781249,6.00001778 L0.13781249,3.64001778 L7.13781249,3.64001778 Z"/>
  </g>
</svg>
