<?xml version="1.0" encoding="UTF-8"?>
<svg width="15px" height="16px" viewBox="0 0 15 16" version="1.1" xmlns="http://www.w3.org/2000/svg" xmlns:xlink="http://www.w3.org/1999/xlink">
    <!-- Generator: Sketch 49.3 (51167) - http://www.bohemiancoding.com/sketch -->
    <title>icon-paste</title>
    <desc>Created with Sketch.</desc>
    <defs></defs>
    <g id="SBG-Icon-Library" stroke="none" stroke-width="1" fill="none" fill-rule="evenodd">
        <g id="Actions" transform="translate(-295.000000, -2831.000000)" fill="#58585B">
            <g id="Paste" transform="translate(0.000000, 2803.000000)">
                <g id="icn_paste" transform="translate(294.000000, 28.000000)">
                    <path d="M12.4524,8.8188 L8.7234,8.8188 C8.4474,8.8188 8.2234,8.5948 8.2234,8.3188 C8.2234,8.0428 8.4474,7.8188 8.7234,7.8188 L12.4524,7.8188 C12.7284,7.8188 12.9524,8.0428 12.9524,8.3188 C12.9524,8.5948 12.7284,8.8188 12.4524,8.8188 M12.4524,11.8188 L8.7234,11.8188 C8.4474,11.8188 8.2234,11.5948 8.2234,11.3188 C8.2234,11.0428 8.4474,10.8188 8.7234,10.8188 L12.4524,10.8188 C12.7284,10.8188 12.9524,11.0428 12.9524,11.3188 C12.9524,11.5948 12.7284,11.8188 12.4524,11.8188 M14.0434,5.4448 L7.1324,5.4448 C6.5804,5.4448 6.1334,5.8928 6.1334,6.4438 L6.1334,14.9098 C6.1334,15.4618 6.5804,15.9088 7.1324,15.9088 L14.0434,15.9088 C14.5954,15.9088 15.0424,15.4618 15.0424,14.9098 L15.0424,6.4438 C15.0424,5.8928 14.5954,5.4448 14.0434,5.4448" id="Fill-1"></path>
                    <path d="M9.9944,0.9999 L8.2384,0.9999 L8.2384,0.2419 C8.2384,0.1079 8.1304,-0.0001 7.9964,-0.0001 L3.8124,-0.0001 C3.6794,-0.0001 3.5714,0.1079 3.5714,0.2419 L3.5714,0.9999 L2.0014,0.9999 C1.4484,0.9999 0.9994,1.4479 0.9994,2.0009 L0.9994,11.9779 C0.9994,12.5309 1.4484,12.9789 2.0014,12.9789 L5.1844,12.9789 L5.1844,6.0239 C5.1844,5.1979 5.8564,4.5249 6.6834,4.5249 L10.9954,4.5249 L10.9954,2.0009 C10.9954,1.4479 10.5474,0.9999 9.9944,0.9999" id="Fill-4"></path>
                </g>
            </g>
        </g>
    </g>
</svg>