<svg xmlns="http://www.w3.org/2000/svg" xmlns:xlink="http://www.w3.org/1999/xlink" width="16" height="16" viewBox="0 0 16 16">
  <defs>
    <path id="prepend-a" d="M8,7.99754465 C8,7.44661595 8.45303631,7 8.99703014,7 L15.0029699,7 C15.5536144,7 16,7.4463114 16,7.99754465 L16,15.0024554 C16,15.553384 15.5469637,16 15.0029699,16 L8.99703014,16 C8.4463856,16 8,15.5536886 8,15.0024554 L8,7.99754465 Z M10,9.5 C10,9.76806641 10.2195947,10 10.4904785,10 L13.5095215,10 C13.7849426,10 14,9.77614237 14,9.5 C14,9.23193359 13.7804053,9 13.5095215,9 L10.4904785,9 C10.2150574,9 10,9.22385763 10,9.5 Z M10,11.5 C10,11.7680664 10.2195947,12 10.4904785,12 L13.5095215,12 C13.7849426,12 14,11.7761424 14,11.5 C14,11.2319336 13.7804053,11 13.5095215,11 L10.4904785,11 C10.2150574,11 10,11.2238576 10,11.5 Z M10,13.5 C10,13.7680664 10.2195947,14 10.4904785,14 L13.5095215,14 C13.7849426,14 14,13.7761424 14,13.5 C14,13.2319336 13.7804053,13 13.5095215,13 L10.4904785,13 C10.2150574,13 10,13.2238576 10,13.5 Z M0,0.999807492 C0,0.447629061 0.437881351,0 1.00292933,0 L5.99707067,0 C6.55097324,0 7,0.443716645 7,0.999807492 L7,4.00019251 C7,4.55237094 6.56211865,5 5.99707067,5 L1.00292933,5 C0.449026756,5 0,4.55628335 0,4.00019251 L0,0.999807492 Z M2,2.5 C2,2.76806641 2.2217932,3 2.49538898,3 L4.50461102,3 C4.7842474,3 5,2.77614237 5,2.5 C5,2.23193359 4.7782068,2 4.50461102,2 L2.49538898,2 C2.2157526,2 2,2.22385763 2,2.5 Z"/>
  </defs>
  <g fill="none" fill-rule="evenodd">
    <use fill="#58585B" xlink:href="#prepend-a"/>
    <path fill="#58585B" d="M12.75,3 L15.162796,5.63214111 C15.3490286,5.83530397 15.2775815,6 14.9924316,6 L10.5075684,6 C10.2272461,6 10.1478519,5.83870697 10.337204,5.63214111 L12.75,3 Z" transform="matrix(1 0 0 -1 0 9)"/>
    <path fill="#58585B" d="M12,0 L13.5,0 L13.5,2.24297333 C13.5,2.66106761 13.1671014,3 12.75,3 L12,3 L12,0 Z" transform="matrix(1 0 0 -1 0 3)"/>
    <path fill="#58585B" d="M8,0.75 C8,0.335786438 8.34103775,0 8.7523694,0 L12,0 L12,1.5 L8.7523694,1.5 C8.33684726,1.5 8,1.16710138 8,0.75 L8,0.75 Z"/>
  </g>
</svg>
