<svg xmlns="http://www.w3.org/2000/svg" width="16" height="17" viewBox="0 0 16 17">
  <path fill="#58585B" fill-rule="evenodd" d="M-0.0001,8.8744 C0.0049,12.8164 3.2219,16.0164 7.1669,16.0004597 C11.1159,15.9934 14.3259,12.7704 14.3219037,8.8284 C14.3199,8.3704 14.2759,7.9194 14.1869,7.4684 C14.1539,7.3064 14.1109,7.1474 14.0679,6.9894 L13.0169,7.7634 C13.0479,7.9314 13.0779,8.0994 13.0949,8.2714 C13.1059,8.4594 13.1169,8.6474 13.1199,8.8404 C13.1199,12.1174 10.4459,14.7844 7.1669,14.7944 C3.8869,14.8014 1.2219,12.1504 1.2219,8.8734 C1.2159,5.5894 3.8779,2.9184 7.1699,2.9134 L7.2239,2.9074 L7.2249,4.6654 C7.2279,4.9514 7.4069,4.9444 7.5949,4.8544 L9.5729,3.4214 L10.6809,2.6194 L10.9349,2.4334 L7.5919,0.0374 C7.4089,-0.0566 7.2219,0.0354 7.2189,0.2204 L7.2249,1.6994 L7.1709,1.7054 C3.2199,1.7124 0.0039,4.9284 -0.0001,8.8744" transform="translate(1)"/>
</svg>
