<svg xmlns="http://www.w3.org/2000/svg" width="13" height="17" viewBox="0 0 13 17">
  <path fill="#58585B" fill-rule="evenodd" d="M10.1777,3.3555 C9.5287,3.3555 8.9997,2.8275 8.9997,2.1775 C8.9997,1.5285 9.5287,1.0005 10.1777,1.0005 C10.8267,1.0005 11.3557,1.5285 11.3557,2.1775 C11.3557,2.8275 10.8267,3.3555 10.1777,3.3555 M3.3557,14.4675 C3.3557,15.1175 2.8267,15.6455 2.1777,15.6455 C1.5287,15.6455 0.9997,15.1175 0.9997,14.4675 C0.9997,13.8185 1.5287,13.2905 2.1777,13.2905 C2.8267,13.2905 3.3557,13.8185 3.3557,14.4675 M0.9997,2.1775 C0.9997,1.5285 1.5287,1.0005 2.1777,1.0005 C2.8267,1.0005 3.3557,1.5285 3.3557,2.1775 C3.3557,2.8275 2.8267,3.3555 2.1777,3.3555 C1.5287,3.3555 0.9997,2.8275 0.9997,2.1775 M10.1777,0.0005 C8.9767,0.0005 7.9997,0.9765 7.9997,2.1775 C7.9997,3.2065 8.7187,4.0645 9.6777,4.2925 L9.6777,7.6965 L2.6777,7.6965 L2.6777,4.2925 C3.6367,4.0645 4.3557,3.2065 4.3557,2.1775 C4.3557,0.9765 3.3787,0.0005 2.1777,0.0005 C0.9767,0.0005 -0.0003,0.9765 -0.0003,2.1775 C-0.0003,3.2065 0.7187,4.0645 1.6777,4.2925 L1.6777,12.3535 C0.7187,12.5815 -0.0003,13.4395 -0.0003,14.4675 C-0.0003,15.6685 0.9767,16.6455 2.1777,16.6455 C3.3787,16.6455 4.3557,15.6685 4.3557,14.4675 C4.3557,13.4395 3.6367,12.5815 2.6777,12.3535 L2.6777,8.6965 L10.1777,8.6965 C10.4537,8.6965 10.6777,8.4725 10.6777,8.1965 L10.6777,4.2925 C11.6367,4.0645 12.3557,3.2065 12.3557,2.1775 C12.3557,0.9765 11.3787,0.0005 10.1777,0.0005"/>
</svg>
