<svg xmlns="http://www.w3.org/2000/svg" width="16" height="15" viewBox="0 0 16 15">
  <path fill="#58585B" d="M9.7368,7.2027 C9.7368,6.6807 9.3138,6.2577 8.7928,6.2577 C8.2708,6.2577 7.8478,6.6807 7.8478,7.2027 C7.8478,7.7247 8.2708,8.1477 8.7928,8.1477 C9.3138,8.1477 9.7368,7.7247 9.7368,7.2027 L9.7368,7.2027 Z M6.6678,7.2027 C6.6678,6.6807 6.2448,6.2577 5.7228,6.2577 C5.2008,6.2577 4.7778,6.6807 4.7778,7.2027 C4.7778,7.7247 5.2008,8.1477 5.7228,8.1477 C6.2448,8.1477 6.6678,7.7247 6.6678,7.2027 L6.6678,7.2027 Z M3.5348,7.2027 C3.5348,6.6807 3.1118,6.2577 2.5908,6.2577 C2.0688,6.2577 1.6458,6.6807 1.6458,7.2027 C1.6458,7.7247 2.0688,8.1477 2.5908,8.1477 C3.1118,8.1477 3.5348,7.7247 3.5348,7.2027 L3.5348,7.2027 Z M15.9958,5.1747 L15.9958,9.2307 C15.9958,9.7827 15.5488,10.2297 14.9958,10.2297 L0.9998,10.2297 C0.4468,10.2297 -0.0002,9.7827 -0.0002,9.2307 L-0.0002,5.1747 C-0.0002,4.6237 0.4468,4.1747 0.9998,4.1747 L14.9958,4.1747 C15.5488,4.1747 15.9958,4.6237 15.9958,5.1747 L15.9958,5.1747 Z M3.3528,14.2427 C3.5268,14.2227 3.5838,14.0877 3.4488,13.9527 L2.7648,13.2687 L2.5878,13.0917 L3.8788,11.8007 C4.0748,11.6047 4.0738,11.2887 3.8788,11.0937 C3.6838,10.8977 3.3668,10.8977 3.1718,11.0937 L1.8808,12.3847 L1.7038,12.2077 L1.0188,11.5227 C0.8838,11.3887 0.7498,11.4457 0.7298,11.6197 L0.5588,14.4137 L3.3528,14.2427 Z M11.9018,13.8877 C11.9218,14.0607 12.0568,14.1187 12.1918,13.9837 L12.8758,13.2997 L13.0528,13.1227 L14.3438,14.4137 C14.5398,14.6097 14.8558,14.6087 15.0508,14.4137 C15.2468,14.2187 15.2468,13.9017 15.0508,13.7067 L13.7598,12.4157 L13.9368,12.2387 L14.6218,11.5537 C14.7568,11.4187 14.6988,11.2847 14.5248,11.2647 L11.7308,11.0937 L11.9018,13.8877 Z M12.4038,0.3177 C12.2298,0.3377 12.1728,0.4727 12.3068,0.6067 L12.9918,1.2917 L13.1688,1.4687 L11.8778,2.7597 C11.6818,2.9547 11.6818,3.2717 11.8778,3.4667 C12.0728,3.6627 12.3888,3.6627 12.5848,3.4667 L13.8758,2.1757 L14.0518,2.3527 L14.7368,3.0367 C14.8718,3.1727 15.0068,3.1147 15.0268,2.9407 L15.1978,0.1467 L12.4038,0.3177 Z M4.3238,3.4667 L1.5298,3.2957 C1.3568,3.2757 1.2988,3.1407 1.4338,3.0067 L2.1178,2.3217 L2.2948,2.1447 L1.0038,0.8537 C0.8078,0.6587 0.8078,0.3417 1.0038,0.1467 C1.1988,-0.0483 1.5148,-0.0483 1.7108,0.1467 L3.0018,1.4377 L3.1788,1.2607 L3.8628,0.5767 C3.9978,0.4417 4.1328,0.4987 4.1528,0.6727 L4.3238,3.4667 Z"/>
</svg>
