<svg xmlns="http://www.w3.org/2000/svg" xmlns:xlink="http://www.w3.org/1999/xlink" width="16" height="16" viewBox="0 0 16 16">
  <defs>
    <polygon id="safe-search-a" points="0 .803 15 .803 15 15.803 0 15.803"/>
  </defs>
  <g fill="none" fill-rule="evenodd" transform="translate(0 -1)">
    <g transform="translate(0 .198)">
      <mask id="safe-search-b" fill="#fff">
        <use xlink:href="#safe-search-a"/>
      </mask>
      <path fill="#58585B" d="M7.0781,9.4946 C6.0991,8.7446 5.4541,7.5776 5.4541,6.2566 C5.4541,4.0066 7.2951,2.1656 9.5451,2.1656 C11.7951,2.1656 13.6361,4.0066 13.6361,6.2566 C13.6361,6.7236 13.5401,7.1676 13.3941,7.5866 C13.8071,7.8656 14.1681,8.2116 14.4541,8.6126 C14.8001,7.8966 15.0001,7.0996 15.0001,6.2566 C15.0001,3.2566 12.5451,0.8026 9.5451,0.8026 C6.5451,0.8026 4.0911,3.2566 4.0911,6.2566 C4.0911,7.5176 4.5341,8.6776 5.2501,9.5986 L0.2041,14.6426 C0.0681,14.7796 0.0001,14.9496 0.0001,15.1206 C0.0001,15.2906 0.0681,15.4616 0.2041,15.5986 C0.4771,15.8706 0.8861,15.8706 1.1591,15.5986 L6.2041,10.5526 C6.3911,10.6976 6.5941,10.8236 6.8001,10.9446 L6.8001,10.9066 C6.8001,10.4076 6.9061,9.9356 7.0781,9.4946" mask="url(#safe-search-b)"/>
    </g>
    <path fill="#58585B" d="M8.8398,11.0464 C8.8398,10.8504 8.8778,10.6634 8.9318,10.4834 C9.1908,9.6234 10.0148,8.9884 11.0008,8.9884 C11.5028,8.9884 11.9588,9.1584 12.3258,9.4334 C12.7058,9.7174 12.9848,10.1154 13.0988,10.5784 C13.1348,10.7294 13.1598,10.8844 13.1598,11.0464 L13.1598,12.0744 L13.1598,12.2464 L8.8398,12.2464 L8.8398,11.0464 Z M14.1998,12.2464 L14.1998,11.1044 C14.1998,10.6244 14.0718,10.1744 13.8618,9.7704 C13.6458,9.3524 13.3338,8.9914 12.9518,8.7074 C12.4098,8.3054 11.7378,8.0554 11.0008,8.0554 C9.5648,8.0554 8.3558,8.9744 7.9538,10.2214 C7.8628,10.5024 7.7998,10.7954 7.7998,11.1044 L7.7998,11.6114 L7.7998,12.2464 L6.9998,12.2464 L6.9998,16.8174 C6.9998,17.0274 7.1788,17.1974 7.3998,17.1974 L14.5998,17.1974 C14.8208,17.1974 14.9998,17.0274 14.9998,16.8174 L14.9998,12.2464 L14.1998,12.2464 Z"/>
  </g>
</svg>
