<?xml version="1.0" encoding="UTF-8"?>
<svg width="16px" height="16px" viewBox="0 0 16 16" version="1.1" xmlns="http://www.w3.org/2000/svg" xmlns:xlink="http://www.w3.org/1999/xlink">
    <!-- Generator: Sketch 49.3 (51167) - http://www.bohemiancoding.com/sketch -->
    <title>icon-send-copy</title>
    <desc>Created with Sketch.</desc>
    <defs></defs>
    <g id="SBG-Icon-Library" stroke="none" stroke-width="1" fill="none" fill-rule="evenodd">
        <g id="Actions" transform="translate(-289.000000, -3448.000000)" fill="#58585B">
            <g id="Send-Copy" transform="translate(0.000000, 3422.000000)">
                <g id="copy_icn" transform="translate(289.000000, 26.000000)">
                    <g id="Group-4" transform="translate(8.000000, 0.000000)">
                        <path d="M4.75,3 L7.21605948,6.5869956 C7.3728755,6.81509163 7.27758151,7 6.99243164,7 L2.50756836,7 C2.2272461,7 2.12530771,6.81773424 2.28394052,6.5869956 L4.75,3 Z" id="Triangle" transform="translate(4.750106, 5.000000) scale(1, -1) translate(-4.750106, -5.000000) "></path>
                        <g id="Group-2">
                            <path d="M4,1.5 L0.752369404,1.5 C0.336847256,1.5 0,1.16710138 0,0.75 C0,0.335786438 0.34103775,0 0.752369404,0 L4,0 L4.75,0 C5.16421356,0 5.5,0.344138145 5.5,0.757026672 L5.5,3 L4,3 L4,1.5 Z" id="Combined-Shape"></path>
                        </g>
                    </g>
                    <path d="M0,0.997030139 C0,0.446385598 0.437881351,0 1.00292933,0 L5.99707067,0 C6.55097324,0 7,0.453036308 7,0.997030139 L7,7.00296986 C7,7.5536144 6.56211865,8 5.99707067,8 L1.00292933,8 C0.449026756,8 0,7.54696369 0,7.00296986 L0,0.997030139 Z M2,2.5 C2,2.76806641 2.2217932,3 2.49538898,3 L4.50461102,3 C4.7842474,3 5,2.77614237 5,2.5 C5,2.23193359 4.7782068,2 4.50461102,2 L2.49538898,2 C2.2157526,2 2,2.22385763 2,2.5 Z M2,4.5 C2,4.76806641 2.2217932,5 2.49538898,5 L4.50461102,5 C4.7842474,5 5,4.77614237 5,4.5 C5,4.23193359 4.7782068,4 4.50461102,4 L2.49538898,4 C2.2157526,4 2,4.22385763 2,4.5 Z" id="Combined-Shape"></path>
                    <path d="M9,8.99703014 C9,8.4463856 9.43788135,8 10.0029293,8 L14.9970707,8 C15.5509732,8 16,8.45303631 16,8.99703014 L16,15.0029699 C16,15.5536144 15.5621186,16 14.9970707,16 L10.0029293,16 C9.44902676,16 9,15.5469637 9,15.0029699 L9,8.99703014 Z M11,10.5 C11,10.7680664 11.2217932,11 11.495389,11 L13.504611,11 C13.7842474,11 14,10.7761424 14,10.5 C14,10.2319336 13.7782068,10 13.504611,10 L11.495389,10 C11.2157526,10 11,10.2238576 11,10.5 Z M11,12.5 C11,12.7680664 11.2217932,13 11.495389,13 L13.504611,13 C13.7842474,13 14,12.7761424 14,12.5 C14,12.2319336 13.7782068,12 13.504611,12 L11.495389,12 C11.2157526,12 11,12.2238576 11,12.5 Z" id="Combined-Shape"></path>
                </g>
            </g>
        </g>
    </g>
</svg>