<svg xmlns="http://www.w3.org/2000/svg" width="14" height="16" viewBox="0 0 14 16">
  <path fill="#58585B" fill-rule="evenodd" d="M11.9137473,7.0005 L11.9493813,7.00651466 C12.0939539,7.00350733 12.2517619,7.07367837 12.366809,7.18093982 L12.366809,7.18093982 L12.3820808,7.19096426 L14.7634549,9.5356795 C15.0220565,9.79030014 15.0220565,10.2023044 14.7634549,10.456925 C14.5048534,10.7115457 14.0853894,10.7115457 13.8267879,10.456925 L13.8267879,10.456925 L12.5755229,9.22492203 L12.5755229,22.3479093 C12.5755229,22.7077865 12.279251,23.0005 11.9137473,23.0005 C11.5482435,23.0005 11.2519716,22.7077865 11.2519716,22.3479093 L11.2519716,22.3479093 L11.2519716,9.28907841 L10.143243,10.4438933 C10.0129241,10.5792231 9.83678993,10.6473893 9.66167392,10.6473893 C9.49877531,10.6473893 9.33485858,10.5892476 9.20759403,10.4699568 C8.94186567,10.2223533 8.92964827,9.80934656 9.18010489,9.54871126 L9.18010489,9.54871126 L11.4321782,7.20399602 C11.4342145,7.20098869 11.4372688,7.20098869 11.4403232,7.19798136 C11.4810478,7.15688118 11.5329718,7.12881276 11.5838776,7.0997419 C11.6072943,7.08570769 11.6266385,7.06465638 11.6510733,7.0536295 C11.6917979,7.03658796 11.7386313,7.03458308 11.7834284,7.02556109 C11.824153,7.01754154 11.8618233,7.0005 11.9045842,7.0005 C11.9056023,7.0005 11.9076386,7.00150244 11.9096748,7.00150244 L11.9113292,7.00100122 L11.9137473,7.0005 Z M20.086778,7 C20.4522818,7 20.7485536,7.29171105 20.7485536,7.65158825 L20.7485536,7.65158825 L20.7485536,20.7114216 L21.8583004,19.5566067 C22.1067208,19.294969 22.5292391,19.2839421 22.7929312,19.5315456 C23.0586596,19.7781467 23.0698589,20.190151 22.8194023,20.4517887 L22.8194023,20.4517887 L20.5663108,22.7955015 C20.5652927,22.796504 20.5632565,22.7975064 20.5622383,22.7985089 C20.5133688,22.8496335 20.4522818,22.8867239 20.3901767,22.9188021 C20.3749049,22.9258192 20.3637057,22.9388509 20.349452,22.9448656 C20.3046549,22.9649145 20.2517129,22.9679218 20.2018252,22.9779462 C20.1661911,22.9829585 20.1325932,22.9989976 20.0959411,23 L20.0959411,23 C19.9982019,23 19.911662,22.981956 19.8322489,22.9488754 C19.7518177,22.9167972 19.6785134,22.8686799 19.6184445,22.8095357 L19.6184445,22.8095357 L17.2370704,20.4658229 C16.9784688,20.2112023 16.9784688,19.7981956 17.2370704,19.543575 C17.4956719,19.2889543 17.9151359,19.2889543 18.1737374,19.543575 L18.1737374,19.543575 L19.4239843,20.7745755 L19.4239843,7.65158825 C19.4239843,7.29171105 19.7202561,7 20.086778,7 Z" transform="translate(-9 -7)"/>
</svg>
