<svg xmlns="http://www.w3.org/2000/svg" width="7" height="8" viewBox="0 0 7 8">
  <path fill="#58585B" d="M37.8291527,11.975473 L34.9124253,14.8326414 C34.6846288,15.0557862 34.3153712,15.0557862 34.0875747,14.8326414 L31.1708473,11.975473 C30.9430509,11.7523281 30.9430509,11.3906106 31.1708473,11.1674658 C31.3986437,10.9443209 31.7679014,10.9443209 31.9956978,11.1674658 L33.9166545,13.0491969 L33.9166545,7.57143367 C33.9166545,7.25571657 34.1777016,7 34.5,7 C34.8222984,7 35.0833455,7.25571657 35.0833455,7.57143367 L35.0833455,13.0491969 L37.0043022,11.1674658 C37.1180545,11.0560362 37.267391,11.0000357 37.4167274,11.0000357 C37.5660639,11.0000357 37.7154003,11.0557505 37.8291527,11.1674658 C38.0569491,11.3906106 38.0569491,11.7523281 37.8291527,11.975473 Z" transform="translate(-31 -7)"/>
</svg>
