<svg xmlns="http://www.w3.org/2000/svg" width="16" height="16" viewBox="0 0 16 16">
  <path fill="#58585B" fill-rule="evenodd" d="M30.8455,128.4861 L30.7105,129.7241 L35.2155,129.7241 L35.1025,128.4911 C35.9255,127.9701 36.4995,127.1581 36.4995,126.1531 C36.4995,124.3961 34.8215,122.8241 33.0105,122.8241 C31.1995,122.8241 29.4995,124.3961 29.4995,126.1531 C29.4995,127.1551 30.0475,127.9651 30.8455,128.4861 L30.8455,128.4861 Z M32.3895,132.7411 L27.9995,129.9411 L27.9995,126.6591 L27.9995,121.9841 C27.9995,121.4401 28.4475,121.0001 28.9985,121.0001 L37.0015,121.0001 C37.5535,121.0001 37.9995,121.4401 37.9995,121.9841 L37.9995,126.6801 L37.9995,129.8991 L33.4565,132.7451 C33.1315,132.9491 32.7145,132.9471 32.3895,132.7411 L32.3895,132.7411 Z M26.9995,127.3941 L25.6105,128.4171 L26.9995,129.3031 L26.9995,127.3941 Z M40.9895,129.1941 L32.9175,134.2511 L25.0075,129.2061 C25.0065,129.2151 24.9995,129.2231 24.9995,129.2321 L24.9995,136.2461 C24.9995,136.6631 25.3525,137.0001 25.7875,137.0001 L40.2125,137.0001 C40.6475,137.0001 40.9995,136.6631 40.9995,136.2461 L40.9995,129.2351 C40.9995,129.2201 40.9905,129.2091 40.9895,129.1941 L40.9895,129.1941 Z M38.9995,127.4091 L38.9995,129.2731 L40.3755,128.4111 L38.9995,127.4091 Z M32.0435,126.9101 C32.1825,126.9101 32.3185,126.8391 32.3915,126.7131 C32.5015,126.5271 32.4345,126.2901 32.2425,126.1831 L30.9085,125.4461 C30.7155,125.3401 30.4715,125.4051 30.3625,125.5911 C30.2525,125.7781 30.3205,126.0151 30.5125,126.1221 L31.8455,126.8591 C31.9085,126.8931 31.9765,126.9101 32.0435,126.9101 L32.0435,126.9101 Z M33.5295,126.7101 C33.4195,126.5231 33.4875,126.2861 33.6785,126.1801 L35.0125,125.4421 C35.2045,125.3361 35.4495,125.4011 35.5585,125.5881 C35.6685,125.7741 35.6015,126.0111 35.4095,126.1171 L34.0745,126.8551 C34.0125,126.8891 33.9445,126.9061 33.8775,126.9061 C33.7385,126.9061 33.6025,126.8361 33.5295,126.7101 L33.5295,126.7101 Z" transform="translate(-25 -121)"/>
</svg>
