<?xml version="1.0" encoding="UTF-8"?>
<svg width="16px" height="16px" viewBox="0 0 16 16" version="1.1" xmlns="http://www.w3.org/2000/svg" xmlns:xlink="http://www.w3.org/1999/xlink">
    <!-- Generator: Sketch 49.3 (51167) - http://www.bohemiancoding.com/sketch -->
    <title>icon-ticket</title>
    <desc>Created with Sketch.</desc>
    <defs></defs>
    <g id="SBG-Icon-Library" stroke="none" stroke-width="1" fill="none" fill-rule="evenodd">
        <g id="Content" transform="translate(-292.000000, -4037.000000)" fill="#58585B">
            <g id="Ticket" transform="translate(0.000000, 4010.000000)">
                <g id="icn_ticket" transform="translate(292.000000, 27.000000)">
                    <path d="M7.5448,12.9311 L3.2208,8.6071 L8.6068,3.2201 L12.9308,7.5441 L7.5448,12.9311 Z M15.7328,5.4221 L14.3468,4.0361 C14.3348,4.0481 14.3268,4.0631 14.3158,4.0751 C13.6068,4.7831 12.4588,4.7831 11.7508,4.0751 C11.0428,3.3671 11.0428,2.2181 11.7508,1.5101 C11.7628,1.4981 11.7768,1.4911 11.7898,1.4791 L10.5778,0.2671 C10.2218,-0.0889 9.6448,-0.0899 9.2888,0.2671 L0.2668,9.2881 C-0.0892,9.6451 -0.0892,10.2221 0.2668,10.5771 L1.4798,11.7891 C1.4908,11.7781 1.4988,11.7631 1.5108,11.7511 C2.2188,11.0431 3.3668,11.0431 4.0748,11.7511 C4.7828,12.4591 4.7828,13.6071 4.0748,14.3151 C4.0628,14.3271 4.0488,14.3351 4.0358,14.3471 L5.4228,15.7331 C5.7778,16.0891 6.3558,16.0891 6.7108,15.7331 L15.7328,6.7111 C16.0888,6.3551 16.0888,5.7781 15.7328,5.4221 Z" id="Fill-2"></path>
                    <polygon id="Fill-1" points="4.6347 8.6069 7.5447 11.5169 11.5167 7.5449 8.6067 4.6339"></polygon>
                </g>
            </g>
        </g>
    </g>
</svg>