<svg xmlns="http://www.w3.org/2000/svg" width="16" height="16" viewBox="0 0 16 16">
  <path fill="#58585B" fill-rule="evenodd" d="M14.2654,13.1902 C14.1704,13.3402 14.0084,13.4222 13.8434,13.4222 C13.7514,13.4222 13.6594,13.3972 13.5764,13.3442 L11.9994,12.3452 L11.9994,9.6812 C11.9994,9.4052 12.2234,9.1812 12.4994,9.1812 C12.7764,9.1812 12.9994,9.4052 12.9994,9.6812 L12.9994,11.7942 L14.1114,12.5012 C14.3444,12.6482 14.4134,12.9582 14.2654,13.1902 M15.6854,8.3152 C14.8384,7.4672 13.7064,7.0002 12.4994,7.0002 C11.2934,7.0002 10.1624,7.4672 9.3154,8.3152 C8.4664,9.1632 7.9994,10.2942 7.9994,11.5002 C7.9994,12.7072 8.4664,13.8372 9.3154,14.6852 C10.1624,15.5332 11.2934,16.0002 12.4994,16.0002 C13.7054,16.0002 14.8374,15.5332 15.6854,14.6852 C16.5334,13.8372 16.9994,12.7062 16.9994,11.5002 C16.9994,10.2942 16.5334,9.1632 15.6854,8.3152 M6.3184,5.0232 C5.9934,5.0232 5.7274,4.7562 5.7274,4.4322 C5.7274,4.1072 5.9934,3.8412 6.3184,3.8412 C6.6434,3.8412 6.9094,4.1072 6.9094,4.4322 C6.9094,4.7562 6.6434,5.0232 6.3184,5.0232 M6.3184,7.6812 C5.9934,7.6812 5.7274,7.4162 5.7274,7.0902 C5.7274,6.7662 5.9934,6.5002 6.3184,6.5002 C6.6434,6.5002 6.9094,6.7662 6.9094,7.0902 C6.9094,7.4162 6.6434,7.6812 6.3184,7.6812 M6.3184,10.3402 C5.9934,10.3402 5.7274,10.0752 5.7274,9.7502 C5.7274,9.4242 5.9934,9.1592 6.3184,9.1592 C6.6434,9.1592 6.9094,9.4242 6.9094,9.7502 C6.9094,10.0752 6.6434,10.3402 6.3184,10.3402 M3.9544,5.0232 C3.6294,5.0232 3.3644,4.7562 3.3644,4.4322 C3.3644,4.1072 3.6294,3.8412 3.9544,3.8412 C4.2804,3.8412 4.5454,4.1072 4.5454,4.4322 C4.5454,4.7562 4.2804,5.0232 3.9544,5.0232 M3.9544,7.6812 C3.6294,7.6812 3.3644,7.4162 3.3644,7.0902 C3.3644,6.7662 3.6294,6.5002 3.9544,6.5002 C4.2804,6.5002 4.5454,6.7662 4.5454,7.0902 C4.5454,7.4162 4.2804,7.6812 3.9544,7.6812 M3.9544,10.3402 C3.6294,10.3402 3.3644,10.0752 3.3644,9.7502 C3.3644,9.4242 3.6294,9.1592 3.9544,9.1592 C4.2804,9.1592 4.5454,9.4242 4.5454,9.7502 C4.5454,10.0752 4.2804,10.3402 3.9544,10.3402 M8.6814,3.8412 C9.0064,3.8412 9.2724,4.1072 9.2724,4.4322 C9.2724,4.7562 9.0064,5.0232 8.6814,5.0232 C8.3574,5.0232 8.0904,4.7562 8.0904,4.4322 C8.0904,4.1072 8.3574,3.8412 8.6814,3.8412 M11.0454,3.8412 C11.3704,3.8412 11.6364,4.1072 11.6364,4.4322 C11.6364,4.7562 11.3704,5.0232 11.0454,5.0232 C10.7204,5.0232 10.4544,4.7562 10.4544,4.4322 C10.4544,4.1072 10.7204,3.8412 11.0454,3.8412 M8.5674,7.6592 C8.2984,7.6032 8.0904,7.3752 8.0904,7.0902 C8.0904,6.7662 8.3574,6.5002 8.6814,6.5002 C8.9974,6.5002 9.2534,6.7532 9.2674,7.0662 C10.2014,6.3832 11.3164,6.0002 12.4994,6.0002 C13.0174,6.0002 13.5164,6.0942 13.9994,6.2312 L13.9994,0.5912 C13.9994,0.2662 13.7344,0.0002 13.4094,0.0002 L11.6364,0.0002 L11.6364,0.5912 C11.6364,0.9162 11.3704,1.1822 11.0454,1.1822 C10.7204,1.1822 10.4544,0.9162 10.4544,0.5912 L10.4544,0.0002 L4.5454,0.0002 L4.5454,0.5912 C4.5454,0.9162 4.2804,1.1822 3.9544,1.1822 C3.6294,1.1822 3.3644,0.9162 3.3644,0.5912 L3.3644,0.0002 L1.5904,0.0002 C1.2664,0.0002 0.9994,0.2662 0.9994,0.5912 L0.9994,12.4092 C0.9994,12.7342 1.2664,13.0002 1.5904,13.0002 L7.2314,13.0002 C7.0944,12.5162 6.9994,12.0172 6.9994,11.5002 C6.9994,10.0482 7.5594,8.6892 8.5674,7.6592" transform="translate(-1)"/>
</svg>
