<svg xmlns="http://www.w3.org/2000/svg" xmlns:xlink="http://www.w3.org/1999/xlink" width="16" height="16" viewBox="0 0 16 16">
  <defs>
    <polygon id="icon-time-zone-a" points=".942 0 9.942 0 9.942 9 .942 9"/>
  </defs>
  <g fill="none" fill-rule="evenodd">
    <path fill="#58585B" d="M3.208,11.404 C3.412,11.258 3.645,11.113 3.879,10.996 C4.142,11.521 4.491,12.016 4.871,12.425 C4.259,12.192 3.704,11.841 3.208,11.404 L3.208,11.404 Z M1.196,7.584 L2.946,7.584 C3.004,8.4 3.179,9.187 3.412,9.917 C3.062,10.092 2.713,10.325 2.392,10.558 C1.75,9.713 1.312,8.692 1.196,7.584 L1.196,7.584 Z M2.392,3.442 C2.713,3.675 3.062,3.908 3.412,4.083 C3.15,4.813 2.975,5.6 2.946,6.417 L1.196,6.417 C1.312,5.308 1.75,4.287 2.392,3.442 L2.392,3.442 Z M4.842,1.546 C4.491,2.012 4.171,2.479 3.879,3.004 C3.645,2.887 3.412,2.742 3.179,2.567 C3.675,2.129 4.229,1.808 4.842,1.546 L4.842,1.546 Z M6.417,1.692 L6.417,3.762 C5.921,3.733 5.425,3.617 4.958,3.471 C5.338,2.771 5.833,2.158 6.417,1.692 L6.417,1.692 Z M6.417,6.417 L4.112,6.417 C4.171,5.775 4.287,5.133 4.491,4.55 C5.104,4.754 5.746,4.871 6.417,4.929 L6.417,6.417 Z M6.417,9.071 C5.746,9.13 5.104,9.246 4.491,9.45 C4.287,8.867 4.171,8.225 4.112,7.584 L6.417,7.584 L6.417,9.071 Z M7.583,1.692 C8.167,2.158 8.662,2.771 9.042,3.471 C8.575,3.617 8.079,3.733 7.583,3.762 L7.583,1.692 Z M10.792,2.596 C10.588,2.742 10.354,2.887 10.092,3.033 C9.829,2.479 9.509,2.012 9.129,1.575 C9.741,1.808 10.296,2.158 10.792,2.596 L10.792,2.596 Z M4.958,10.529 C5.321,10.416 5.703,10.334 6.088,10.283 C6.313,9.277 6.807,8.351 7.55,7.608 C8.066,7.091 8.671,6.689 9.329,6.417 L7.583,6.417 L7.583,4.929 C8.254,4.871 8.895,4.754 9.509,4.55 C9.695,5.084 9.802,5.668 9.864,6.255 C10.233,6.145 10.611,6.074 11.002,6.043 C10.923,5.362 10.784,4.699 10.588,4.083 C10.937,3.908 11.287,3.675 11.608,3.442 C12.202,4.225 12.61,5.162 12.761,6.176 C13.188,6.281 13.594,6.442 13.981,6.645 C13.794,2.959 10.73,0 7,0 C3.15,0 0,3.15 0,7 C0,10.699 2.91,13.744 6.554,13.977 C6.224,13.326 6.028,12.617 5.979,11.873 C5.59,11.478 5.234,11.039 4.958,10.529 L4.958,10.529 Z"/>
    <g transform="translate(6 7)">
      <mask id="icon-time-zone-b" fill="#fff">
        <use xlink:href="#icon-time-zone-a"/>
      </mask>
      <path fill="#58585B" d="M7.207,6.1904 C7.112,6.3404 6.95,6.4224 6.785,6.4224 C6.693,6.4224 6.601,6.3974 6.518,6.3444 L4.941,5.3454 L4.941,2.6824 C4.941,2.4064 5.165,2.1824 5.441,2.1824 C5.718,2.1824 5.941,2.4064 5.941,2.6824 L5.941,4.7944 L7.053,5.5014 C7.286,5.6484 7.355,5.9584 7.207,6.1904 M8.627,1.3154 C7.779,0.4674 6.648,0.0004 5.442,0.0004 C4.235,0.0004 3.103,0.4674 2.257,1.3154 C1.409,2.1634 0.942,3.2944 0.942,4.5004 C0.942,5.7064 1.409,6.8374 2.257,7.6854 C3.104,8.5334 4.236,9.0004 5.442,9.0004 C6.648,9.0004 7.779,8.5334 8.627,7.6854 C9.476,6.8364 9.942,5.7064 9.942,4.5004 C9.942,3.2944 9.476,2.1644 8.627,1.3154" mask="url(#icon-time-zone-b)"/>
    </g>
  </g>
</svg>
