<svg xmlns="http://www.w3.org/2000/svg" width="14" height="16" viewBox="0 0 14 16">
  <path fill="#58585B" fill-rule="evenodd" d="M6.89461646.0834955743L1.00590173 2.57449165C.751577706 2.68207373.632619853 2.97545659.740201927 3.22978061.78693881 3.3402666.871841907 3.43026603.979419106 3.48335686L6.8677836 6.38934611C7.00892904 6.45900333 7.17463528 6.4581321 7.31504046 6.38699456L13.0509521 3.48084363C13.2972817 3.35603852 13.3957968 3.05517435 13.2709917 2.8088447 13.2183291 2.70490388 13.1310184 2.62261945 13.0241412 2.57620493L7.28857987.0853705278C7.16304947.0308553007 7.02066006.03017764 6.89461646.0834955743zM.266055761 12.5146523L5.56605576 15.3205405C5.81010694 15.4497443 6.11268992 15.3566421 6.24189376 15.112591 6.28005156 15.0405153 6.3 14.9601999 6.3 14.8786467L6.3 8.1688759C6.3 7.97950802 6.19301911 7.8063898 6.02365187 7.72168484L.723651869 5.07101711C.476675068 4.94749759.17632846 5.04757949.0528089431 5.29455629.0180804718 5.36399574-7.13068585e-14 5.44056859-7.10542736e-14 5.51820816L-7.10542736e-14 12.0727585C-7.08054707e-14 12.2579633.102374138 12.4279971.266055761 12.5146523zM7.7 8.16924123L7.7 14.8769742C7.7 15.1531165 7.92385763 15.3769742 8.2 15.3769742 8.28206908 15.3769742 8.36287642 15.3567727 8.43529062 15.3181525L13.7352906 12.4915398C13.8982243 12.4046435 14 12.2350188 14 12.0503614L14 5.51930789C14 5.24316552 13.7761424 5.01930789 13.5 5.01930789 13.4223792 5.01930789 13.3458242 5.03737965 13.2763977 5.07209205L7.9763977 7.72202538C7.80700321 7.8067205 7.7 7.97985339 7.7 8.16924123z"/>
</svg>
