<?xml version="1.0" encoding="UTF-8"?>
<svg width="16px" height="16px" viewBox="0 0 16 16" version="1.1" xmlns="http://www.w3.org/2000/svg" xmlns:xlink="http://www.w3.org/1999/xlink">
    <!-- Generator: Sketch 49.3 (51167) - http://www.bohemiancoding.com/sketch -->
    <title>icon-unused-object</title>
    <desc>Created with Sketch.</desc>
    <defs></defs>
    <g id="SBG-Icon-Library" stroke="none" stroke-width="1" fill="none" fill-rule="evenodd">
        <g id="Content" transform="translate(-293.000000, -4221.000000)" fill="#58585B">
            <g id="Unused-Object" transform="translate(0.000000, 4196.000000)">
                <path d="M296,26 L298,26 L298,25 L296,25 L296,26 Z M299,26 L301,26 L301,25 L299,25 L299,26 Z M302,26 L304,26 L304,25 L302,25 L302,26 Z M308,26 L307.92278,25.996004 L306,25.999001 L306,25 L307.976834,25 L308,26 Z M293.866156,26 L293,25.7898331 C293.15863,25.3247344 293.671474,25 294.245606,25 L295,25 L295,25.7587253 L294.245606,25.7587253 C294.070753,25.7587253 293.913925,25.8581184 293.866156,26 Z M309,28 L308.042146,28 L308.042146,26.5570857 C308.042146,26.4984451 308.02682,26.4398045 308,26.3864949 L308.862069,26 C308.952107,26.1723678 309,26.365171 309,26.5570857 L309,28 Z M293,29 L294,29 L294,27 L293,27 L293,29 Z M308,31 L309,31 L309,29 L308,29 L308,31 Z M293,32 L294,32 L294,30 L293,30 L293,32 Z M308,34 L309,34 L309,32 L308,32 L308,34 Z M293,35 L294,35 L294,33 L293,33 L293,35 Z M308,37 L309,37 L309,35 L308,35 L308,37 Z M293,38 L294,38 L294,36 L293,36 L293,38 Z M308.584642,40 L308,39.3628167 C308.081152,39.2906827 308.1274,39.1893517 308.1274,39.0837269 L308.1274,38 L309,38 L309,39.0837269 C309,39.4315157 308.84904,39.7655646 308.584642,40 Z M295,41 L294.483738,41 C293.665978,41 293,40.1473893 293,39.1004627 L294.032525,39 L294.032525,39.1004627 C294.032525,39.419035 294.234899,39.6781229 294.483738,39.6781229 L295,39.6781229 L295,41 Z M296,41 L298,41 L298,40 L296,40 L296,41 Z M299,41 L301,41 L301,40 L299,40 L299,41 Z M302,41 L304,41 L304,40 L302,40 L302,41 Z M305,41 L307,41 L307,40 L305,40 L305,41 Z" id="icn_unused_object"></path>
            </g>
        </g>
    </g>
</svg>