<svg xmlns="http://www.w3.org/2000/svg" width="16" height="16" viewBox="0 0 16 16">
  <path fill="#58585B" fill-rule="evenodd" d="M8.0002,0.0002 C12.4112,0.0002 16.0002,3.5882 16.0002,8.0002 C16.0002,12.4112 12.4112,15.9992 8.0002,15.9992 C3.5882,15.9992 0.0002,12.4112 0.0002,8.0002 C0.0002,3.5882 3.5882,0.0002 8.0002,0.0002 Z M8.0002,1.0252 C4.1542,1.0252 1.0252,4.1542 1.0252,8.0002 C1.0252,11.8452 4.1542,14.9742 8.0002,14.9742 C11.8462,14.9742 14.9742,11.8452 14.9742,8.0002 C14.9742,4.1542 11.8462,1.0252 8.0002,1.0252 Z M7.9938,4.0592 L10.3718,7.5552 C10.440925,7.6567 10.3860187,7.78959063 10.2767531,7.82122734 L10.2268,7.8282 L8.68332497,7.8282 L8.6841,11.237 C8.6841,11.5788182 8.42955455,11.8652645 8.10077919,11.9145207 L8.0001,11.922 C7.65828182,11.922 7.37266198,11.6666281 7.32355605,11.3377025 L7.3161,11.237 L7.31532497,7.8282 L5.7758,7.8282 C5.654175,7.8282 5.57465937,7.7087625 5.60960469,7.60119219 L5.6318,7.5562 L7.9938,4.0592 Z"/>
</svg>
