<?xml version="1.0" encoding="UTF-8"?>
<svg width="16px" height="16px" viewBox="0 0 16 16" version="1.1" xmlns="http://www.w3.org/2000/svg" xmlns:xlink="http://www.w3.org/1999/xlink">
    <!-- Generator: Sketch 49.3 (51167) - http://www.bohemiancoding.com/sketch -->
    <title>icon-user</title>
    <desc>Created with Sketch.</desc>
    <defs></defs>
    <g id="SBG-Icon-Library" stroke="none" stroke-width="1" fill="none" fill-rule="evenodd">
        <g id="Settings" transform="translate(-292.000000, -242.000000)" fill="#58585B">
            <g id="Administrator" transform="translate(0.000000, 215.000000)">
                <g transform="translate(292.000000, 27.000000)" id="Contact">
                    <g>
                        <path d="M15.5115636,12.9943273 C15.4875636,12.8496 15.3632,12.6714182 15.2366545,12.5979636 L10.6199273,9.91941818 C10.4933818,9.84669091 10.3464727,9.67432727 10.2941091,9.5376 L9.75083636,8.32014545 C10.5166545,7.77905455 10.9981091,6.00887273 10.9981091,5.00014545 L10.9981091,3.00014545 C10.9981091,1.35069091 9.64974545,0.000145454545 8.00029091,0.000145454545 C6.35010909,0.000145454545 5.00174545,1.35069091 5.00174545,3.00014545 L5.00174545,5.00014545 C5.00174545,6.00887273 5.48392727,7.77905455 6.24974545,8.32014545 L5.70574545,9.5376 C5.65338182,9.67432727 5.5072,9.84669091 5.37992727,9.91941818 L0.763927273,12.5979636 C0.636654545,12.6714182 0.513018182,12.8496 0.489018182,12.9943273 L0.000290909091,15.9994182 L16.0002909,15.9994182 L15.5115636,12.9943273 Z" id="Fill-3"></path>
                    </g>
                </g>
            </g>
        </g>
    </g>
</svg>