<?xml version="1.0" encoding="UTF-8"?>
<svg width="15px" height="14px" viewBox="0 0 15 14" version="1.1" xmlns="http://www.w3.org/2000/svg" xmlns:xlink="http://www.w3.org/1999/xlink">
    <!-- Generator: Sketch 50.2 (55047) - http://www.bohemiancoding.com/sketch -->
    <title>variable</title>
    <desc>Created with Sketch.</desc>
    <defs></defs>
    <g id="SBG-Icon-Library" stroke="none" stroke-width="1" fill="none" fill-rule="evenodd">
        <g id="Abstract" transform="translate(-304.000000, -2093.000000)">
            <g id="VPN" transform="translate(0.000000, 2066.000000)"></g>
            <g id="variable" transform="translate(304.000000, 2093.000000)" fill="#58585B" fill-rule="nonzero">
                <path d="M13.271304,13.0946036 C13.271304,13.0946036 1.72869598,13.0946036 1.72869598,13.0946036 C0.761694947,13.0946036 0,12.3033783 0,11.3659076 C0,11.3659076 0,2.13744598 0,2.13744598 C0,1.17044495 0.761694947,0.40875 1.72869598,0.40875 C1.72869598,0.40875 13.271304,0.40875 13.271304,0.40875 C14.2383051,0.40875 15,1.17044495 15,2.13744598 C15,2.13744598 15,11.3659076 15,11.3659076 C15,12.3033783 14.2383051,13.0946036 13.271304,13.0946036 Z M14.0625,3.22125 C14.0625,3.22125 0.9375,3.22125 0.9375,3.22125 C0.9375,3.22125 0.9375,11.6092627 0.9375,11.6092627 C0.9375,11.9438107 1.20991935,12.1869415 1.54233871,12.1869415 C1.54233871,12.1869415 13.4576613,12.1869415 13.4576613,12.1869415 C13.7905645,12.1869415 14.0625,11.9438107 14.0625,11.6092627 C14.0625,11.6092627 14.0625,3.22125 14.0625,3.22125 Z M11.103403,10.1945379 C11.103403,10.1945379 10.4293616,10.1945379 10.4293616,10.1945379 C10.7223212,9.66721067 10.8980969,9.25706724 10.9862192,8.99316924 C11.1329333,8.55349548 11.1915253,8.02616821 11.1915253,7.44024902 C11.1915253,6.85432983 11.103403,6.29747223 10.9571576,5.82873688 C10.8690353,5.62343079 10.7518515,5.3304712 10.6056061,5.00845001 C10.6056061,5.00845001 11.2796475,5.00845001 11.2796475,5.00845001 C11.4263617,5.21375609 11.5140152,5.36000152 11.5435455,5.44812377 C11.6021374,5.56530761 11.6902597,5.71202177 11.7779132,5.91685912 C11.8660354,6.18075712 11.9246274,6.44418639 11.9832193,6.67855407 C12.0127496,6.94245207 12.0418112,7.17681975 12.0418112,7.41118742 C12.0418112,8.02663694 11.9536889,8.55396421 11.7488516,9.05176116 C11.6316678,9.31565916 11.4263617,9.69627226 11.1043405,10.1945379 L11.103403,10.1945379 Z M9.11127777,6.94245207 C8.99409393,6.94245207 8.8769101,6.91292174 8.75972626,6.88386015 C8.64254242,6.85479856 8.52535858,6.82526823 8.43723634,6.79573791 C8.40770601,6.82526823 8.34911409,6.88386015 8.26146058,6.97151366 C8.20286866,7.05963591 8.11474641,7.17681975 7.99756258,7.32306518 C8.11474641,7.70414702 8.17333833,7.96757629 8.23193025,8.14335204 C8.29052217,8.29006621 8.34911409,8.46584197 8.37864442,8.6120874 C8.43723634,8.75880156 8.49582826,8.84645507 8.5839505,8.93457732 C8.64254242,8.99316924 8.78925659,9.05176116 8.96503234,9.05176116 C9.02362426,9.05176116 9.11174651,9.02223083 9.19940002,8.99316924 C9.31658386,8.99316924 9.37517578,8.96363891 9.46329802,8.93457732 C9.46329802,8.93457732 9.37517578,9.25706724 9.37517578,9.25706724 C9.11127777,9.37425108 8.90644042,9.46237332 8.73066467,9.49143492 C8.52535858,9.55002684 8.37911315,9.57955716 8.23239899,9.57955716 C8.11521515,9.57955716 8.0270929,9.55002684 7.90990907,9.55002684 C7.79272523,9.52049651 7.70460298,9.49143492 7.61694947,9.432843 C7.52929596,9.37425108 7.47023531,9.31565916 7.38258179,9.22753691 C7.32398988,9.13941467 7.26539796,9.02223083 7.23586763,8.8759854 C7.2063373,8.78786315 7.17727571,8.67067931 7.14774538,8.55349548 C7.11821506,8.43631164 7.08915346,8.34818939 7.05962314,8.26053588 C7.00103122,8.34865813 6.9424393,8.43631164 6.91290897,8.49490356 C6.88337864,8.55349548 6.82478673,8.6120874 6.76619481,8.72927123 C6.56088872,9.02223083 6.38511297,9.22753691 6.26792913,9.37378234 C6.12121496,9.49096618 5.94543921,9.5495581 5.74060186,9.5495581 C5.5648261,9.5495581 5.44764226,9.52002777 5.33045842,9.40284393 C5.24233618,9.31472169 5.18374426,9.16847626 5.18374426,8.9927005 C5.18374426,8.78739442 5.24233618,8.61161866 5.38905034,8.46537323 C5.53576451,8.34818939 5.71154026,8.28959747 5.88731602,8.28959747 C6.03403019,8.28959747 6.1216837,8.28959747 6.23886754,8.3191278 C6.35605137,8.34865813 6.47323521,8.37771972 6.56135746,8.40725005 C6.59088778,8.37771972 6.6494797,8.3191278 6.73713321,8.23147429 C6.82478673,8.14382078 6.88384738,8.05569853 7.00103122,7.90898437 C6.91290897,7.58649445 6.82525546,7.32306518 6.79572513,7.14728942 C6.73713321,7.00057526 6.6785413,6.8247995 6.61994938,6.64902374 C6.59041905,6.50230958 6.50276554,6.41465607 6.41464329,6.32653382 C6.35605137,6.2679419 6.20933721,6.23841157 6.03356145,6.23841157 C5.97496953,6.23841157 5.88684729,6.23841157 5.79919378,6.2679419 C5.71154026,6.29747223 5.62341802,6.32653382 5.5648261,6.35606415 C5.5648261,6.35606415 5.65294835,6.00451263 5.65294835,6.00451263 C5.85825443,5.88732879 6.09262211,5.82873688 6.29745945,5.77014496 C6.47323521,5.71155304 6.64901097,5.71155304 6.79572513,5.71155304 C6.91290897,5.71155304 7.03009281,5.71155304 7.11821506,5.71155304 C7.17680697,5.74108336 7.29399081,5.77014496 7.38211306,5.82873688 C7.47023531,5.88732879 7.55788882,5.97545104 7.61648073,6.03404296 C7.67507265,6.12216521 7.73366457,6.23934904 7.79225649,6.38559447 C7.82178682,6.50277831 7.85084841,6.59090056 7.85084841,6.7080844 C7.88037874,6.79620664 7.90944033,6.91339048 7.93897066,6.9719824 C7.96850098,6.91339048 8.0270929,6.82526823 8.08568482,6.73761472 C8.14427674,6.64996121 8.20286866,6.56183897 8.23239899,6.50324705 C8.43770507,6.21028745 8.61348083,5.97591978 8.75972626,5.85873594 C8.90644042,5.71202177 9.08221618,5.65342985 9.25799194,5.65342985 C9.43376769,5.65342985 9.55095153,5.71202177 9.66813537,5.80014402 C9.78531921,5.91732786 9.81484954,6.06404202 9.81484954,6.21028745 C9.81484954,6.44465513 9.75625762,6.62043088 9.60954345,6.73761472 C9.46282929,6.85479856 9.31658386,6.94292081 9.11127777,6.94292081 L9.11127777,6.94245207 Z M4.54110809,10.1945379 C4.54110809,10.1945379 3.86706665,10.1945379 3.86706665,10.1945379 C3.54457673,9.69627226 3.33973938,9.31565916 3.22255555,9.05176116 C3.04677979,8.55349548 2.92959595,8.02616821 2.92959595,7.41118742 C2.92959595,7.17681975 2.95912628,6.94245207 2.98818787,6.67855407 C3.04677979,6.44418639 3.10537171,6.18028839 3.22255555,5.91685912 C3.28114746,5.71155304 3.36926971,5.56530761 3.42786163,5.44812377 C3.45739196,5.36000152 3.54504547,5.21375609 3.69175963,5.00845001 C3.69175963,5.00845001 4.39486266,5.00845001 4.39486266,5.00845001 C4.2190869,5.33093993 4.10190307,5.62389953 4.04331115,5.82873688 C3.86753539,6.29747223 3.77941314,6.85432983 3.77941314,7.44024902 C3.77941314,8.02616821 3.86753539,8.55349548 4.01378082,8.99316924 C4.10190307,9.25706724 4.27767882,9.66721067 4.54110809,10.1945379 Z" id="Shape"></path>
            </g>
        </g>
    </g>
</svg>