<?xml version="1.0" encoding="UTF-8"?>
<svg width="16px" height="16px" viewBox="0 0 16 16" version="1.1" xmlns="http://www.w3.org/2000/svg" xmlns:xlink="http://www.w3.org/1999/xlink">
    <!-- Generator: Sketch 49.3 (51167) - http://www.bohemiancoding.com/sketch -->
    <title>icon-view-restricted_icn</title>
    <desc>Created with Sketch.</desc>
    <defs></defs>
    <g id="SBG-Icon-Library" stroke="none" stroke-width="1" fill="none" fill-rule="evenodd">
        <g id="Actions" transform="translate(-292.000000, -4639.000000)" fill="#58585B">
            <g id="View-restricted" transform="translate(22.000000, 4611.000000)">
                <g id="View-Restricted" transform="translate(270.000000, 29.000000)">
                    <path d="M4.28655207,11.9205547 L6.94466508,9.2624417 C7.22792905,9.51430975 7.59676877,9.66666667 7.99991916,9.66666667 C8.89240097,9.66666667 9.61673403,8.92 9.61673403,8 C9.61673403,7.60259068 9.48157697,7.23752453 9.25609291,6.95101387 L11.9750374,4.23206939 C13.9847685,5.44496135 15.4595863,7.19949069 15.9260307,7.795 C16.0246564,7.91833333 16.0246564,8.08333333 15.9260307,8.205 C15.1871463,9.14666667 11.9179466,13 8.0004042,13 C6.66150215,13 5.39864624,12.5502736 4.28655207,11.9205547 Z M3.41798973,11.3749035 C1.72016873,10.2031394 0.491497291,8.73787475 0.0715440582,8.205 C-0.0238480194,8.08333333 -0.0238480194,7.91833333 0.0715440582,7.795 C0.813662086,6.85166667 4.08124495,3 8.0004042,3 C9.08123252,3 10.1127104,3.29318025 11.0553157,3.73757756 L8.40638085,6.38651237 C8.27649558,6.3518032 8.14028707,6.33333333 7.99991916,6.33333333 C7.10743735,6.33333333 6.38310428,7.08 6.38310428,8 C6.38310428,8.12707608 6.39692372,8.25084516 6.42309688,8.36979634 L3.41798973,11.3749035 Z" id="Combined-Shape"></path>
                    <rect id="Rectangle-26" transform="translate(7.028824, 7.088235) rotate(-45.000000) translate(-7.028824, -7.088235) " x="-1.94117647" y="6.58823529" width="17.9400005" height="1" rx="0.5"></rect>
                </g>
            </g>
        </g>
    </g>
</svg>