<?xml version="1.0" encoding="UTF-8"?>
<svg width="16px" height="16px" viewBox="0 0 16 16" version="1.1" xmlns="http://www.w3.org/2000/svg" xmlns:xlink="http://www.w3.org/1999/xlink">
    <!-- Generator: Sketch 49.3 (51167) - http://www.bohemiancoding.com/sketch -->
    <title>icon-view-metadata_icn</title>
    <desc>Created with Sketch.</desc>
    <defs></defs>
    <g id="SBG-Icon-Library" stroke="none" stroke-width="1" fill="none" fill-rule="evenodd">
        <g id="Actions" transform="translate(-292.000000, -4534.000000)" fill="#58585B">
            <g id="View-Metadata" transform="translate(0.000000, 4502.000000)">
                <g id="view_metadata_icn" transform="translate(292.000000, 32.000000)">
                    <g id="Group" transform="translate(4.000000, 5.000000)">
                        <g id="Group-3">
                            <path d="M4.0002021,5 C2.04062247,5 0.406831043,3.07333333 0.0357720291,2.6025 C-0.0119240097,2.54166667 -0.0119240097,2.45916667 0.0357720291,2.3975 C0.406831043,1.92583333 2.04062247,0 4.0002021,0 C5.95897332,0 7.59357316,1.92583333 7.96301536,2.3975 C8.01232821,2.45916667 8.01232821,2.54166667 7.96301536,2.6025 C7.59357316,3.07333333 5.95897332,5 4.0002021,5 Z M3.99995958,1.66666667 C3.55371867,1.66666667 3.19155214,2.04 3.19155214,2.5 C3.19155214,2.96 3.55371867,3.33333333 3.99995958,3.33333333 C4.44620049,3.33333333 4.80836702,2.96 4.80836702,2.5 C4.80836702,2.04 4.44620049,1.66666667 3.99995958,1.66666667 Z" id="Combined-Shape"></path>
                        </g>
                    </g>
                    <g id="Group-6" transform="translate(3.000000, 7.500000) rotate(180.000000) translate(-3.000000, -7.500000) translate(0.000000, 2.000000)">
                        <g id="triangle" transform="translate(3.000000, 5.500000) rotate(90.000000) translate(-3.000000, -5.500000) translate(-2.000000, 2.500000)">
                            <path d="M2.77579687,-2.17580313 C2.92939687,-2.17580313 3.08299687,-2.11455313 3.19999687,-1.99267813 L7.82419687,2.82419687 L3.19999687,7.64107187 C2.96539687,7.88544687 2.58619687,7.88544687 2.35159687,7.64107187 C2.11699687,7.39669687 2.11699687,7.00169687 2.35159687,6.75732187 L6.12739687,2.82419687 L2.35159687,-1.10892813 C2.11699687,-1.35330313 2.11699687,-1.74830313 2.35159687,-1.99267813 C2.46859687,-2.11455313 2.62219687,-2.17580313 2.77579687,-2.17580313" id="Imported-Layers" transform="translate(4.999922, 2.824275) rotate(-90.000000) translate(-4.999922, -2.824275) "></path>
                        </g>
                    </g>
                    <g id="Group-6" transform="translate(13.000000, 7.500000) scale(-1, 1) rotate(180.000000) translate(-13.000000, -7.500000) translate(10.000000, 2.500000)">
                        <g id="triangle" transform="translate(3.000000, 5.000000) rotate(90.000000) translate(-3.000000, -5.000000) translate(-2.000000, 2.000000)">
                            <path d="M2.77579687,-2.17580313 C2.92939687,-2.17580313 3.08299687,-2.11455313 3.19999687,-1.99267813 L7.82419687,2.82419687 L3.19999687,7.64107187 C2.96539687,7.88544687 2.58619687,7.88544687 2.35159687,7.64107187 C2.11699687,7.39669687 2.11699687,7.00169687 2.35159687,6.75732187 L6.12739687,2.82419687 L2.35159687,-1.10892813 C2.11699687,-1.35330313 2.11699687,-1.74830313 2.35159687,-1.99267813 C2.46859687,-2.11455313 2.62219687,-2.17580313 2.77579687,-2.17580313" id="Imported-Layers" transform="translate(4.999922, 2.824275) rotate(-90.000000) translate(-4.999922, -2.824275) "></path>
                        </g>
                    </g>
                </g>
            </g>
        </g>
    </g>
</svg>