<?xml version="1.0" encoding="UTF-8"?>
<svg width="16px" height="15px" viewBox="0 0 16 15" version="1.1" xmlns="http://www.w3.org/2000/svg" xmlns:xlink="http://www.w3.org/1999/xlink">
    <!-- Generator: Sketch 49.3 (51167) - http://www.bohemiancoding.com/sketch -->
    <title>icon-warning</title>
    <desc>Created with Sketch.</desc>
    <defs></defs>
    <g id="SBG-Icon-Library" stroke="none" stroke-width="1" fill="none" fill-rule="evenodd">
        <g id="Alerts/Notifications" transform="translate(-291.000000, -1292.000000)" fill="#58585B">
            <g id="Warning" transform="translate(0.000000, 1262.000000)">
                <path d="M299,39.9610446 C298.631998,39.9610446 298.33333,39.6630433 298.33333,39.2943749 L298.331997,35.294357 C298.331997,34.9263554 298.629998,34.6276874 298.998667,34.6276874 C299.366668,34.6276874 299.66667,34.9256887 299.66667,35.294357 L299.66667,39.2943749 C299.66667,39.6623766 299.368668,39.9610446 299,39.9610446 M299.473335,42.434389 C299.346668,42.5543895 299.173334,42.6277232 299,42.6277232 C298.826666,42.6277232 298.652665,42.5543895 298.526665,42.434389 C298.405997,42.3077218 298.33333,42.1343876 298.33333,41.9610535 C298.33333,41.7877194 298.405997,41.6137187 298.526665,41.4877181 C298.773332,41.2410503 299.226668,41.2410503 299.473335,41.4943848 C299.593336,41.6137187 299.66667,41.7877194 299.66667,41.9610535 C299.66667,42.1343876 299.593336,42.3077218 299.473335,42.434389 M306.884035,43.7630616 L299.483335,30.3570016 C299.210001,29.8809995 298.763332,29.8809995 298.489998,30.3570016 L291.115965,43.7630616 C290.84263,44.2383971 291.069298,44.6277321 291.6193,44.6277321 L306.3807,44.6277321 C306.930702,44.6277321 307.15737,44.2383971 306.884035,43.7630616" id="warning"></path>
            </g>
        </g>
    </g>
</svg>