<svg xmlns="http://www.w3.org/2000/svg" width="47" height="55" viewBox="0 0 47 55">
  <g fill="none" transform="translate(.299 .61)">
    <path fill="#FFF" d="M23.21,53.8874043 C23.0755956,53.8908805 22.9421817,53.8635135 22.82,53.8074043 L0.82,44.5474043 C0.446574493,44.3940007 0.202015145,44.0311061 0.2,43.6274043 L0.2,27.7174043 C0.2,27.1651195 0.64771525,26.7174043 1.2,26.7174043 C1.75228475,26.7174043 2.2,27.1651195 2.2,27.7174043 L2.2,42.9574043 L23.2,51.8074043 L44.2,42.9574043 L44.2,28.2874043 C44.2,27.7351195 44.6477153,27.2874043 45.2,27.2874043 C45.7522847,27.2874043 46.2,27.7351195 46.2,28.2874043 L46.2,43.6274043 C46.2,44.0286844 45.9595049,44.3909051 45.59,44.5474043 L23.59,53.8074043 C23.4705649,53.8611017 23.3409473,53.8883896 23.21,53.8874043 L23.21,53.8874043 Z"/>
    <path fill="#FFF" d="M32.81,15.1174043 C32.7368354,14.9293156 32.5880886,14.7805689 32.4,14.7074043 C32.2149631,14.6273047 32.0050369,14.6273047 31.82,14.7074043 L5.68,25.4974043 C5.3930195,25.6158562 5.2069406,25.8969541 5.20996284,26.2074043 C5.21701161,26.5182713 5.41031008,26.794412 5.7,26.9074043 L15.7,30.7874043 C15.7899585,30.8193181 15.8845558,30.8362105 15.98,30.8374043 C16.294535,30.8344221 16.5756326,30.6404252 16.69,30.3474043 C16.7645525,30.1612581 16.7645525,29.9535504 16.69,29.7674043 C16.6093066,29.5831423 16.4579768,29.4390186 16.27,29.3674043 L8.07,26.1774043 L32.4,16.1074043 C32.7815252,15.9422082 32.9630154,15.5039757 32.81,15.1174043 Z"/>
    <polygon fill="#73BA49" points="37.02 13.367 18.12 30.917 31.63 38.347"/>
    <polygon fill="#63B72F" points="18.12 41.727 22.38 34.427 18.12 32.077"/>
    <path fill="#74BA49" d="M1.3 22.2874043C.96356425 22.3065892.633990689 22.1869013.38826748 21.9562996.14254427 21.7256978.00219313279 21.4043794 0 21.0674043L0 21.0074043C0 20.3170483.559644077 19.7574043 1.25 19.7574043 1.94035592 19.7574043 2.5 20.3170483 2.5 21.0074043 2.50132314 21.6842298 1.97550371 22.2451039 1.3 22.2874043L1.3 22.2874043zM45.3 22.2874043C44.972059 22.2927478 44.6555659 22.1668939 44.4208464 21.9378076 44.1861268 21.7087213 44.052623 21.3953783 44.05 21.0674043L44.05 21.0074043C44.05 20.3170483 44.6096441 19.7574043 45.3 19.7574043 45.9903559 19.7574043 46.55 20.3170483 46.55 21.0074043 46.550191 21.7027768 45.9951816 22.2711065 45.3 22.2874043L45.3 22.2874043zM1.93 17.3874043C1.81175456 17.3847826 1.69424968 17.3679962 1.58 17.3374043 1.26174021 17.2445785.993390411 17.0291264.833984489 16.738445.674578567 16.4477636.637174229 16.105664.73 15.7874043L.73 15.6874043C.813488482 15.357449 1.02893084 15.0763159 1.32582713 14.9099027 1.62272342 14.7434894 1.97497005 14.7064275 2.3 14.8074043 2.62726575 14.8978965 2.904157 15.1166428 3.06793526 15.4140791 3.23171352 15.7115155 3.26851458 16.0624633 3.17 16.3874043L3.17 16.5074043C3.00018098 17.0451852 2.49369334 17.404628 1.93 17.3874043zM44.53 17.3874154C43.934037 17.3899087 43.4191884 16.9713326 43.3 16.3874043 43.1029359 15.7148366 43.4744875 15.0071192 44.14 14.7874043 44.4502847 14.6879267 44.7875763 14.7177959 45.0755507 14.870253 45.3635251 15.02271 45.5778403 15.2848679 45.67 15.5974043L45.67 15.7174043C45.8495712 16.3822323 45.462115 17.0680743 44.8 17.2574043 44.7127248 17.2902076 44.6222196 17.3136719 44.53 17.3274043L44.53 17.3874154zM3.95 12.7374059C3.71958554 12.7377884 3.49393212 12.6718281 3.3 12.5474043 3.01648482 12.377288 2.81265031 12.1009886 2.73378536 11.7798956 2.65492041 11.4588025 2.70755696 11.1195103 2.88 10.8374043L2.94 10.7374043C3.29898509 10.1464596 4.06905531 9.95841919 4.65999999 10.3174043 5.25094466 10.6763894 5.43898507 11.4464596 5.08 12.0374043L5.02 12.1374043C4.78998052 12.5078242 4.38601668 12.734346 3.95 12.7374059L3.95 12.7374059zM42.51 12.7374043C42.0653506 12.737536 41.6541033 12.5014496 41.43 12.1174043 41.0781992 11.5311551 41.2448947 10.7722521 41.81 10.3874043 42.081677 10.2045848 42.4158521 10.1396847 42.7362097 10.2075252 43.0565673 10.2753656 43.3357497 10.4701532 43.51 10.7474043L43.59 10.8674043C43.8141032 11.2555218 43.8151781 11.7334672 43.5928229 12.1225888 43.3704677 12.5117104 42.9581537 12.7534335 42.51 12.7574043L42.51 12.7374043zM7.09 8.77740425C6.58159198 8.77437629 6.12567006 8.46371813 5.93684871 7.99166476 5.74802737 7.51961139 5.86393071 6.98022313 6.23 6.62740425L6.28 6.56740425C6.76601058 6.07587082 7.55846657 6.07139367 8.05 6.55740425 8.54153343 7.04341483 8.54601058 7.83587082 8.06 8.32740425L7.96 8.42740425C7.72526965 8.65078687 7.41403111 8.77599778 7.09 8.77740425L7.09 8.77740425zM39.36 8.77740425C39.0339483 8.77645278 38.7213911 8.64711879 38.49 8.41740425 37.9775871 7.94478771 37.9375772 7.14903488 38.4 6.62740425 38.6184474 6.38323044 38.9259236 6.23717943 39.2532059 6.22213197 39.5804881 6.20708451 39.9000688 6.32430532 40.14 6.54740425L40.24 6.63740425C40.73348 7.10695029 40.7601615 7.88516193 40.3 8.38740425 40.052359 8.63598921 39.7103391 8.76697557 39.36 8.74740425L39.36 8.77740425zM11.09 5.68740425C10.5445642 5.66693811 10.0754746 5.29493872 9.93127903 4.76851043 9.78708346 4.24208213 10.0011276 3.6829635 10.46 3.38740425L10.53 3.38740425C11.1127072 3.06075097 11.8492684 3.24998989 12.2023557 3.81706956 12.5554431 4.38414922 12.4002539 5.12862897 11.85 5.50740425L11.72 5.58740425C11.5219274 5.6737923 11.3050877 5.70821131 11.09 5.68740425L11.09 5.68740425zM35.35 5.68740425C35.1195855 5.68778837 34.8939321 5.62182814 34.7 5.49740425 34.0909466 5.15185156 33.8726192 4.38102211 34.21 3.76740425 34.3697727 3.48157992 34.6369204 3.27126149 34.9522615 3.18304106 35.2676026 3.09482063 35.6051045 3.13598114 35.89 3.29740425L36.01 3.36740425C36.4926393 3.65881234 36.7204712 4.2372401 36.5662036 4.77951391 36.4119361 5.32178771 35.9137553 5.69367737 35.35 5.68740425L35.35 5.68740425zM15.69 3.57740425C15.0729945 3.58107992 14.5456066 3.13399999 14.4482212 2.52471726 14.3508358 1.91543452 14.7125893 1.32623773 15.3 1.13740425L15.4 1.13740425C15.7129041 1.02965332 16.0558975 1.05145102 16.3526439 1.1979461 16.6493903 1.34444117 16.8752659 1.60347748 16.98 1.91740425 17.1991313 2.57156638 16.8514427 3.28031617 16.2 3.50740425L16.09 3.50740425C15.9620458 3.55491594 15.8264848 3.57863913 15.69 3.57740425zM30.75 3.57740425C30.6280781 3.58044946 30.5064773 3.56356046 30.39 3.52740425L30.25 3.52740425C29.5927812 3.30925176 29.2368476 2.5996231 29.455 1.94240426 29.6731525 1.28518542 30.3827812.929251798 31.04 1.14740425L31.12 1.14740425C31.7038699 1.33503276 32.0653872 1.9185276 31.9734414 2.52487282 31.8814956 3.13121804 31.3632466 3.5813057 30.75 3.58740425L30.75 3.57740425zM20.63 2.50740425C19.9396441 2.54330274 19.3508985 2.01276018 19.315 1.32240425 19.2791015.632048322 19.8096441.0433027728 20.5.00740425002L20.61.00740425002C21.2975945-.0671541912 21.9154416.429809736 21.99 1.11740425 22.0645584 1.80499876 21.5675945 2.42284581 20.88 2.49740425L20.63 2.49740425 20.63 2.50740425zM25.81 2.50740425L25.56 2.50740425C24.8724055 2.43284581 24.3754416 1.81499876 24.45 1.12740425 24.5245584.439809736 25.1424055-.0571541912 25.83.01740425L25.9.01740425C26.5461953.0940114925 27.0255304.653567294 27.0020257 1.30386301 26.9785211 1.95415873 26.4600397 2.47764887 25.81 2.50740425L25.81 2.50740425z"/>
  </g>
</svg>
