<?xml version="1.0" encoding="UTF-8"?>
<svg width="57px" height="62px" viewBox="0 0 57 62" version="1.1" xmlns="http://www.w3.org/2000/svg" xmlns:xlink="http://www.w3.org/1999/xlink">
    <title>Web Appliance Dark</title>
    <g id="Iconography-(Product-Icons)-2.2.0?" stroke="none" stroke-width="1" fill="none" fill-rule="evenodd">
        <g id="Product-Icons-UPDATED" transform="translate(-525.000000, -1100.000000)" fill-rule="nonzero">
            <g id="Web-Appliance-Dark" transform="translate(525.000000, 1100.000000)">
                <polygon id="Path" fill="#6BBF4E" points="11 19.57 28.14 12.43 45.29 19.57 45.29 42.43 28.14 49.57 11 42.43"></polygon>
                <path d="M56.29,49.57 L56.29,12.43 C56.29,12.43 56.29,12.34 56.29,12.3 L56.29,12.3 C56.240619,11.9527733 56.0129429,11.6567944 55.69,11.52 L28.53,0.08 C28.2807184,-0.0255801913 27.9992816,-0.0255801913 27.75,0.08 L0.61,11.51 C0.29093499,11.6495328 0.067436916,11.9450049 0.02,12.29 L-1.58727198e-16,12.29 C-0.0055454879,12.3331559 -0.0055454879,12.3768441 -2.15105711e-16,12.42 L-2.15105711e-16,49.57 C-0.0055454879,49.6131559 -0.0055454879,49.6568441 1.81278603e-16,49.7 L-1.58727198e-16,49.7 C0.0441512476,50.0487267 0.268155479,50.3486645 0.59,50.49 L27.75,61.92 C27.8739863,61.970383 28.0061911,61.9975019 28.14,62 C28.274048,62 28.4066759,61.9725365 28.53,61.92 L55.67,50.49 C55.9957254,50.3514207 56.2239182,50.0509668 56.27,49.7 L56.27,49.7 C56.27,49.7 56.29,49.62 56.29,49.57 Z M2,14.38 L26.37,31 L2,47.61 L2,14.38 Z M29.12,2.49 L53.26,12.66 L29.14,29.11 L29.14,2.62 C29.14,2.62 29.12,2.54 29.12,2.49 Z M27.12,2.62 L27.12,29.11 L3,12.66 L27.17,2.49 C27.1563522,2.53240989 27.1463165,2.57589827 27.14,2.62 L27.12,2.62 Z M27.12,32.89 L27.12,59.38 C27.1154571,59.419871 27.1154571,59.460129 27.12,59.5 L3,49.34 L27.12,32.89 Z M29.12,59.38 L29.12,32.89 L53.26,49.34 L29.12,59.5 C29.12,59.5 29.14,59.42 29.14,59.38 L29.12,59.38 Z M29.92,31 L54.29,14.38 L54.29,47.61 L29.92,31 Z" id="Shape" fill="#FFFFFF"></path>
            </g>
        </g>
    </g>
</svg>