<?xml version="1.0" encoding="UTF-8"?>
<svg width="62px" height="62px" viewBox="0 0 62 62" version="1.1" xmlns="http://www.w3.org/2000/svg" xmlns:xlink="http://www.w3.org/1999/xlink">
    <title>Workload Dark</title>
    <g id="Iconography-(Product-Icons)-2.2.0?" stroke="none" stroke-width="1" fill="none" fill-rule="evenodd">
        <g id="Product-Icons-UPDATED" transform="translate(-522.000000, -1179.000000)" fill-rule="nonzero">
            <g id="Workload-Dark" transform="translate(522.000000, 1179.000000)">
                <path d="M59.52,20 C59.1211135,20.001389 58.7595531,19.7655887 58.6,19.4 C55.1485403,11.5119277 48.3704173,5.56539432 40.1002325,3.16991914 C31.8300476,0.774443969 22.9230305,2.17774588 15.79,7 C15.3316037,7.30927946 14.7092795,7.18839634 14.4,6.73 C14.0907205,6.27160366 14.2116037,5.64927946 14.67,5.34 C22.3013026,0.184898574 31.8295859,-1.31033 40.6731182,1.25945327 C49.5166506,3.82923653 56.7597992,10.197964 60.44,18.64 C60.5599446,18.8881682 60.5721374,19.1748398 60.4736982,19.4322964 C60.3752589,19.6897529 60.1749178,19.8951615 59.92,20 C59.7877087,20.0235746 59.6522913,20.0235746 59.52,20 Z" id="Path" fill="#FFFFFF"></path>
                <path d="M3.53,41.48 C3.0974261,41.4796813 2.71409783,41.201264 2.58,40.79 C-0.711253767,30.9216884 1.16655219,20.0604587 7.58,11.87 C7.91965512,11.4281722 8.5531722,11.3453449 8.995,11.685 C9.4368278,12.0246551 9.51965512,12.6581722 9.18,13.1 C3.17057927,20.7593013 1.40528444,30.9228923 4.48,40.16 C4.56511382,40.4132458 4.5453517,40.6900201 4.42512046,40.928604 C4.30488922,41.1671879 4.09418733,41.3477406 3.84,41.43 C3.73952731,41.4611413 3.63516859,41.4779733 3.53,41.48 Z" id="Path" fill="#FFFFFF"></path>
                <path d="M32,62 C31.4477153,62 31,61.5522847 31,61 C31,60.4477153 31.4477153,60 32,60 C43.9230426,60.0563265 54.6524101,52.7722781 59,41.67 C59.1321883,41.337743 59.4315923,41.1012465 59.7854294,41.0495964 C60.1392665,40.9979463 60.4937805,41.1389895 60.7154294,41.4195964 C60.9370783,41.7002033 60.9921883,42.077743 60.86,42.41 C56.2114375,54.2755537 44.7435046,62.0599199 32,62 Z" id="Path" fill="#FFFFFF"></path>
                <path d="M32,55.68 C18.3764652,55.6634699 7.33653009,44.6235348 7.32,31 C7.32,30.4477153 7.76771525,30 8.32,30 C8.87228475,30 9.32,30.4477153 9.32,31 C9.3125364,42.6538044 18.1383142,52.4165674 29.7337986,53.5810215 C41.3292829,54.7454756 51.920062,46.9325828 54.23,35.51 C54.2829946,35.2500613 54.4371045,35.0218322 54.658411,34.8755449 C54.8797175,34.7292575 55.1500825,34.6769015 55.41,34.73 C55.6717811,34.7807034 55.9024712,34.9338566 56.0508129,35.1554303 C56.1991546,35.3770041 56.2528614,35.6486461 56.2,35.91 C53.8391846,47.4030951 43.7330411,55.6592297 32,55.68 L32,55.68 Z" id="Path" fill="#FFFFFF"></path>
                <path d="M55.2,27.2302058 C54.7172392,27.2397357 54.2964736,26.9031232 54.2,26.43 C52.0111648,15.9046289 42.750513,8.35010617 32,8.32 C31.4477153,8.32 31,7.87228475 31,7.32 C31,6.76771525 31.4477153,6.32 32,6.32 C43.6980386,6.34134131 53.78369,14.5500104 56.18,26 C56.2330985,26.2599175 56.1807425,26.5302825 56.0344551,26.751589 C55.8881678,26.9728955 55.6599387,27.1270054 55.4,27.18 L55.2,27.2302058 Z" id="Path" fill="#FFFFFF"></path>
                <circle id="Oval" fill="#6BBF4E" cx="32" cy="31" r="11.05"></circle>
                <circle id="Oval" fill="#6BBF4E" cx="55.68" cy="31" r="5.74"></circle>
                <path d="M11.47,3.16 C9.14747746,3.16 7.05383531,4.55959409 6.16598149,6.70571304 C5.27812767,8.85183199 5.77105334,11.321491 7.41475594,12.96233 C9.05845855,14.603169 11.5289733,15.0917876 13.6735408,14.200193 C15.8181084,13.3085984 17.2140462,11.212519 17.2100088,8.89 C17.2044839,5.72379148 14.6362133,3.16 11.47,3.16 Z" id="Path" fill="#6BBF4E"></path>
            </g>
        </g>
    </g>
</svg>