<?xml version="1.0" encoding="UTF-8"?>
<svg width="62px" height="47px" viewBox="0 0 62 47" version="1.1" xmlns="http://www.w3.org/2000/svg" xmlns:xlink="http://www.w3.org/1999/xlink">
    <title>cisco-secure-email-cloud-on-light</title>
    <g id="Iconography-(Product-Icons)-2.2.0?" stroke="none" stroke-width="1" fill="none" fill-rule="evenodd">
        <g id="Product-Icons-UPDATED" transform="translate(-722.000000, -481.000000)">
            <g id="cisco-secure-email-cloud-on-light" transform="translate(723.000000, 482.000000)">
                <path d="M46.0525424,34.2966102 C53.7272974,34.0452489 59.8188668,27.750904 59.8188668,20.0720339 C59.8188668,12.3931638 53.7272974,6.09881887 46.0525424,5.84745763 C44.4633861,5.85487972 42.8881419,6.14410488 41.4,6.70169492 C37.7333209,1.3242877 31.0733147,-1.15519787 24.7827782,0.515189935 C18.4922418,2.18557775 13.9396553,7.64245299 13.4237288,14.1305085 C12.6424491,13.9196653 11.8379541,13.8069336 11.0288136,13.7949153 C5.36742684,13.7949153 0.777966102,18.384376 0.777966102,24.0457627 C0.777966102,29.7071494 5.36742684,34.2966102 11.0288136,34.2966102" id="Path" stroke="#0D274D" stroke-width="2" stroke-linecap="round"></path>
                <polygon id="Path" fill="#6ABF4B" fill-rule="nonzero" points="22.9423729 33.7169492 22.9423729 44.3338983 27.7322034 36.3711864"></polygon>
                <path d="M22.8813559,33.7322034 L27.6711864,36.3711864 L22.8813559,44.3338983 L22.8813559,33.7322034 M22.8813559,32.7254237 C22.6117082,32.7213377 22.3516935,32.8256022 22.1595736,33.0148547 C21.9674536,33.2041072 21.859322,33.4625247 21.859322,33.7322034 L21.859322,44.3338983 C21.8610533,44.7919585 22.1763335,45.1892116 22.6220339,45.2949202 L22.8813559,45.2949202 C23.2448902,45.2960164 23.5840095,45.1120873 23.7813559,44.8067797 L28.5559322,36.8440678 C28.6962952,36.615833 28.7350012,36.339362 28.6627119,36.0813559 C28.5815957,35.8243106 28.4075462,35.6067487 28.1745763,35.4711864 L23.4,32.8322034 C23.242429,32.7410714 23.0633783,32.6936756 22.8813559,32.6948915 L22.8813559,32.7254237 Z" id="Shape"></path>
                <polygon id="Path" fill="#6ABF4B" fill-rule="nonzero" points="39.9966102 15.9762712 9.62542373 27.6152542 21.920339 32.2525424"></polygon>
                <path d="M40.1491525,15.7627119 L21.8440678,32.1915254 L9.54915254,27.6152542 L40.0576271,15.8237288 M40.9728814,14.0237288 C40.8424434,13.9931745 40.7067092,13.9931745 40.5762712,14.0237288 L9.22881356,26.6847458 C8.84495373,26.8345766 8.59114737,27.2032001 8.58813559,27.6152542 C8.58918711,28.0325494 8.85139961,28.4045252 9.2440678,28.5457627 L21.5542373,33.1220339 C21.6758287,33.1367311 21.7987476,33.1367311 21.920339,33.1220339 C22.1776137,33.1216795 22.4263603,33.0297514 22.6220339,32.8627119 L41.7508475,15.7627119 C42.0555911,15.484585 42.1562592,15.0468125 42.0036154,14.663507 C41.8509716,14.2802015 41.4769197,14.0314768 41.0644068,14.0389831 L40.9728814,14.0237288 Z" id="Shape"></path>
                <polygon id="Path" fill="#6ABF4B" fill-rule="nonzero" points="42.0101695 15.4881356 36.5338983 40.0169492 22.8661017 32.7254237"></polygon>
                <path d="M42.0101695,15.4881356 L36.6101695,40.0169492 L22.8813559,32.7254237 L42.0254237,15.4881356 M42.0254237,14.4966102 C41.7681491,14.4969646 41.5194024,14.5888927 41.3237288,14.7559322 L22.1644068,31.9932203 C21.9206589,32.2059023 21.8002678,32.5269452 21.8440678,32.8474576 C21.8913829,33.1680088 22.0900875,33.4461952 22.3779661,33.5949153 L36.1067797,40.8864407 C36.2551974,40.9711735 36.4240841,41.0133952 36.5949153,41.0084746 C36.7356495,41.0390225 36.8812996,41.0390225 37.0220339,41.0084746 C37.3191333,40.8844608 37.5359923,40.6219472 37.6016949,40.3067797 L43.0169492,15.7627119 C43.1077253,15.334152 42.9019204,14.8975961 42.5135593,14.6949153 C42.3616346,14.6036048 42.1874161,14.5560906 42.0101695,14.5576271 L42.0254237,14.4966102 Z" id="Shape"></path>
            </g>
        </g>
    </g>
</svg>