<?xml version="1.0" encoding="UTF-8"?>
<svg width="60px" height="60px" viewBox="0 0 60 60" version="1.1" xmlns="http://www.w3.org/2000/svg" xmlns:xlink="http://www.w3.org/1999/xlink">
    <title>Firewall Light</title>
    <g id="Iconography-(Product-Icons)-2.2.0?" stroke="none" stroke-width="1" fill="none" fill-rule="evenodd">
        <g id="Product-Icons-UPDATED" transform="translate(-721.000000, -627.000000)" fill-rule="nonzero">
            <g id="Firewall-Light" transform="translate(721.000000, 627.000000)">
                <path d="M58.88,60 L17,60 C16.3814411,60 15.88,59.4985589 15.88,58.88 L15.88,44.13 L1.12,44.13 C0.821216774,44.1300119 0.53481438,44.0106405 0.324483797,43.798432 C0.114153215,43.5862235 -0.00266770761,43.2987713 -4.4705709e-05,43 L-4.4705709e-05,1.12 C-4.4705709e-05,0.50144108 0.50144108,0 1.12,0 L43,0 C43.6185589,0 44.12,0.50144108 44.12,1.12 L44.12,15.87 L58.88,15.87 C59.1787832,15.8699881 59.4651856,15.9893595 59.6755162,16.201568 C59.8858468,16.4137765 60.0026677,16.7012287 60.0000447,17 L60.0000447,58.88 C60.0000447,59.4985589 59.4985589,60 58.88,60 Z M18.11,57.76 L57.76,57.76 L57.76,18.11 L43,18.11 C42.389227,18.1045706 41.8954294,17.610773 41.89,17 L41.89,2.24 L2.24,2.24 L2.24,41.89 L17,41.89 C17.610773,41.8954294 18.1045706,42.389227 18.11,43 L18.11,57.76 Z" id="Shape" fill="#6BBF4E"></path>
                <path d="M43.44,45.11 C42.9776085,45.104981 42.5357678,44.9181866 42.21,44.59 C42.0489284,44.4350892 41.9227839,44.247577 41.84,44.04 C41.7450429,43.826017 41.6972933,43.5940903 41.7,43.36 C41.6896647,43.2502428 41.6896647,43.1397572 41.7,43.03 C41.7245648,42.9163293 41.7614494,42.8056755 41.81,42.7 C41.8471593,42.5921795 41.9011617,42.4909251 41.97,42.4 C42.0286172,42.3016975 42.0991511,42.2110111 42.18,42.13 C42.2634315,42.0489549 42.3537739,41.9753426 42.45,41.91 C42.5413164,41.8442479 42.6426085,41.7936019 42.75,41.76 C42.8528159,41.7129647 42.9599951,41.6761218 43.07,41.65 C43.2982631,41.6100254 43.5317369,41.6100254 43.76,41.65 C43.8723756,41.6791125 43.982632,41.7158647 44.09,41.76 C44.1947533,41.7998674 44.2952541,41.8501177 44.39,41.91 C44.4799887,41.9754054 44.5636841,42.0490574 44.64,42.13 C44.7268456,42.2080901 44.8010603,42.2991717 44.86,42.4 C44.924644,42.4952644 44.9814952,42.59559 45.03,42.7 C45.0717792,42.8064437 45.1019537,42.9170837 45.12,43.03 C45.1303353,43.1397572 45.1303353,43.2502428 45.12,43.36 C45.1197272,43.5919097 45.0791221,43.8220049 45,44.04 C44.9097525,44.2485104 44.776911,44.435851 44.61,44.59 C44.3020554,44.9083072 43.8826239,45.0947211 43.44,45.11 Z" id="Path" fill="#06144D"></path>
                <path d="M34.9999712,43.36 C34.9999712,42.3990245 35.7790245,41.6199712 36.74,41.6199712 L36.74,41.6199712 C37.2032069,41.6173378 37.648356,41.7994828 37.9768354,42.1260851 C38.3053147,42.4526874 38.49,42.8967855 38.49,43.36 L38.49,43.36 C38.49,44.3264983 37.7064983,45.11 36.74,45.11 L36.74,45.11 C36.2767855,45.11 35.8326874,44.9253147 35.5060851,44.5968354 C35.1794828,44.268356 34.9973378,43.8232069 34.9999712,43.36 L34.9999712,43.36 Z M28.28,43.36 C28.279937,42.4067811 29.0468441,41.6309565 30,41.62 L30,41.62 C30.9609755,41.62 31.7400288,42.3990245 31.7400288,43.36 L31.7400288,43.36 C31.7426622,43.8232069 31.5605172,44.268356 31.2339149,44.5968354 C30.9073126,44.9253147 30.4632145,45.11 30,45.11 L30,45.11 C29.0374092,45.1044994 28.26,44.3226065 28.26,43.36 L28.28,43.36 Z M21.56,43.36 C21.5599924,42.8967855 21.7446853,42.4526874 22.0731646,42.1260851 C22.401644,41.7994828 22.8467931,41.6173378 23.31,41.6199712 L23.31,41.6199712 C24.2513943,41.6470627 25.0003889,42.4182169 25.0000288,43.36 L25.0000288,43.36 C25.0026622,43.8232069 24.8205172,44.268356 24.4939149,44.5968354 C24.1673126,44.9253147 23.7232145,45.11 23.26,45.11 L23.26,45.11 C22.3052375,45.0936302 21.5398597,44.3149028 21.54,43.36 L21.56,43.36 Z" id="Shape" fill="#06144D"></path>
                <path d="M14.8299711,36.65 C14.8273402,36.188521 15.0081151,35.7448872 15.3325547,35.4166969 C15.6569942,35.0885066 16.0985209,34.9026446 16.56,34.9 L16.56,34.9 C17.5264983,34.9 18.31,35.6835017 18.31,36.65 L18.31,36.65 C18.3044994,37.6125908 17.5226065,38.39 16.56,38.39 L16.56,38.39 C15.6029321,38.3844995 14.8299711,37.6070837 14.8299711,36.65 L14.8299711,36.65 Z M14.8299711,29.93 C14.8273402,29.468521 15.0081151,29.0248872 15.3325547,28.6966969 C15.6569942,28.3685066 16.0985209,28.1826446 16.56,28.18 L16.56,28.18 C17.5264983,28.18 18.31,28.9635017 18.31,29.93 L18.31,29.93 C18.2991017,30.8903189 17.5203656,31.6646051 16.56,31.67 L16.56,31.67 C15.6052039,31.6591026 14.8353941,30.8848431 14.8299711,29.93 L14.8299711,29.93 Z M14.8299702,23.21 C14.8244365,22.247365 15.5974116,21.4609856 16.56,21.45 L16.56,21.45 C17.5281136,21.4555007 18.31,22.2418707 18.31,23.21 L18.31,23.21 C18.299043,24.1686788 17.5187414,24.9400626 16.56,24.94 L16.56,24.94 C15.6068192,24.9345375 14.8354625,24.1631808 14.8299702,23.21 L14.8299702,23.21 Z" id="Shape" fill="#06144D"></path>
                <path d="M16.57,18.22 C15.6057361,18.2200623 14.8209575,17.4442017 14.81,16.48 C14.8128402,16.0171572 14.9999716,15.5745194 15.33,15.25 C15.4120379,15.1713651 15.498871,15.0978909 15.59,15.03 C15.6860434,14.9661566 15.7903353,14.9156927 15.9,14.88 C16.0016311,14.8300575 16.109142,14.7931006 16.22,14.77 C16.7936995,14.6576677 17.3857351,14.8375266 17.8,15.25 C17.8783218,15.3296017 17.9486576,15.4166842 18.01,15.51 C18.0770188,15.6056755 18.1308366,15.7099475 18.17,15.82 C18.221474,15.9209879 18.2585027,16.0287076 18.28,16.14 C18.2896508,16.2531279 18.2896508,16.3668721 18.28,16.48 C18.2843197,16.9422906 18.1001757,17.3864026 17.77,17.71 C17.6015091,17.8689399 17.4091822,18.0005319 17.2,18.1 C16.998423,18.1757879 16.785323,18.2163784 16.57,18.22 L16.57,18.22 Z" id="Path" fill="#06144D"></path>
                <path d="M34.9999709,16.48 C34.99732,16.0177069 35.1797801,15.5735723 35.5066762,15.2466762 C35.8335723,14.9197801 36.2777069,14.73732 36.74,14.7399709 L36.74,14.7399709 C37.2032069,14.7373378 37.648356,14.9194828 37.9768354,15.2460851 C38.3053147,15.5726874 38.49,16.0167855 38.49,16.48 L38.49,16.48 C38.49,16.9432145 38.3053147,17.3873126 37.9768354,17.7139149 C37.648356,18.0405172 37.2032069,18.2226622 36.74,18.2200288 L36.74,18.2200288 C35.7790245,18.2200288 34.9999709,17.4409755 34.9999709,16.48 Z M28.28,16.48 C28.279937,15.5267811 29.0468441,14.7509565 30,14.7399709 L30,14.7399709 C30.4622931,14.73732 30.9064277,14.9197801 31.2333238,15.2466762 C31.5602199,15.5735723 31.74268,16.0177069 31.7400291,16.48 L31.7400291,16.48 C31.7400291,17.4409755 30.9609755,18.22 30,18.22 L30,18.22 C29.0390245,18.22 28.26,17.4409755 28.26,16.48 L28.28,16.48 Z M21.56,16.48 C21.5599924,16.0167855 21.7446853,15.5726874 22.0731646,15.2460851 C22.401644,14.9194828 22.8467931,14.7373378 23.31,14.7399712 L23.31,14.7399712 C24.2513943,14.7670627 25.0003889,15.5382169 25.0000002,16.48 L25.0000002,16.48 C24.9945372,17.4387036 24.2187036,18.2145372 23.26,18.22 L23.26,18.22 C22.3068441,18.2090435 21.539937,17.4332189 21.54,16.48 L21.56,16.48 Z" id="Shape" fill="#06144D"></path>
                <path d="M41.6999712,36.65 C41.6973378,36.1867931 41.8794828,35.741644 42.2060851,35.4131646 C42.5326874,35.0846853 42.9767855,34.9 43.44,34.9 L43.44,34.9 C43.9032145,34.9 44.3473126,35.0846853 44.6739149,35.4131646 C45.0005172,35.741644 45.1826622,36.1867931 45.1800291,36.65 L45.1800291,36.65 C45.18268,37.1122931 45.0002199,37.5564277 44.6733238,37.8833238 C44.3464277,38.2102199 43.9022931,38.39268 43.44,38.3900291 L43.44,38.3900291 C42.9785233,38.3900291 42.5359475,38.2066791 42.2096342,37.8803658 C41.8833209,37.5540525 41.6999712,37.1114767 41.6999712,36.65 L41.6999712,36.65 Z M41.6999712,29.93 C41.6973378,29.4667931 41.8794828,29.021644 42.2060851,28.6931646 C42.5326874,28.3646853 42.9767855,28.18 43.44,28.18 L43.44,28.18 C43.9032145,28.18 44.3473126,28.3646853 44.6739149,28.6931646 C45.0005172,29.021644 45.1826622,29.4667931 45.1800288,29.93 L45.1800288,29.93 C45.1800288,30.8909755 44.4009755,31.67 43.44,31.67 L43.44,31.67 C42.4812964,31.6645372 41.7054628,30.8887036 41.6999712,29.93 Z M41.6999712,23.21 C41.6973402,22.7458689 41.8791687,22.2996916 42.2054836,21.9696259 C42.5317986,21.6395602 42.9758688,21.4526446 43.44,21.45 L43.44,21.45 C43.9041312,21.4526446 44.3482014,21.6395602 44.6745164,21.9696259 C45.0008313,22.2996916 45.1826598,22.7458689 45.1800288,23.21 L45.1800288,23.21 C45.1800288,23.6705624 44.9963683,24.112117 44.6697643,24.4368439 C44.3431604,24.7615708 43.9005547,24.9426622 43.44,24.9400289 L43.44,24.9400289 C42.4829163,24.9400289 41.7055005,24.1670679 41.6999712,23.21 L41.6999712,23.21 Z" id="Shape" fill="#06144D"></path>
            </g>
        </g>
    </g>
</svg>