<?xml version="1.0" encoding="UTF-8"?>
<svg width="64px" height="49px" viewBox="0 0 64 49" version="1.1" xmlns="http://www.w3.org/2000/svg" xmlns:xlink="http://www.w3.org/1999/xlink">
    <title>Secure Network Analytics Light</title>
    <g id="Iconography-(Product-Icons)-2.2.0?" stroke="none" stroke-width="1" fill="none" fill-rule="evenodd">
        <g id="Product-Icons-UPDATED" transform="translate(-720.000000, -871.000000)">
            <g id="Secure-Network-Analytics-Light" transform="translate(720.000000, 871.000000)">
                <circle id="Oval" stroke="#06144D" stroke-width="2" cx="9.73" cy="43.19" r="4.33"></circle>
                <circle id="Oval" fill="#06144D" fill-rule="nonzero" cx="29.98" cy="28.38" r="7.47"></circle>
                <circle id="Oval" fill="#6ABF4B" fill-rule="nonzero" cx="59.5" cy="6.93" r="4.33"></circle>
                <path d="M49.85,5.5 C51.0865901,6.54885715 52.2124682,7.72164691 53.21,9 L53.21,9.05 C53.21,9.11 53.3,9.18 53.35,9.25 C58.89,8.39 60.21,7.45 60.48,7.17 C60.24,6.9 58.85,5.9 52.81,5 C51.5,4.81 50.06,4.64 48.55,4.49 C48.9,4.75 49.25,5.01 49.55,5.28 L49.85,5.5 Z" id="Path"></path>
                <path d="M25.72,4.16 L25.24,4.39 C24.97,4.53 24.69,4.67 24.43,4.82 C24.17,4.97 23.9,5.14 23.64,5.3 C27.1588985,4.88688456 30.6971595,4.65990178 34.24,4.62 L36.6,4.62 C39.88,4.62 42.78,4.73 45.31,4.91 C44.86,4.65 44.4,4.41 43.92,4.19 C41.02,4.02 37.92,3.93 34.76,3.93 C31.6,3.93 28.59,4 25.72,4.16 Z" id="Path"></path>
                <path d="M36.6,10.27 C30.8080176,10.3714142 25.0201154,9.90248697 19.32,8.87 L18.87,9.35 C18.8,9.44 18.72,9.52 18.65,9.6 C23.9986344,10.2005808 29.377824,10.4877381 34.76,10.46 C40.1856387,10.4857708 45.6081675,10.1952782 51,9.59 L50.85,9.4 C46.1261094,10.0220476 41.3644787,10.3127576 36.6,10.27 L36.6,10.27 Z" id="Path"></path>
                <path d="M43.94,12.05 L43.57,12.05 L43.94,12.05 Z" id="Path"></path>
                <path d="M15.14,7.43 C15.55,7.03 16.94,6.5 19.26,6.01 C19.8524951,5.47370184 20.4733909,4.96964127 21.12,4.5 C19.55,4.65 18.07,4.82 16.71,5.02 C10.67,5.9 9.28,6.9 9,7.18 C9.28,7.46 10.62,8.42 16.28,9.28 C16.53,8.95 16.77,8.61 17.04,8.28 C16.3555907,8.12840657 15.7091584,7.83921319 15.14,7.43 Z" id="Path"></path>
                <path d="M34.24,4.62 C34.4015857,4.73289606 34.592933,4.7955188 34.79,4.8 C38.9,4.8 42.58,4.94 45.79,5.16 C45.63,5.06 45.46,4.98 45.3,4.89 C42.77,4.71 39.87,4.6 36.59,4.6 L34.24,4.62 Z" id="Path"></path>
                <polygon id="Path" points="23.64 5.3 23.64 5.3 23.59 5.3"></polygon>
                <path d="M13.61,23.3 C13.61,22.7 13.61,22.11 13.7,21.52 C13.65,22.11 13.61,22.7 13.61,23.3 Z" id="Path"></path>
                <path d="M43.57,12.07 C40.77,12.22 37.81,12.3 34.76,12.3 C28.9493089,12.2882408 23.1437367,11.9543954 17.37,11.3 C17.16,11.61 16.95,11.92 16.75,12.24 L16.48,12.7 C16.25,13.09 16.04,13.5 15.83,13.9 C15.76,14.06 15.68,14.21 15.61,14.37 C15.41,14.79 15.23,15.22 15.06,15.66 C15,15.8 14.95,15.95 14.9,16.1 C14.73,16.55 14.57,17.02 14.44,17.49 L14.35,17.83 C14.21,18.35 14.09,18.83 13.99,19.39 C13.8576951,20.0946908 13.7609062,20.8055883 13.7,21.52 L13.7,21.52 C13.7,22.11 13.61,22.7 13.61,23.3 C13.61,35.0194824 23.1105176,44.52 34.83,44.52 C46.5494824,44.52 56.05,35.0194824 56.05,23.3 C56.0489179,19.008763 54.7332176,14.8208577 52.28,11.3 C49.79,11.64 46.97,11.89 43.94,12.07 L43.57,12.07 Z" id="Path"></path>
                <path d="M22.77,5.86 C22.53,6.02 22.3,6.21 22.06,6.38 C21.82,6.55 21.49,6.81 21.22,7.03 L21.02,7.22 C20.4600291,7.70491932 19.9259577,8.21896307 19.42,8.76 L19.32,8.87 C25.0201154,9.90248697 30.8080176,10.3714142 36.6,10.27 C41.357808,10.3118248 46.1127232,10.0211167 50.83,9.4 C49.3893197,7.73994531 47.7031468,6.31007065 45.83,5.16 C42.61,4.94 38.93,4.8 34.83,4.8 C34.632933,4.7955188 34.4415857,4.73289606 34.28,4.62 C30.7371595,4.65990178 27.1988985,4.88688456 23.68,5.3 L23.62,5.3 C23.31,5.5 23,5.67 22.77,5.86 Z" id="Path"></path>
                <path d="M11.48,26.37 C11.5767775,26.3927634 11.6706976,26.4263063 11.76,26.47 C11.6110742,25.4199413 11.5375527,24.360564 11.54,23.3 C11.54,22.78 11.54,22.3 11.59,21.76 C5.38,22.58 2.85,23.55 2.19,24.07 C2.68,24.44 4.61,25.46 11.48,26.37 Z" id="Path"></path>
                <path d="M11.48,26.37 C4.61,25.46 2.68,24.44 2.19,24.07 C2.85,23.55 5.38,22.58 11.59,21.76 C11.6342693,21.046428 11.7143703,20.3355314 11.83,19.63 C0,21.09 0,23.27 0,24.08 C0,25.5 1.33,27.08 11.21,28.43 L11.35,28.43 C11.6123399,28.4288954 11.8637394,28.3247442 12.05,28.14 C11.93,27.59 11.83,27.03 11.76,26.46 C11.6702809,26.4197409 11.5763735,26.3895564 11.48,26.37 L11.48,26.37 Z" id="Path" fill="#06144D" fill-rule="nonzero"></path>
                <path d="M21,7.22 L21.2,7.03 C21.47,6.81 21.76,6.6 22.04,6.38 C22.32,6.16 22.51,6.02 22.75,5.86 C22.99,5.7 23.29,5.5 23.56,5.33 L23.61,5.33 C21.9,5.54 20.44,5.78 19.24,6.04 C18.4393502,6.73783955 17.6906952,7.49317897 17,8.3 C17.61,8.49 18.38,8.68 19.27,8.87 C19.3091286,8.83588078 19.3458808,8.79912856 19.38,8.76 C19.8924388,8.21843183 20.4331959,7.70437879 21,7.22 L21,7.22 Z" id="Path" fill="#6ABF4B" fill-rule="nonzero"></path>
                <path d="M45.11,2.41 C38.6587413,-0.776715734 31.0912587,-0.776715734 24.64,2.41 C27.82,2.21 31.24,2.1 34.76,2.1 C35.22,2.06 39.8,2.07 45.11,2.41 Z" id="Path" fill="#6ABF4B" fill-rule="nonzero"></path>
                <path d="M14.35,17.82 L14.44,17.48 C14.57,17.01 14.73,16.54 14.9,16.09 C14.9,15.94 15,15.79 15.06,15.65 C15.23,15.21 15.41,14.78 15.61,14.36 C15.68,14.2 15.76,14.05 15.83,13.89 C16.04,13.49 16.25,13.08 16.48,12.69 L16.75,12.23 C16.95,11.91 17.16,11.6 17.37,11.29 C16.59,11.18 15.83,11.07 15.1,10.95 C13.4355895,13.5931038 12.3232661,16.5456932 11.83,19.63 C12.51,19.54 13.22,19.46 13.99,19.38 C14.09,18.85 14.21,18.34 14.35,17.82 Z" id="Path" fill="#6ABF4B" fill-rule="nonzero"></path>
                <path d="M19.42,8.76 C19.3858808,8.79912856 19.3491286,8.83588078 19.31,8.87 L19.31,8.87 L19.42,8.76 Z" id="Path" fill="#6ABF4B" fill-rule="nonzero"></path>
                <path d="M19.42,8.76 C19.9194753,8.21948871 20.4468614,7.70545414 21,7.22 C20.4468614,7.70545414 19.9194753,8.21948871 19.42,8.76 L19.42,8.76 Z" id="Path" fill="#6ABF4B" fill-rule="nonzero"></path>
                <path d="M53.32,11.14 L53.32,11.14 L52.32,11.29 C54.7732176,14.8108577 56.0889179,18.998763 56.09,23.29 C56.09,35.0094824 46.5894824,44.51 34.87,44.51 C23.1505176,44.51 13.65,35.0094824 13.65,23.29 C13.65,22.69 13.65,22.1 13.74,21.51 L13.74,21.51 L11.63,21.76 C11.63,22.27 11.5799409,22.76 11.5799409,23.3 C11.5775527,24.360564 11.6510742,25.4199413 11.8,26.47 C12.2249159,26.6442739 12.4764983,27.0855741 12.41,27.54 C12.3789415,27.7748141 12.2655426,27.9909808 12.09,28.15 C13.969656,37.2909946 21.1242863,44.4273629 30.2700549,46.2836508 C39.4158235,48.1399388 48.7865743,44.3576753 54.0813152,36.6728456 C59.376056,28.988016 59.5723099,18.8846516 54.58,11 L53.47,11.18 L53.32,11.14 Z" id="Path" fill="#6ABF4B" fill-rule="nonzero"></path>
                <path d="M50.83,9.4 C51.7,9.27 52.5,9.14 53.21,9.01 C52.2129978,7.72815988 51.0871021,6.55200091 49.85,5.5 C48.6,5.37 47.24,5.26 45.8,5.16 C47.6837833,6.30757506 49.3802123,7.73756691 50.83,9.4 L50.83,9.4 Z" id="Path" fill="#6ABF4B" fill-rule="nonzero"></path>
                <path d="M13.7,21.51 C13.7642146,20.795418 13.8643412,20.0845194 14,19.38 C13.23,19.46 12.52,19.54 11.84,19.63 C11.7243703,20.3355314 11.6442693,21.046428 11.6,21.76 L13.7,21.51 Z" id="Path" fill="#6ABF4B" fill-rule="nonzero"></path>
                <path d="M11.76,26.47 C11.83,27.04 11.93,27.6 12.05,28.15 C12.2255426,27.9909808 12.3389415,27.7748141 12.37,27.54 C12.4364983,27.0855741 12.1849159,26.6442739 11.76,26.47 Z" id="Path" fill="#6ABF4B" fill-rule="nonzero"></path>
                <polygon id="Path" fill="#6ABF4B" fill-rule="nonzero" points="53.3 11.13 53.47 11.13 54.58 11 54.58 11 53.83 11.12"></polygon>
                <path d="M49.85,5.5 L49.59,5.3 C48.3,5.14 46.89,5 45.31,4.89 C45.47,4.98 45.64,5.06 45.8,5.16 C47.24,5.26 48.6,5.37 49.85,5.5 Z" id="Path" fill="#6ABF4B" fill-rule="nonzero"></path>
                <path d="M24.43,4.82 C24.16,4.97 23.9,5.14 23.63,5.3 L23.63,5.3 C23.9,5.14 24.16,5 24.43,4.82 Z" id="Path" fill="#6ABF4B" fill-rule="nonzero"></path>
                <path d="M23.63,5.3 C23.9,5.14 24.16,4.97 24.43,4.82 C24.7,4.67 24.97,4.53 25.24,4.39 L25.72,4.16 C24.12,4.25 22.58,4.36 21.12,4.5 C20.4736384,4.96639988 19.8527473,5.4671185 19.26,6 C20.46,5.75 21.92,5.51 23.63,5.3 Z" id="Path" fill="#6ABF4B" fill-rule="nonzero"></path>
                <path d="M18.65,9.6 C18.72,9.52 18.8,9.44 18.87,9.35 L19.31,8.87 C18.42,8.68 17.65,8.49 17.04,8.3 C16.77,8.61 16.53,8.95 16.28,9.3 L16.71,9.37 C17.33,9.44 18,9.52 18.65,9.6 Z" id="Path" fill="#6ABF4B" fill-rule="nonzero"></path>
                <polygon id="Path" fill="#6ABF4B" fill-rule="nonzero" points="19.31 8.87 18.87 9.35 19.32 8.87"></polygon>
                <path d="M51,9.59 L52.63,9.37 C52.7790951,9.2117879 52.9756865,9.1064711 53.19,9.07 L53.27,9.07 L53.27,9.02 C52.56,9.15 51.76,9.28 50.89,9.41 L51,9.59 Z" id="Path" fill="#6ABF4B" fill-rule="nonzero"></path>
                <path d="M53.17,9.07 C52.9556865,9.1064711 52.7590951,9.2117879 52.61,9.37 L52.81,9.37 L53.39,9.28 C53.39,9.21 53.3,9.14 53.25,9.08 L53.17,9.07 Z" id="Path" fill="#6ABF4B" fill-rule="nonzero"></path>
                <path d="M45.31,4.89 C46.89,5 48.31,5.14 49.59,5.3 C49.25,5.03 48.9,4.77 48.59,4.51 C47.12,4.37 45.59,4.26 43.96,4.17 C44.4,4.39 44.86,4.63 45.31,4.89 Z" id="Path" fill="#6ABF4B" fill-rule="nonzero"></path>
                <path d="M16.28,9.28 C10.62,8.42 9.28,7.46 9,7.18 C9.28,6.9 10.67,5.9 16.71,5 C18.07,4.8 19.55,4.63 21.12,4.48 C21.65,4.09 22.19,3.72 22.75,3.38 C23.31,3.04 24,2.67 24.64,2.38 C21.34,2.59 18.31,2.9 15.71,3.31 C8.08,4.5 7.1,6 7.1,7.18 C7.1,9.02 10.6,10.18 15.1,10.95 C15.31,10.61 15.54,10.27 15.77,9.95 C16,9.63 16.11,9.5 16.28,9.28 Z" id="Path" fill="#6ABF4B" fill-rule="nonzero"></path>
                <path d="M18.65,9.6 L18.65,9.6 C18.38,9.91 18.13,10.25 17.89,10.6 C24.27,12.21 34.94,12.28 36.61,12.28 C37.39,12.28 40.18,12.28 43.61,12.08 L43.98,12.08 C46.63,11.92 49.61,11.67 52.28,11.24 C51.89,10.68 51.46,10.14 51.02,9.62 C45.6347964,10.2245026 40.2189682,10.514994 34.8,10.49 C29.4038961,10.5093408 24.0113027,10.2121638 18.65,9.6 L18.65,9.6 Z" id="Path" fill="#6ABF4B" fill-rule="nonzero"></path>
                <path d="M62.42,7.18 C62.42,4.18 52.97,2.92 45.11,2.41 C45.47,2.59 45.82,2.77 46.17,2.97 L46.45,3.11 C47.18,3.54 47.87,4.02 48.55,4.51 C50.06,4.66 51.55,4.83 52.81,5.02 C58.81,5.9 60.24,6.9 60.52,7.18 C60.25,7.46 58.93,8.4 53.39,9.26 C53.77,9.76 54.13,10.26 54.46,10.79 L54.56,10.94 C61.49,9.76 62.42,8.32 62.42,7.18 Z" id="Path" fill="#6ABF4B" fill-rule="nonzero"></path>
                <path d="M30,2.65 C29.76,2.71 29.51,2.75 29.26,2.82 L29.37,2.82 L30,2.65 Z" id="Path" fill="#6ABF4B" fill-rule="nonzero"></path>
                <path d="M43.57,12.07 C40.17,12.25 37.38,12.27 36.57,12.27 C34.9,12.27 24.23,12.2 17.85,10.59 L17.77,10.69 L17.46,11.1 L17.34,11.29 C23.1137367,11.9443954 28.9193089,12.2782408 34.73,12.29 C37.81,12.3 40.77,12.22 43.57,12.07 Z" id="Path" fill="#6ABF4B" fill-rule="nonzero"></path>
                <path d="M43.94,12.05 C46.94,11.87 49.79,11.62 52.28,11.28 C52.2832828,11.2567821 52.2832828,11.2332179 52.28,11.21 C49.57,11.64 46.59,11.89 43.94,12.05 Z" id="Path" fill="#6ABF4B" fill-rule="nonzero"></path>
                <path d="M29.26,2.82 C29.51,2.75 29.76,2.71 30,2.65 C30.24,2.59 30.52,2.52 30.78,2.47 C31.22,2.39 31.67,2.33 32.11,2.27 C32.33,2.27 32.55,2.2 32.78,2.18 C33.444411,2.10995168 34.1119145,2.07323899 34.78,2.07 C36.3734725,2.07534011 37.9608773,2.26663413 39.51,2.64 C41.29,2.64 43.64,2.78 46.12,2.97 C45.77,2.77 45.42,2.59 45.06,2.41 C39.75,2.07 35.17,2.06 34.71,2.06 C31.19,2.06 27.77,2.17 24.59,2.37 C23.95,2.69 23.31,3.02 22.7,3.37 C24.92,3.12 27.19,2.93 29.26,2.82 Z" id="Path" fill="#6ABF4B" fill-rule="nonzero"></path>
                <path d="M17.49,11.1 L17.8,10.69 L17.87,10.59 C17.1570487,10.4176332 16.4556605,10.2005369 15.77,9.94 C15.54,10.27 15.31,10.61 15.1,10.94 C15.83,11.06 16.59,11.17 17.37,11.28 L17.49,11.1 Z" id="Path" fill="#6ABF4B" fill-rule="nonzero"></path>
                <polygon id="Path" fill="#6ABF4B" fill-rule="nonzero" points="17.87 10.59 17.8 10.69 17.88 10.59"></polygon>
                <path d="M52.28,11.28 L53.28,11.13 C53.1812923,11.1288299 53.0834004,11.111952 52.99,11.08 L52.22,11.21 C52.2441667,11.2294118 52.2645126,11.2531487 52.28,11.28 L52.28,11.28 Z" id="Path" fill="#6ABF4B" fill-rule="nonzero"></path>
                <path d="M53,11.08 C53.0934004,11.111952 53.1912923,11.1288299 53.29,11.13 L53.8,11.06 L54.55,10.94 L54.45,10.79 C54,10.9 53.51,11 53,11.08 Z" id="Path" fill="#6ABF4B" fill-rule="nonzero"></path>
                <polygon id="Path" fill="#6ABF4B" fill-rule="nonzero" points="29.37 2.81 29.26 2.81 28.85 2.93"></polygon>
                <path d="M40.32,2.82 C42.17,2.87 44.32,2.97 46.45,3.11 L46.17,3 C43.69,2.81 41.34,2.71 39.56,2.67 C39.81,2.7 40.07,2.75 40.32,2.82 Z" id="Path" fill="#6ABF4B" fill-rule="nonzero"></path>
                <path d="M26.18,3.93 L27,3.59 C27.35,3.45 27.69,3.33 28,3.21 L28.81,2.94 L29.22,2.82 C27.15,2.93 24.88,3.12 22.71,3.4 C22.15,3.74 21.61,4.11 21.08,4.5 C22.54,4.36 24.08,4.25 25.68,4.16 L26.18,3.93 Z" id="Path" fill="#6ABF4B" fill-rule="nonzero"></path>
                <path d="M18.65,9.6 C17.98,9.52 17.33,9.44 16.71,9.35 L16.28,9.28 C16.11,9.5 15.93,9.71 15.77,9.94 C16.4556605,10.2005369 17.1570487,10.4176332 17.87,10.59 C18.12,10.26 18.37,9.92 18.64,9.59 L18.65,9.6 Z" id="Path" fill="#6ABF4B" fill-rule="nonzero"></path>
                <path d="M18.64,9.61 C18.37,9.92 18.12,10.26 17.87,10.61 L17.87,10.61 C18.12,10.26 18.37,9.92 18.64,9.61 Z" id="Path" fill="#6ABF4B" fill-rule="nonzero"></path>
                <path d="M52.29,10.25 C52.244257,9.92176352 52.3641035,9.59218575 52.61,9.37 L51,9.59 C51.44,10.11 51.87,10.65 52.26,11.21 L53.03,11.08 C52.6380683,10.9786254 52.3459229,10.6509488 52.29,10.25 Z" id="Path" fill="#6ABF4B" fill-rule="nonzero"></path>
                <path d="M52.61,9.37 C52.3641035,9.59218575 52.244257,9.92176352 52.29,10.25 C52.3428879,10.6455468 52.6258866,10.9717814 53.01,11.08 C53.51,10.99 54.01,10.9 54.46,10.79 C54.13,10.27 53.77,9.79 53.39,9.26 L52.81,9.35 L52.61,9.37 Z" id="Path" fill="#6ABF4B" fill-rule="nonzero"></path>
                <path d="M43.92,4.17 C45.53,4.26 47.08,4.37 48.55,4.51 C47.87,4.02 47.18,3.51 46.45,3.11 C44.28,2.97 42.17,2.87 40.32,2.82 C41.5611083,3.15166472 42.7668375,3.60381318 43.92,4.17 Z" id="Path" fill="#6ABF4B" fill-rule="nonzero"></path>
                <path d="M30,29.42 L22.4,29.42 C18.19,29.19 14.45,28.86 11.21,28.42 C10.8420164,28.3717691 10.5277165,28.1308851 10.3854938,27.7880866 C10.2432712,27.445288 10.2947329,27.0526543 10.5204938,26.7580866 C10.7462548,26.4635189 11.1120164,26.3117691 11.48,26.36 C14.67,26.78 18.36,27.11 22.48,27.36 L30,27.36 C30.5743761,27.36 31.04,27.8256239 31.04,28.4 C31.04,28.9743761 30.5743761,29.44 30,29.44 L30,29.42 Z" id="Path" fill="#06144D" fill-rule="nonzero"></path>
            </g>
        </g>
    </g>
</svg>