<?xml version="1.0" encoding="UTF-8"?>
<svg width="55px" height="60px" viewBox="0 0 55 60" version="1.1" xmlns="http://www.w3.org/2000/svg" xmlns:xlink="http://www.w3.org/1999/xlink">
    <title>Web Appliance Light</title>
    <g id="Iconography-(Product-Icons)-2.2.0?" stroke="none" stroke-width="1" fill="none" fill-rule="evenodd">
        <g id="Product-Icons-UPDATED" transform="translate(-725.000000, -1101.000000)" fill-rule="nonzero">
            <g id="Web-Appliance-Light" transform="translate(725.000000, 1101.000000)">
                <polygon id="Path" fill="#6BBF4E" points="10.64 18.94 27.23 12.03 43.83 18.94 43.83 41.06 27.23 47.97 10.64 41.06"></polygon>
                <path d="M54.47,48 L54.47,12 C54.4755455,11.9568441 54.4755455,11.9131559 54.47,11.87 L54.47,11.87 C54.4334811,11.5314121 54.2148191,11.2398627 53.9,11.11 L27.61,0.08 C27.3722058,-0.0304799832 27.0977942,-0.0304799832 26.86,0.08 L0.59,11.14 C0.26876261,11.2658608 0.0422901892,11.557588 6.76542156e-17,11.9 L6.76542156e-17,11.9 C-0.00327586451,11.9332528 -0.00327586451,11.9667472 -1.02348685e-16,12 L-1.02348685e-16,48 C-0.0055454879,48.0431559 -0.0055454879,48.0868441 -6.11490025e-16,48.13 L6.76542156e-17,48.13 C0.0385875456,48.4677688 0.256546495,48.7583807 0.57,48.89 L26.86,59.92 C27.0986518,60.0265278 27.3713482,60.0265278 27.61,59.92 L53.88,48.86 C54.1934535,48.7283807 54.4114125,48.4377688 54.45,48.1 L54.45,48.1 C54.459991,48.0674186 54.4666911,48.0339178 54.47,48 Z M1.94,14 L25.52,30 L1.94,46.08 L1.94,14 Z M28.18,2.41 L51.55,12.25 L28.2,28.17 L28.2,2.54 C28.2,2.54 28.18,2.46 28.18,2.41 Z M26.27,2.54 L26.27,28.17 L2.92,12.25 L26.29,2.41 C26.29,2.41 26.27,2.49 26.27,2.54 Z M26.27,31.83 L26.27,57.46 C26.27,57.46 26.27,57.54 26.27,57.59 L2.92,47.75 L26.27,31.83 Z M28.2,57.46 L28.2,31.83 L51.55,47.75 L28.18,57.59 C28.18,57.54 28.2,57.51 28.2,57.46 Z M29,30 L52.53,13.92 L52.53,46.08 L29,30 Z" id="Shape" fill="#06144D"></path>
            </g>
        </g>
    </g>
</svg>