<?xml version="1.0" encoding="UTF-8"?>
<svg width="64px" height="64px" viewBox="0 0 64 64" version="1.1" xmlns="http://www.w3.org/2000/svg" xmlns:xlink="http://www.w3.org/1999/xlink">
    <title>AnyConnect Secure Mobility Client Dark</title>
    <defs>
        <circle id="path-1" cx="29.93" cy="30.11" r="29.75"></circle>
    </defs>
    <g id="Iconography-(Product-Icons)-2.2.0?" stroke="none" stroke-width="1" fill="none" fill-rule="evenodd">
        <g id="Product-Icons-UPDATED" transform="translate(-521.000000, -151.000000)">
            <g id="AnyConnect-Secure-Mobility-Client-Dark" transform="translate(523.000000, 153.000000)">
                <g id="Group">
                    <mask id="mask-2" fill="white">
                        <use xlink:href="#path-1"></use>
                    </mask>
                    <g id="Mask"></g>
                    <g mask="url(#mask-2)" id="Path" stroke-width="3">
                        <g transform="translate(-88.000000, -32.000000)">
                            <path d="M129.14,51.53 C146.26,66.79 127.69,103.53 89.14,140.53 C53.94,174.33 25.85,195.26 10,180.46 C-5.85,165.66 -3.47,151.63 29.84,115.96 C63.15,80.29 103.86,28.98 129.14,51.53 Z" stroke="#FFFFFF"></path>
                            <path d="M229.16,15.45 C234.41,30.34 211.25,48.21 180.43,60.98 C149.61,73.75 120.43,72.19 115.22,55.57 C107.32,30.34 151.99,16.57 186.59,5.73 C218.44,-4.2 223.92,0.56 229.16,15.45 Z" stroke="#6DBE4F"></path>
                        </g>
                    </g>
                </g>
                <circle id="Oval" stroke="#FFFFFF" stroke-width="3" cx="29.93" cy="30.11" r="29.75"></circle>
            </g>
        </g>
    </g>
</svg>