<?xml version="1.0" encoding="UTF-8"?>
<svg width="151px" height="27px" viewBox="0 0 151 27" version="1.1" xmlns="http://www.w3.org/2000/svg" xmlns:xlink="http://www.w3.org/1999/xlink">
    <title>Cisco Secure Logo - Dark</title>
    <g id="Page-1" stroke="none" stroke-width="1" fill="none" fill-rule="evenodd">
        <g id="Cisco-Secure---with-bridge---2C" transform="translate(-9.000000, -42.000000)">
            <g id="Cisco-Secure-Logo---Dark" transform="translate(9.487000, 42.109000)">
                <polygon id="Fill-1" fill="#FFFFFF" points="13.3900322 25.1773312 15.464791 25.1773312 15.464791 16.7308682 13.3900322 16.7308682"></polygon>
                <path d="M25.9257235,20.8802251 C25.9257235,23.5561093 27.9733119,25.1802251 30.3083601,25.1802251 C31.2300643,25.1802251 31.938746,24.9598071 32.1998392,24.8845659 L32.1998392,22.6565916 C32.1096463,22.7043408 31.4289389,23.0956592 30.4561093,23.0956592 C29.0728296,23.0956592 28.1808682,22.1130225 28.1808682,20.8802251 C28.1808682,19.6122186 29.1117363,18.664791 30.4561093,18.664791 C31.4461415,18.664791 32.1159164,19.0686495 32.1998392,19.1110932 L32.1998392,16.8815113 C32.0040193,16.8234727 31.2827974,16.5858521 30.3083601,16.5858521 C27.7799035,16.5858521 25.9257235,18.4006431 25.9257235,20.8802251" id="Fill-2" fill="#FFFFFF"></path>
                <path d="M4.26446945,20.8802251 C4.26446945,23.5561093 6.31141479,25.1802251 8.64131833,25.1802251 C9.56993569,25.1802251 10.2755627,24.9598071 10.5366559,24.8845659 L10.5366559,22.6565916 C10.4442122,22.7043408 9.76736334,23.0956592 8.79437299,23.0956592 C7.40932476,23.0956592 6.51800643,22.1130225 6.51800643,20.8802251 C6.51800643,19.6122186 7.44807074,18.664791 8.79437299,18.664791 C9.78488746,18.664791 10.4508039,19.0686495 10.5366559,19.1110932 L10.5366559,16.8815113 C10.340836,16.8234727 9.61881029,16.5858521 8.64131833,16.5858521 C6.1170418,16.5858521 4.26446945,18.4006431 4.26446945,20.8802251" id="Fill-3" fill="#FFFFFF"></path>
                <path d="M38.7303859,23.0667203 C37.49791,23.0667203 36.5824759,22.0895498 36.5824759,20.8802251 C36.5824759,19.6765273 37.49791,18.6977492 38.7303859,18.6977492 C39.961254,18.6977492 40.878135,19.6765273 40.878135,20.8802251 C40.878135,22.0895498 39.961254,23.0667203 38.7303859,23.0667203 Z M38.7303859,16.5858521 C36.2001608,16.5858521 34.3864952,18.5086817 34.3864952,20.8802251 C34.3864952,23.2549839 36.2001608,25.1802251 38.7303859,25.1802251 C41.2588424,25.1802251 43.0741158,23.2549839 43.0741158,20.8802251 C43.0741158,18.5086817 41.2588424,16.5858521 38.7303859,16.5858521 L38.7303859,16.5858521 Z" id="Fill-4" fill="#FFFFFF"></path>
                <path d="M21.9541801,20.0199357 L21.3815113,19.8356913 C21.0414791,19.7266881 20.4310289,19.5493569 20.4310289,19.0467846 C20.4310289,18.6459807 20.8813505,18.3636656 21.714791,18.3636656 C22.4300643,18.3636656 23.307074,18.6083601 23.3369775,18.6184887 L23.3369775,16.8453376 C23.2744373,16.8289389 22.3252412,16.5810289 21.3146302,16.5810289 C19.3998392,16.5810289 18.2475884,17.6247588 18.2475884,19.1770096 C18.2475884,20.5509646 19.2149518,21.2371383 20.3670418,21.6040193 C20.496463,21.6472669 20.685209,21.7075563 20.8130225,21.7508039 C21.3254019,21.9131833 21.7364952,22.1546624 21.7364952,22.5734727 C21.7364952,23.0471061 21.2628617,23.3506431 20.2286174,23.3506431 C19.321865,23.3506431 18.4514469,23.088746 18.2688103,23.0424437 L18.2688103,24.9543408 C18.3726688,24.9747588 19.4061093,25.1802251 20.5088424,25.1802251 C22.0967846,25.1802251 23.914791,24.4800643 23.914791,22.3930868 C23.914791,21.3829582 23.3008039,20.4504823 21.9541801,20.0199357" id="Fill-5" fill="#FFFFFF"></path>
                <path d="M1.03231511,6.7733119 C0.465434084,6.7733119 0,7.2392283 0,7.81012862 L0,9.98874598 C0,10.5659164 0.465434084,11.0262058 1.03231511,11.0262058 C1.60064309,11.0262058 2.06157556,10.5659164 2.06157556,9.98874598 L2.06157556,7.81012862 C2.06157556,7.2392283 1.60064309,6.7733119 1.03231511,6.7733119" id="Fill-6" fill="#FFFFFF"></path>
                <path d="M6.69244373,11.0262058 C7.26093248,11.0262058 7.7233119,10.5659164 7.7233119,9.98874598 L7.7233119,4.94919614 C7.7233119,4.37990354 7.26093248,3.91173633 6.69244373,3.91173633 C6.12282958,3.91173633 5.66254019,4.37990354 5.66254019,4.94919614 L5.66254019,9.98874598 C5.66254019,10.5659164 6.12282958,11.0262058 6.69244373,11.0262058" id="Fill-7" fill="#FFFFFF"></path>
                <path d="M12.3522508,0 C11.7837621,0 11.3210611,0.46414791 11.3210611,1.03665595 L11.3210611,12.0599678 C11.3210611,12.6347267 11.7837621,13.1006431 12.3522508,13.1006431 C12.9191318,13.1006431 13.3815113,12.6347267 13.3815113,12.0599678 L13.3815113,1.03665595 C13.3815113,0.46414791 12.9191318,0 12.3522508,0" id="Fill-8" fill="#FFFFFF"></path>
                <path d="M19.0424437,9.98874598 L19.0424437,4.94919614 C19.0424437,4.37990354 18.5811897,3.91173633 18.0128617,3.91173633 C17.4463023,3.91173633 16.9836013,4.37990354 16.9836013,4.94919614 L16.9836013,9.98874598 C16.9836013,10.5659164 17.4463023,11.0262058 18.0128617,11.0262058 C18.5811897,11.0262058 19.0424437,10.5659164 19.0424437,9.98874598" id="Fill-9" fill="#FFFFFF"></path>
                <path d="M23.6729904,6.7733119 C23.1046624,6.7733119 22.6418006,7.2392283 22.6418006,7.81012862 L22.6418006,9.98874598 C22.6418006,10.5659164 23.1046624,11.0262058 23.6729904,11.0262058 C24.2356913,11.0262058 24.696463,10.5659164 24.696463,9.98874598 L24.696463,7.81012862 C24.696463,7.2392283 24.2356913,6.7733119 23.6729904,6.7733119" id="Fill-10" fill="#FFFFFF"></path>
                <path d="M29.333119,11.0262058 C29.8996785,11.0262058 30.361254,10.5659164 30.361254,9.98874598 L30.361254,4.94919614 C30.361254,4.37990354 29.8996785,3.91173633 29.333119,3.91173633 C28.7644695,3.91173633 28.3059486,4.37990354 28.3059486,4.94919614 L28.3059486,9.98874598 C28.3059486,10.5659164 28.7644695,11.0262058 29.333119,11.0262058" id="Fill-11" fill="#FFFFFF"></path>
                <path d="M36.0229904,12.0599678 L36.0229904,1.03665595 C36.0229904,0.46414791 35.5646302,0 34.9956592,0 C34.4284566,0 33.9684887,0.46414791 33.9684887,1.03665595 L33.9684887,12.0599678 C33.9684887,12.6347267 34.4284566,13.1006431 34.9956592,13.1006431 C35.5646302,13.1006431 36.0229904,12.6347267 36.0229904,12.0599678" id="Fill-12" fill="#FFFFFF"></path>
                <path d="M40.6450161,11.0262058 C41.2247588,11.0262058 41.6847267,10.5659164 41.6847267,9.98874598 L41.6847267,4.94919614 C41.6847267,4.37990354 41.2247588,3.91173633 40.6450161,3.91173633 C40.0778135,3.91173633 39.6176849,4.37990354 39.6176849,4.94919614 L39.6176849,9.98874598 C39.6176849,10.5659164 40.0778135,11.0262058 40.6450161,11.0262058" id="Fill-13" fill="#FFFFFF"></path>
                <path d="M46.3099678,6.7733119 C45.7409968,6.7733119 45.2826367,7.2392283 45.2826367,7.81012862 L45.2826367,9.98874598 C45.2826367,10.5659164 45.7409968,11.0262058 46.3099678,11.0262058 C46.873955,11.0262058 47.3371383,10.5659164 47.3371383,9.98874598 L47.3371383,7.81012862 C47.3371383,7.2392283 46.873955,6.7733119 46.3099678,6.7733119" id="Fill-14" fill="#FFFFFF"></path>
                <path d="M60.0771704,24.1017685 L60.0771704,21.5458199 C61.3675241,22.429582 63.4215434,22.8353698 64.7599678,22.8353698 C66.8139871,22.8353698 68.0562701,21.8324759 68.0562701,20.5660772 C68.0562701,17.3409968 60.0771704,18.2967846 60.0771704,13.3041801 C60.0771704,11.1300643 61.6061093,8.40691318 65.7157556,8.40691318 C67.0284566,8.40691318 68.7014469,8.66945338 69.7773312,9.38585209 L69.7773312,11.9426045 C68.4389068,11.1061093 66.8620579,10.7482315 65.7157556,10.7482315 C63.6376206,10.7482315 62.7299035,11.8945338 62.7299035,12.9935691 C62.7299035,16.2659164 70.6850482,15.2869775 70.6850482,20.327492 C70.7073955,22.9554662 68.5109325,25.1768489 64.6638264,25.1768489 C63.0869775,25.1768489 61.1049839,24.8181672 60.0771704,24.1017685" id="Fill-15" fill="#70B84A"></path>
                <polyline id="Fill-16" fill="#70B84A" points="75.0607717 8.40691318 85.0028939 8.40691318 85.0028939 10.8062701 77.7808682 10.8062701 77.7808682 15.5303859 84.6067524 15.5303859 84.6067524 17.8302251 77.7808682 17.8302251 77.7808682 22.7773312 84.978135 22.7773312 84.978135 25.1768489 75.0607717 25.1768489 75.0607717 8.40691318"></polyline>
                <path d="M88.6337621,16.959164 C88.6337621,12.2051447 92.194373,8.40691318 97.1379421,8.40691318 C98.5245981,8.40691318 100.436174,8.69340836 101.462219,9.57717042 L101.462219,12.157074 C100.125563,11.1300643 98.3564309,10.7482315 97.0676849,10.7482315 C93.6512862,10.7482315 91.333119,13.4234727 91.333119,16.7437299 C91.333119,20.0409968 93.5551447,22.8353698 97.3062701,22.8353698 C98.5004823,22.8353698 100.219775,22.5728296 101.462219,21.7371383 L101.462219,24.0064309 C100.291961,24.842283 98.572508,25.1768489 96.9956592,25.1768489 C91.8358521,25.1768489 88.6337621,21.4737942 88.6337621,16.959164" id="Fill-17" fill="#70B84A"></path>
                <path d="M105.887621,18.4884244 L105.887621,8.39517685 L108.586656,8.39517685 L108.586656,18.3426045 C108.586656,20.9935691 110.143408,22.792926 112.599518,22.792926 C115.055949,22.792926 116.516399,20.9935691 116.516399,18.3426045 L116.516399,8.39517685 L119.215434,8.39517685 L119.215434,18.3426045 C119.215434,22.2339228 116.587942,25.1768489 112.430225,25.1768489 C108.368489,25.1768489 105.887621,22.3554662 105.887621,18.4884244" id="Fill-18" fill="#70B84A"></path>
                <polyline id="Fill-19" fill="#70B84A" points="140.036656 8.3977492 149.984405 8.3977492 149.984405 10.7983923 142.758199 10.7983923 142.758199 15.5250804 149.587299 15.5250804 149.587299 17.8262058 142.758199 17.8262058 142.758199 22.776045 149.958682 22.776045 149.958682 25.1768489 140.036656 25.1768489 140.036656 8.3977492"></polyline>
                <path d="M126.773633,10.7961415 L129.348071,10.7961415 C131.501125,10.7961415 132.713666,11.9590032 132.713666,13.5680064 C132.713666,15.3004823 131.328778,16.4641479 129.173955,16.4641479 L126.773633,16.4641479 L126.773633,10.7961415 Z M132.07717,18.126045 C134.205466,17.3242765 135.48537,15.5840836 135.48537,13.3945338 C135.48537,10.6477492 133.282637,8.39517685 129.273473,8.39517685 L124.026849,8.39517685 L124.026849,25.1768489 L126.773633,25.1768489 L126.773633,18.6919614 L129.236817,18.6919614 L133.735852,25.1768489 L137.069614,25.1768489 L132.07717,18.126045 L132.07717,18.126045 Z" id="Fill-20" fill="#70B84A"></path>
            </g>
        </g>
    </g>
</svg>