<?xml version="1.0" encoding="UTF-8"?>
<svg width="62px" height="47px" viewBox="0 0 62 47" version="1.1" xmlns="http://www.w3.org/2000/svg" xmlns:xlink="http://www.w3.org/1999/xlink">
    <title>cisco-secure-email-cloud-on-dark</title>
    <g id="Iconography-(Product-Icons)-2.2.0?" stroke="none" stroke-width="1" fill="none" fill-rule="evenodd">
        <g id="Product-Icons-UPDATED" transform="translate(-523.000000, -476.000000)">
            <g id="cisco-secure-email-cloud-on-dark" transform="translate(524.000000, 477.000000)">
                <path d="M46.0677966,34.220339 C54,33.9152542 60.1016949,27.3559322 59.7966102,19.5762712 C59.4915254,12.1016949 53.5423729,6 46.0677966,5.84745763 C44.5423729,5.84745763 42.8644068,6.15254237 41.4915254,6.76271186 C36.7627119,-0.254237288 27.1525424,-2.08474576 20.1355932,2.79661017 C16.3220339,5.38983051 13.8813559,9.66101695 13.4237288,14.2372881 C12.6610169,14.0847458 11.8983051,13.9322034 10.9830508,13.9322034 C5.33898305,13.9322034 0.762711864,18.5084746 0.762711864,24.1525424 C0.762711864,29.7966102 5.33898305,34.3728814 10.9830508,34.3728814" id="Path" stroke="#FFFFFF" stroke-width="2" stroke-linecap="round"></path>
                <polygon id="Path" fill="#6ABF4B" fill-rule="nonzero" points="22.8813559 33.7627119 22.8813559 44.2881356 27.7627119 36.3559322"></polygon>
                <path d="M22.8813559,33.7627119 L27.6101695,36.3559322 L22.8813559,44.2881356 L22.8813559,33.7627119 M22.8813559,32.6949153 C22.2711864,32.6949153 21.8135593,33.1525424 21.8135593,33.6101695 C21.8135593,33.6101695 21.8135593,33.6101695 21.8135593,33.6101695 L21.8135593,44.1355932 C21.8135593,44.5932203 22.1186441,45.0508475 22.5762712,45.0508475 L22.8813559,45.0508475 C23.1864407,45.0508475 23.6440678,44.8983051 23.7966102,44.5932203 L28.5254237,36.6610169 C28.6779661,36.5084746 28.6779661,36.2033898 28.6779661,35.8983051 C28.5254237,35.5932203 28.3728814,35.440678 28.220339,35.2881356 L23.4915254,32.6949153 C23.1864407,32.6949153 23.0338983,32.6949153 22.8813559,32.6949153 L22.8813559,32.6949153 Z" id="Shape"></path>
                <polygon id="Path" fill="#6ABF4B" fill-rule="nonzero" points="39.9661017 15.9152542 9.61016949 27.6610169 21.9661017 32.2372881"></polygon>
                <path d="M40.1186441,15.7627119 L21.8135593,32.2372881 L9.45762712,27.6610169 L40.1186441,15.7627119 M41.0338983,14.0847458 C40.8813559,14.0847458 40.7288136,14.0847458 40.5762712,14.0847458 L9.30508475,26.7457627 C8.84745763,26.8983051 8.69491525,27.2033898 8.69491525,27.6610169 C8.69491525,28.1186441 9,28.4237288 9.30508475,28.5762712 L21.6610169,33.1525424 C21.8135593,33.1525424 21.9661017,33.1525424 21.9661017,33.1525424 C22.2711864,33.1525424 22.4237288,33 22.7288136,32.8474576 L41.7966102,15.7627119 C42.2542373,15.4576271 42.2542373,14.6949153 41.7966102,14.3898305 C41.6440678,14.0847458 41.3389831,14.0847458 41.0338983,14.0847458 L41.0338983,14.0847458 Z" id="Shape"></path>
                <polygon id="Path" fill="#6ABF4B" fill-rule="nonzero" points="41.9491525 15.4576271 36.6101695 40.0169492 22.8813559 32.6949153"></polygon>
                <path d="M41.9491525,15.4576271 L36.6101695,40.0169492 L22.8813559,32.6949153 L41.9491525,15.4576271 M41.9491525,14.5423729 C41.6440678,14.5423729 41.4915254,14.6949153 41.1864407,14.8474576 L22.1186441,31.9322034 C21.8135593,32.0847458 21.8135593,32.3898305 21.8135593,32.8474576 C21.8135593,33.1525424 22.1186441,33.4576271 22.4237288,33.6101695 L36.1525424,40.9322034 C36.3050847,41.0847458 36.4576271,41.0847458 36.6101695,41.0847458 C36.7627119,41.0847458 36.9152542,41.0847458 37.0677966,41.0847458 C37.3728814,40.9322034 37.5254237,40.6271186 37.6779661,40.3220339 L43.0169492,15.7627119 C43.1694915,15.3050847 42.8644068,14.8474576 42.559322,14.6949153 C42.4067797,14.5423729 42.2542373,14.5423729 41.9491525,14.5423729 L41.9491525,14.5423729 Z" id="Shape"></path>
            </g>
        </g>
    </g>
</svg>