<?xml version="1.0" encoding="UTF-8"?>
<svg width="61px" height="41px" viewBox="0 0 61 41" version="1.1" xmlns="http://www.w3.org/2000/svg" xmlns:xlink="http://www.w3.org/1999/xlink">
    <title>CloudLock Dark</title>
    <g id="Iconography-(Product-Icons)-2.2.0?" stroke="none" stroke-width="1" fill="none" fill-rule="evenodd">
        <g id="Product-Icons-UPDATED" transform="translate(-519.000000, -241.000000)" fill-rule="nonzero">
            <g id="CloudLock-Dark" transform="translate(519.000000, 241.000000)">
                <path d="M13,40.78 C12.4,40.78 7.37,40.68 4,37.34 C1.93356373,35.204936 0.846973635,32.3073624 1,29.34 C1.01511672,26.11438 2.39721782,23.0464295 4.80315269,20.8978649 C7.20908756,18.7493002 10.413212,17.7216278 13.62,18.07 C14.5873918,9.48043103 20.8755306,2.43924147 29.3014828,0.510544614 C37.727435,-1.41815224 46.452412,2.18654153 51.06,9.5 C51.2511371,9.80188942 51.266699,10.1828172 51.1008236,10.4992915 C50.9349482,10.8157658 50.6128361,11.0197066 50.2558236,11.0342915 C49.8988111,11.0488763 49.5611371,10.8718894 49.37,10.57 C45.1203567,3.81680467 36.9937863,0.58376844 29.2664549,2.57210096 C21.5391236,4.56043349 15.9823159,11.3143626 15.52,19.28 C15.5027521,19.569692 15.3605078,19.8376031 15.1301993,20.014173 C14.8998907,20.1907429 14.6042365,20.258554 14.32,20.2 C11.5513229,19.618517 8.66804592,20.3163215 6.47164507,22.099442 C4.27524422,23.8825625 2.99985411,26.5609197 3,29.39 C2.87123088,31.8043374 3.74718587,34.1643484 5.42,35.91 C8.36,38.81 13.01,38.78 13.06,38.78 L37.06,38.78 C37.6122847,38.78 38.06,39.2277153 38.06,39.78 C38.06,40.3322847 37.6122847,40.78 37.06,40.78 L13,40.78 L13,40.78 Z" id="Path" fill="#FFFFFF"></path>
                <path d="M59.94,23 L58.94,23 L58.94,22.17 C58.9987774,18.6593484 56.6203445,15.5752722 53.21,14.74 C51.0237175,14.2558243 48.735778,14.7876675 46.9872146,16.1865182 C45.2386512,17.585369 44.2175491,19.700759 44.21,21.94 L44.21,23 L43.06,23 C42.7753707,22.9999493 42.5026798,23.1143688 42.3033062,23.3175042 C42.1039326,23.5206396 41.9946296,23.7954214 41.9998111,24.08 L41.9998111,38.85 C42.0318542,39.4118675 42.497231,39.8509022 43.06,39.8500608 L59.94,39.8500608 C60.5047833,39.8560184 60.9731361,39.4141761 61,38.85 L61,24.08 C61.0081712,23.7946182 60.8997811,23.518213 60.6997984,23.3144571 C60.4998111,23.1107012 60.2254847,22.997164 59.94,23 Z M52.56,31.12 L52.56,34.61 C52.56,35.1954218 52.0854218,35.67 51.5,35.67 C50.9145782,35.67 50.44,35.1954218 50.44,34.61 L50.44,31.14 C49.6076645,30.7035229 49.1915223,29.7463959 49.44,28.84 C49.6611512,27.9089707 50.4837558,27.2451901 51.4404928,27.2257514 C52.3972298,27.2063128 53.2461173,27.8361325 53.5049031,28.7574107 C53.7636889,29.6786888 53.3669198,30.6584119 52.54,31.14 L52.56,31.12 Z M56.78,23 L46.23,23 L46.23,22 C46.2197863,20.4025012 46.9333986,18.886273 48.1709442,17.8760317 C49.4084899,16.8657903 51.0368872,16.4701739 52.6,16.8 C55.083456,17.3832495 56.8240365,19.6193541 56.78,22.17 L56.78,23 Z" id="Shape" fill="#6DBE4F"></path>
            </g>
        </g>
    </g>
</svg>