<svg xmlns="http://www.w3.org/2000/svg" xmlns:xlink="http://www.w3.org/1999/xlink" width="60" height="62" viewBox="0 0 60 62">
  <defs>
    <polygon id="secure-endpoint-vector-dark-a" points="0 0 10.385 0 10.385 10.385 0 10.385"/>
    <polygon id="secure-endpoint-vector-dark-c" points="0 0 10.385 0 10.385 10.385 0 10.385"/>
    <polygon id="secure-endpoint-vector-dark-e" points="0 61.01 60 61.01 60 0 0 0"/>
  </defs>
  <g fill="none" fill-rule="evenodd">
    <path fill="#6ABF4B" d="M52.7155521,27.8360755 C54.4125667,29.2108085 54.4125667,31.7991334 52.7155521,33.1736565 L23.4814957,56.8565364 C21.2360147,58.6756656 17.8847885,57.0774756 17.8847885,54.187641 L17.8847885,6.82209112 C17.8847885,3.9322565 21.2360147,2.33427635 23.4814957,4.15319572 L52.7155521,27.8360755 Z"/>
    <path fill="#FFF" d="M49.903917 40.601075C44.3279818 40.601075 39.8076451 36.0809481 39.8076451 30.5050129 39.8076451 24.9290777 44.3279818 20.4087411 49.903917 20.4087411 55.4798521 20.4087411 59.999979 24.9290777 59.999979 30.5050129 59.999979 36.0809481 55.4798521 40.601075 49.903917 40.601075zM5.19221852 35.7242561C2.32462469 35.7242561.0000419637643 33.3994636.0000419637643 30.5318697.0000419637643 27.6642759 2.32462469 25.3396932 5.19221852 25.3396932 8.05981235 25.3396932 10.3846049 27.6642759 10.3846049 30.5318697 10.3846049 33.3994636 8.05981235 35.7242561 5.19221852 35.7242561z"/>
    <g transform="translate(0 50.625)">
      <mask id="secure-endpoint-vector-dark-b" fill="#fff">
        <use xlink:href="#secure-endpoint-vector-dark-a"/>
      </mask>
      <path fill="#FFF" d="M10.3845629,5.19238637 C10.3845629,8.05998021 8.05977039,10.3847727 5.19217656,10.3847727 C2.32458272,10.3847727 0,8.05998021 0,5.19238637 C0,2.32479254 2.32458272,-8.94511436e-15 5.19217656,-8.94511436e-15 C8.05977039,-8.94511436e-15 10.3845629,2.32479254 10.3845629,5.19238637" mask="url(#secure-endpoint-vector-dark-b)"/>
    </g>
    <mask id="secure-endpoint-vector-dark-d" fill="#fff">
      <use xlink:href="#secure-endpoint-vector-dark-c"/>
    </mask>
    <path fill="#FFF" d="M10.3845629,5.19234441 C10.3845629,8.05993824 8.05977039,10.3847308 5.19217656,10.3847308 C2.32458272,10.3847308 0,8.05993824 0,5.19234441 C0,2.32475058 2.32458272,-4.19637643e-05 5.19217656,-4.19637643e-05 C8.05977039,-4.19637643e-05 10.3845629,2.32475058 10.3845629,5.19234441" mask="url(#secure-endpoint-vector-dark-d)"/>
    <path fill="#FFF" d="M6.30543326,4.01712821 L6.30543326,56.9926039 L39.0717895,30.504866 L6.30543326,4.01712821 Z M5.25612933,60.2389207 C5.10254196,60.2389207 4.9481153,60.2051399 4.80438941,60.1363193 C4.43951448,59.9621697 4.20724504,59.5939376 4.20724504,59.1898266 L4.20724504,1.82011533 C4.20724504,1.41579446 4.43951448,1.04756243 4.80438941,0.873412808 C5.16905452,0.699263186 5.60149111,0.75024916 5.91579971,1.00433975 L41.400149,29.6890905 C41.6464763,29.8882085 41.7895727,30.1880396 41.7895727,30.504866 C41.7895727,30.8216925 41.6464763,31.1215236 41.400149,31.3206416 L5.91579971,60.0056022 C5.72549404,60.1596092 5.49196569,60.2389207 5.25612933,60.2389207 L5.25612933,60.2389207 Z"/>
    <mask id="secure-endpoint-vector-dark-f" fill="#fff">
      <use xlink:href="#secure-endpoint-vector-dark-e"/>
    </mask>
    <polygon fill="#FFF" points="5.437 31.554 40.741 31.554 40.741 29.456 5.437 29.456" mask="url(#secure-endpoint-vector-dark-f)"/>
  </g>
</svg>
