<?xml version="1.0" encoding="UTF-8"?>
<svg width="62px" height="62px" viewBox="0 0 62 62" version="1.1" xmlns="http://www.w3.org/2000/svg" xmlns:xlink="http://www.w3.org/1999/xlink">
    <title>Firewall Dark</title>
    <g id="Iconography-(Product-Icons)-2.2.0?" stroke="none" stroke-width="1" fill="none" fill-rule="evenodd">
        <g id="Product-Icons-UPDATED" transform="translate(-520.000000, -626.000000)" fill-rule="nonzero">
            <g id="Firewall-Dark" transform="translate(520.000000, 626.000000)">
                <path d="M61,62 L17.48,62 C16.9277153,62 16.48,61.5522847 16.48,61 L16.48,45.52 L1,45.52 C0.44771525,45.52 0,45.0722847 0,44.52 L0,1 C0,0.44771525 0.44771525,0 1,0 L44.52,0 C45.0722847,0 45.52,0.44771525 45.52,1 L45.52,16.48 L61,16.48 C61.5522847,16.48 62,16.9277153 62,17.48 L62,61 C62,61.5522847 61.5522847,62 61,62 Z M18.48,60 L60,60 L60,18.48 L44.52,18.48 C43.9677153,18.48 43.52,18.0322847 43.52,17.48 L43.52,2 L2,2 L2,43.52 L17.48,43.52 C18.0322847,43.52 18.48,43.9677153 18.48,44.52 L18.48,60 Z" id="Shape" fill="#6BBF4E"></path>
                <path d="M44.44,46.11 C43.9796724,46.1044936 43.5391635,45.9218436 43.21,45.6 C43.0508837,45.4396087 42.9251283,45.2492763 42.84,45.04 C42.7438127,44.8264134 42.6960066,44.5942121 42.7,44.36 C42.6896647,44.2502428 42.6896647,44.1397572 42.7,44.03 C42.7261052,43.9167568 42.7629383,43.8062577 42.81,43.7 C42.8493056,43.5931278 42.9031449,43.4921791 42.97,43.4 C43.0286172,43.3016975 43.0991511,43.2110111 43.18,43.13 C43.2634315,43.0489549 43.3537739,42.9753426 43.45,42.91 C43.5413164,42.8442479 43.6426085,42.7936019 43.75,42.76 C43.8528159,42.7129647 43.9599951,42.6761218 44.07,42.65 C44.2982631,42.6100254 44.5317369,42.6100254 44.76,42.65 C44.8723756,42.6791125 44.982632,42.7158647 45.09,42.76 C45.1947533,42.7998674 45.2952541,42.8501177 45.39,42.91 C45.4799887,42.9754054 45.5636841,43.0490574 45.64,43.13 C45.7268456,43.2080901 45.8010603,43.2991717 45.86,43.4 C45.9225468,43.4965518 45.9793131,43.5967276 46.03,43.7 C46.070524,43.8068558 46.1006631,43.9173659 46.12,44.03 C46.1303353,44.1397572 46.1303353,44.2502428 46.12,44.36 C46.1197272,44.5919097 46.0791221,44.8220049 46,45.04 C45.907556,45.2501974 45.7750945,45.4403985 45.61,45.6 C45.2986789,45.9120628 44.8805209,46.0943368 44.44,46.11 L44.44,46.11 Z" id="Path" fill="#FFFFFF"></path>
                <path d="M35.9999712,44.36 C35.9999712,43.3990245 36.7790245,42.6199712 37.74,42.6199712 L37.74,42.6199712 C38.2032069,42.6173378 38.648356,42.7994828 38.9768354,43.1260851 C39.3053147,43.4526874 39.49,43.8967855 39.49,44.36 L39.49,44.36 C39.49,45.3264983 38.7064983,46.11 37.74,46.11 L37.74,46.11 C37.2767855,46.11 36.8326874,45.9253147 36.5060851,45.5968354 C36.1794828,45.268356 35.9973378,44.8232069 35.9999712,44.36 L35.9999712,44.36 Z M29.28,44.36 C29.279937,43.4067811 30.0468441,42.6309565 31,42.62 L31,42.62 C31.9609755,42.62 32.7400288,43.3990245 32.7400288,44.36 L32.7400288,44.36 C32.7426622,44.8232069 32.5605172,45.268356 32.2339149,45.5968354 C31.9073126,45.9253147 31.4632145,46.11 31,46.11 L31,46.11 C30.0374092,46.1044994 29.26,45.3226065 29.26,44.36 L29.28,44.36 Z M22.56,44.36 C22.5599924,43.8967855 22.7446853,43.4526874 23.0731646,43.1260851 C23.401644,42.7994828 23.8467931,42.6173378 24.31,42.6199712 L24.31,42.6199712 C25.2513943,42.6470627 26.0003889,43.4182169 26.0000288,44.36 L26.0000288,44.36 C26.0026622,44.8232069 25.8205172,45.268356 25.4939149,45.5968354 C25.1673126,45.9253147 24.7232145,46.11 24.26,46.11 L24.26,46.11 C23.3052375,46.0936302 22.5398597,45.3149028 22.54,44.36 L22.56,44.36 Z" id="Shape" fill="#FFFFFF"></path>
                <path d="M15.8299711,37.65 C15.8273402,37.188521 16.0081151,36.7448872 16.3325547,36.4166969 C16.6569942,36.0885066 17.0985209,35.9026446 17.56,35.9 L17.56,35.9 C18.5264983,35.9 19.31,36.6835017 19.31,37.65 L19.31,37.65 C19.3044994,38.6125908 18.5226065,39.39 17.56,39.39 L17.56,39.39 C16.6029321,39.3844995 15.8299711,38.6070837 15.8299711,37.65 L15.8299711,37.65 Z M15.8299711,30.93 C15.8273402,30.468521 16.0081151,30.0248872 16.3325547,29.6966969 C16.6569942,29.3685066 17.0985209,29.1826446 17.56,29.18 L17.56,29.18 C18.5264983,29.18 19.31,29.9635017 19.31,30.93 L19.31,30.93 C19.2991017,31.8903189 18.5203656,32.6646051 17.56,32.67 L17.56,32.67 C16.6052039,32.6591026 15.8353941,31.8848431 15.8299711,30.93 L15.8299711,30.93 Z M15.8299702,24.21 C15.8244365,23.247365 16.5974116,22.4609856 17.56,22.45 L17.56,22.45 C18.5281136,22.4555007 19.31,23.2418707 19.31,24.21 L19.31,24.21 C19.299043,25.1686788 18.5187414,25.9400626 17.56,25.94 L17.56,25.94 C16.6068192,25.9345375 15.8354625,25.1631808 15.8299702,24.21 Z" id="Shape" fill="#FFFFFF"></path>
                <path d="M17.57,19.22 C16.6057361,19.2200623 15.8209575,18.4442017 15.81,17.48 C15.8128402,17.0171572 15.9999716,16.5745194 16.33,16.25 C16.4120379,16.1713651 16.498871,16.0978909 16.59,16.03 C16.6860434,15.9661566 16.7903353,15.9156927 16.9,15.88 C17.0016311,15.8300575 17.109142,15.7931006 17.22,15.77 C17.7936995,15.6576677 18.3857351,15.8375266 18.8,16.25 C18.8808489,16.3310111 18.9513828,16.4216975 19.01,16.52 C19.0788383,16.6109251 19.1328407,16.7121795 19.17,16.82 C19.221474,16.9209879 19.2585027,17.0287076 19.28,17.14 C19.2896508,17.2531279 19.2896508,17.3668721 19.28,17.48 C19.2843197,17.9422906 19.1001757,18.3864026 18.77,18.71 C18.6015091,18.8689399 18.4091822,19.0005319 18.2,19.1 C17.998423,19.1757879 17.785323,19.2163784 17.57,19.22 L17.57,19.22 Z" id="Path" fill="#FFFFFF"></path>
                <path d="M36,17.48 C36,16.5190245 36.7790245,15.7399712 37.74,15.7399712 L37.74,15.7399712 C38.2032069,15.7373378 38.648356,15.9194828 38.9768354,16.2460851 C39.3053147,16.5726874 39.49,17.0167855 39.49,17.48 L39.49,17.48 C39.49,17.9432145 39.3053147,18.3873126 38.9768354,18.7139149 C38.648356,19.0405172 38.2032069,19.2226622 37.74,19.2200288 L37.74,19.2200288 C36.7790245,19.2200288 36,18.4409755 36,17.48 Z M29.28,17.48 C29.279937,16.5267811 30.0468441,15.7509565 31,15.74 L31,15.74 C31.9609755,15.74 32.74,16.5190245 32.74,17.48 L32.74,17.48 C32.74,18.4409755 31.9609755,19.22 31,19.22 L31,19.22 C30.0390245,19.22 29.26,18.4409755 29.26,17.48 L29.28,17.48 Z M22.56,17.48 C22.5599924,17.0167855 22.7446853,16.5726874 23.0731646,16.2460851 C23.401644,15.9194828 23.8467931,15.7373378 24.31,15.7399712 L24.31,15.7399712 C25.249124,15.7722051 25.9951825,16.5403363 26,17.48 L26,17.48 C25.9945372,18.4387036 25.2187036,19.2145372 24.26,19.22 L24.26,19.22 C23.3068441,19.2090435 22.539937,18.4332189 22.54,17.48 L22.56,17.48 Z" id="Shape" fill="#FFFFFF"></path>
                <path d="M42.6999712,37.65 C42.6973378,37.1867931 42.8794828,36.741644 43.2060851,36.4131646 C43.5326874,36.0846853 43.9767855,35.9 44.44,35.9 L44.44,35.9 C44.9032145,35.9 45.3473126,36.0846853 45.6739149,36.4131646 C46.0005172,36.741644 46.1826622,37.1867931 46.1800291,37.65 L46.1800291,37.65 C46.18268,38.1122931 46.0002199,38.5564277 45.6733238,38.8833238 C45.3464277,39.2102199 44.9022931,39.39268 44.44,39.3900291 L44.44,39.3900291 C43.4790245,39.3900291 42.6999712,38.6109755 42.6999712,37.65 L42.6999712,37.65 Z M42.6999712,30.93 C42.6973378,30.4667931 42.8794828,30.021644 43.2060851,29.6931646 C43.5326874,29.3646853 43.9767855,29.18 44.44,29.18 L44.44,29.18 C44.9032145,29.18 45.3473126,29.3646853 45.6739149,29.6931646 C46.0005172,30.021644 46.1826622,30.4667931 46.1800288,30.93 L46.1800288,30.93 C46.1800288,31.3914767 45.9966791,31.8340525 45.6703658,32.1603658 C45.3440525,32.4866791 44.9014767,32.67 44.44,32.67 L44.44,32.67 C43.4812964,32.6645372 42.7054628,31.8887036 42.6999712,30.93 L42.6999712,30.93 Z M42.6999712,24.21 C42.6973402,23.7458689 42.8791687,23.2996916 43.2054836,22.9696259 C43.5317986,22.6395602 43.9758688,22.4526446 44.44,22.45 L44.44,22.45 C44.9041312,22.4526446 45.3482014,22.6395602 45.6745164,22.9696259 C46.0008313,23.2996916 46.1826598,23.7458689 46.1800288,24.21 L46.1800288,24.21 C46.1800288,24.6705624 45.9963683,25.112117 45.6697643,25.4368439 C45.3431604,25.7615708 44.9005547,25.9426622 44.44,25.9400289 L44.44,25.9400289 C43.4829163,25.9400289 42.7055005,25.1670679 42.6999712,24.21 L42.6999712,24.21 Z" id="Shape" fill="#FFFFFF"></path>
            </g>
        </g>
    </g>
</svg>