<?xml version="1.0" encoding="UTF-8"?>
<svg width="54px" height="61px" viewBox="0 0 54 61" version="1.1" xmlns="http://www.w3.org/2000/svg" xmlns:xlink="http://www.w3.org/1999/xlink">
    <title>ISE Dark</title>
    <g id="Iconography-(Product-Icons)-2.2.0?" stroke="none" stroke-width="1" fill="none" fill-rule="evenodd">
        <g id="Product-Icons-UPDATED" transform="translate(-525.000000, -706.000000)" fill-rule="nonzero">
            <g id="ISE-Dark" transform="translate(525.000000, 706.000000)">
                <path d="M26.91,61.0000605 C15.1630113,61.0084931 4.77006983,53.390772 1.24199693,42.186107 C-2.28607596,30.981442 1.8673763,18.78342 11.5,12.06 C11.9530449,11.7459848 12.5747628,11.8578046 12.89,12.31 C13.2040152,12.7630449 13.0921954,13.3847628 12.64,13.7 C3.76180261,19.9009612 -0.0953369511,31.1259668 3.09617832,41.474326 C6.28769359,51.8226852 15.7972174,58.9253069 26.6258426,59.0485291 C37.4544678,59.1717514 47.1231541,52.2873646 50.5493269,42.0143101 C53.9754996,31.7412556 50.3747914,20.4313848 41.64,14.03 C41.3524012,13.817427 41.2000553,13.4675693 41.2403495,13.1122149 C41.2806438,12.7568605 41.5074565,12.4499962 41.8353495,12.3072149 C42.1632426,12.1644335 42.5424012,12.207427 42.83,12.42 C52.2277839,19.2899869 56.1353457,31.4285646 52.5101731,42.490806 C48.8850005,53.5530475 38.5510677,61.0245894 26.91,61.0000605 Z" id="Path" fill="#FFFFFF"></path>
                <path d="M14.15,32.53 L26.91,24.78 L39.84,32.53 C40.3519515,32.8313518 40.9997833,32.7684232 41.4441662,32.3741758 C41.8885491,31.9799284 42.0282118,31.344208 41.79,30.8 L28.15,0.8 C27.9302743,0.312218561 27.4449861,-0.00143039825 26.91,-0.00143039825 C26.3750139,-0.00143039825 25.8897257,0.312218561 25.67,0.8 L12.2,30.8 C11.9617882,31.344208 12.1014509,31.9799284 12.5458338,32.3741758 C12.9902167,32.7684232 13.6380485,32.8313518 14.15,32.53 Z" id="Path" fill="#6BBF4E"></path>
            </g>
        </g>
    </g>
</svg>