<svg xmlns="http://www.w3.org/2000/svg" width="72" height="50" viewBox="0 0 72 50">
  <g fill="none" fill-rule="evenodd" transform="translate(1 1)">
    <rect width="70" height="48" fill="#18191D" rx="2"/>
    <path fill="#253040" d="M2,0 L68,0 C69.1045695,-2.02906125e-16 70,0.8954305 70,2 L70,9 L70,9 L0,9 L0,2 C-1.3527075e-16,0.8954305 0.8954305,2.02906125e-16 2,0 Z"/>
    <path fill="#29384B" d="M-4.54747351e-13,9 L20,9 L20,48 L3,48 C1.34314575,48 -4.54544445e-13,46.6568542 -4.54747351e-13,45 L-4.54747351e-13,9 L-4.54747351e-13,9 Z"/>
    <rect width="70" height="48" stroke="#18191D" rx="2"/>
    <text fill="#F2F2F2" font-family="CiscoSansTT" font-size="14">
      <tspan x="36" y="32">Aa</tspan>
    </text>
  </g>
</svg>
